<svg width="192" height="192" viewBox="0 0 102 102" fill="none" xmlns="http://www.w3.org/2000/svg">
<path d="M70.3482 27.3488C70.9732 27.0301 71.575 26.668 72.1492 26.265C76.8029 22.9978 78.2373 16.9894 75.3367 12.8775C72.436 8.76563 66.316 8.09626 61.6623 11.3953C57.0085 14.6944 54.6179 20.5275 52.0201 27.3328L70.3482 27.3488ZM13.8657 48.5456H88.1504V86.3175C88.1504 88.0083 87.4788 89.6298 86.2832 90.8253C85.0877 92.0209 83.4662 92.6925 81.7754 92.6925H20.2407C18.55 92.6925 16.9285 92.0209 15.7329 90.8253C14.5374 89.6298 13.8657 88.0083 13.8657 86.3175V48.5456Z" stroke="white" stroke-width="3" stroke-linecap="round" stroke-linejoin="round"/>
<path d="M60.3234 48.5457H41.6765V92.6925H60.3234V48.5457Z" stroke="white" stroke-width="3" stroke-linecap="round" stroke-linejoin="round"/>
<path d="M31.6518 27.3488C31.03 27.0336 30.4333 26.6713 29.8668 26.265C25.2131 22.9978 23.7628 16.9894 26.6793 12.8775C29.5959 8.76563 35.6999 8.09626 40.3696 11.3953C45.0393 14.6944 47.3981 20.5275 50.0118 27.3328L31.6518 27.3488Z" stroke="white" stroke-width="3" stroke-linecap="round" stroke-linejoin="round"/>
<path d="M86.8594 27.3488H15.1406C12.5 27.3488 10.3594 29.4894 10.3594 32.13V43.7644C10.3594 46.405 12.5 48.5456 15.1406 48.5456H86.8594C89.5 48.5456 91.6406 46.405 91.6406 43.7644V32.13C91.6406 29.4894 89.5 27.3488 86.8594 27.3488Z" stroke="white" stroke-width="3" stroke-linecap="round" stroke-linejoin="round"/>
<path d="M62.0289 27.3488H39.9873V48.5456H62.0289V27.3488Z" stroke="white" stroke-width="3" stroke-linecap="round" stroke-linejoin="round"/>
</svg>
