<svg width="109" height="109" viewBox="0 0 109 109" fill="none" xmlns="http://www.w3.org/2000/svg">
<g clip-path="url(#clip0_77_59)">
<path d="M81.7501 29.7025C86.7667 29.7025 90.8334 25.6357 90.8334 20.6192C90.8334 15.6026 86.7667 11.5358 81.7501 11.5358C76.7335 11.5358 72.6667 15.6026 72.6667 20.6192C72.6667 25.6357 76.7335 29.7025 81.7501 29.7025Z" fill="white"/>
<path d="M68.1249 77.2084H59.0416C59.0416 84.7021 52.9103 90.8334 45.4166 90.8334C37.9228 90.8334 31.7916 84.7021 31.7916 77.2084C31.7916 69.7146 37.9228 63.5834 45.4166 63.5834V54.5C32.8816 54.5 22.7083 64.6734 22.7083 77.2084C22.7083 89.7434 32.8816 99.9167 45.4166 99.9167C57.9516 99.9167 68.1249 89.7434 68.1249 77.2084ZM81.7499 61.3125H73.3024L80.887 44.6446C83.6574 38.6042 79.2066 31.7917 72.4849 31.7917H48.8683C45.1895 31.7917 41.8741 33.9263 40.3753 37.2417L39.1037 40.6934C38.1499 43.2367 39.6033 46.0071 42.192 46.7338C44.4174 47.3696 46.7337 46.2342 47.642 44.0996L49.0045 40.875H59.0416L50.7303 59.4959C48.0053 65.5363 52.5016 72.6667 59.1324 72.6667H81.7499V90.8334C81.7499 93.3313 83.7937 95.375 86.2916 95.375C88.7895 95.375 90.8333 93.3313 90.8333 90.8334V70.3959C90.8333 65.4 86.7458 61.3125 81.7499 61.3125Z" fill="white"/>
</g>
<defs>
<clipPath id="clip0_77_59">
<rect width="109" height="109" fill="white"/>
</clipPath>
</defs>
</svg>
