<svg width="186" height="191" viewBox="0 0 186 191" fill="none" xmlns="http://www.w3.org/2000/svg">
<path d="M173.727 22.7003C169.764 21.1142 166.191 25.2808 162.734 29.3095C160.837 31.5243 157.966 34.8722 156.553 34.8706C152.275 34.0986 148.17 32.564 144.435 30.3399C142.952 29.5946 141.585 28.9091 140.438 28.4073C138.564 27.585 135.021 26.5149 131.27 25.3807C127.255 24.3051 123.318 22.9544 119.488 21.3381C116.914 18.8746 115.002 15.8026 113.928 12.4053C111.574 7.09998 109.141 1.61373 104.517 0.611803C102.124 0.495829 99.7487 1.08188 97.6842 2.29784C97.034 2.60928 96.3674 2.88533 95.6873 3.12479C93.9121 3.6021 92.1141 3.98987 90.3 4.28662C85.2965 4.68483 80.4793 6.36223 76.3107 9.15786C74.9205 11.0665 74.1838 13.373 74.2101 15.7341C74.1359 17.1149 73.8693 18.4785 73.418 19.7855C72.6771 20.0504 69.9852 18.7548 68.5382 18.0601C66.5634 16.8646 64.3305 16.161 62.0271 16.0082C59.8198 16.4284 57.7376 17.347 55.9393 18.694C54.5773 19.7025 53.0344 20.4401 51.3942 20.8666C49.8575 19.9176 48.5242 18.6733 47.4716 17.2056C45.2434 14.6233 42.9387 11.9515 40.1031 11.9672C30.4394 12.0206 17.5545 28.1484 14.6277 32.4665C8.11983 42.0779 0.173227 64.8284 0.522021 76.6919C0.794463 85.9723 6.68809 104.948 13.9649 111.144C22.2308 118.183 44.9597 122.974 55.1835 119.832C59.0225 118.652 62.1134 114.224 65.3872 109.536C67.2827 106.001 70.0502 103.009 73.4269 100.844C76.7982 99.9142 85.3138 103.061 89.9113 105.593C99.2357 111.827 107.558 119.442 114.593 128.178C117.174 131.839 119.531 135.653 121.652 139.599C124.474 145.022 127.811 150.161 131.616 154.946C133.069 156.526 135.38 159.507 138.055 162.96C149.93 178.284 160.36 190.956 167.743 190.802C169.09 190.687 170.36 190.12 171.344 189.192C175.891 184.394 179.666 178.919 182.533 172.963L183.546 171.175C186.222 166.601 185.045 155.951 183.906 145.652C183.221 141.138 182.922 136.573 183.012 132.008C183.247 130.172 183.599 128.095 183.971 125.894C185.303 118.019 186.814 109.092 184.799 102.614C182.662 98.2304 179.542 94.3995 175.681 91.4199C172.088 88.7162 169.208 85.1793 167.287 81.1142C166.64 77.3961 169.779 70.9753 172.547 65.3125C174.874 61.2068 176.582 56.7804 177.616 52.1761L177.87 50.1854C179.426 38.3142 180.516 25.4215 173.727 22.7003ZM96.9776 7.31325C97.8278 7.01968 98.6613 6.67996 99.4745 6.2956C100.763 5.6136 102.151 5.14024 103.587 4.89318C106.037 5.42564 108.101 10.0771 109.923 14.1814C111.231 18.5256 113.837 22.3654 117.392 25.1842C120.085 26.4351 122.874 27.466 125.732 28.2671L94.6802 38.9038L82.5797 10.5756C85.3697 9.7177 88.2164 9.05597 91.0987 8.59524C93.0791 8.26945 95.0413 7.84155 96.9776 7.31325ZM40.1243 16.3487C40.9408 16.3433 43.0309 18.765 44.1523 20.0668C45.7136 22.4965 48.0657 24.3127 50.8113 25.2085C53.5218 25.1025 56.126 24.1263 58.2383 22.4245C59.4791 21.5281 60.8562 20.8375 62.3166 20.379C63.8355 20.6883 65.2952 21.2384 66.6403 22.0085C69.7303 23.4943 72.9262 25.0311 75.487 23.6473C77.8233 22.3711 78.2059 19.262 78.5614 16.2477C78.6603 15.4072 78.8084 14.2411 79.0073 13.362L90.5251 40.3266L67.1563 48.332L55.9687 57.4986L31.0853 20.9133C33.5696 18.5158 36.7202 16.9247 40.1243 16.3487ZM18.2555 34.9199C21.0433 30.9113 24.231 27.1961 27.7694 23.8315L52.5649 60.2875L36.075 73.7986L5.32099 70.7053C7.40883 58.0865 11.7928 45.9575 18.2555 34.9199ZM61.7931 107.03C59.8995 110.5 57.1896 113.457 53.8976 115.645C45.0861 118.351 23.9417 113.883 16.8037 107.808C10.6934 102.602 5.14613 84.9134 4.90179 76.561C4.88814 76.0928 4.9079 75.5786 4.92308 75.071L37.4545 78.3405L67.0597 53.9089L76.8382 75.2928L70.9985 97.1459C70.1869 97.5231 69.4255 98.0001 68.7321 98.5659C66.0708 101.083 63.7393 103.927 61.7931 107.03ZM179.764 168.966L178.713 170.818C171.362 183.912 168.596 186.226 167.651 186.423C161.871 186.544 148.63 169.457 141.518 160.277C138.78 156.745 136.419 153.695 134.837 151.977C131.267 147.427 128.127 142.555 125.457 137.424C123.236 133.299 120.765 129.314 118.056 125.491C111.175 117.057 103.209 109.568 94.3647 103.221L108.67 87.707L141.412 117.944L145.624 138.049L180.095 151.247C180.824 158.487 181.329 166.291 179.764 168.966ZM180.614 103.915C182.32 109.394 180.84 118.138 179.651 125.163C179.269 127.428 178.908 129.565 178.667 131.456C178.503 136.365 178.799 141.279 179.552 146.133L179.576 146.356L149.42 134.811L145.413 115.674L111.641 84.4851L125.416 69.5453L163.016 77.8405C162.782 79.1705 162.766 80.5298 162.969 81.8649C163.722 86.2025 168.074 90.289 172.682 94.6128C175.924 97.1494 178.622 100.313 180.614 103.915ZM173.527 49.6146L173.266 51.6441C172.251 55.7512 170.685 59.7019 168.61 63.3885C166.909 66.6972 165.409 70.1057 164.119 73.5954L123.901 64.7259L90.4885 100.959C85.8828 98.5704 80.8884 97.0209 75.7394 96.3834L81.4767 74.9042L70.8624 51.6928L132.879 30.449C135.347 31.2064 137.492 31.8974 138.678 32.4177C139.765 32.8957 141.063 33.5472 142.471 34.2549C146.777 36.8646 151.571 38.5658 156.559 39.2538C159.985 39.2475 162.936 35.8026 166.059 32.1628C167.678 30.2723 171.04 26.3439 172.098 26.7689C176.3 28.4519 174.212 44.3813 173.527 49.6146Z" fill="white"/>
</svg>
