<svg width="425" height="387" viewBox="0 0 425 387" fill="none" xmlns="http://www.w3.org/2000/svg">
<g opacity="0.04">
<path d="M546.606 360.069C522.62 357.43 519.758 347.559 516.124 335.049C512.035 321.082 506.993 303.706 470.287 289.848C451.889 282.92 434.263 278.576 416.365 276.569C400.374 274.781 384.474 274.891 367.848 276.926C336.957 280.72 307.792 290.838 279.536 300.599C253.097 309.754 225.75 319.24 196.313 323.914C180.504 326.443 165.422 327.378 150.204 326.828C133.123 326.196 116.315 323.694 98.8705 319.157C68.3885 311.239 38.0883 308.49 8.83283 310.964C3.42694 311.431 -1.93353 312.064 -7.24857 312.889V313.741C-1.84267 312.916 3.56322 312.256 9.05997 311.789C38.0883 309.314 68.1159 312.064 98.3708 319.9C119.858 325.481 139.755 327.791 158.517 327.791C203.808 327.791 242.467 314.401 280.218 301.341C309.655 291.141 337.411 281.518 368.12 277.751C384.565 275.716 400.283 275.606 416.092 277.393C433.854 279.373 451.344 283.69 469.56 290.563C485.687 296.64 505.766 304.2 514.806 335.187C516.669 341.648 518.304 347.229 522.62 351.711C527.39 356.687 534.976 359.602 546.379 360.866C580.131 364.606 600.21 370.517 609.523 379.48C611.749 381.597 613.384 383.907 614.475 386.354H615.883C614.747 383.742 613.066 381.322 610.659 379.04C601.119 369.885 580.767 363.863 546.606 360.069Z" fill="#848484"/>
<path d="M520.18 369.094C491.611 366.511 488.931 361.316 483.117 349.993C478.03 340.127 470.354 325.176 440.33 303.492C399.951 274.304 357.119 292.553 307.519 313.688C257.238 335.125 200.235 359.393 130.65 341.913C103.988 335.207 77.0983 331.909 50.6632 332.047C30.9959 332.157 11.5103 334.19 -7.24857 338.093V338.973C11.5103 335.042 30.9505 333.009 50.6632 332.899C76.9166 332.734 103.624 336.059 130.105 342.71C161.445 350.598 193.104 350.735 226.806 343.177C256.284 336.554 282.719 325.286 308.291 314.402C332.819 303.959 355.983 294.092 377.649 290.574C401.586 286.672 421.163 290.959 439.286 304.069C469.127 325.643 476.758 340.484 481.8 350.296C487.613 361.619 490.566 367.308 519.999 369.974C537.213 371.54 547.978 375.388 552.021 381.407C553.02 382.918 553.61 384.567 553.837 386.354H555.2C555.018 384.457 554.382 382.698 553.292 381.104C549.023 374.728 537.895 370.716 520.18 369.094Z" fill="#848484"/>
<path d="M379.009 331.955C366.386 326.878 349.449 327.042 328.698 332.531C312.216 336.868 293.281 344.553 272.394 355.312C251.053 366.345 231.982 378.422 220.086 386.354H221.902C233.799 378.422 252.415 366.675 273.257 355.916C294.053 345.184 312.852 337.554 329.198 333.245C349.495 327.893 365.977 327.674 378.192 332.614C406.571 344.059 421.646 363.381 434.95 380.425C436.539 382.429 438.038 384.405 439.582 386.326H441.08C439.445 384.295 437.811 382.209 436.176 380.069C422.872 362.942 407.706 343.51 379.009 331.955Z" fill="#848484"/>
<path d="M342.926 360.812C337.044 358.263 329.443 358.319 320.35 360.978C313.202 363.084 305.103 366.796 296.281 372.032C287.866 377.046 280.311 382.503 275.334 386.354H277.099C291.214 375.578 323.562 353.443 342.111 361.477C354.1 366.685 361.113 377.018 367.175 386.354H368.623C362.47 376.852 355.412 366.214 342.926 360.812Z" fill="#848484"/>
<path d="M118.914 360.375C107.238 358.569 95.1533 356.707 84.2953 354.49C57.3546 348.933 26.1434 353.614 4.69983 358.514C0.474735 359.472 -3.52321 360.485 -7.24857 361.498V362.401C-3.38692 361.361 0.792753 360.293 5.19958 359.28C26.4159 354.435 57.3091 349.809 83.841 355.284C94.699 357.528 106.829 359.39 118.55 361.196C144.9 365.248 169.797 369.08 171.523 376.034C172.25 378.963 168.888 382.384 161.347 386.354H163.346C170.478 382.384 173.613 378.935 172.886 375.897C171.023 368.396 146.899 364.7 118.914 360.375Z" fill="#848484"/>
<path d="M101.445 372.156C92.4702 371.21 81.5465 371.265 71.484 372.323C52.8547 374.272 16.412 380.508 -7.24857 384.711V385.574C16.412 381.371 53.0813 375.107 71.7559 373.131C81.6825 372.101 92.4249 372.017 101.264 372.964C114.046 374.328 118.533 377.195 120.074 379.394C121.479 381.371 121.117 383.709 119.032 386.354H120.573C122.567 383.626 122.794 381.176 121.298 379.06C118.261 374.773 108.833 372.936 101.445 372.156Z" fill="#848484"/>
<path d="M48.6708 220.533C69.2201 228.9 82.6316 240.901 94.4065 251.497C107.773 263.498 119.366 273.874 137.46 275.553C139.142 275.719 140.87 275.774 142.597 275.774C156.554 275.774 173.148 270.902 194.198 260.635C209.973 252.929 223.112 245.938 234.705 239.745C259.164 226.671 276.849 217.23 296.398 214.175C316.357 211.037 338.27 214.34 372.003 225.542C399.554 234.708 432.423 241.011 462.111 242.827C475.931 243.681 488.479 243.515 498.436 242.304C508.937 241.038 516.302 238.754 520.258 235.478C525.668 230.992 526.986 222.652 502.391 208.367C472.976 191.275 439.516 189.21 404.1 187.036C380.641 185.605 356.364 184.091 331.859 178.118C304.127 171.375 280.077 159.649 258.3 142.337C242.206 129.538 223.43 123.483 203.927 124.831C190.652 125.74 177.604 129.978 165.147 137.382C152.645 144.869 141.37 155.19 131.732 168.072C124.548 177.623 116.638 182.522 107.409 183.017C87.4507 184.091 64.3555 163.778 42.0787 144.126C30.9403 134.3 19.4382 124.171 8.4816 116.904C2.79874 113.134 -2.38403 110.354 -7.24857 108.51V109.528C8.07244 115.638 24.7119 130.281 40.9421 144.594C52.126 154.447 63.7191 164.659 74.8575 172.09C86.7688 180.017 96.9525 183.898 105.909 183.898C106.454 183.898 107 183.871 107.545 183.843C117.274 183.32 125.594 178.283 132.959 168.43C142.552 155.631 153.69 145.392 166.102 137.988C178.331 130.694 191.106 126.538 204.063 125.657C223.021 124.363 241.434 130.309 257.209 142.86C279.122 160.31 303.4 172.09 331.314 178.889C356 184.917 380.368 186.403 403.918 187.862C439.106 190.036 472.34 192.073 501.436 208.973C525.35 222.872 524.258 230.799 519.167 235.01C511.711 241.148 490.434 243.763 462.247 242.029C432.742 240.212 400.054 233.937 372.64 224.826C338.588 213.514 316.402 210.211 296.035 213.404C276.167 216.514 258.391 226.01 233.796 239.167C222.203 245.359 209.109 252.351 193.334 260.03C169.966 271.425 152.281 276.104 137.642 274.755C120.139 273.159 108.727 262.92 95.4976 251.057C83.6318 240.405 70.1748 228.35 49.3982 219.872C32.1678 212.854 15.7557 209.33 0.434669 209.33C-2.15672 209.33 -4.70264 209.441 -7.24857 209.633V210.459C9.98188 209.055 28.7581 212.441 48.6708 220.533Z" fill="#848484"/>
<path d="M18.2248 301.294C39.2483 301.487 62.7692 304.047 83.5202 306.276C113.262 309.497 136.692 312.029 139.598 306.194C143.957 297.44 129.79 290.201 106.269 278.227C89.4231 269.639 68.3997 258.959 45.9231 243.6C29.0317 232.066 12.1857 226.836 -4.07007 228.103C-5.06903 228.185 -6.11339 228.295 -7.24857 228.433V229.286C-6.1588 229.149 -5.02362 229.011 -3.88844 228.928C11.9132 227.717 28.3052 232.837 44.9242 244.15C67.4915 259.565 88.515 270.272 105.406 278.888C128.473 290.641 142.413 297.743 138.327 305.973C135.784 311.093 111.673 308.478 83.7927 305.478C53.6878 302.23 18.361 298.404 -7.20316 301.707V302.56C-0.0288372 301.624 8.46229 301.184 18.2248 301.294Z" fill="#848484"/>
<path d="M77.9385 297.146C89.7072 297.146 96.3158 295.851 97.5832 293.232C100.39 287.526 76.988 277.245 62.7298 271.621C42.5872 263.655 18.5973 256.157 5.69698 253.759C1.39688 252.96 -2.94847 252.409 -7.2033 252.078V252.905C-3.08427 253.236 1.1253 253.787 5.2896 254.559C18.0993 256.929 41.9535 264.372 61.9603 272.31C85.2713 281.545 98.0811 289.263 96.2252 292.984C94.4147 296.623 78.3006 297.284 50.8253 294.858C28.5554 292.901 5.33486 289.511 -7.24857 287.361V288.215C5.42539 290.393 28.5101 293.728 50.599 295.685C61.6887 296.65 70.7415 297.146 77.9385 297.146Z" fill="#848484"/>
<path fill-rule="evenodd" clip-rule="evenodd" d="M148.004 260.441C146.688 260.441 145.418 260.358 144.192 260.166C133.075 258.487 124.227 253.724 118.601 246.375C112.929 238.887 111.023 229.225 113.155 218.407C115.107 208.662 120.779 199 129.672 190.467C161.299 160.049 187.572 143.367 207.764 140.89C214.252 140.092 220.197 140.78 225.324 142.954C244.554 151.058 257.097 158.947 268.16 165.904L268.567 166.16L268.666 166.222C285.771 176.983 299.298 185.494 328.917 190.412C347.657 193.522 356.505 196.385 355.915 199.193C355.461 201.367 349.109 203.102 336.994 204.368C325.241 205.579 308.271 206.322 287.943 206.487C272.606 206.625 256.679 210.231 239.209 217.581C223.963 224.022 209.533 232.418 196.783 239.851C177.952 250.834 161.481 260.441 148.004 260.441ZM130.852 190.907C122.094 199.331 116.468 208.883 114.562 218.517C112.475 229.17 114.335 238.667 119.916 246.017C125.316 253.146 133.847 257.771 144.555 259.368C145.69 259.533 146.87 259.615 148.049 259.615C160.936 259.615 177.225 250.119 195.828 239.274L195.83 239.273C208.58 231.813 223.055 223.389 238.438 216.921C256.134 209.488 272.333 205.8 287.942 205.662C308.225 205.497 325.105 204.753 336.767 203.542C351.786 201.973 354.372 200.074 354.599 199.083C355.235 195.945 336.631 192.504 328.599 191.183C298.56 186.173 284.902 177.584 267.66 166.711L267.473 166.593C256.402 159.63 243.865 151.745 224.598 143.615C221.059 142.129 217.156 141.386 212.891 141.386C211.348 141.386 209.715 141.496 208.081 141.688C188.298 144.138 162.297 160.682 130.852 190.907Z" fill="#848484"/>
<path d="M627.657 215.557C624.428 213.522 620.744 211.432 616.56 209.343C600.643 201.396 580.45 194.852 556.528 189.876C526.648 183.662 490.856 179.867 450.153 178.602C426.867 177.888 382.207 175.385 344.505 166.614C304.802 157.403 282.79 143.793 279.152 126.168C274.922 105.766 279.061 93.1178 292.204 86.3263C306.575 78.9024 332.589 78.5725 371.701 85.3914C398.852 90.1207 420.819 96.6098 438.464 101.834C455.883 107.003 469.663 111.073 481.942 111.787C495.268 112.557 505.682 109.285 515.688 101.174C522.055 96.0048 527.103 91.1106 531.56 86.7937C540.519 78.0775 547.023 71.781 557.619 69.4438C568.807 66.9692 583.952 69.0589 608.329 76.4278C615.287 78.5175 621.699 80.8546 627.657 83.2743V82.2844C621.881 79.9473 615.651 77.7201 608.965 75.6854C584.225 68.2065 568.762 66.1168 557.165 68.6465C546.113 71.0936 539.564 77.4726 530.423 86.3263C526.012 90.6157 520.963 95.4824 514.642 100.652C494.085 117.342 473.392 111.21 439.101 101.064C421.41 95.8124 399.353 89.2959 372.111 84.5666C332.498 77.6926 306.075 78.0501 291.34 85.6664C277.833 92.6504 273.558 105.546 277.833 126.25C281.562 144.205 303.847 158.036 344.05 167.384C381.934 176.183 426.776 178.685 450.107 179.427C490.674 180.665 526.284 184.459 556.028 190.646C579.768 195.595 599.824 202.084 615.605 209.948C620.244 212.257 624.246 214.567 627.657 216.767V215.557Z" fill="#848484"/>
<path d="M627.657 198.036C618.027 193.651 606.444 189.24 593.317 185.076C556.023 173.22 512.053 164.976 469.582 161.887C426.565 158.744 395.177 155.298 370.83 150.996C339.714 145.537 320.091 138.726 310.824 130.234C304.556 124.471 303.193 117.826 306.691 110.436C309.325 104.977 314.14 101.365 321.454 99.4072C346.21 92.7345 393.678 106.714 435.559 119.039C450.867 123.561 465.357 127.807 477.667 130.73C498.426 135.666 511.19 136.769 520.366 134.37C529.223 132.054 534.311 126.704 541.306 119.287C545.531 114.82 550.3 109.775 557.023 104.205C564.2 98.2491 573.285 95.1334 584.05 94.9404C598.767 94.6922 614.711 99.9586 627.657 105.749V104.729C607.534 95.8227 593.044 93.9753 584.05 94.1132C572.876 94.3062 563.428 97.5322 555.978 103.709C549.21 109.306 544.44 114.407 540.17 118.874C526.452 133.349 520.184 139.967 478.167 129.958C465.902 127.035 451.457 122.789 436.149 118.295C393.996 105.887 346.21 91.8246 320.909 98.6627C313.277 100.703 308.054 104.618 305.374 110.243C301.74 117.853 303.148 124.747 309.643 130.73C319.137 139.36 338.987 146.281 370.466 151.796C394.904 156.097 426.383 159.544 469.445 162.687C511.735 165.775 555.524 173.992 592.681 185.793C605.99 190.039 617.891 194.589 627.657 199.111V198.036Z" fill="#848484"/>
<path fill-rule="evenodd" clip-rule="evenodd" d="M471.735 145.249C471.891 145.317 471.979 145.354 471.993 145.36C477.394 147.798 479.255 149.798 477.667 151.332C475.851 152.948 469.996 153.578 462.281 153.578C451.705 153.578 437.545 152.4 425.109 150.893C394.836 147.25 365.97 141.059 347.906 134.348C327.572 126.788 320.674 118.598 327.981 110.654C329.932 108.517 333.2 107.148 337.648 106.545C351.99 104.6 378.996 110.572 417.847 124.241C445.149 133.827 469 144.075 471.735 145.249ZM459.694 152.701C472.266 152.893 475.624 151.605 476.487 150.838C477.939 149.496 474.399 147.497 471.176 146.045C469.996 145.524 381.038 107.011 343.412 107.011C341.415 107.011 339.6 107.12 337.921 107.339C333.881 107.887 330.931 109.12 329.161 111.037C325.53 114.982 325.575 118.981 329.342 122.953C332.746 126.569 339.237 130.157 348.587 133.636C366.514 140.292 395.199 146.456 425.336 150.071C438.271 151.633 450.48 152.564 459.694 152.701Z" fill="#848484"/>
<path fill-rule="evenodd" clip-rule="evenodd" d="M424.881 138.414C425.21 138.536 425.393 138.604 425.413 138.61C425.452 138.628 425.495 138.649 425.543 138.671C426.328 139.042 428.176 139.914 427.232 140.762C426.641 141.307 424.822 141.498 422.367 141.498C415.637 141.498 404.225 139.917 401.315 139.509C386.173 137.329 372.123 134.196 363.757 131.118C355.345 128.012 352.435 124.988 355.072 122.127C355.709 121.446 356.8 120.983 358.255 120.765C364.166 119.839 377.261 122.59 397.222 128.884C410.351 133.023 422.26 137.441 424.881 138.414ZM401.587 138.719C417.047 140.926 425.322 140.98 426.095 140.299C426.141 140.244 426.05 139.917 424.595 139.291C423.322 138.8 376.852 121.419 360.801 121.419C359.938 121.419 359.21 121.473 358.528 121.582C357.391 121.746 356.664 122.073 356.209 122.536C353.981 124.933 356.709 127.576 364.394 130.409C372.623 133.461 386.537 136.566 401.587 138.719Z" fill="#848484"/>
<path fill-rule="evenodd" clip-rule="evenodd" d="M156.918 239.769C152.388 240.924 148.675 241.392 145.64 241.392C139.48 241.392 136.083 239.439 134.226 237.431C122.134 224.42 149.444 182.528 186.584 166.19C197.68 161.321 207.644 159.34 216.159 160.331C223.179 161.156 229.203 163.934 234.095 168.61C238.896 173.176 241.205 178.457 240.888 183.904C240.571 189.322 237.627 194.521 232.419 198.922L231.015 200.105L230.933 200.174C213.657 214.758 195.807 229.827 156.918 239.769ZM187.399 166.877C170.596 174.276 154.064 187.947 143.194 203.433C133.004 217.956 129.924 231.132 135.404 237.018C139.073 240.951 146.093 241.612 156.374 238.971C194.963 229.096 212.717 214.105 229.883 199.582L231.287 198.399C236.359 194.136 239.213 189.102 239.53 183.848C239.847 178.567 237.582 173.451 232.962 169.05C228.297 164.594 222.545 161.926 215.933 161.156C214.574 160.991 213.17 160.908 211.766 160.908C204.564 160.908 196.412 162.916 187.399 166.877Z" fill="#848484"/>
<path fill-rule="evenodd" clip-rule="evenodd" d="M169.938 220.857C167.122 221.574 164.806 221.877 162.944 221.877C159.402 221.877 157.449 220.802 156.359 219.672C153.226 216.31 155.133 209.198 161.309 201.122C167.758 192.743 177.431 185.136 187.24 180.836C193.734 177.997 199.547 176.84 204.588 177.418C208.72 177.887 212.308 179.513 215.169 182.269C220.846 187.727 220.482 194.673 214.17 199.992C204.134 208.454 193.189 214.904 169.938 220.857ZM188.058 181.525C178.475 185.743 168.939 193.212 162.581 201.481C156.677 209.198 154.724 216.172 157.585 219.286C159.493 221.354 163.489 221.629 169.438 220.113C192.417 214.242 203.18 207.875 213.08 199.524C219.075 194.48 219.438 187.892 214.034 182.738C211.354 180.202 208.13 178.686 204.361 178.245C203.589 178.163 202.817 178.108 201.999 178.108C197.867 178.108 193.235 179.265 188.058 181.525Z" fill="#848484"/>
<path d="M180.253 206.08C180.837 206.08 181.555 205.999 182.409 205.783C189.055 204.105 192.153 202.265 195.028 199.858C196.914 198.288 197.048 196.205 195.342 194.609C194.444 193.77 193.366 193.283 192.064 193.121C190.537 192.931 188.74 193.283 186.809 194.122C180.927 196.692 175.897 203.077 178.008 205.323C178.322 205.647 178.951 206.08 180.253 206.08Z" fill="#848484" stroke="#575757" stroke-width="5"/>
<path d="M627.521 362.351C614.521 361.993 601.885 360.973 590.703 359.32C575.977 357.142 563.613 353.863 553.977 349.619C542.159 344.41 534.387 337.686 530.796 329.583C525.796 318.201 517.887 307.453 507.933 298.469C496.251 287.914 481.933 279.784 465.297 274.272C434.707 264.103 397.48 263.139 354.709 271.406C302.892 281.41 262.574 291.91 233.121 299.599C195.53 309.383 174.804 314.784 170.076 308.859C169.667 308.335 169.622 307.784 169.986 307.178C172.667 302.686 194.894 296.568 220.666 289.513C239.848 284.249 261.62 278.268 278.756 271.93C298.574 264.599 308.982 257.957 310.573 251.646C312.801 242.772 318.71 236.544 327.618 233.65C337.755 230.371 351.618 231.225 368.89 236.186C400.617 245.28 478.07 256.139 525.114 256.139C541.341 256.139 553.977 254.843 559.841 251.729C563.386 249.855 564.386 247.402 562.795 244.426C557.568 234.587 563.613 224.418 576.84 220.808C593.431 216.288 611.748 222.847 627.521 233.347V231.969C621.339 227.946 615.067 224.804 608.749 222.544C597.158 218.383 585.613 217.501 576.295 220.064C562.431 223.839 556.068 234.422 561.522 244.674C562.931 247.32 562.068 249.442 558.977 251.095C549.204 256.276 517.614 256.717 472.252 252.28C433.071 248.45 390.844 241.532 369.527 235.414C351.845 230.343 337.573 229.517 327.073 232.906C317.755 235.91 311.619 242.359 309.301 251.509C305.846 265.205 258.347 278.268 220.166 288.741C193.076 296.182 171.667 302.052 168.804 306.875C168.304 307.701 168.349 308.473 168.94 309.19C171.486 312.386 177.713 312.938 189.212 310.981C199.803 309.162 214.803 305.276 233.757 300.343C263.165 292.682 303.483 282.182 355.209 272.178C397.617 263.993 434.48 264.93 464.752 274.961C481.16 280.418 495.342 288.465 506.887 298.883C516.751 307.812 524.614 318.477 529.568 329.749C533.205 338.016 541.159 344.906 553.25 350.225C563.022 354.524 575.567 357.831 590.476 360.064C601.794 361.745 614.567 362.792 627.657 363.123V362.351H627.521Z" fill="#848484"/>
<path d="M42.8648 207.458C60.1013 211.73 76.5625 215.837 87.6887 215.837C90.6983 215.837 93.2974 215.534 95.4406 214.873C98.4501 213.935 100.365 212.254 101.186 209.911C103.147 204.399 93.4342 199.079 78.7057 191.031C64.114 183.066 44.1416 172.179 26.4948 155.862C14.5478 144.809 3.23922 137.698 -7.20297 134.528V135.438C2.87443 138.608 13.7726 145.553 25.3548 156.303C43.1384 172.73 63.1564 183.644 77.7937 191.638C92.1574 199.493 101.688 204.675 99.8637 209.718C99.0885 211.841 97.4469 213.274 94.8022 214.101C85.3632 217.105 64.9804 212.034 43.412 206.659C29.1851 203.131 14.4566 199.465 1.68885 197.812C-1.50308 197.398 -4.51262 197.122 -7.24857 196.985V197.812C-4.60382 197.949 -1.68548 198.197 1.41526 198.611C14.0462 200.292 28.6835 203.93 42.8648 207.458Z" fill="#848484"/>
<path d="M35.8463 192.606C40.5345 192.606 43.5097 191.894 44.7268 190.497C47.7019 186.99 38.7314 180.304 17.9953 170.55C8.61901 166.166 -1.11791 162.111 -7.24857 159.618V160.577C13.2621 168.879 48.2429 184.579 43.5547 190.113C42.563 191.291 39.8583 191.812 36.0717 191.812C26.1094 191.812 8.4387 188.36 -7.24857 184.688V185.565C-3.86769 186.359 -0.306499 187.154 3.29977 187.921C17.9502 191.045 28.8592 192.606 35.8463 192.606Z" fill="#848484"/>
<path fill-rule="evenodd" clip-rule="evenodd" d="M231.672 257.13C234.136 254.622 236.737 252.362 239.475 250.377C248.191 244.038 261.287 240.73 274.475 241.502C282.233 241.971 286.157 243.624 286.203 246.463C286.294 255.862 238.973 275.486 217.663 276.864C214.56 277.085 212.187 277.168 210.407 277.168C206.574 277.168 205.296 276.754 204.84 276.148C203.927 274.88 207.213 273.061 212.689 270.029C218.53 266.804 226.515 262.394 231.672 257.13ZM259.143 264.048C275.068 257.213 284.971 250.46 284.925 246.491C284.879 244.148 281.366 242.77 274.475 242.356C273.243 242.274 272.011 242.246 270.779 242.246C259.28 242.246 248.237 245.388 240.616 250.901C237.924 252.83 235.368 255.09 232.95 257.543C227.749 262.87 219.725 267.303 213.851 270.548L213.693 270.635C213.624 270.674 213.555 270.712 213.486 270.75C209.626 272.892 205.671 275.085 206.209 275.789C206.528 276.23 208.764 276.616 217.617 276.038C227.383 275.404 243.673 270.69 259.143 264.048Z" fill="#848484"/>
<path d="M37.1759 109.759C47.4067 121.164 58.3651 132.9 69.0506 141.468C80.8274 150.863 91.0582 155.436 100.38 155.436C100.471 155.436 100.562 155.436 100.652 155.436C109.928 155.353 118.113 150.835 125.661 141.689C141.53 122.487 160.309 110.75 179.998 107.803C193.457 105.792 207.28 107.775 221.058 113.753C231.652 118.354 239.2 119.869 244.02 118.409C251.159 116.26 251.568 108.243 252.023 98.9867C252.523 88.8209 253.069 77.2775 263.118 71.988C267.801 69.536 274.076 68.6269 282.306 69.1779C303.859 70.6656 324.366 68.682 341.6 63.5027C357.969 58.5713 370.655 51.0502 378.249 41.7384C385.478 32.8949 387.57 22.9219 384.387 12.9489C383.068 8.78887 380.84 4.71151 377.794 0.716797H376.248C386.888 14.3264 387.479 28.6522 377.066 41.3802C369.609 50.5267 357.15 57.9101 341.054 62.7588C324.048 67.8831 303.768 69.8115 282.488 68.3514C273.985 67.7729 267.165 68.7647 262.254 71.3543C251.75 76.8643 251.205 88.6005 250.659 98.9316C250.25 107.555 249.841 115.709 243.429 117.638C239.064 118.96 232.016 117.445 221.831 113.037C207.69 106.921 193.503 104.882 179.634 106.949C159.536 109.979 140.439 121.853 124.433 141.276C117.113 150.119 109.337 154.472 100.652 154.555C100.562 154.555 100.471 154.555 100.38 154.555C80.6001 154.555 58.9107 132.212 38.3581 109.29C25.7629 95.24 10.4394 85.5975 -7.24857 80.4733V81.3824C9.98468 86.5618 24.8989 96.0389 37.1759 109.759Z" fill="#848484"/>
<path d="M54.1592 74.592C62.0169 74.592 68.9207 73.9052 74.5982 72.504C87.5429 69.317 93.9925 62.8057 93.7654 53.0799C93.5383 43.5465 97.7623 36.4582 106.665 31.4304C128.602 18.9573 175.839 21.1002 225.892 23.4081C233.25 23.7377 240.881 24.0949 248.375 24.3971C255.688 24.6993 262.41 24.8367 268.587 24.8367C296.793 24.8367 312.78 21.7871 316.278 15.7154C318.73 11.4294 314.643 6.23685 308.102 1.18164H306.331C313.053 6.20937 317.322 11.347 315.006 15.4681C311.009 22.4465 288.662 25.1939 248.511 23.6004C241.017 23.2982 233.386 22.941 226.028 22.6113C175.703 20.3035 128.148 18.1331 105.756 30.8535C96.5814 36.0735 92.2211 43.3541 92.4482 53.1349C92.6753 62.476 86.4982 68.7675 74.144 71.7897C58.247 75.691 32.403 73.9052 3.1526 66.8993C-0.344734 66.0751 -3.79665 65.1684 -7.24857 64.2343V65.141C-3.97833 66.0476 -0.662673 66.8993 2.65298 67.6686C21.7748 72.2292 39.5794 74.592 54.1592 74.592Z" fill="#848484"/>
<path d="M28.2033 48.5181C44.5448 47.9127 58.3896 42.7111 69.4201 33.0512L71.2358 31.455C84.6267 19.7309 91.3448 13.8414 101.286 11.392C111.227 8.94262 124.709 9.8233 151.581 11.6122C154.85 11.8323 158.345 12.0525 162.022 12.3002C193.842 14.3918 216.902 15.0799 232.517 14.4193C247.542 13.7864 256.076 11.9424 259.344 8.61237C261.341 6.5758 261.251 4.09889 259.616 1.18164H258.209C259.843 3.9888 260.025 6.32811 258.164 8.19955C255.168 11.2544 246.77 13.0158 232.426 13.6212C216.902 14.2542 193.933 13.5662 162.158 11.4746C158.481 11.2269 154.986 11.0067 151.717 10.7865C124.618 8.97014 111.045 8.06194 100.741 10.6214C90.437 13.1809 83.6281 19.1255 70.101 30.9871L68.2852 32.5833C57.4817 42.0231 44 47.1145 28.1125 47.6925C19.9418 47.9952 8.09424 47.1421 -7.24857 42.7937V43.7019C6.23313 47.4723 17.0366 48.5732 25.0712 48.5732C26.1606 48.5732 27.2047 48.5456 28.2033 48.5181Z" fill="#848484"/>
<path d="M46.6203 28.9223C53.0937 27.0912 57.5299 23.9755 59.7481 19.6572C63.0526 13.3712 63.7769 7.03042 63.2337 1.18164H61.8756C62.4189 6.94843 61.6946 13.2072 58.4353 19.4112C56.3077 23.5109 52.0978 26.4626 45.9866 28.1844C31.4556 32.3114 8.82157 28.9223 -7.24857 25.588V26.4626C3.57048 28.7037 17.2414 30.9175 29.5543 30.9175C35.756 30.8902 41.6409 30.3435 46.6203 28.9223Z" fill="#848484"/>
<path d="M327.372 21.0296C318.323 31.7916 278.493 30.3328 278.038 30.3053C255.713 30.3053 234.979 29.3419 216.701 28.4611C189.51 27.1675 166.003 26.0665 148.634 28.7914C139.449 30.2227 132.311 32.6723 126.854 36.2505C120.943 40.1039 116.942 45.3059 114.578 52.1044C106.712 74.8393 86.1144 77.5642 69.5183 79.7386C59.5152 81.0598 50.8761 82.1883 48.0116 87.583C45.4198 92.5098 48.4208 102.308 55.7413 112.547C63.5619 123.53 74.2016 132.035 84.2047 135.282C87.433 136.328 90.6613 136.851 93.7077 136.851C99.5277 136.851 105.029 134.98 109.849 131.319C117.17 125.759 123.126 119.704 128.9 113.841C139.677 102.886 148.952 93.4456 163.366 91.3263C172.232 90.0327 182.554 91.6291 194.83 96.2806C211.108 102.419 222.384 104.345 229.341 102.171C237.98 99.4734 238.844 91.1336 239.753 82.2708C240.981 70.3804 242.254 58.0771 262.442 58.6276C267.08 58.7377 271.536 58.8203 275.855 58.8203C319.505 58.8203 347.833 52.5723 360.064 40.1864C369.703 30.4704 367.248 18.7451 363.519 10.653C361.746 6.77211 359.518 3.35911 357.563 0.716797H356.062C358.063 3.35911 360.382 6.90973 362.201 10.9007C368.794 25.2959 364.019 34.544 358.881 39.7736C345.695 53.0952 313.231 59.1781 262.488 57.8294C252.803 57.5817 246.346 60.0589 242.754 65.4261C239.617 70.0776 238.98 76.2706 238.389 82.2708C237.525 90.8859 236.661 99.0055 228.704 101.483C222.202 103.519 211.381 101.593 195.512 95.62C182.872 90.8584 172.232 89.2069 163.002 90.5831C148.043 92.7851 138.585 102.363 127.673 113.483C121.944 119.318 115.987 125.346 108.712 130.851C101.619 136.218 93.5713 137.457 84.7503 134.594C75.02 131.429 64.5622 123.089 56.878 112.272C49.8303 102.363 46.7384 92.5649 49.1938 87.8858C51.8309 82.9314 59.697 81.8855 69.7002 80.5919C78.0664 79.4909 87.5239 78.2523 95.9811 74.3439C105.757 69.8299 112.259 62.6186 115.805 52.297C120.216 39.4983 130.401 32.5072 148.861 29.6171C156.591 28.4061 165.639 27.9657 175.688 27.9657C187.873 27.9657 201.65 28.6263 216.473 29.3144C234.797 30.1676 255.531 31.1585 277.856 31.1585C277.856 31.1585 277.856 31.1585 277.902 31.1585C277.992 31.1585 288.268 31.5714 299.499 30.5805C314.777 29.2593 324.507 26.1766 328.508 21.4425C332.828 16.2955 330.054 9.35938 320.233 0.744321H318.596C328.599 9.27681 331.509 16.0753 327.372 21.0296Z" fill="#848484"/>
<path d="M330.148 31.1003C322.691 36.7524 300.138 39.096 264.991 37.8828C238.3 36.973 213.565 34.2986 213.338 34.271C213.201 34.2434 198.105 32.6167 181.1 34.6294C171.051 35.7874 162.321 37.9655 155.092 41.1087C146.043 45.0238 139.359 50.4277 135.267 57.1551C127.355 70.1963 118.489 79.1018 108.122 84.3955C99.1189 88.9999 90.3434 90.213 82.1589 91.0677C70.2005 92.3085 66.1537 96.9404 64.8806 100.607C62.3343 107.776 68.4727 117.453 78.0212 121.341C80.613 122.389 83.2502 122.913 85.7964 122.913C88.1608 122.913 90.4798 122.471 92.6623 121.562C101.62 117.867 110.805 110.754 120.535 103.254C139.041 88.9448 158.183 74.1666 177.417 81.5832C180.236 82.6585 182.964 83.7338 185.556 84.7815C199.651 90.3785 210.837 94.8174 217.885 92.722C222.068 91.4813 224.432 88.2003 225.296 82.3552C227.069 70.279 230.343 61.1805 240.574 56.0523C247.849 52.3853 258.216 51.0343 272.311 51.8614C311.778 54.205 337.787 49.959 349.654 39.289C359.157 30.7419 357.52 19.6307 354.474 11.8004C352.746 7.36147 350.382 3.44635 348.518 0.716797H347.063C348.927 3.41878 351.382 7.41661 353.155 11.9934C356.111 19.6582 357.702 30.5213 348.518 38.8202C336.968 49.2146 311.369 53.3227 272.448 51.0343C257.988 50.1796 247.303 51.6133 239.71 55.4181C229.161 60.7394 225.751 70.0033 223.932 82.3001C223.113 87.7592 220.976 90.9299 217.293 92.0052C210.928 93.88 200.061 89.5789 186.329 84.1198C183.692 83.0721 180.964 81.9968 178.144 80.9215C169.005 77.3924 159.138 78.2747 147.998 83.6235C138.268 88.2555 128.719 95.6446 119.489 102.786C109.85 110.257 100.71 117.288 91.9348 120.927C86.7968 123.05 81.977 121.975 78.7942 120.679C69.6549 116.957 63.7893 107.666 66.1992 100.8C67.4269 97.3816 71.2008 93.0529 82.3863 91.8949C90.7526 91.0126 99.71 89.7719 108.986 85.0296C119.535 79.6257 128.538 70.6099 136.54 57.4308C140.541 50.8413 147.043 45.5752 155.819 41.7704C162.867 38.71 171.46 36.587 181.282 35.429C187.647 34.6846 193.74 34.4364 198.878 34.4364C207.245 34.4364 212.974 35.0706 213.065 35.0706C213.292 35.0981 238.118 37.7725 264.9 38.6824C301.002 39.9231 323.328 37.552 331.194 31.5966C338.969 25.7239 340.788 17.8385 336.423 8.71246C334.922 5.59691 332.967 2.83978 331.239 0.716797H329.693C331.467 2.81221 333.558 5.67962 335.104 8.93303C338.06 15.1366 339.606 23.9594 330.148 31.1003Z" fill="#848484"/>
<path fill-rule="evenodd" clip-rule="evenodd" d="M185.498 42.021C190.324 40.584 195.69 40.28 200.65 41.192C205.476 42.0763 209.128 43.9278 211.473 46.6913C218.508 55.0094 212.285 69.6283 207.956 77.5871C206.829 79.6873 205.431 80.7927 203.582 81.0415L203.582 81.0415C203.311 81.0691 203.04 81.0967 202.77 81.0967C199.766 81.0967 196.316 78.9385 192.021 76.2519L191.947 76.2054C187.843 73.6353 183.198 70.7337 177.607 68.6887C168.272 65.262 163.672 61.4207 163.943 57.2202C164.439 49.897 180.087 43.6515 185.498 42.021ZM203.311 80.2401C204.619 80.0467 205.746 79.1071 206.693 77.3384C216.614 59.0442 213.187 50.5326 210.256 47.1059C208.091 44.5635 204.709 42.8501 200.245 42.0211C198.486 41.6895 196.682 41.5237 194.833 41.5237C191.857 41.5237 188.881 41.9382 186.085 42.7672C180.854 44.3424 165.747 50.3392 165.296 57.2479C165.025 61.1168 169.444 64.737 178.328 67.9702C184.002 70.0235 188.879 73.0803 192.828 75.5554L192.939 75.6251L192.99 75.6571C197.208 78.2965 200.841 80.5704 203.311 80.2401Z" fill="#848484"/>
<path fill-rule="evenodd" clip-rule="evenodd" d="M187.933 55.06C189.496 54.5896 191.238 54.4789 192.846 54.7833C194.454 55.0877 195.66 55.6964 196.419 56.6372C198.652 59.2936 196.732 63.8593 195.392 66.3496C195.168 66.82 194.722 67.4564 193.739 67.5948C193.605 67.6225 193.516 67.6225 193.382 67.6225C192.276 67.6225 191.214 66.9438 189.805 66.0436L189.764 66.0176C188.558 65.2428 187.173 64.3573 185.521 63.7486C182.528 62.6418 181.055 61.3689 181.144 59.9577C181.311 57.3131 187.086 55.3487 187.85 55.0889C187.901 55.0715 187.93 55.0617 187.933 55.06ZM193.471 66.7649C193.605 66.7649 193.873 66.5436 194.141 66.0731C195.124 64.1639 197.312 59.4599 195.302 56.9972C194.677 56.2777 193.784 55.8073 192.533 55.586C192.042 55.503 191.506 55.4476 191.015 55.4476C190.166 55.4476 189.362 55.5583 188.558 55.8073C187.352 56.1947 182.662 57.9933 182.528 60.0133C182.439 61.0648 183.69 62.0886 186.236 63.0294C188.022 63.6935 189.541 64.6619 190.747 65.4367C190.807 65.4743 190.869 65.5126 190.931 65.5514C191.881 66.1411 193.01 66.8428 193.471 66.7649Z" fill="#848484"/>
<path d="M331.104 376.988C329.934 376.316 328.449 376.047 326.74 376.155C320.936 376.531 313.018 381.506 307.034 385.889H308.789C314.503 381.748 321.791 377.311 326.875 376.962C328.179 376.881 329.259 377.069 330.159 377.58C333.263 379.328 336.728 382.528 339.877 385.889H341.451C338.167 382.339 334.433 378.898 331.104 376.988Z" fill="#848484"/>
<path fill-rule="evenodd" clip-rule="evenodd" d="M337.285 247.5C345.934 244.392 360.923 244.309 381.845 247.278C396.299 249.345 408.719 252.216 410.501 252.628C410.561 252.642 410.61 252.653 410.645 252.661C424.095 254.188 425.77 255.547 425.68 256.546C425.589 257.906 421.966 259.765 394.615 262.263C377.633 263.817 357.391 265.094 342.629 266.009L338.961 266.231C336.289 266.398 333.889 266.481 331.715 266.481C323.428 266.481 318.583 265.26 317.315 262.874C315.006 258.572 325.647 251.69 337.285 247.5ZM394.343 261.458C421.196 258.989 424.185 257.185 424.23 256.519C424.276 256.186 423.325 254.965 410.238 253.466L410.102 253.438C410.095 253.437 410.055 253.428 409.983 253.411C408.633 253.095 396.098 250.164 381.482 248.083C373.558 246.945 364.093 245.946 355.489 245.946C348.742 245.946 342.493 246.584 337.919 248.221C332.168 250.303 326.779 252.994 323.111 255.631C319.262 258.434 317.632 260.903 318.538 262.624C319.942 265.177 326.915 266.148 338.734 265.399L342.448 265.205C343.539 265.135 344.659 265.063 345.806 264.99C360.178 264.075 378.659 262.897 394.343 261.458Z" fill="#848484"/>
<path fill-rule="evenodd" clip-rule="evenodd" d="M346.904 73.1141C346.544 70.9381 351.447 68.3814 361.432 65.471C367.999 63.567 375.78 64.1654 381.267 67.0214C385.585 69.279 390.263 72.4885 387.924 75.1541C386.125 77.2213 380.413 78.3093 372.812 78.3093C367.729 78.3093 361.792 77.8197 355.585 76.8133C349.963 75.9157 347.129 74.6917 346.904 73.1141ZM355.9 76.0243C370.248 78.3635 384.056 77.7923 386.71 74.7731C388.239 73.0595 386.035 70.5843 380.368 67.6468C377.219 66.042 373.306 65.1988 369.348 65.1988C366.83 65.1988 364.311 65.5252 361.972 66.2052C352.841 68.8708 347.939 71.2915 348.209 73.0323C348.388 74.2019 351.042 75.2355 355.9 76.0243Z" fill="#848484"/>
<path d="M490.125 377.385C466.461 375.574 452.562 363.448 435.031 348.084C430.125 343.805 425.038 339.36 419.315 334.751C404.963 323.201 388.884 316.26 371.579 314.12C351.913 311.706 330.293 315.437 307.356 325.204C282.148 335.931 245.676 353.187 214.382 369.209C205.616 373.708 194.17 379.689 182.951 385.889H184.95C193.852 381.006 203.981 375.629 215.245 369.84C246.494 353.846 282.92 336.589 308.083 325.89C350.822 307.701 387.885 310.856 418.18 335.272C423.857 339.854 428.944 344.298 433.85 348.578C451.609 364.106 465.643 376.342 489.897 378.208C507.112 379.524 516.968 382.103 519.329 385.889H520.783C518.557 381.637 508.247 378.784 490.125 377.385Z" fill="#848484"/>
<path d="M360.748 345.596C352.139 343.324 343.302 343.598 334.465 346.39C312.555 353.288 292.695 361.445 275.432 370.67C264.818 376.336 256.802 381.537 250.88 385.889H252.702C266.185 376.117 292.24 360.597 335.057 347.102C343.53 344.447 351.957 344.173 360.156 346.335C376.691 350.688 389.627 364.1 397.553 374.611C400.605 378.608 403.155 382.522 405.205 385.889H406.663C404.568 382.44 401.971 378.416 398.828 374.283C387.167 358.817 374.322 349.155 360.748 345.596Z" fill="#848484"/>
<path fill-rule="evenodd" clip-rule="evenodd" d="M147.616 290.099C146.013 288.115 146.287 285.249 150.777 283.65C157.556 281.253 166.718 282.355 170.336 284.229C171.894 285.028 172.444 285.965 171.848 286.847C170.657 288.721 166.076 290.65 158.289 292.551C157.144 292.827 155.999 292.965 154.945 292.965C151.555 292.965 148.899 291.642 147.616 290.099ZM157.785 291.78C165.114 289.988 169.558 288.17 170.611 286.544C171.069 285.855 170.245 285.249 169.42 284.863C167.496 283.871 163.694 283.127 159.663 283.127C156.869 283.127 153.983 283.485 151.464 284.367C147.708 285.689 147.433 288.004 148.853 289.713C150.273 291.421 153.663 292.799 157.785 291.78Z" fill="#848484"/>
<path fill-rule="evenodd" clip-rule="evenodd" d="M219.901 357.811C218.138 360.581 199.012 366.624 192.682 368.219C191.325 368.583 190.059 368.723 188.793 368.695C184.905 368.695 181.875 367.156 180.383 365.309C178.484 362.959 178.846 359.574 184 357.699C193.043 354.398 214.792 353.866 219.133 356.16C220.037 356.608 220.308 357.195 219.901 357.811ZM184.679 358.427C180.248 360.049 179.931 362.875 181.604 364.946C183.277 367.016 187.301 368.695 192.139 367.436C200.142 365.393 217.188 359.686 218.59 357.503C218.726 357.307 218.771 357.084 218.228 356.804C214.34 354.761 192.953 355.405 184.679 358.427Z" fill="#848484"/>
<path fill-rule="evenodd" clip-rule="evenodd" d="M299.673 201.899C292.94 201.899 285.75 201.493 280.62 200.328C273.293 198.677 272.926 196.213 273.934 194.426C274.987 192.503 277.14 191.095 280.391 190.256C286.208 188.766 295.368 189.118 307.596 191.339C316.618 192.99 324.084 195.075 324.175 195.102C328.022 196.24 328.16 197.323 327.656 198.027C326.145 200.058 316.618 201.249 308.237 201.682C305.627 201.818 302.696 201.899 299.673 201.899ZM280.941 190.986C278.056 191.717 276.132 192.963 275.216 194.669C274.071 196.781 276.041 198.433 281.17 199.57C287.216 200.924 297.566 201.411 308.146 200.87C317.901 200.355 325.412 199.055 326.419 197.702C326.923 196.998 325.137 196.294 323.58 195.833C323.122 195.698 303.245 190.174 288.956 190.174C285.979 190.174 283.231 190.391 280.941 190.986Z" fill="#848484"/>
<path d="M545.7 359.604C521.714 356.965 518.852 347.094 515.218 334.585C511.129 320.617 506.087 303.241 469.381 289.384C450.983 282.455 433.357 278.111 415.459 276.104C399.468 274.317 383.569 274.427 366.942 276.461C336.051 280.256 306.887 290.374 278.631 300.134C252.192 309.29 224.844 318.775 195.407 323.449C179.598 325.979 164.516 326.914 149.298 326.364C132.217 325.731 115.409 323.229 97.9648 318.693C67.4828 310.774 37.1825 308.025 7.92711 310.499C2.52122 310.967 -2.83924 311.599 -8.15428 312.424V313.276C-2.74839 312.452 2.65751 311.792 8.15425 311.324C37.1825 308.85 67.2102 311.599 97.4651 319.435C118.952 325.017 138.85 327.326 157.611 327.326C202.903 327.326 241.562 313.936 279.312 300.876C308.749 290.676 336.505 281.053 367.215 277.286C383.659 275.252 399.377 275.142 415.186 276.929C432.948 278.908 450.438 283.225 468.655 290.099C484.781 296.175 504.86 303.736 513.901 334.722C515.763 341.183 517.398 346.765 521.714 351.246C526.484 356.223 534.07 359.137 545.473 360.402C579.226 364.141 599.305 370.052 608.617 379.015C610.843 381.133 612.479 383.442 613.569 385.889H614.977C613.841 383.277 612.161 380.858 609.753 378.576C600.213 369.42 579.862 363.371 545.7 359.604Z" fill="#848484"/>
<path d="M519.275 368.63C490.705 366.046 488.025 360.852 482.211 349.529C477.124 339.662 469.448 324.712 439.425 303.027C399.045 273.84 356.213 292.089 306.613 313.224C256.332 334.661 199.329 358.928 129.744 341.449C103.082 334.743 76.1926 331.445 49.7575 331.582C30.0902 331.692 10.6046 333.726 -8.15428 337.629V338.508C10.6046 334.578 30.0448 332.544 49.7575 332.434C76.0109 332.269 102.718 335.595 129.199 342.246C160.539 350.134 192.198 350.271 225.9 342.713C255.379 336.09 281.814 324.822 307.386 313.938C331.913 303.494 355.078 293.628 376.743 290.11C400.68 286.207 420.257 290.495 438.38 303.604C468.221 325.179 475.852 340.02 480.894 349.831C486.708 361.154 489.66 366.843 519.093 369.509C536.308 371.076 547.072 374.924 551.115 380.942C552.114 382.454 552.705 384.103 552.932 385.889H554.294C554.113 383.993 553.477 382.234 552.387 380.64C548.117 374.264 536.989 370.251 519.275 368.63Z" fill="#848484"/>
<path d="M378.103 331.491C365.48 326.413 348.544 326.578 327.793 332.067C311.31 336.404 292.376 344.089 271.488 354.848C250.147 365.881 231.077 377.957 219.18 385.889H220.996C232.893 377.957 251.51 366.21 272.351 355.451C293.147 344.72 311.946 337.09 328.292 332.781C348.589 327.429 365.072 327.209 377.286 332.149C405.665 343.595 420.74 362.917 434.044 379.961C435.634 381.965 437.132 383.941 438.676 385.862H440.174C438.54 383.831 436.905 381.745 435.27 379.604C421.966 362.478 406.8 343.046 378.103 331.491Z" fill="#848484"/>
<path d="M341.114 360.812C335.233 358.263 327.632 358.319 318.538 360.978C311.39 363.084 303.292 366.796 294.47 372.032C286.055 377.046 278.499 382.503 273.523 386.354H275.287C289.403 375.578 321.751 353.443 340.3 361.477C352.289 366.685 359.301 377.018 365.364 386.354H366.811C360.659 376.852 353.556 366.214 341.114 360.812Z" fill="#848484"/>
<path d="M118.008 359.91C106.332 358.104 94.2476 356.242 83.3895 354.025C56.4489 348.468 25.2376 353.149 3.79412 358.049C-0.430981 359.007 -4.42892 360.02 -8.15428 361.033V361.936C-4.29263 360.896 -0.112963 359.828 4.29386 358.815C25.5102 353.97 56.4034 349.344 82.9352 354.819C93.7933 357.063 105.923 358.925 117.645 360.732C143.995 364.783 168.891 368.616 170.617 375.569C171.344 378.498 167.982 381.92 160.441 385.889H162.44C169.572 381.92 172.707 378.47 171.98 375.432C170.072 367.931 145.948 364.208 118.008 359.91Z" fill="#848484"/>
<path d="M100.539 372.156C91.5645 371.21 80.6408 371.265 70.5782 372.323C51.949 374.272 15.5063 380.508 -8.15428 384.711V385.574C15.5063 381.371 52.1756 375.107 70.8502 373.131C80.7767 372.101 91.5192 372.017 100.358 372.964C113.14 374.328 117.627 377.195 119.168 379.394C120.574 381.371 120.211 383.709 118.126 386.354H119.667C121.661 383.626 121.888 381.176 120.392 379.06C117.355 374.773 107.927 372.936 100.539 372.156Z" fill="#848484"/>
<path d="M47.6291 220.086C68.145 228.451 81.5348 240.447 93.2906 251.041C106.635 263.037 118.209 273.411 136.274 275.089C137.954 275.254 139.678 275.309 141.403 275.309C155.338 275.309 171.905 270.439 192.92 260.176C208.67 252.472 221.788 245.483 233.362 239.292C257.781 226.222 275.438 216.785 294.955 213.73C314.881 210.594 336.758 213.895 370.437 225.094C397.943 234.257 430.76 240.558 460.399 242.374C474.197 243.226 486.724 243.061 496.665 241.851C507.15 240.585 514.503 238.301 518.451 235.027C523.853 230.542 525.169 222.205 500.614 207.925C471.247 190.838 437.84 188.774 402.482 186.6C379.061 185.17 354.823 183.656 330.359 177.686C302.671 170.944 278.66 159.223 256.919 141.916C240.851 129.121 222.105 123.068 202.633 124.416C189.38 125.324 176.353 129.562 163.916 136.963C151.434 144.447 140.178 154.766 130.555 167.643C123.384 177.19 115.486 182.088 106.272 182.583C86.3461 183.656 63.2884 163.35 41.0476 143.704C29.9273 133.882 18.4438 123.756 7.505 116.492C1.83135 112.667 -3.34302 109.888 -8.15428 108.045V109.063C7.14189 115.171 23.7543 129.809 39.9583 144.117C51.124 153.968 62.6983 164.176 73.8187 171.605C85.7106 179.529 95.8778 183.409 104.819 183.409C105.364 183.409 105.909 183.381 106.454 183.354C116.167 182.831 124.473 177.796 131.826 167.945C141.403 155.151 152.524 144.915 164.915 137.514C177.125 130.222 189.879 126.067 202.815 125.187C221.742 123.894 240.125 129.837 255.875 142.384C277.752 159.828 301.99 171.605 329.859 178.401C354.506 184.427 378.834 185.913 402.346 187.371C437.477 189.545 470.657 191.581 499.706 208.475C523.581 222.37 522.491 230.294 517.408 234.504C509.964 240.64 488.722 243.254 460.58 241.521C431.123 239.705 398.488 233.431 371.118 224.324C337.122 213.015 314.972 209.713 294.637 212.905C274.802 216.014 257.055 225.507 232.499 238.659C220.925 244.85 207.853 251.839 192.103 259.515C168.773 270.907 151.117 275.584 136.501 274.236C119.026 272.64 107.634 262.404 94.4254 250.545C82.5788 239.897 69.1436 227.846 48.4007 219.371C31.1982 212.355 14.8127 208.833 -0.483502 208.833C-3.07069 208.833 -5.61248 208.943 -8.15428 209.135V209.961C9.04823 208.613 27.7486 211.969 47.6291 220.086Z" fill="#848484"/>
<path d="M17.3191 301.291C38.3426 301.484 61.8635 304.045 82.6145 306.275C112.356 309.497 135.786 312.03 138.692 306.192C143.051 297.436 128.884 290.194 105.363 278.217C88.5174 269.626 67.4939 258.942 45.0174 243.577C28.126 232.068 11.28 226.836 -4.97578 228.103C-5.97474 228.185 -7.0191 228.295 -8.15428 228.433V229.287C-7.06451 229.149 -5.92933 229.011 -4.79416 228.929C11.0075 227.717 27.3995 232.839 44.0185 244.156C66.5858 259.575 87.6093 270.287 104.501 278.905C127.568 290.663 141.508 297.767 137.421 306C134.878 311.121 110.767 308.505 82.8869 305.504C52.782 302.227 17.4099 298.4 -8.15428 301.732V302.585C-0.889146 301.622 7.55657 301.209 17.3191 301.291Z" fill="#848484"/>
<path d="M77.0243 296.681C88.798 296.681 95.4094 295.386 96.6774 292.767C99.4849 287.061 76.0733 276.78 61.8089 271.156C41.6577 263.19 17.6574 255.693 4.75156 253.294C0.44961 252.495 -3.89762 251.944 -8.15428 251.613V252.44C-4.03347 252.771 0.177909 253.322 4.344 254.094C17.1593 256.464 41.0238 263.907 61.0391 271.846C84.3602 281.08 97.1755 288.798 95.3188 292.519C93.5075 296.158 77.3865 296.819 49.8993 294.394C27.6651 292.464 4.43457 289.074 -8.109 286.924V287.778C4.57042 289.956 27.6651 293.291 49.7635 295.248C60.7674 296.213 69.8694 296.681 77.0243 296.681Z" fill="#848484"/>
<path fill-rule="evenodd" clip-rule="evenodd" d="M146.193 259.977C144.877 259.977 143.606 259.894 142.381 259.701C131.264 258.05 122.416 253.26 116.789 245.91C111.117 238.423 109.211 228.761 111.344 217.942C113.295 208.198 118.967 198.536 127.861 190.002C159.488 159.585 185.76 142.903 205.952 140.426C212.441 139.627 218.385 140.315 223.513 142.49C242.742 150.594 255.286 158.482 266.348 165.439L266.756 165.696L266.855 165.758C283.96 176.519 297.487 185.029 327.105 189.947C345.845 193.058 354.694 195.921 354.104 198.728C353.65 200.903 347.297 202.637 335.182 203.904C323.43 205.115 306.459 205.858 286.131 206.023C270.794 206.161 254.867 209.767 237.398 217.117C222.151 223.558 207.722 231.954 194.971 239.386C176.14 250.37 159.669 259.977 146.193 259.977ZM129.041 190.442C120.283 198.866 114.656 208.418 112.751 218.052C110.663 228.705 112.524 238.23 118.105 245.58C123.505 252.709 132.035 257.334 142.744 258.93C143.878 259.096 145.058 259.178 146.238 259.178C159.124 259.178 175.413 249.682 194.017 238.837L194.018 238.835C206.769 231.376 221.244 222.952 236.626 216.483C254.323 209.051 270.522 205.362 286.131 205.225C306.414 205.059 323.294 204.316 334.955 203.105C349.975 201.536 352.561 199.637 352.788 198.646C353.423 195.507 334.819 192.067 326.788 190.745C296.749 185.735 283.091 177.147 265.848 166.273L265.662 166.156C254.59 159.193 242.054 151.308 222.787 143.178C219.247 141.692 215.345 140.948 211.08 140.948C209.537 140.948 207.903 141.058 206.27 141.251C186.486 143.674 160.486 160.217 129.041 190.442Z" fill="#848484"/>
<path d="M556.002 68.1945C544.961 70.6436 538.418 77.0278 529.285 85.8885C524.878 90.1813 519.834 95.052 513.518 100.225C492.981 116.929 472.307 110.792 438.047 100.638C420.372 95.3822 398.334 88.8605 371.117 84.1274C331.541 77.2479 305.142 77.6057 290.42 85.2281C276.925 92.2176 272.654 105.124 276.925 125.844C280.651 143.814 302.916 157.655 343.082 167.011C380.932 175.817 425.733 178.321 449.043 179.064C489.573 180.302 525.15 184.1 554.866 190.291C578.585 195.245 598.623 201.739 614.389 209.609C619.569 212.196 623.977 214.755 627.657 217.231V216.021C624.158 213.764 620.115 211.398 615.389 209.031C599.486 201.078 579.312 194.529 555.412 189.548C525.559 183.329 489.8 179.532 449.133 178.266C425.869 177.551 381.25 175.046 343.582 166.268C303.915 157.05 281.924 143.428 278.289 125.789C274.063 105.371 278.198 92.713 291.329 85.916C305.687 78.4862 331.678 78.156 370.754 84.9804C397.88 89.7135 419.826 96.2077 437.456 101.436C454.859 106.609 468.626 110.682 480.894 111.398C494.207 112.168 504.613 108.893 514.609 100.776C520.97 95.6023 526.014 90.7042 530.466 86.3839C539.418 77.6607 545.915 71.3591 556.502 69.0201C567.68 66.5435 582.81 68.6348 607.165 76.0096C614.571 78.2661 621.387 80.7427 627.657 83.3569V82.3112C621.569 79.7796 614.935 77.413 607.756 75.2391C582.992 67.7543 567.543 65.6354 556.002 68.1945Z" fill="#848484"/>
<path d="M582.946 94.1157C571.78 94.3085 562.338 97.5309 554.894 103.7C548.13 109.292 543.364 114.387 539.097 118.849C525.389 133.309 519.125 139.919 477.137 129.921C464.882 127.001 450.447 122.76 435.15 118.27C393.026 105.876 345.274 91.8297 319.991 98.6602C312.365 100.698 307.145 104.609 304.467 110.228C300.835 117.83 302.242 124.715 308.733 130.692C318.175 139.368 338.057 146.253 369.468 151.762C393.889 156.059 425.345 159.501 468.377 162.641C510.637 165.726 554.395 173.934 591.525 185.722C605.37 190.128 617.671 194.866 627.657 199.576V198.474C617.807 193.902 605.824 189.33 592.115 184.978C554.848 173.135 510.909 164.9 468.468 161.815C425.481 158.675 394.116 155.232 369.786 150.936C338.692 145.482 319.083 138.679 309.823 130.196C303.559 124.44 302.197 117.802 305.692 110.421C308.325 104.967 313.136 101.359 320.444 99.4038C345.183 92.7386 392.618 106.703 434.469 119.014C449.766 123.531 464.246 127.772 476.547 130.692C497.292 135.622 510.047 136.724 519.216 134.328C528.067 132.014 533.151 126.671 540.141 119.262C544.363 114.8 549.129 109.76 555.847 104.196C563.019 98.247 572.097 95.1347 582.855 94.942C598.016 94.6941 614.493 100.313 627.612 106.289V105.243C607.004 95.8784 592.115 93.9504 582.946 94.1157Z" fill="#848484"/>
<path fill-rule="evenodd" clip-rule="evenodd" d="M470.811 145.194C470.968 145.262 471.055 145.3 471.07 145.306C476.47 147.768 478.376 149.788 476.742 151.309C474.927 152.942 469.073 153.578 461.358 153.578C450.784 153.578 436.625 152.388 424.191 150.867C393.922 147.187 365.059 140.935 346.997 134.157C326.666 126.521 319.768 118.249 327.075 110.226C329.026 108.068 332.294 106.685 336.741 106.076C351.082 104.14 378.083 110.143 416.93 123.976C444.23 133.658 468.079 144.008 470.811 145.194ZM458.771 152.693C471.342 152.886 474.7 151.586 475.563 150.811C477.06 149.483 473.52 147.436 470.253 145.97C469.073 145.444 380.126 106.547 342.504 106.547C340.508 106.547 338.692 106.657 337.013 106.879C332.974 107.432 330.025 108.677 328.255 110.613C324.624 114.597 324.67 118.636 328.436 122.648C331.84 126.3 338.329 129.924 347.678 133.437C365.604 140.16 394.285 146.385 424.418 150.037C437.351 151.614 449.559 152.554 458.771 152.693Z" fill="#848484"/>
<path fill-rule="evenodd" clip-rule="evenodd" d="M424.001 137.948C424.33 138.07 424.512 138.138 424.533 138.144C425.214 138.444 427.351 139.398 426.305 140.297C425.715 140.842 423.896 141.033 421.442 141.033C414.714 141.033 403.305 139.452 400.395 139.043C385.258 136.863 371.212 133.729 362.849 130.649C354.439 127.542 351.53 124.517 354.166 121.655C354.803 120.974 355.894 120.511 357.348 120.292C363.258 119.393 376.394 122.119 396.35 128.414C409.475 132.555 421.38 136.975 424.001 137.948ZM400.714 138.226C416.169 140.434 424.442 140.488 425.215 139.807C425.305 139.78 425.169 139.452 423.714 138.798C422.442 138.308 375.985 120.92 359.939 120.92C359.076 120.92 358.348 120.974 357.667 121.083C356.53 121.247 355.803 121.574 355.348 122.037C353.121 124.435 355.848 127.079 363.53 129.913C371.758 132.966 385.668 136.073 400.714 138.226Z" fill="#848484"/>
<path fill-rule="evenodd" clip-rule="evenodd" d="M156.012 239.304C151.483 240.46 147.769 240.927 144.734 240.927C138.575 240.927 135.223 239.002 133.321 236.966C121.228 223.956 148.539 182.064 185.678 165.725C196.774 160.856 206.739 158.876 215.253 159.866C222.274 160.691 228.297 163.469 233.189 168.145C237.99 172.712 240.3 177.993 239.983 183.439C239.666 188.858 236.722 194.056 231.513 198.457L230.109 199.64L230.027 199.709C212.751 214.294 194.901 229.363 156.012 239.304ZM186.493 166.44C169.69 173.839 153.159 187.509 142.289 202.996C132.098 217.491 129.063 230.694 134.498 236.581C138.167 240.514 145.187 241.174 155.468 238.534C194.057 228.659 211.811 213.668 228.977 199.145L230.381 197.962C235.454 193.698 238.307 188.665 238.624 183.411C238.941 178.13 236.676 173.014 232.057 168.613C227.392 164.157 221.64 161.489 215.027 160.718C213.668 160.553 212.264 160.471 210.86 160.471C203.659 160.471 195.506 162.479 186.493 166.44Z" fill="#848484"/>
<path fill-rule="evenodd" clip-rule="evenodd" d="M169.032 220.393C166.216 221.109 163.9 221.413 162.038 221.413C158.451 221.413 156.498 220.338 155.454 219.208C152.32 215.845 154.227 208.734 160.404 200.658C166.852 192.279 176.525 184.671 186.334 180.372C192.828 177.533 198.641 176.375 203.682 176.954C207.815 177.422 211.402 179.049 214.263 181.805C219.94 187.262 219.577 194.208 213.264 199.528C203.228 207.99 192.284 214.439 169.032 220.393ZM187.152 181.061C177.57 185.278 168.033 192.748 161.675 201.017C155.726 208.707 153.773 215.708 156.68 218.822C158.587 220.889 162.583 221.165 168.532 219.649C191.511 213.778 202.274 207.411 212.174 199.06C218.169 194.016 218.532 187.428 213.128 182.274C210.449 179.738 207.224 178.222 203.455 177.781C202.683 177.698 201.911 177.643 201.094 177.643C196.961 177.643 192.329 178.801 187.152 181.061Z" fill="#848484"/>
<path d="M607.579 222.543C595.995 218.383 584.457 217.501 575.144 220.064C561.289 223.838 554.93 234.419 560.381 244.669C561.789 247.314 560.926 249.436 557.837 251.089C548.07 256.269 516.499 256.71 471.164 252.274C432.006 248.444 389.805 241.528 368.5 235.411C350.829 230.341 336.566 229.514 326.072 232.904C316.76 235.907 310.627 242.354 308.31 251.502C304.858 265.197 257.388 278.257 219.23 288.727C192.155 296.167 170.76 302.036 167.898 306.858C167.398 307.684 167.444 308.456 168.034 309.172C170.578 312.369 176.801 312.92 188.294 310.963C198.879 309.145 213.869 305.26 232.812 300.328C262.203 292.668 302.496 282.17 354.191 272.168C396.574 263.984 433.414 264.921 463.668 274.951C480.067 280.406 494.24 288.452 505.778 298.867C515.636 307.795 523.495 318.458 528.446 329.727C532.08 337.994 540.03 344.882 552.113 350.2C561.88 354.498 574.418 357.805 589.317 360.037C600.946 361.773 614.166 362.82 627.657 363.123V362.296C614.256 361.993 601.174 360.946 589.635 359.21C574.917 357.033 562.561 353.754 552.931 349.511C541.12 344.303 533.352 337.58 529.764 329.48C524.767 318.1 516.862 307.354 506.914 298.371C495.24 287.818 480.93 279.69 464.304 274.179C433.732 264.012 396.528 263.075 353.782 271.314C301.996 281.316 261.703 291.814 232.267 299.501C194.699 309.283 173.985 314.683 169.261 308.759C168.852 308.236 168.806 307.684 169.17 307.078C171.85 302.587 194.063 296.47 219.82 289.416C238.99 284.154 260.749 278.174 277.875 271.837C297.681 264.508 308.083 257.867 309.673 251.557C311.899 242.685 317.805 236.458 326.708 233.565C336.838 230.286 350.693 231.14 367.955 236.1C399.663 245.193 477.069 256.049 524.085 256.049C540.302 256.049 552.931 254.754 558.791 251.64C562.334 249.766 563.334 247.314 561.744 244.338C556.52 234.502 562.561 224.334 575.78 220.725C592.77 216.096 611.576 223.094 627.612 234.061V232.656C620.979 228.385 614.302 224.968 607.579 222.543Z" fill="#848484"/>
<path d="M41.9837 206.994C59.2129 211.266 75.6673 215.373 86.7888 215.373C89.797 215.373 92.3951 215.069 94.5374 214.408C97.5456 213.471 99.46 211.79 100.28 209.447C102.24 203.934 92.5318 198.615 77.8095 190.567C63.2239 182.601 43.2599 171.714 25.6205 155.397C13.6329 144.344 2.37469 137.233 -8.1087 134.064V134.973C1.96447 138.143 12.8581 145.089 24.4354 155.838C42.2116 172.265 62.2212 183.18 76.8523 191.173C91.21 199.028 100.736 204.21 98.913 209.254C98.1382 211.376 96.4973 212.809 93.8537 213.636C84.4186 216.641 64.0444 211.569 42.4851 206.194C28.2641 202.666 13.5418 199.001 0.779389 197.347C-2.41121 196.933 -5.41948 196.658 -8.15428 196.52V197.347C-5.51064 197.485 -2.59353 197.733 0.50591 198.146C13.1771 199.828 27.8539 203.466 41.9837 206.994Z" fill="#848484"/>
<path fill-rule="evenodd" clip-rule="evenodd" d="M229.861 257.13C232.325 254.622 234.926 252.362 237.664 250.377C246.334 244.038 259.476 240.73 272.664 241.502C280.421 241.971 284.346 243.624 284.391 246.463C284.483 255.862 237.162 275.486 215.851 276.864C212.748 277.085 210.375 277.168 208.596 277.168C204.763 277.168 203.485 276.754 203.029 276.148C202.116 274.88 205.402 273.061 210.877 270.029C216.718 266.804 224.704 262.394 229.861 257.13ZM257.286 264.048C273.211 257.213 283.114 250.46 283.068 246.491C283.068 244.148 279.509 242.742 272.618 242.356C271.386 242.274 270.154 242.246 268.922 242.246C257.423 242.246 246.379 245.388 238.759 250.901C236.067 252.83 233.511 255.09 231.093 257.543C225.892 262.87 217.868 267.303 211.994 270.548L211.836 270.635C211.767 270.674 211.698 270.712 211.629 270.75C207.768 272.892 203.814 275.085 204.352 275.789C204.671 276.23 206.907 276.616 215.76 276.038C225.525 275.404 241.816 270.69 257.286 264.048Z" fill="#848484"/>
<path d="M36.1678 109.294C46.3751 120.7 57.3082 132.436 67.9691 141.004C79.7187 150.398 89.926 154.972 99.2259 154.972C99.3167 154.972 99.4074 154.972 99.4981 154.972C108.753 154.889 116.918 150.371 124.449 141.224C140.282 122.022 159.018 110.286 178.661 107.338C192.089 105.327 205.88 107.31 219.626 113.289C230.196 117.89 237.727 119.405 242.536 117.945C249.658 115.796 250.066 107.779 250.52 98.5221C251.019 88.3563 251.563 76.8129 261.589 71.5234C266.262 69.0714 272.522 68.1623 280.733 68.7133C302.237 70.201 322.697 68.2174 339.89 63.0381C356.222 58.1067 368.879 50.5856 376.455 41.2738C383.668 32.4303 385.755 22.4573 382.579 12.4843C381.263 8.32427 379.041 4.24691 376.001 0.252197H374.459C385.074 13.8618 385.664 28.1876 375.275 40.9156C367.835 50.0621 355.405 57.4455 339.346 62.2942C322.379 67.4185 302.146 69.3469 280.915 67.8868C272.432 67.3083 265.627 68.3001 260.727 70.8897C250.248 76.3997 249.703 88.1359 249.159 98.467C248.751 107.09 248.342 115.245 241.946 117.173C237.591 118.496 230.559 116.98 220.397 112.572C206.289 106.456 192.135 104.418 178.298 106.484C158.246 109.514 139.193 121.388 123.224 140.811C115.92 149.654 108.163 154.007 99.4981 154.09C99.4074 154.09 99.3167 154.09 99.2259 154.09C79.4919 154.09 57.8526 131.747 37.3473 108.826C24.7811 94.858 9.53827 85.2156 -8.15428 80.0913V81.0005C8.99389 86.0972 23.8738 95.5743 36.1678 109.294Z" fill="#848484"/>
<path d="M53.2535 74.1272C61.1111 74.1272 68.015 73.4403 73.6925 72.0391C86.6371 68.8522 93.0868 62.3408 92.8597 52.6151C92.6326 43.0816 96.8566 35.9933 105.759 30.9656C127.697 18.4924 174.934 20.6354 224.986 22.9432C232.344 23.2729 239.975 23.6301 247.469 23.9323C254.782 24.2345 261.504 24.3719 267.681 24.3719C295.887 24.3719 311.875 21.3223 315.372 15.2505C317.825 10.9646 313.737 5.772 307.196 0.716797H305.425C312.147 5.74453 316.417 10.8822 314.1 15.0032C310.103 21.9816 287.757 24.729 247.605 23.1355C240.111 22.8333 232.481 22.4762 225.123 22.1465C174.797 19.8387 127.243 17.6682 104.851 30.3887C95.6757 35.6087 91.3154 42.8893 91.5425 52.67C91.7696 62.0112 85.5925 68.3027 73.2383 71.3248C57.3413 75.2261 31.4973 73.4403 2.24689 66.4345C-1.25045 65.6102 -4.70237 64.7036 -8.15428 63.7695V64.6761C-4.88405 65.5828 -1.56839 66.4345 1.74727 67.2037C20.9145 71.7644 38.7191 74.1272 53.2535 74.1272Z" fill="#848484"/>
<path d="M27.2976 48.0533C43.639 47.4478 57.4839 42.2463 68.5144 32.5864L70.3301 30.9901C83.721 19.2661 90.4391 13.3766 100.38 10.9272C110.321 8.47778 123.803 9.35846 150.676 11.1473C153.944 11.3675 157.439 11.5877 161.116 11.8354C192.982 13.8995 216.041 14.615 231.611 13.9545C246.636 13.3215 255.17 11.4776 258.438 8.14752C260.436 6.11095 260.345 3.63404 258.711 0.716797H257.304C258.938 3.52396 259.119 5.86326 257.258 7.7347C254.262 10.7345 245.864 12.5234 231.52 13.1289C215.996 13.7894 193.027 13.1013 161.252 11.0097C157.575 10.762 154.08 10.5419 150.812 10.3217C123.712 8.5053 110.14 7.5971 99.8355 10.1566C89.5313 12.716 82.7223 18.6606 69.1953 30.5223L67.3795 32.1185C56.576 41.5583 43.0943 46.6497 27.2068 47.2276C19.0361 47.5304 7.18852 46.6772 -8.15428 42.3289V43.2371C5.32741 47.0075 16.1309 48.1083 24.1655 48.1083C25.3003 48.1083 26.3443 48.0808 27.2976 48.0533Z" fill="#848484"/>
<path d="M45.7146 28.483C52.1879 26.6502 56.6242 23.5316 58.8423 19.2094C62.1469 12.9175 62.8712 6.57096 62.328 0.716797H60.9699C61.5132 6.48889 60.7889 12.7534 57.5296 18.9632C55.402 23.0666 51.1921 26.021 45.0809 27.7444C30.5498 31.8478 7.96112 28.483 -8.15428 25.1182V25.9936C2.66477 28.2368 16.3357 30.4526 28.6486 30.4526C34.8503 30.4526 40.7351 29.8782 45.7146 28.483Z" fill="#848484"/>
<path d="M326.466 21.0296C317.463 31.7916 277.587 30.3328 277.132 30.3053C254.807 30.3053 234.073 29.3419 215.795 28.4611C188.605 27.1675 165.097 26.0665 147.728 28.7914C138.544 30.2227 131.405 32.6723 125.949 36.2505C120.038 40.1039 116.036 45.3059 113.672 52.1044C105.806 74.8393 85.2087 77.5642 68.6126 79.7386C58.6094 81.0598 49.9704 82.1883 47.1058 87.583C44.5141 92.5098 47.5151 102.308 54.8355 112.547C62.6562 123.53 73.2958 132.035 83.299 135.282C86.5273 136.328 89.7555 136.851 92.8019 136.851C98.6219 136.851 104.124 134.98 108.943 131.319C116.264 125.759 122.22 119.704 127.995 113.841C138.771 102.886 148.046 93.4456 162.46 91.3263C171.326 90.0327 181.648 91.6291 193.924 96.2806C210.202 102.419 221.479 104.345 228.435 102.171C237.074 99.4734 237.938 91.1336 238.848 82.2708C240.075 70.3804 241.348 58.0771 261.536 58.6276C266.174 58.7377 270.63 58.8203 274.95 58.8203C318.6 58.8203 346.927 52.5723 359.158 40.1864C368.797 30.4704 366.342 18.7451 362.613 10.653C360.84 6.77211 358.612 3.35911 356.657 0.716797H355.157C357.157 3.35911 359.476 6.90973 361.295 10.9007C367.888 25.2959 363.114 34.544 357.976 39.7736C344.79 53.0952 312.325 59.1781 261.582 57.8294C251.897 57.5817 245.441 60.0589 241.848 65.4261C238.711 70.0776 238.075 76.2706 237.484 82.2708C236.62 90.8859 235.756 99.0055 227.799 101.483C221.297 103.519 210.475 101.593 194.606 95.62C181.966 90.8584 171.326 89.2069 162.096 90.5831C147.137 92.7851 137.68 102.363 126.767 113.483C121.038 119.318 115.082 125.346 107.807 130.851C100.714 136.218 92.6655 137.457 83.8446 134.594C74.1143 131.429 63.6565 123.089 55.9723 112.272C48.9246 102.363 45.8327 92.5649 48.288 87.8858C50.9252 82.9314 58.7913 81.8855 68.7944 80.5919C77.1607 79.4909 86.6182 78.2523 95.0754 74.3439C104.851 69.8299 111.353 62.6186 114.9 52.297C119.31 39.4983 129.495 32.5072 147.956 29.6171C155.685 28.4061 164.734 27.9657 174.782 27.9657C186.968 27.9657 200.745 28.6263 215.568 29.3144C233.891 30.1676 254.625 31.1585 276.95 31.1585C276.95 31.1585 276.95 31.1585 276.996 31.1585C277.087 31.1585 287.363 31.5714 298.594 30.5805C313.871 29.2593 323.601 26.1766 327.603 21.4425C331.922 16.2955 329.148 9.35938 319.327 0.744321H317.69C327.694 9.24928 330.603 16.0753 326.466 21.0296Z" fill="#848484"/>
<path d="M329.242 30.6357C321.785 36.2878 299.233 38.6314 264.085 37.4182C237.394 36.5084 212.659 33.834 212.432 33.8064C212.295 33.7788 197.2 32.1521 180.194 34.1648C170.145 35.3228 161.415 37.5009 154.186 40.6441C145.137 44.5592 138.453 49.9631 134.361 56.6905C126.45 69.7317 117.583 78.6372 107.216 83.9309C98.2132 88.5353 89.4377 89.7484 81.2532 90.6031C69.2948 91.8439 65.248 96.4758 63.9749 100.143C61.4286 107.311 67.567 116.989 77.1155 120.876C79.7072 121.924 82.3445 122.448 84.8907 122.448C87.2551 122.448 89.5741 122.007 91.7566 121.097C100.714 117.402 109.899 110.289 119.629 102.79C138.135 88.4802 157.278 73.702 176.511 81.1186C179.33 82.1939 182.058 83.2692 184.65 84.3169C198.746 89.9139 209.931 94.3528 216.979 92.2574C221.162 91.0167 223.526 87.7357 224.39 81.8906C226.164 69.8144 229.437 60.7159 239.668 55.5877C246.943 51.9207 257.31 50.5697 271.405 51.3968C310.873 53.7404 336.881 49.4944 348.749 38.8244C358.252 30.2773 356.615 19.1661 353.568 11.3358C351.84 6.89687 349.476 2.98175 347.612 0.252197H346.157C348.021 2.95418 350.476 6.95201 352.25 11.5288C355.205 19.1936 356.797 30.0567 347.612 38.3556C336.063 48.75 310.463 52.8581 271.542 50.5697C257.083 49.715 246.397 51.1487 238.804 54.9535C228.255 60.2748 224.845 69.5387 223.026 81.8355C222.208 87.2946 220.071 90.4653 216.388 91.5406C210.022 93.4154 199.155 89.1143 185.423 83.6552C182.786 82.6075 180.058 81.5322 177.239 80.4569C168.099 76.9278 158.233 77.8101 147.093 83.1589C137.362 87.7909 127.814 95.18 118.583 102.321C108.944 109.793 99.8046 116.823 91.0291 120.463C85.8911 122.586 81.0713 121.511 77.8885 120.215C68.7492 116.493 62.8836 107.201 65.2935 100.336C66.5212 96.917 70.2951 92.5883 81.4805 91.4303C89.8469 90.548 98.8043 89.3073 108.08 84.565C118.629 79.1611 127.632 70.1453 135.634 56.9662C139.636 50.3767 146.138 45.1106 154.913 41.3058C161.961 38.2454 170.555 36.1224 180.376 34.9644C186.742 34.22 192.835 33.9718 197.973 33.9718C206.339 33.9718 212.068 34.606 212.159 34.606C212.386 34.6335 237.213 37.3079 263.994 38.2178C300.096 39.4585 322.422 37.0874 330.288 31.132C338.063 25.2869 339.882 17.3739 335.517 8.27543C334.017 5.15988 332.061 2.40275 330.334 0.279769H328.788C330.561 2.37518 332.652 5.24259 334.198 8.496C337.154 14.6444 338.654 23.4948 329.242 30.6357Z" fill="#848484"/>
<path fill-rule="evenodd" clip-rule="evenodd" d="M183.687 41.5564C188.512 40.1194 193.879 39.8154 198.839 40.7274C203.709 41.6117 207.362 43.4632 209.662 46.2267C216.697 54.5448 210.474 69.1637 206.145 77.1225C205.017 79.2227 203.619 80.3281 201.77 80.5769L201.77 80.5769C201.5 80.6045 201.229 80.6321 200.959 80.6321C197.954 80.6321 194.505 78.4739 190.21 75.7873L190.136 75.7408C186.032 73.1707 181.387 70.2691 175.795 68.2241C166.46 64.7974 161.861 60.9561 162.131 56.7556C162.627 49.4324 178.275 43.1869 183.687 41.5564ZM201.5 79.7756C202.807 79.5821 203.935 78.6425 204.882 76.8739C214.848 58.5796 211.421 50.0681 208.444 46.6414C206.28 44.099 202.898 42.3856 198.433 41.5566C196.674 41.2249 194.871 41.0591 193.022 41.0591C190.045 41.0591 187.069 41.4737 184.273 42.3027C179.042 43.8779 163.935 49.8747 163.484 56.7834C163.214 60.6522 167.633 64.2724 176.517 67.5057C182.19 69.559 187.068 72.6158 191.016 75.0908L191.128 75.1605L191.179 75.1926C195.396 77.8319 199.029 80.1059 201.5 79.7756Z" fill="#848484"/>
<path fill-rule="evenodd" clip-rule="evenodd" d="M186.121 54.5954C187.685 54.125 189.426 54.0143 191.034 54.3187C192.598 54.6231 193.803 55.2318 194.607 56.1726C196.841 58.829 194.92 63.3947 193.58 65.885C193.357 66.3554 192.91 66.9918 191.928 67.1302C191.794 67.1579 191.704 67.1579 191.57 67.1579C190.464 67.1579 189.402 66.4792 187.993 65.579L187.953 65.553C186.747 64.7782 185.362 63.8927 183.709 63.284C180.717 62.1772 179.243 60.9043 179.332 59.4931C179.5 56.8485 185.275 54.8841 186.038 54.6243C186.09 54.6069 186.118 54.5971 186.121 54.5954ZM191.615 66.3004C191.749 66.3004 192.017 66.079 192.285 65.6086C193.312 63.6993 195.456 58.9953 193.446 56.5326C192.821 55.8132 191.928 55.3428 190.677 55.1214C190.186 55.0384 189.65 54.9831 189.158 54.9831C188.31 54.9831 187.506 55.0938 186.702 55.3428C185.496 55.7302 180.806 57.5288 180.672 59.5487C180.583 60.6002 181.834 61.624 184.379 62.5648C186.166 63.2289 187.685 64.1974 188.89 64.9722C188.951 65.0098 189.013 65.0481 189.075 65.0868C190.025 65.6766 191.154 66.3783 191.615 66.3004Z" fill="#848484"/>
<path d="M330.198 377.029C329.028 376.325 327.544 376.043 325.834 376.156C320.03 376.55 312.112 381.762 306.129 386.354H307.883C313.597 382.015 320.885 377.367 325.969 377.001C327.274 376.916 328.354 377.114 329.253 377.649C332.358 379.48 335.822 382.832 338.971 386.354H340.546C337.261 382.635 333.572 379.001 330.198 377.029Z" fill="#848484"/>
<path fill-rule="evenodd" clip-rule="evenodd" d="M335.474 247.5C344.123 244.392 359.112 244.309 380.033 247.278C395.022 249.415 407.792 252.412 408.834 252.661C422.283 254.188 423.959 255.547 423.868 256.546C423.778 257.906 420.155 259.765 392.803 262.263C375.822 263.817 355.58 265.094 340.817 266.009L337.149 266.231C334.478 266.398 332.078 266.481 329.904 266.481C321.617 266.481 316.772 265.26 315.504 262.874C313.194 258.572 323.836 251.69 335.474 247.5ZM392.577 261.458C419.43 258.989 422.419 257.185 422.464 256.519C422.464 256.186 421.513 254.965 408.517 253.494L408.381 253.466C408.374 253.465 408.334 253.455 408.262 253.439C406.912 253.123 394.377 250.191 379.762 248.11C371.837 246.973 362.373 245.974 353.769 245.974C347.021 245.974 340.772 246.612 336.198 248.249C330.447 250.33 325.059 253.022 321.391 255.659C317.541 258.461 315.911 260.931 316.817 262.652C318.221 265.205 325.194 266.176 337.014 265.427L340.682 265.205C341.773 265.135 342.893 265.063 344.04 264.99C358.412 264.075 376.892 262.897 392.577 261.458Z" fill="#848484"/>
<path fill-rule="evenodd" clip-rule="evenodd" d="M345.998 72.6493C345.639 70.4733 350.541 67.9165 360.526 65.0061C367.093 63.1022 374.919 63.7006 380.362 66.5565C384.68 68.8141 389.357 72.0237 387.018 74.6893C385.219 76.7564 379.507 77.8444 371.906 77.8444C366.823 77.8444 360.886 77.3548 354.679 76.3485C349.057 75.4509 346.223 74.2269 345.998 72.6493ZM355.039 75.5598C369.387 77.8989 383.195 77.3277 385.849 74.3086C387.333 72.5678 385.174 70.1198 379.507 67.1822C376.359 65.5774 372.446 64.7342 368.488 64.7342C365.969 64.7342 363.45 65.0606 361.111 65.7406C351.981 68.4062 347.078 70.827 347.348 72.5678C347.528 73.7374 350.181 74.771 355.039 75.5598Z" fill="#848484"/>
<path d="M489.219 377.795C465.555 375.972 451.657 363.769 434.125 348.307C429.219 343.999 424.132 339.527 418.41 334.888C404.057 323.264 387.978 316.279 370.674 314.125C351.007 311.695 329.387 315.45 306.45 325.28C281.242 336.075 244.77 353.442 213.476 369.567C204.71 374.095 193.264 380.114 182.046 386.354H184.044C192.946 381.439 203.075 376.028 214.339 370.202C245.588 354.105 282.014 336.738 307.177 325.97C349.917 307.664 386.979 310.839 417.274 335.413C422.952 340.024 428.039 344.496 432.944 348.804C450.703 364.431 464.738 376.746 488.992 378.623C506.206 379.948 516.062 382.544 518.424 386.354H519.877C517.652 382.074 507.341 379.203 489.219 377.795Z" fill="#848484"/>
<path d="M359.203 345.613C350.644 343.316 341.859 343.593 333.074 346.416C311.291 353.39 291.547 361.638 274.383 370.965C263.832 376.694 255.861 381.953 249.974 386.354H251.786C265.19 376.473 291.094 360.78 333.662 347.135C342.085 344.451 350.463 344.174 358.615 346.36C375.053 350.761 387.915 364.323 395.794 374.951C398.828 378.992 401.364 382.949 403.402 386.354H404.851C402.768 382.866 400.187 378.798 397.062 374.619C385.469 358.981 372.699 349.211 359.203 345.613Z" fill="#848484"/>
<path fill-rule="evenodd" clip-rule="evenodd" d="M146.71 290.099C145.107 288.115 145.382 285.249 149.871 283.65C156.605 281.253 165.812 282.355 169.431 284.229C170.988 285.028 171.538 285.965 170.942 286.847C169.751 288.721 165.171 290.65 157.383 292.551C156.238 292.827 155.093 292.965 154.039 292.965C150.65 292.965 147.993 291.642 146.71 290.099ZM156.834 291.78C164.163 289.988 168.606 288.17 169.66 286.544C170.118 285.855 169.293 285.221 168.469 284.863C166.545 283.871 162.743 283.127 158.712 283.127C155.918 283.127 153.032 283.485 150.512 284.367C146.756 285.689 146.481 288.004 147.901 289.713C149.321 291.421 152.711 292.799 156.834 291.78Z" fill="#848484"/>
<path fill-rule="evenodd" clip-rule="evenodd" d="M218.996 357.811C217.232 360.581 198.106 366.625 191.776 368.22C190.42 368.555 189.108 368.723 187.888 368.695C183.999 368.695 180.97 367.156 179.477 365.31C177.578 362.959 177.94 359.574 183.095 357.699C192.138 354.398 213.886 353.866 218.227 356.16C219.131 356.608 219.403 357.196 218.996 357.811ZM183.773 358.427C179.342 360.049 179.025 362.875 180.698 364.946C182.371 367.016 186.35 368.695 191.233 367.436C199.237 365.394 216.283 359.686 217.684 357.503C217.82 357.307 217.865 357.084 217.323 356.804C213.434 354.761 192.047 355.405 183.773 358.427Z" fill="#848484"/>
<path fill-rule="evenodd" clip-rule="evenodd" d="M297.871 201.899C291.141 201.899 283.953 201.493 278.826 200.328C271.501 198.704 271.088 196.213 272.141 194.426C273.194 192.503 275.346 191.095 278.597 190.256C284.411 188.766 293.568 189.118 305.792 191.339C314.811 192.99 322.274 195.075 322.365 195.102C326.211 196.24 326.348 197.323 325.845 198.027C324.334 200.058 314.811 201.249 306.433 201.682C303.823 201.818 300.893 201.899 297.871 201.899ZM279.1 191.014C276.216 191.745 274.293 192.99 273.378 194.696C272.233 196.781 274.202 198.433 279.329 199.597C285.373 200.951 295.72 201.438 306.295 200.897C316.047 200.382 323.556 199.083 324.563 197.729C325.066 197.025 323.281 196.321 321.724 195.86C321.266 195.725 301.397 190.201 287.112 190.201C284.137 190.201 281.39 190.418 279.1 191.014Z" fill="#848484"/>
</g>
</svg>
