<svg width="85" height="88" viewBox="0 0 85 88" fill="none" xmlns="http://www.w3.org/2000/svg">
<g clip-path="url(#clip0_84_153)">
<path d="M67.0358 0H17.9642C8.04286 0 0 8.32655 0 18.5981V69.4016C0 79.6731 8.04286 88 17.9642 88H67.0358C76.9571 88 85 79.6731 85 69.4016V18.5981C85 8.32655 76.9571 0 67.0358 0Z" fill="white"/>
<path d="M25.2344 24.75C24.8821 24.75 24.5443 24.8949 24.2952 25.1527C24.0462 25.4106 23.9062 25.7603 23.9062 26.125V59.125C23.9062 59.4897 24.0462 59.8394 24.2952 60.0973C24.5443 60.3551 24.8821 60.5 25.2344 60.5H40.383C40.0828 59.631 39.9553 58.696 39.8491 57.75H26.5625V33H55.7812V41.2555C56.695 41.3655 57.5981 41.4948 58.4375 41.8083V26.125C58.4375 25.7603 58.2976 25.4106 58.0485 25.1527C57.7994 24.8949 57.4616 24.75 57.1094 24.75H25.2344ZM26.5625 27.5H55.7812V30.25H26.5625V27.5ZM29.2188 35.75V38.5H31.875V35.75H29.2188ZM34.5312 35.75V38.5H37.1875V35.75H34.5312ZM39.8438 35.75V38.5H42.5V35.75H39.8438ZM45.1562 35.75V38.5H47.8125V35.75H45.1562ZM50.5006 35.75V38.5H53.1569V35.75H50.5006ZM29.2188 41.25V44H31.875V41.25H29.2188ZM34.5312 41.25V44H37.1875V41.25H34.5312ZM39.8438 41.25V44H42.5V41.25H39.8438ZM45.1562 41.25V44H46.5402C46.9678 43.7057 47.3556 43.362 47.8125 43.1145V41.25H45.1562ZM54.4531 44C47.8656 44 42.5 49.555 42.5 56.375C42.5 63.195 47.8656 68.75 54.4531 68.75C61.0406 68.75 66.4062 63.195 66.4062 56.375C66.4062 49.555 61.0406 44 54.4531 44ZM54.4531 46.2495C55.7382 46.247 57.0111 46.5071 58.1988 47.0151C59.3865 47.523 60.4656 48.2688 61.3743 49.2095C62.283 50.1503 63.0033 51.2675 63.4939 52.4971C63.9846 53.7268 64.2359 55.0446 64.2334 56.375C64.2359 57.7054 63.9846 59.0232 63.4939 60.2529C63.0033 61.4825 62.283 62.5997 61.3743 63.5405C60.4656 64.4812 59.3865 65.227 58.1988 65.7349C57.0111 66.2429 55.7382 66.503 54.4531 66.5005C53.1681 66.503 51.8952 66.2429 50.7075 65.7349C49.5198 65.227 48.4406 64.4812 47.5319 63.5405C46.6233 62.5997 45.9029 61.4825 45.4123 60.2529C44.9217 59.0232 44.6704 57.7054 44.6728 56.375C44.6704 55.0446 44.9217 53.7268 45.4123 52.4971C45.9029 51.2675 46.6233 50.1503 47.5319 49.2095C48.4406 48.2688 49.5198 47.523 50.7075 47.0151C51.8952 46.5071 53.1681 46.247 54.4531 46.2495ZM29.2188 46.75V49.5H31.875V46.75H29.2188ZM34.5312 46.75V49.5H37.1875V46.75H34.5312ZM39.8438 46.75V49.5H41.6447C41.8837 49.027 42.2158 48.631 42.5 48.1882V46.75H39.8438ZM54.4372 49.4945C54.2623 49.4966 54.0896 49.5345 53.9289 49.606C53.7682 49.6774 53.6227 49.781 53.5008 49.9108C53.3789 50.0406 53.2829 50.1941 53.2184 50.3624C53.1539 50.5306 53.1222 50.7105 53.125 50.8915V56.3695C53.125 56.7342 53.2649 57.0839 53.514 57.3418C53.7631 57.5996 54.1009 57.7445 54.4531 57.7445H59.1998C59.5521 57.7445 59.8899 57.5996 60.139 57.3418C60.388 57.0839 60.528 56.7342 60.528 56.3695C60.528 56.0048 60.388 55.6551 60.139 55.3972C59.8899 55.1394 59.5521 54.9945 59.1998 54.9945H55.7812V50.8915C55.7841 50.7077 55.7513 50.5252 55.6849 50.3547C55.6184 50.1842 55.5196 50.0293 55.3943 49.899C55.269 49.7688 55.1197 49.6659 54.9553 49.5964C54.7909 49.5269 54.6147 49.4923 54.4372 49.4945ZM29.2188 52.25V55H31.875V52.25H29.2188ZM34.5312 52.25V55H37.1875V52.25H34.5312Z" fill="#302C51"/>
</g>
<defs>
<clipPath id="clip0_84_153">
<rect width="85" height="88" fill="white"/>
</clipPath>
</defs>
</svg>
