<svg width="23" height="23" viewBox="0 0 23 23" fill="none" xmlns="http://www.w3.org/2000/svg">
<path d="M10.1852 3.70369H3.7037C3.21256 3.70369 2.74154 3.89879 2.39425 4.24608C2.04696 4.59337 1.85185 5.0644 1.85185 5.55554V18.5185C1.85185 19.0096 2.04696 19.4807 2.39425 19.828C2.74154 20.1752 3.21256 20.3704 3.7037 20.3704H16.6667C17.1578 20.3704 17.6288 20.1752 17.9761 19.828C18.3234 19.4807 18.5185 19.0096 18.5185 18.5185V12.037M17.1296 2.3148C17.498 1.94644 17.9976 1.7395 18.5185 1.7395C19.0395 1.7395 19.539 1.94644 19.9074 2.3148C20.2758 2.68315 20.4827 3.18275 20.4827 3.70369C20.4827 4.22462 20.2758 4.72422 19.9074 5.09258L11.1111 13.8889L7.40741 14.8148L8.33333 11.1111L17.1296 2.3148Z" stroke="#6DC13D" stroke-width="1.6" stroke-linecap="round" stroke-linejoin="round"/>
</svg>
