<svg width="20" height="20" viewBox="0 0 20 20" fill="none" xmlns="http://www.w3.org/2000/svg">
<g clip-path="url(#clip0_658_2668)">
<path d="M9.16602 3.33344H3.33268C2.89065 3.33344 2.46673 3.50904 2.15417 3.8216C1.84161 4.13416 1.66602 4.55808 1.66602 5.00011V16.6668C1.66602 17.1088 1.84161 17.5327 2.15417 17.8453C2.46673 18.1578 2.89065 18.3334 3.33268 18.3334H14.9993C15.4414 18.3334 15.8653 18.1578 16.1779 17.8453C16.4904 17.5327 16.666 17.1088 16.666 16.6668V10.8334M15.416 2.08344C15.7475 1.75192 16.1972 1.56567 16.666 1.56567C17.1349 1.56567 17.5845 1.75192 17.916 2.08344C18.2475 2.41496 18.4338 2.8646 18.4338 3.33344C18.4338 3.80228 18.2475 4.25192 17.916 4.58344L9.99935 12.5001L6.66602 13.3334L7.49935 10.0001L15.416 2.08344Z" stroke="#6DC13D" stroke-width="2" stroke-linecap="round" stroke-linejoin="round"/>
</g>
<defs>
<clipPath id="clip0_658_2668">
<rect width="20" height="20" fill="white"/>
</clipPath>
</defs>
</svg>
