<?xml version="1.0" encoding="utf-8"?>
<!-- Generator: Adobe Illustrator 27.0.0, SVG Export Plug-In . SVG Version: 6.00 Build 0)  -->
<svg version="1.1" id="Layer_1" xmlns="http://www.w3.org/2000/svg" xmlns:xlink="http://www.w3.org/1999/xlink" x="0px" y="0px"
	 viewBox="0 0 600 600" style="enable-background:new 0 0 600 600;" xml:space="preserve">
<style type="text/css">
	.st0{fill:#FFFFFF;}
	.st1{clip-path:url(#SVGID_00000123427227168757878810000002258122392644620421_);fill:#73943D;}
	.st2{clip-path:url(#SVGID_00000119102444483437817450000010924830914417252277_);fill:#73943D;}
	.st3{clip-path:url(#SVGID_00000023996091984309556300000005720380004993949578_);fill:#73943D;}
	.st4{clip-path:url(#SVGID_00000108300362588435669690000005700128009345147266_);fill:#73943D;}
	.st5{clip-path:url(#SVGID_00000155145704626935376220000014763747851980370096_);fill:#73943D;}
	.st6{clip-path:url(#SVGID_00000153700413225980327610000005276331642812664986_);fill:#73943D;}
	.st7{fill:#097540;}
	.st8{fill:#73943D;}
</style>
<rect x="1.53" y="-0.62" class="st0" width="597.76" height="599.64"/>
<g>
	<g>
		<g>
			<defs>
				<path id="SVGID_1_" d="M308.47,62.06c0.08,30.32-6.59,48.35-12.04,57.99c-6.64,11.77-10.57,24.9-10.39,38.34
					c0.61,48.47,38.59,60.75,44.2,62.29c0.15,0.04,0.25-0.15,0.12-0.25c-3.22-2.44-17.15-20.17-24.01-35.4
					c-5.7-12.66-4.16-25.42-2.86-36.18c1.24-10.3,3.66-16.18,6.18-24.34c3.6-11.68,7.64-29.06,8.46-52.26
					c11.46,6.44,35.44,22.12,49.71,51.79c7.16,14.89,18.77,39.91,8.92,61.08c-8.2,17.63-31.25,33.74-28.55,38.48
					c0.05,0.09,0.09,0.43,0.29,0.36c62.35-23.66,34.45-91.69,34.45-91.69c-26.75-69.05-71.33-70.21-74.31-70.21H308.47z"/>
			</defs>
			<use xlink:href="#SVGID_1_"  style="overflow:visible;fill:#73943D;"/>
			<clipPath id="SVGID_00000122702112674837268370000016966128982348306583_">
				<use xlink:href="#SVGID_1_"  style="overflow:visible;"/>
			</clipPath>
			
				<rect x="285.87" y="62.06" style="clip-path:url(#SVGID_00000122702112674837268370000016966128982348306583_);fill:#73943D;" width="124.97" height="161.98"/>
		</g>
		<g>
			<g>
				<defs>
					<path id="SVGID_00000026883224065351107960000012395400950475882914_" d="M76.47,241.64c1.52,37.17,13.14,73.44,34.78,104.02
						c66.69,94.25,163.24,49.71,185.58,37.58c0.49-0.27,0.13-1.01-0.4-0.82c-86.68,30.56-143.73-31.11-143.73-31.11
						c-81.4-75.12-53.49-187.8-53.49-187.8c19.34,42.36,82.43,51.18,107.86,53.01c14.12,1.02,28.05,4.27,40.73,10.43
						c60.88,29.65,68.89,101.53,69.91,122.85c0.04,0.9,1.35,0.98,1.55,0.1c22.54-100.48-34.89-139.41-74.14-154.06
						c-15.09-5.64-31.21-7.9-47.37-7.56c-81.01,1.71-110.17-54.36-110.17-54.36C75.36,153.6,74.98,205.11,76.47,241.64"/>
				</defs>
				<use xlink:href="#SVGID_00000026883224065351107960000012395400950475882914_"  style="overflow:visible;fill:#73943D;"/>
				<clipPath id="SVGID_00000142134437923521939480000000940213091602787968_">
					<use xlink:href="#SVGID_00000026883224065351107960000012395400950475882914_"  style="overflow:visible;"/>
				</clipPath>
				
					<rect x="71.29" y="133.91" style="clip-path:url(#SVGID_00000142134437923521939480000000940213091602787968_);fill:#73943D;" width="270.5" height="305.99"/>
			</g>
			<g>
				<defs>
					<path id="SVGID_00000103987060483550112580000018235002212588256177_" d="M338.09,119.62c2.68,9.67,4.76,19.54,5.38,29.55
						c0.77,9.97,0.87,20.05-0.37,30.02c-0.28,5.03-1.4,9.94-2.18,14.91c-0.85,4.97-2.3,9.81-3.33,14.78c0.8-2.4,1.58-4.81,2.34-7.22
						c0.71-2.43,1.67-4.81,2.14-7.3c1.02-4.96,2.35-9.89,2.86-14.95c0.33-2.52,0.74-5.03,0.94-7.56l0.35-7.62
						c0.2-2.54,0.06-5.08,0-7.62c-0.12-2.54-0.02-5.09-0.35-7.62l-0.84-7.59l-1.32-7.52c-1.04-4.98-2.18-9.95-3.84-14.77
						c-1.55-4.85-3.48-9.58-5.56-14.22c-2.27-4.56-4.62-9.1-7.6-13.24C331.69,100.49,335.34,109.96,338.09,119.62"/>
				</defs>
				<use xlink:href="#SVGID_00000103987060483550112580000018235002212588256177_"  style="overflow:visible;fill:#73943D;"/>
				<clipPath id="SVGID_00000167367604974699940720000005046039605892569764_">
					<use xlink:href="#SVGID_00000103987060483550112580000018235002212588256177_"  style="overflow:visible;"/>
				</clipPath>
				
					<rect x="326.71" y="91.64" style="clip-path:url(#SVGID_00000167367604974699940720000005046039605892569764_);fill:#73943D;" width="19.71" height="117.23"/>
			</g>
			<g>
				<defs>
					<path id="SVGID_00000109717684705664774680000012804682394092986014_" d="M416.69,223.26c-7.81,1.31-20.66,4.38-34.16,12.52
						c-3.03,1.82-44.24,27.62-46.01,74.4c-0.28,7.31,0.15,21.82,7.95,38.99c0.39,0.86,1.73,0.49,1.6-0.44
						c-11.21-80.81,46.04-95.58,58.41-97.81c2.27-0.41,4.51-0.91,6.72-1.52c57.31-15.85,72.36-44.92,72.36-44.92
						c2.78,7.11,20.66,55.12-6.06,102.22c-21.79,38.41-65.07,61.85-112.15,61.41c-1.51-0.01-1.89,2.04-0.48,2.54
						c95.44,33.84,129.15-48.38,129.15-48.38C529.5,246.59,488.79,184,488.79,184C476.58,214.72,416.69,223.26,416.69,223.26"/>
				</defs>
				<use xlink:href="#SVGID_00000109717684705664774680000012804682394092986014_"  style="overflow:visible;fill:#73943D;"/>
				<clipPath id="SVGID_00000067952882380505574300000002751878598660246179_">
					<use xlink:href="#SVGID_00000109717684705664774680000012804682394092986014_"  style="overflow:visible;"/>
				</clipPath>
				
					<rect x="334.86" y="184" style="clip-path:url(#SVGID_00000067952882380505574300000002751878598660246179_);fill:#73943D;" width="194.64" height="220.5"/>
			</g>
			<g>
				<defs>
					<path id="SVGID_00000157281002350306218300000010918886090997380527_" d="M473.42,245.1c-2.36,7.09-5.31,13.98-8.88,20.55
						c-3.6,6.56-7.55,12.93-12.1,18.89c-4.53,5.97-9.54,11.58-14.87,16.87c-5.28,5.35-11.07,10.19-16.99,14.86
						c-6.05,4.51-12.27,8.83-18.78,12.7c-6.44,3.98-13.18,7.49-20,10.85c-3.42,1.65-6.91,3.2-10.36,4.81l-10.56,4.4l10.81-3.83
						c3.53-1.45,7.1-2.83,10.61-4.33c6.95-3.17,13.84-6.51,20.46-10.35l4.97-2.87l4.81-3.12c3.25-2.02,6.27-4.37,9.39-6.56
						c6.05-4.66,11.96-9.52,17.36-14.9c10.74-10.81,20.11-23.03,26.91-36.59c6.73-13.51,11.53-28.19,12.14-43.21
						C477.61,230.72,475.81,238.03,473.42,245.1"/>
				</defs>
				<use xlink:href="#SVGID_00000157281002350306218300000010918886090997380527_"  style="overflow:visible;fill:#73943D;"/>
				<clipPath id="SVGID_00000049189807042550526440000018340310841080447912_">
					<use xlink:href="#SVGID_00000157281002350306218300000010918886090997380527_"  style="overflow:visible;"/>
				</clipPath>
				
					<rect x="360.87" y="223.26" style="clip-path:url(#SVGID_00000049189807042550526440000018340310841080447912_);fill:#73943D;" width="117.46" height="125.77"/>
			</g>
			<g>
				<defs>
					<path id="SVGID_00000111901016913890830130000001911606449734778804_" d="M113.51,208.95c1.83,4.44,3.57,8.91,5.5,13.33
						c4.11,8.79,8.51,17.52,13.72,26.01l3.9,6.37l4.31,6.22c2.77,4.19,6.09,8.15,9.16,12.23c6.58,7.94,13.48,15.76,21.29,23.06
						c15.68,14.51,33.76,27.63,54.26,37.89c20.44,10.18,42.96,18.25,66.55,21.38c-11.66-2.04-22.95-5.35-33.8-9.33
						c-10.87-3.95-21.37-8.56-31.26-13.86c-9.87-5.34-19.42-11.06-28.23-17.43c-8.83-6.35-17.05-13.2-24.71-20.41
						c-7.76-7.15-14.66-14.81-21.27-22.61c-6.34-7.93-12.36-16.02-17.64-24.4c-5.47-8.3-10.14-16.9-14.57-25.55
						c-2.18-4.34-4.18-8.73-6.27-13.1l-5.6-13.28L113.51,208.95z"/>
				</defs>
				<use xlink:href="#SVGID_00000111901016913890830130000001911606449734778804_"  style="overflow:visible;fill:#73943D;"/>
				<clipPath id="SVGID_00000135659894239139318720000013029139792890561708_">
					<use xlink:href="#SVGID_00000111901016913890830130000001911606449734778804_"  style="overflow:visible;"/>
				</clipPath>
				<polygon style="clip-path:url(#SVGID_00000135659894239139318720000013029139792890561708_);fill:#73943D;" points="
					307.04,215.62 292.2,355.44 94.01,335.3 108.85,195.47 				"/>
			</g>
		</g>
	</g>
	<g>
		<path class="st7" d="M98.27,416.56h10.78v47.89H98.27v-20.32h-18.1v20.32H69.39v-47.89h10.78v18.31h18.1V416.56z"/>
		<path class="st7" d="M132.47,427.13c3.04,0,5.57,0.35,7.6,1.04c2.03,0.69,3.65,1.68,4.87,2.97c1.22,1.29,2.08,2.86,2.59,4.7
			c0.51,1.84,0.76,3.89,0.76,6.15v21.42c-1.47,0.32-3.52,0.7-6.15,1.14s-5.8,0.66-9.54,0.66c-2.35,0-4.48-0.21-6.39-0.62
			c-1.91-0.42-3.56-1.09-4.94-2.04c-1.38-0.94-2.44-2.18-3.18-3.7c-0.74-1.52-1.11-3.39-1.11-5.6c0-2.12,0.43-3.92,1.28-5.39
			c0.85-1.47,1.99-2.65,3.42-3.52c1.43-0.88,3.06-1.51,4.91-1.9c1.84-0.39,3.75-0.59,5.74-0.59c1.34,0,2.52,0.06,3.56,0.17
			c1.04,0.12,1.88,0.26,2.52,0.45v-0.97c0-1.75-0.53-3.16-1.59-4.22c-1.06-1.06-2.9-1.59-5.53-1.59c-1.75,0-3.48,0.13-5.18,0.38
			c-1.71,0.25-3.18,0.61-4.42,1.07l-1.31-8.29c0.6-0.18,1.35-0.38,2.25-0.59c0.9-0.21,1.88-0.39,2.94-0.55
			c1.06-0.16,2.18-0.3,3.35-0.41C130.09,427.19,131.28,427.13,132.47,427.13z M133.3,457.26c1.01,0,1.98-0.02,2.9-0.07
			c0.92-0.04,1.66-0.11,2.21-0.21v-7.81c-0.41-0.09-1.04-0.18-1.87-0.28c-0.83-0.09-1.59-0.14-2.28-0.14
			c-0.97,0-1.88,0.06-2.73,0.17c-0.85,0.12-1.6,0.33-2.25,0.66c-0.65,0.32-1.15,0.76-1.52,1.31c-0.37,0.55-0.55,1.24-0.55,2.07
			c0,1.61,0.54,2.73,1.62,3.35C129.93,456.95,131.41,457.26,133.3,457.26z"/>
		<path class="st7" d="M191.42,446.27c0,2.9-0.43,5.53-1.28,7.88c-0.85,2.35-2.08,4.35-3.7,6.01c-1.61,1.66-3.59,2.94-5.94,3.83
			c-2.35,0.9-5.02,1.35-8.02,1.35c-1.24,0-2.55-0.06-3.9-0.17c-1.36-0.12-2.69-0.27-4.01-0.45c-1.31-0.18-2.57-0.4-3.77-0.66
			c-1.2-0.25-2.26-0.52-3.18-0.79v-50.79l10.3-1.66v18.1c1.15-0.51,2.35-0.9,3.59-1.17c1.24-0.28,2.58-0.42,4.01-0.42
			c2.58,0,4.86,0.45,6.84,1.35c1.98,0.9,3.64,2.18,4.98,3.83c1.34,1.66,2.35,3.65,3.04,5.98
			C191.07,440.82,191.42,443.42,191.42,446.27z M180.91,446c0-6.63-2.44-9.95-7.32-9.95c-1.06,0-2.11,0.14-3.14,0.41
			s-1.88,0.62-2.52,1.04v18.73c0.51,0.09,1.15,0.17,1.93,0.24c0.78,0.07,1.63,0.1,2.56,0.1c2.81,0,4.93-0.97,6.36-2.9
			C180.2,451.73,180.91,449.17,180.91,446z"/>
		<path class="st7" d="M212.42,427.13c3.04,0,5.57,0.35,7.6,1.04c2.03,0.69,3.65,1.68,4.87,2.97c1.22,1.29,2.08,2.86,2.59,4.7
			c0.51,1.84,0.76,3.89,0.76,6.15v21.42c-1.47,0.32-3.52,0.7-6.15,1.14s-5.8,0.66-9.54,0.66c-2.35,0-4.48-0.21-6.39-0.62
			c-1.91-0.42-3.56-1.09-4.94-2.04c-1.38-0.94-2.44-2.18-3.18-3.7c-0.74-1.52-1.11-3.39-1.11-5.6c0-2.12,0.43-3.92,1.28-5.39
			c0.85-1.47,1.99-2.65,3.42-3.52c1.43-0.88,3.06-1.51,4.91-1.9c1.84-0.39,3.75-0.59,5.74-0.59c1.34,0,2.52,0.06,3.56,0.17
			c1.04,0.12,1.88,0.26,2.52,0.45v-0.97c0-1.75-0.53-3.16-1.59-4.22c-1.06-1.06-2.9-1.59-5.53-1.59c-1.75,0-3.48,0.13-5.18,0.38
			c-1.71,0.25-3.18,0.61-4.42,1.07l-1.31-8.29c0.6-0.18,1.35-0.38,2.25-0.59c0.9-0.21,1.88-0.39,2.94-0.55
			c1.06-0.16,2.18-0.3,3.35-0.41C210.04,427.19,211.22,427.13,212.42,427.13z M213.25,457.26c1.01,0,1.98-0.02,2.9-0.07
			c0.92-0.04,1.66-0.11,2.21-0.21v-7.81c-0.41-0.09-1.04-0.18-1.87-0.28c-0.83-0.09-1.59-0.14-2.28-0.14
			c-0.97,0-1.88,0.06-2.73,0.17c-0.85,0.12-1.6,0.33-2.25,0.66c-0.65,0.32-1.15,0.76-1.52,1.31c-0.37,0.55-0.55,1.24-0.55,2.07
			c0,1.61,0.54,2.73,1.62,3.35C209.88,456.95,211.36,457.26,213.25,457.26z"/>
		<path class="st8" d="M286.98,464.45c-3.09-5.48-6.43-10.89-10.02-16.24c-3.59-5.34-7.42-10.39-11.47-15.13v31.37h-10.64v-47.89
			h8.78c1.52,1.52,3.2,3.39,5.04,5.6c1.84,2.21,3.72,4.57,5.63,7.08c1.91,2.51,3.81,5.11,5.7,7.81c1.89,2.69,3.66,5.29,5.32,7.77
			v-28.26h10.71v47.89H286.98z"/>
		<path class="st8" d="M319.46,427.13c3.04,0,5.57,0.35,7.6,1.04c2.03,0.69,3.65,1.68,4.87,2.97c1.22,1.29,2.08,2.86,2.59,4.7
			s0.76,3.89,0.76,6.15v21.42c-1.48,0.32-3.52,0.7-6.15,1.14s-5.8,0.66-9.54,0.66c-2.35,0-4.48-0.21-6.39-0.62
			c-1.91-0.42-3.56-1.09-4.94-2.04c-1.38-0.94-2.44-2.18-3.18-3.7c-0.74-1.52-1.11-3.39-1.11-5.6c0-2.12,0.42-3.92,1.28-5.39
			c0.85-1.47,1.99-2.65,3.42-3.52c1.43-0.88,3.06-1.51,4.91-1.9c1.84-0.39,3.75-0.59,5.74-0.59c1.34,0,2.52,0.06,3.56,0.17
			c1.04,0.12,1.88,0.26,2.52,0.45v-0.97c0-1.75-0.53-3.16-1.59-4.22c-1.06-1.06-2.9-1.59-5.53-1.59c-1.75,0-3.48,0.13-5.18,0.38
			c-1.71,0.25-3.18,0.61-4.42,1.07l-1.31-8.29c0.6-0.18,1.35-0.38,2.25-0.59c0.9-0.21,1.88-0.39,2.94-0.55
			c1.06-0.16,2.18-0.3,3.35-0.41C317.08,427.19,318.26,427.13,319.46,427.13z M320.29,457.26c1.01,0,1.98-0.02,2.9-0.07
			c0.92-0.04,1.66-0.11,2.21-0.21v-7.81c-0.42-0.09-1.04-0.18-1.87-0.28c-0.83-0.09-1.59-0.14-2.28-0.14
			c-0.97,0-1.88,0.06-2.73,0.17c-0.85,0.12-1.6,0.33-2.25,0.66c-0.65,0.32-1.15,0.76-1.52,1.31c-0.37,0.55-0.55,1.24-0.55,2.07
			c0,1.61,0.54,2.73,1.62,3.35C316.91,456.95,318.4,457.26,320.29,457.26z"/>
		<path class="st7" d="M390.77,416.56h10.78v47.89h-10.78v-20.32h-18.1v20.32h-10.78v-47.89h10.78v18.31h18.1V416.56z"/>
		<path class="st7" d="M424.98,427.13c3.04,0,5.57,0.35,7.6,1.04c2.03,0.69,3.65,1.68,4.87,2.97c1.22,1.29,2.08,2.86,2.59,4.7
			s0.76,3.89,0.76,6.15v21.42c-1.48,0.32-3.52,0.7-6.15,1.14s-5.8,0.66-9.54,0.66c-2.35,0-4.48-0.21-6.39-0.62
			c-1.91-0.42-3.56-1.09-4.94-2.04c-1.38-0.94-2.44-2.18-3.18-3.7c-0.74-1.52-1.11-3.39-1.11-5.6c0-2.12,0.42-3.92,1.28-5.39
			c0.85-1.47,1.99-2.65,3.42-3.52c1.43-0.88,3.06-1.51,4.91-1.9c1.84-0.39,3.75-0.59,5.74-0.59c1.34,0,2.52,0.06,3.56,0.17
			c1.04,0.12,1.88,0.26,2.52,0.45v-0.97c0-1.75-0.53-3.16-1.59-4.22c-1.06-1.06-2.9-1.59-5.53-1.59c-1.75,0-3.48,0.13-5.18,0.38
			c-1.71,0.25-3.18,0.61-4.42,1.07l-1.31-8.29c0.6-0.18,1.35-0.38,2.25-0.59c0.9-0.21,1.88-0.39,2.94-0.55
			c1.06-0.16,2.18-0.3,3.35-0.41C422.59,427.19,423.78,427.13,424.98,427.13z M425.81,457.26c1.01,0,1.98-0.02,2.9-0.07
			c0.92-0.04,1.66-0.11,2.21-0.21v-7.81c-0.42-0.09-1.04-0.18-1.87-0.28c-0.83-0.09-1.59-0.14-2.28-0.14
			c-0.97,0-1.88,0.06-2.73,0.17c-0.85,0.12-1.6,0.33-2.25,0.66c-0.65,0.32-1.15,0.76-1.52,1.31c-0.37,0.55-0.55,1.24-0.55,2.07
			c0,1.61,0.54,2.73,1.62,3.35C422.43,456.95,423.92,457.26,425.81,457.26z"/>
		<path class="st7" d="M483.92,446.27c0,2.9-0.43,5.53-1.28,7.88c-0.85,2.35-2.08,4.35-3.7,6.01c-1.61,1.66-3.59,2.94-5.94,3.83
			c-2.35,0.9-5.02,1.35-8.02,1.35c-1.24,0-2.55-0.06-3.9-0.17c-1.36-0.12-2.7-0.27-4.01-0.45c-1.31-0.18-2.57-0.4-3.77-0.66
			c-1.2-0.25-2.26-0.52-3.18-0.79v-50.79l10.3-1.66v18.1c1.15-0.51,2.35-0.9,3.59-1.17s2.58-0.42,4.01-0.42
			c2.58,0,4.86,0.45,6.84,1.35c1.98,0.9,3.64,2.18,4.98,3.83c1.33,1.66,2.35,3.65,3.04,5.98
			C483.57,440.82,483.92,443.42,483.92,446.27z M473.42,446c0-6.63-2.44-9.95-7.32-9.95c-1.06,0-2.11,0.14-3.14,0.41
			s-1.88,0.62-2.52,1.04v18.73c0.51,0.09,1.15,0.17,1.94,0.24c0.78,0.07,1.63,0.1,2.56,0.1c2.81,0,4.93-0.97,6.36-2.9
			C472.7,451.73,473.42,449.17,473.42,446z"/>
		<path class="st7" d="M504.93,427.13c3.04,0,5.57,0.35,7.6,1.04c2.03,0.69,3.65,1.68,4.87,2.97c1.22,1.29,2.08,2.86,2.59,4.7
			s0.76,3.89,0.76,6.15v21.42c-1.48,0.32-3.52,0.7-6.15,1.14s-5.8,0.66-9.54,0.66c-2.35,0-4.48-0.21-6.39-0.62
			c-1.91-0.42-3.56-1.09-4.94-2.04c-1.38-0.94-2.44-2.18-3.18-3.7c-0.74-1.52-1.11-3.39-1.11-5.6c0-2.12,0.42-3.92,1.28-5.39
			c0.85-1.47,1.99-2.65,3.42-3.52c1.43-0.88,3.06-1.51,4.91-1.9c1.84-0.39,3.75-0.59,5.74-0.59c1.34,0,2.52,0.06,3.56,0.17
			c1.04,0.12,1.88,0.26,2.52,0.45v-0.97c0-1.75-0.53-3.16-1.59-4.22c-1.06-1.06-2.9-1.59-5.53-1.59c-1.75,0-3.48,0.13-5.18,0.38
			c-1.71,0.25-3.18,0.61-4.42,1.07l-1.31-8.29c0.6-0.18,1.35-0.38,2.25-0.59c0.9-0.21,1.88-0.39,2.94-0.55
			c1.06-0.16,2.18-0.3,3.35-0.41C502.54,427.19,503.73,427.13,504.93,427.13z M505.75,457.26c1.01,0,1.98-0.02,2.9-0.07
			c0.92-0.04,1.66-0.11,2.21-0.21v-7.81c-0.42-0.09-1.04-0.18-1.87-0.28c-0.83-0.09-1.59-0.14-2.28-0.14
			c-0.97,0-1.88,0.06-2.73,0.17c-0.85,0.12-1.6,0.33-2.25,0.66c-0.65,0.32-1.15,0.76-1.52,1.31c-0.37,0.55-0.55,1.24-0.55,2.07
			c0,1.61,0.54,2.73,1.62,3.35C502.38,456.95,503.87,457.26,505.75,457.26z"/>
	</g>
	<g>
		<g>
			<path class="st7" d="M100.44,520.46v-12.47h7.52v1.49h-5.78v3.76h5.13v1.48h-5.13v5.74H100.44z"/>
			<path class="st7" d="M117.65,515.78c0,0.74-0.11,1.42-0.32,2.02c-0.22,0.6-0.52,1.12-0.91,1.55c-0.39,0.43-0.85,0.77-1.4,1
				c-0.54,0.23-1.13,0.35-1.76,0.35c-0.64,0-1.22-0.12-1.76-0.35c-0.54-0.23-1.01-0.57-1.4-1c-0.39-0.43-0.69-0.95-0.91-1.55
				c-0.22-0.6-0.32-1.27-0.32-2.02c0-0.73,0.11-1.4,0.32-2.01c0.22-0.61,0.52-1.12,0.91-1.56c0.39-0.43,0.85-0.76,1.4-1
				c0.54-0.23,1.13-0.35,1.76-0.35c0.64,0,1.22,0.12,1.76,0.35c0.54,0.23,1,0.57,1.4,1c0.39,0.43,0.69,0.95,0.91,1.56
				C117.54,514.38,117.65,515.05,117.65,515.78z M115.9,515.78c0-1.06-0.24-1.89-0.71-2.51c-0.47-0.62-1.12-0.93-1.93-0.93
				c-0.82,0-1.46,0.31-1.94,0.93c-0.47,0.62-0.71,1.46-0.71,2.51s0.24,1.89,0.71,2.51c0.47,0.62,1.12,0.93,1.94,0.93
				c0.82,0,1.46-0.31,1.93-0.93S115.9,516.84,115.9,515.78z"/>
			<path class="st7" d="M127.91,515.78c0,0.74-0.11,1.42-0.32,2.02c-0.22,0.6-0.52,1.12-0.91,1.55c-0.39,0.43-0.85,0.77-1.4,1
				c-0.54,0.23-1.13,0.35-1.76,0.35c-0.64,0-1.22-0.12-1.76-0.35c-0.54-0.23-1.01-0.57-1.4-1c-0.39-0.43-0.69-0.95-0.91-1.55
				c-0.22-0.6-0.32-1.27-0.32-2.02c0-0.73,0.11-1.4,0.32-2.01c0.22-0.61,0.52-1.12,0.91-1.56c0.39-0.43,0.85-0.76,1.4-1
				c0.54-0.23,1.13-0.35,1.76-0.35c0.64,0,1.22,0.12,1.76,0.35c0.54,0.23,1,0.57,1.4,1c0.39,0.43,0.69,0.95,0.91,1.56
				C127.8,514.38,127.91,515.05,127.91,515.78z M126.16,515.78c0-1.06-0.24-1.89-0.71-2.51c-0.47-0.62-1.12-0.93-1.93-0.93
				c-0.82,0-1.46,0.31-1.94,0.93c-0.47,0.62-0.71,1.46-0.71,2.51s0.24,1.89,0.71,2.51c0.47,0.62,1.12,0.93,1.94,0.93
				c0.82,0,1.46-0.31,1.93-0.93S126.16,516.84,126.16,515.78z"/>
			<path class="st7" d="M135.95,506.78l1.67-0.29v13.7c-0.38,0.11-0.88,0.22-1.48,0.32c-0.6,0.11-1.29,0.16-2.07,0.16
				c-0.72,0-1.37-0.11-1.94-0.34s-1.07-0.55-1.48-0.97c-0.41-0.42-0.72-0.93-0.94-1.54c-0.22-0.61-0.33-1.29-0.33-2.04
				c0-0.72,0.09-1.38,0.28-1.98c0.19-0.6,0.46-1.12,0.82-1.55c0.36-0.43,0.8-0.77,1.32-1.01s1.12-0.36,1.79-0.36
				c0.54,0,1.02,0.07,1.43,0.22c0.41,0.14,0.72,0.28,0.93,0.41V506.78z M135.95,513.08c-0.2-0.17-0.5-0.33-0.88-0.49
				c-0.38-0.16-0.8-0.23-1.26-0.23c-0.48,0-0.89,0.09-1.23,0.26c-0.34,0.17-0.62,0.41-0.84,0.72s-0.37,0.67-0.47,1.09
				c-0.1,0.42-0.14,0.87-0.14,1.35c0,1.09,0.27,1.93,0.81,2.53c0.54,0.59,1.26,0.89,2.16,0.89c0.46,0,0.84-0.02,1.14-0.06
				s0.54-0.09,0.71-0.13V513.08z"/>
			<path class="st7" d="M141.91,518.41c0.01,0.1,0.02,0.19,0.02,0.28c0,0.09,0,0.18,0,0.28c0,0.76-0.11,1.5-0.33,2.24
				s-0.52,1.44-0.91,2.12l-1.3-0.41c0.3-0.61,0.5-1.23,0.59-1.86c0.1-0.63,0.14-1.22,0.14-1.77c0-0.16,0-0.31-0.01-0.45
				c-0.01-0.14-0.02-0.28-0.03-0.41H141.91z"/>
			<path class="st7" d="M153.48,520.73c-0.88,0-1.67-0.14-2.39-0.43c-0.72-0.29-1.34-0.71-1.85-1.26c-0.52-0.55-0.92-1.23-1.2-2.04
				c-0.28-0.81-0.42-1.74-0.42-2.78s0.16-1.97,0.48-2.78c0.32-0.81,0.75-1.49,1.29-2.04c0.54-0.55,1.17-0.97,1.89-1.26
				c0.72-0.29,1.49-0.43,2.3-0.43c0.52,0,0.98,0.04,1.4,0.11c0.41,0.07,0.77,0.16,1.08,0.25c0.31,0.1,0.55,0.19,0.75,0.29
				c0.19,0.1,0.32,0.17,0.4,0.22l-0.5,1.44c-0.11-0.07-0.26-0.15-0.47-0.23c-0.2-0.08-0.44-0.17-0.69-0.25
				c-0.26-0.08-0.54-0.15-0.85-0.21c-0.31-0.05-0.62-0.08-0.93-0.08c-0.66,0-1.25,0.11-1.78,0.34c-0.53,0.23-0.98,0.56-1.35,0.99
				c-0.37,0.43-0.66,0.96-0.85,1.58c-0.2,0.62-0.3,1.31-0.3,2.08c0,0.74,0.09,1.42,0.26,2.03s0.44,1.14,0.78,1.58
				c0.35,0.44,0.78,0.78,1.31,1.02s1.13,0.36,1.83,0.36c0.8,0,1.47-0.08,2-0.25c0.53-0.17,0.92-0.32,1.19-0.45l0.45,1.44
				c-0.08,0.06-0.23,0.14-0.45,0.23c-0.22,0.09-0.49,0.18-0.81,0.26c-0.32,0.08-0.7,0.16-1.13,0.22
				C154.46,520.7,153.99,520.73,153.48,520.73z"/>
			<path class="st7" d="M161.62,520.64c-1.03-0.02-1.76-0.25-2.2-0.67c-0.43-0.42-0.65-1.07-0.65-1.96v-11.23l1.67-0.29v11.25
				c0,0.28,0.02,0.5,0.07,0.68c0.05,0.18,0.13,0.32,0.23,0.43c0.11,0.11,0.25,0.19,0.43,0.24c0.18,0.05,0.4,0.1,0.67,0.14
				L161.62,520.64z"/>
			<path class="st7" d="M171.63,515.78c0,0.74-0.11,1.42-0.32,2.02c-0.22,0.6-0.52,1.12-0.91,1.55c-0.39,0.43-0.85,0.77-1.4,1
				c-0.54,0.23-1.13,0.35-1.76,0.35c-0.64,0-1.22-0.12-1.76-0.35c-0.54-0.23-1.01-0.57-1.4-1c-0.39-0.43-0.69-0.95-0.91-1.55
				c-0.22-0.6-0.32-1.27-0.32-2.02c0-0.73,0.11-1.4,0.32-2.01c0.22-0.61,0.52-1.12,0.91-1.56c0.39-0.43,0.85-0.76,1.4-1
				c0.54-0.23,1.13-0.35,1.76-0.35c0.64,0,1.22,0.12,1.76,0.35c0.54,0.23,1,0.57,1.4,1c0.39,0.43,0.69,0.95,0.91,1.56
				C171.52,514.38,171.63,515.05,171.63,515.78z M169.88,515.78c0-1.06-0.24-1.89-0.71-2.51c-0.47-0.62-1.12-0.93-1.93-0.93
				c-0.82,0-1.46,0.31-1.94,0.93c-0.47,0.62-0.71,1.46-0.71,2.51s0.24,1.89,0.71,2.51c0.47,0.62,1.12,0.93,1.94,0.93
				c0.82,0,1.46-0.31,1.93-0.93S169.88,516.84,169.88,515.78z"/>
			<path class="st7" d="M175.19,511.1h3.55v1.4h-3.55v4.32c0,0.47,0.04,0.85,0.11,1.16c0.07,0.31,0.18,0.55,0.32,0.72
				s0.32,0.3,0.54,0.37c0.22,0.07,0.47,0.11,0.76,0.11c0.5,0,0.91-0.06,1.21-0.17c0.31-0.11,0.52-0.19,0.64-0.24l0.32,1.39
				c-0.17,0.08-0.46,0.19-0.88,0.31s-0.9,0.19-1.44,0.19c-0.64,0-1.16-0.08-1.58-0.24c-0.41-0.16-0.75-0.41-1-0.73
				c-0.25-0.32-0.43-0.72-0.53-1.2c-0.1-0.47-0.15-1.02-0.15-1.65v-8.35l1.67-0.29V511.1z"/>
			<path class="st7" d="M180.5,520.46v-13.68l1.67-0.29v4.79c0.31-0.12,0.65-0.21,1-0.28c0.35-0.07,0.71-0.1,1.05-0.1
				c0.74,0,1.36,0.1,1.85,0.31c0.49,0.21,0.88,0.5,1.18,0.88s0.5,0.83,0.62,1.36c0.12,0.53,0.18,1.11,0.18,1.75v5.26h-1.67v-4.9
				c0-0.58-0.04-1.07-0.12-1.48c-0.08-0.41-0.21-0.74-0.39-0.99c-0.18-0.25-0.42-0.43-0.72-0.55c-0.3-0.11-0.67-0.17-1.12-0.17
				c-0.18,0-0.37,0.01-0.56,0.04s-0.38,0.05-0.55,0.08c-0.17,0.03-0.33,0.06-0.47,0.1c-0.14,0.04-0.24,0.07-0.3,0.09v7.78H180.5z"/>
			<path class="st7" d="M192.18,518.41c0.01,0.1,0.02,0.19,0.02,0.28c0,0.09,0,0.18,0,0.28c0,0.76-0.11,1.5-0.33,2.24
				s-0.52,1.44-0.91,2.12l-1.3-0.41c0.3-0.61,0.5-1.23,0.59-1.86c0.1-0.63,0.14-1.22,0.14-1.77c0-0.16,0-0.31-0.01-0.45
				c-0.01-0.14-0.02-0.28-0.03-0.41H192.18z"/>
			<path class="st7" d="M203.76,520.73c-0.88,0-1.67-0.14-2.39-0.43c-0.72-0.29-1.34-0.71-1.85-1.26c-0.52-0.55-0.92-1.23-1.2-2.04
				c-0.28-0.81-0.42-1.74-0.42-2.78s0.16-1.97,0.48-2.78c0.32-0.81,0.75-1.49,1.29-2.04c0.54-0.55,1.17-0.97,1.89-1.26
				c0.72-0.29,1.49-0.43,2.3-0.43c0.52,0,0.98,0.04,1.4,0.11c0.41,0.07,0.77,0.16,1.08,0.25c0.31,0.1,0.55,0.19,0.75,0.29
				c0.19,0.1,0.32,0.17,0.4,0.22l-0.5,1.44c-0.11-0.07-0.26-0.15-0.47-0.23c-0.2-0.08-0.44-0.17-0.69-0.25
				c-0.26-0.08-0.54-0.15-0.85-0.21c-0.31-0.05-0.62-0.08-0.93-0.08c-0.66,0-1.25,0.11-1.78,0.34c-0.53,0.23-0.98,0.56-1.35,0.99
				c-0.37,0.43-0.66,0.96-0.85,1.58c-0.2,0.62-0.3,1.31-0.3,2.08c0,0.74,0.09,1.42,0.26,2.03s0.44,1.14,0.78,1.58
				c0.35,0.44,0.78,0.78,1.31,1.02s1.13,0.36,1.83,0.36c0.8,0,1.47-0.08,2-0.25c0.53-0.17,0.92-0.32,1.19-0.45l0.45,1.44
				c-0.08,0.06-0.23,0.14-0.45,0.23c-0.22,0.09-0.49,0.18-0.81,0.26c-0.32,0.08-0.7,0.16-1.13,0.22
				C204.73,520.7,204.26,520.73,203.76,520.73z"/>
			<path class="st7" d="M216.18,520.19c-0.38,0.1-0.89,0.2-1.52,0.31c-0.63,0.11-1.36,0.16-2.19,0.16c-0.72,0-1.33-0.11-1.82-0.32
				s-0.89-0.51-1.19-0.89s-0.52-0.84-0.65-1.36c-0.13-0.52-0.2-1.1-0.2-1.74v-5.26h1.67v4.9c0,1.14,0.18,1.96,0.54,2.45
				s0.97,0.74,1.82,0.74c0.18,0,0.37-0.01,0.56-0.02s0.37-0.03,0.54-0.04c0.17-0.02,0.32-0.04,0.46-0.05
				c0.14-0.02,0.24-0.04,0.3-0.06v-7.9h1.67V520.19z"/>
			<path class="st7" d="M222.15,510.9c0.14,0,0.31,0.01,0.49,0.03c0.19,0.02,0.37,0.04,0.55,0.07c0.18,0.03,0.34,0.06,0.5,0.09
				c0.15,0.03,0.26,0.06,0.33,0.08l-0.29,1.46c-0.13-0.05-0.35-0.1-0.66-0.17c-0.31-0.07-0.7-0.1-1.18-0.1
				c-0.31,0-0.62,0.03-0.93,0.1c-0.31,0.07-0.51,0.11-0.6,0.13v7.87h-1.67v-8.96c0.4-0.14,0.89-0.28,1.48-0.41
				C220.76,510.97,221.42,510.9,222.15,510.9z"/>
			<path class="st7" d="M224.76,515.8c0-0.83,0.12-1.55,0.36-2.17c0.24-0.62,0.56-1.13,0.95-1.54c0.4-0.41,0.85-0.71,1.37-0.92
				c0.52-0.2,1.04-0.31,1.58-0.31c1.26,0,2.23,0.39,2.9,1.18c0.67,0.79,1.01,1.98,1.01,3.59c0,0.07,0,0.17,0,0.28
				s-0.01,0.22-0.02,0.31h-6.41c0.07,0.97,0.35,1.71,0.85,2.21s1.26,0.76,2.3,0.76c0.59,0,1.08-0.05,1.48-0.15
				c0.4-0.1,0.71-0.2,0.91-0.3l0.23,1.4c-0.2,0.11-0.56,0.22-1.07,0.34c-0.51,0.12-1.09,0.18-1.74,0.18c-0.82,0-1.52-0.12-2.11-0.37
				c-0.59-0.25-1.08-0.58-1.47-1.02c-0.38-0.43-0.67-0.95-0.85-1.54S224.76,516.51,224.76,515.8z M231.19,514.88
				c0.01-0.76-0.18-1.38-0.57-1.86c-0.39-0.49-0.93-0.73-1.61-0.73c-0.38,0-0.72,0.08-1.02,0.22c-0.29,0.15-0.54,0.35-0.75,0.58
				c-0.2,0.24-0.36,0.52-0.48,0.83c-0.11,0.31-0.19,0.63-0.23,0.95H231.19z"/>
			<path class="st7" d="M236.75,518.41c0.01,0.1,0.02,0.19,0.02,0.28c0,0.09,0,0.18,0,0.28c0,0.76-0.11,1.5-0.33,2.24
				s-0.52,1.44-0.91,2.12l-1.3-0.41c0.3-0.61,0.5-1.23,0.59-1.86c0.1-0.63,0.14-1.22,0.14-1.77c0-0.16,0-0.31-0.01-0.45
				c-0.01-0.14-0.02-0.28-0.03-0.41H236.75z"/>
			<path class="st7" d="M253.2,514.21c0,1.08-0.17,2.02-0.5,2.82s-0.81,1.46-1.42,1.98c-0.61,0.52-1.34,0.91-2.2,1.17
				c-0.85,0.26-1.79,0.39-2.81,0.39c-0.5,0-1.06-0.02-1.67-0.06s-1.16-0.12-1.65-0.24v-12.1c0.49-0.12,1.04-0.2,1.65-0.24
				s1.16-0.06,1.67-0.06c1.02,0,1.96,0.13,2.81,0.39c0.85,0.26,1.58,0.65,2.2,1.17c0.61,0.52,1.09,1.18,1.42,1.98
				C253.03,512.2,253.2,513.13,253.2,514.21z M246.42,519.04c1.66,0,2.89-0.42,3.71-1.27c0.82-0.85,1.22-2.03,1.22-3.55
				c0-1.52-0.41-2.71-1.22-3.55c-0.82-0.85-2.05-1.27-3.71-1.27c-0.49,0-0.87,0.01-1.14,0.02s-0.46,0.02-0.57,0.04v9.54
				c0.11,0.01,0.3,0.02,0.57,0.04C245.54,519.03,245.92,519.04,246.42,519.04z"/>
			<path class="st7" d="M254.8,515.8c0-0.83,0.12-1.55,0.36-2.17c0.24-0.62,0.56-1.13,0.95-1.54c0.4-0.41,0.85-0.71,1.37-0.92
				c0.52-0.2,1.04-0.31,1.58-0.31c1.26,0,2.23,0.39,2.9,1.18c0.67,0.79,1.01,1.98,1.01,3.59c0,0.07,0,0.17,0,0.28
				s-0.01,0.22-0.02,0.31h-6.41c0.07,0.97,0.35,1.71,0.85,2.21s1.26,0.76,2.3,0.76c0.59,0,1.08-0.05,1.48-0.15
				c0.4-0.1,0.71-0.2,0.91-0.3l0.23,1.4c-0.2,0.11-0.56,0.22-1.07,0.34c-0.51,0.12-1.09,0.18-1.74,0.18c-0.82,0-1.52-0.12-2.11-0.37
				c-0.59-0.25-1.08-0.58-1.47-1.02c-0.38-0.43-0.67-0.95-0.85-1.54S254.8,516.51,254.8,515.8z M261.23,514.88
				c0.01-0.76-0.18-1.38-0.57-1.86c-0.39-0.49-0.93-0.73-1.61-0.73c-0.38,0-0.72,0.08-1.02,0.22c-0.29,0.15-0.54,0.35-0.75,0.58
				c-0.2,0.24-0.36,0.52-0.48,0.83c-0.11,0.31-0.19,0.63-0.23,0.95H261.23z"/>
			<path class="st7" d="M272.34,511.1c-0.47,1.75-1.02,3.43-1.65,5.04c-0.63,1.61-1.24,3.05-1.83,4.32h-1.51
				c-0.59-1.27-1.2-2.71-1.83-4.32c-0.63-1.61-1.18-3.29-1.65-5.04h1.8c0.14,0.59,0.31,1.22,0.51,1.88c0.2,0.67,0.41,1.33,0.63,1.98
				c0.22,0.65,0.45,1.29,0.67,1.9c0.23,0.61,0.44,1.16,0.65,1.64c0.2-0.48,0.42-1.03,0.65-1.64c0.23-0.61,0.45-1.25,0.68-1.9
				c0.22-0.65,0.43-1.31,0.63-1.98c0.2-0.67,0.37-1.29,0.51-1.88H272.34z"/>
			<path class="st7" d="M272.93,515.8c0-0.83,0.12-1.55,0.36-2.17c0.24-0.62,0.56-1.13,0.95-1.54c0.4-0.41,0.85-0.71,1.37-0.92
				c0.52-0.2,1.04-0.31,1.58-0.31c1.26,0,2.23,0.39,2.9,1.18c0.67,0.79,1.01,1.98,1.01,3.59c0,0.07,0,0.17,0,0.28
				s-0.01,0.22-0.02,0.31h-6.41c0.07,0.97,0.35,1.71,0.85,2.21s1.26,0.76,2.3,0.76c0.59,0,1.08-0.05,1.48-0.15
				c0.4-0.1,0.71-0.2,0.91-0.3l0.23,1.4c-0.2,0.11-0.56,0.22-1.07,0.34c-0.51,0.12-1.09,0.18-1.74,0.18c-0.82,0-1.52-0.12-2.11-0.37
				c-0.59-0.25-1.08-0.58-1.47-1.02c-0.38-0.43-0.67-0.95-0.85-1.54S272.93,516.51,272.93,515.8z M279.36,514.88
				c0.01-0.76-0.18-1.38-0.57-1.86c-0.39-0.49-0.93-0.73-1.61-0.73c-0.38,0-0.72,0.08-1.02,0.22c-0.29,0.15-0.54,0.35-0.75,0.58
				c-0.2,0.24-0.36,0.52-0.48,0.83c-0.11,0.31-0.19,0.63-0.23,0.95H279.36z"/>
			<path class="st7" d="M285.96,520.64c-1.03-0.02-1.76-0.25-2.2-0.67c-0.43-0.42-0.65-1.07-0.65-1.96v-11.23l1.67-0.29v11.25
				c0,0.28,0.02,0.5,0.07,0.68c0.05,0.18,0.13,0.32,0.23,0.43c0.11,0.11,0.25,0.19,0.43,0.24c0.18,0.05,0.4,0.1,0.67,0.14
				L285.96,520.64z"/>
			<path class="st7" d="M295.97,515.78c0,0.74-0.11,1.42-0.32,2.02c-0.22,0.6-0.52,1.12-0.91,1.55c-0.39,0.43-0.85,0.77-1.39,1
				c-0.54,0.23-1.13,0.35-1.76,0.35s-1.22-0.12-1.76-0.35c-0.54-0.23-1.01-0.57-1.4-1c-0.39-0.43-0.69-0.95-0.91-1.55
				c-0.22-0.6-0.32-1.27-0.32-2.02c0-0.73,0.11-1.4,0.32-2.01c0.22-0.61,0.52-1.12,0.91-1.56c0.39-0.43,0.85-0.76,1.4-1
				c0.54-0.23,1.13-0.35,1.76-0.35s1.22,0.12,1.76,0.35c0.54,0.23,1,0.57,1.39,1c0.39,0.43,0.69,0.95,0.91,1.56
				C295.86,514.38,295.97,515.05,295.97,515.78z M294.22,515.78c0-1.06-0.24-1.89-0.71-2.51c-0.47-0.62-1.12-0.93-1.94-0.93
				c-0.82,0-1.46,0.31-1.93,0.93c-0.47,0.62-0.71,1.46-0.71,2.51s0.24,1.89,0.71,2.51c0.47,0.62,1.12,0.93,1.93,0.93
				c0.82,0,1.46-0.31,1.94-0.93C293.99,517.67,294.22,516.84,294.22,515.78z"/>
			<path class="st7" d="M306.21,515.8c0,0.71-0.09,1.36-0.28,1.96c-0.19,0.6-0.46,1.12-0.82,1.55c-0.36,0.43-0.8,0.77-1.32,1.01
				c-0.52,0.24-1.12,0.36-1.79,0.36c-0.54,0-1.02-0.07-1.43-0.22s-0.72-0.28-0.93-0.41v3.74h-1.67v-12.4c0.4-0.1,0.89-0.2,1.49-0.31
				s1.28-0.17,2.06-0.17c0.72,0,1.37,0.11,1.94,0.34s1.07,0.55,1.48,0.97c0.41,0.42,0.72,0.93,0.94,1.54
				C306.1,514.36,306.21,515.04,306.21,515.8z M304.46,515.8c0-1.09-0.27-1.93-0.81-2.52s-1.26-0.88-2.16-0.88
				c-0.5,0-0.9,0.02-1.18,0.05c-0.28,0.04-0.51,0.08-0.67,0.13v5.9c0.2,0.17,0.5,0.33,0.88,0.49c0.38,0.16,0.8,0.23,1.26,0.23
				c0.48,0,0.89-0.09,1.23-0.26c0.34-0.17,0.62-0.41,0.84-0.72c0.22-0.31,0.37-0.67,0.47-1.08
				C304.42,516.73,304.46,516.28,304.46,515.8z"/>
			<path class="st7" d="M308.21,511.37c0.38-0.1,0.89-0.2,1.52-0.31c0.63-0.11,1.36-0.16,2.19-0.16c0.6,0,1.1,0.08,1.51,0.24
				c0.41,0.16,0.75,0.4,1.03,0.71c0.08-0.06,0.22-0.14,0.4-0.25c0.18-0.11,0.4-0.21,0.67-0.31c0.26-0.1,0.56-0.19,0.88-0.27
				c0.32-0.08,0.67-0.12,1.04-0.12c0.72,0,1.31,0.1,1.76,0.31s0.81,0.51,1.07,0.89c0.26,0.38,0.43,0.84,0.52,1.37
				c0.09,0.53,0.13,1.1,0.13,1.73v5.26h-1.67v-4.9c0-0.55-0.03-1.03-0.08-1.42c-0.05-0.4-0.16-0.73-0.31-0.99
				c-0.15-0.26-0.35-0.46-0.61-0.58c-0.26-0.13-0.59-0.19-1-0.19c-0.56,0-1.03,0.08-1.4,0.22c-0.37,0.15-0.62,0.29-0.75,0.41
				c0.1,0.31,0.17,0.65,0.22,1.03s0.07,0.76,0.07,1.17v5.26h-1.67v-4.9c0-0.55-0.03-1.03-0.09-1.42c-0.06-0.4-0.17-0.73-0.32-0.99
				c-0.15-0.26-0.35-0.46-0.61-0.58c-0.26-0.13-0.58-0.19-0.98-0.19c-0.17,0-0.35,0.01-0.54,0.02c-0.19,0.01-0.38,0.03-0.55,0.05
				c-0.17,0.02-0.33,0.04-0.48,0.06c-0.14,0.02-0.24,0.04-0.29,0.05v7.9h-1.67V511.37z"/>
			<path class="st7" d="M322.83,515.8c0-0.83,0.12-1.55,0.36-2.17c0.24-0.62,0.56-1.13,0.95-1.54c0.4-0.41,0.85-0.71,1.37-0.92
				s1.04-0.31,1.58-0.31c1.26,0,2.23,0.39,2.9,1.18s1.01,1.98,1.01,3.59c0,0.07,0,0.17,0,0.28s-0.01,0.22-0.02,0.31h-6.41
				c0.07,0.97,0.35,1.71,0.85,2.21s1.26,0.76,2.3,0.76c0.59,0,1.08-0.05,1.49-0.15c0.4-0.1,0.71-0.2,0.91-0.3l0.23,1.4
				c-0.2,0.11-0.56,0.22-1.07,0.34c-0.51,0.12-1.09,0.18-1.74,0.18c-0.82,0-1.52-0.12-2.12-0.37c-0.59-0.25-1.08-0.58-1.47-1.02
				s-0.67-0.95-0.85-1.54C322.92,517.16,322.83,516.51,322.83,515.8z M329.25,514.88c0.01-0.76-0.18-1.38-0.57-1.86
				c-0.39-0.49-0.93-0.73-1.61-0.73c-0.38,0-0.72,0.08-1.02,0.22c-0.29,0.15-0.54,0.35-0.75,0.58c-0.21,0.24-0.36,0.52-0.48,0.83
				c-0.11,0.31-0.19,0.63-0.22,0.95H329.25z"/>
			<path class="st7" d="M333.05,511.37c0.38-0.1,0.89-0.2,1.53-0.31c0.64-0.11,1.37-0.16,2.2-0.16c0.74,0,1.36,0.1,1.85,0.31
				s0.88,0.5,1.18,0.88c0.29,0.38,0.5,0.83,0.62,1.36c0.12,0.53,0.18,1.11,0.18,1.75v5.26h-1.67v-4.9c0-0.58-0.04-1.07-0.12-1.48
				s-0.21-0.74-0.39-0.99c-0.18-0.25-0.42-0.43-0.72-0.55s-0.67-0.17-1.12-0.17c-0.18,0-0.37,0.01-0.56,0.02
				c-0.19,0.01-0.38,0.03-0.55,0.05c-0.17,0.02-0.33,0.04-0.47,0.06c-0.14,0.02-0.24,0.04-0.3,0.05v7.9h-1.67V511.37z"/>
			<path class="st7" d="M344.59,511.1h3.55v1.4h-3.55v4.32c0,0.47,0.04,0.85,0.11,1.16c0.07,0.31,0.18,0.55,0.32,0.72
				c0.14,0.17,0.32,0.3,0.54,0.37c0.22,0.07,0.47,0.11,0.76,0.11c0.5,0,0.91-0.06,1.22-0.17c0.31-0.11,0.52-0.19,0.64-0.24
				l0.32,1.39c-0.17,0.08-0.46,0.19-0.88,0.31c-0.42,0.13-0.9,0.19-1.44,0.19c-0.64,0-1.16-0.08-1.58-0.24s-0.75-0.41-1-0.73
				c-0.25-0.32-0.43-0.72-0.53-1.2c-0.1-0.47-0.15-1.02-0.15-1.65v-8.35l1.67-0.29V511.1z"/>
			<path class="st7" d="M352.72,514.29h4.45v1.57h-4.45V514.29z"/>
			<path class="st8" d="M362.62,520.46v-12.47h7.52v1.49h-5.78v3.76h5.13v1.48h-5.13v5.74H362.62z"/>
			<path class="st8" d="M379.83,515.78c0,0.74-0.11,1.42-0.32,2.02c-0.22,0.6-0.52,1.12-0.91,1.55c-0.39,0.43-0.85,0.77-1.39,1
				c-0.54,0.23-1.13,0.35-1.76,0.35s-1.22-0.12-1.76-0.35c-0.54-0.23-1-0.57-1.4-1c-0.39-0.43-0.69-0.95-0.91-1.55
				c-0.22-0.6-0.32-1.27-0.32-2.02c0-0.73,0.11-1.4,0.32-2.01c0.22-0.61,0.52-1.12,0.91-1.56c0.39-0.43,0.86-0.76,1.4-1
				c0.54-0.23,1.13-0.35,1.76-0.35s1.22,0.12,1.76,0.35c0.54,0.23,1,0.57,1.39,1c0.39,0.43,0.69,0.95,0.91,1.56
				C379.72,514.38,379.83,515.05,379.83,515.78z M378.08,515.78c0-1.06-0.24-1.89-0.71-2.51c-0.47-0.62-1.12-0.93-1.94-0.93
				c-0.82,0-1.46,0.31-1.93,0.93c-0.47,0.62-0.71,1.46-0.71,2.51s0.24,1.89,0.71,2.51c0.47,0.62,1.12,0.93,1.93,0.93
				c0.82,0,1.46-0.31,1.94-0.93C377.84,517.67,378.08,516.84,378.08,515.78z"/>
			<path class="st8" d="M385.28,510.9c0.14,0,0.31,0.01,0.5,0.03c0.19,0.02,0.37,0.04,0.55,0.07c0.18,0.03,0.35,0.06,0.5,0.09
				c0.15,0.03,0.26,0.06,0.33,0.08l-0.29,1.46c-0.13-0.05-0.35-0.1-0.66-0.17c-0.31-0.07-0.7-0.1-1.18-0.1
				c-0.31,0-0.62,0.03-0.93,0.1c-0.31,0.07-0.51,0.11-0.6,0.13v7.87h-1.67v-8.96c0.4-0.14,0.89-0.28,1.48-0.41
				S384.55,510.9,385.28,510.9z"/>
			<path class="st8" d="M395.69,520.57c-0.25,0-0.53-0.01-0.82-0.02s-0.59-0.03-0.88-0.05c-0.29-0.02-0.58-0.05-0.87-0.09
				s-0.55-0.08-0.79-0.14v-12.1c0.24-0.06,0.5-0.11,0.79-0.14c0.29-0.04,0.58-0.07,0.87-0.09c0.29-0.02,0.58-0.04,0.87-0.05
				s0.56-0.02,0.81-0.02c0.72,0,1.4,0.05,2.03,0.16c0.63,0.11,1.18,0.29,1.64,0.55s0.83,0.6,1.09,1.02c0.26,0.42,0.4,0.94,0.4,1.55
				c0,0.68-0.16,1.25-0.49,1.68c-0.32,0.44-0.76,0.76-1.3,0.98c0.73,0.22,1.31,0.56,1.75,1.03s0.65,1.13,0.65,1.98
				c0,1.25-0.46,2.19-1.38,2.82S397.68,520.57,395.69,520.57z M394.05,513.24h1.84c0.43,0,0.84-0.03,1.22-0.09
				c0.38-0.06,0.72-0.17,1-0.32c0.28-0.16,0.5-0.36,0.67-0.61s0.24-0.57,0.24-0.95c0-0.36-0.08-0.66-0.25-0.91
				c-0.17-0.25-0.4-0.44-0.69-0.59c-0.29-0.15-0.64-0.26-1.04-0.33c-0.4-0.07-0.82-0.11-1.26-0.11c-0.44,0-0.79,0.01-1.04,0.02
				s-0.48,0.03-0.68,0.05V513.24z M394.05,514.65v4.39c0.13,0.01,0.29,0.02,0.47,0.04c0.16,0.01,0.34,0.02,0.55,0.03
				c0.21,0.01,0.45,0.01,0.73,0.01c0.52,0,1-0.03,1.47-0.1c0.46-0.07,0.87-0.18,1.21-0.35c0.35-0.17,0.63-0.4,0.84-0.7
				s0.31-0.68,0.31-1.13c0-0.41-0.08-0.75-0.23-1.04c-0.16-0.28-0.38-0.51-0.67-0.67c-0.29-0.17-0.65-0.29-1.05-0.36
				s-0.86-0.11-1.37-0.11H394.05z"/>
			<path class="st8" d="M402.9,515.8c0-0.83,0.12-1.55,0.36-2.17c0.24-0.62,0.56-1.13,0.95-1.54c0.4-0.41,0.85-0.71,1.37-0.92
				s1.04-0.31,1.58-0.31c1.26,0,2.23,0.39,2.9,1.18s1.01,1.98,1.01,3.59c0,0.07,0,0.17,0,0.28s-0.01,0.22-0.02,0.31h-6.41
				c0.07,0.97,0.35,1.71,0.85,2.21s1.26,0.76,2.3,0.76c0.59,0,1.08-0.05,1.49-0.15c0.4-0.1,0.71-0.2,0.91-0.3l0.23,1.4
				c-0.2,0.11-0.56,0.22-1.07,0.34c-0.51,0.12-1.09,0.18-1.74,0.18c-0.82,0-1.52-0.12-2.12-0.37c-0.59-0.25-1.08-0.58-1.47-1.02
				s-0.67-0.95-0.85-1.54C403,517.16,402.9,516.51,402.9,515.8z M409.33,514.88c0.01-0.76-0.18-1.38-0.57-1.86
				c-0.39-0.49-0.93-0.73-1.61-0.73c-0.38,0-0.72,0.08-1.02,0.22c-0.29,0.15-0.54,0.35-0.75,0.58c-0.21,0.24-0.36,0.52-0.48,0.83
				c-0.11,0.31-0.19,0.63-0.22,0.95H409.33z"/>
			<path class="st8" d="M414.69,511.1h3.55v1.4h-3.55v4.32c0,0.47,0.04,0.85,0.11,1.16c0.07,0.31,0.18,0.55,0.32,0.72
				c0.14,0.17,0.32,0.3,0.54,0.37c0.22,0.07,0.47,0.11,0.76,0.11c0.5,0,0.91-0.06,1.22-0.17c0.31-0.11,0.52-0.19,0.64-0.24
				l0.32,1.39c-0.17,0.08-0.46,0.19-0.88,0.31c-0.42,0.13-0.9,0.19-1.44,0.19c-0.64,0-1.16-0.08-1.58-0.24s-0.75-0.41-1-0.73
				c-0.25-0.32-0.43-0.72-0.53-1.2c-0.1-0.47-0.15-1.02-0.15-1.65v-8.35l1.67-0.29V511.1z"/>
			<path class="st8" d="M421.57,511.1h3.55v1.4h-3.55v4.32c0,0.47,0.04,0.85,0.11,1.16c0.07,0.31,0.18,0.55,0.32,0.72
				c0.14,0.17,0.32,0.3,0.54,0.37c0.22,0.07,0.47,0.11,0.76,0.11c0.5,0,0.91-0.06,1.22-0.17c0.31-0.11,0.52-0.19,0.64-0.24
				l0.32,1.39c-0.17,0.08-0.46,0.19-0.88,0.31c-0.42,0.13-0.9,0.19-1.44,0.19c-0.64,0-1.16-0.08-1.58-0.24s-0.75-0.41-1-0.73
				c-0.25-0.32-0.43-0.72-0.53-1.2c-0.1-0.47-0.15-1.02-0.15-1.65v-8.35l1.67-0.29V511.1z"/>
			<path class="st8" d="M426.18,515.8c0-0.83,0.12-1.55,0.36-2.17c0.24-0.62,0.56-1.13,0.95-1.54c0.4-0.41,0.85-0.71,1.37-0.92
				s1.04-0.31,1.58-0.31c1.26,0,2.23,0.39,2.9,1.18s1.01,1.98,1.01,3.59c0,0.07,0,0.17,0,0.28s-0.01,0.22-0.02,0.31h-6.41
				c0.07,0.97,0.35,1.71,0.85,2.21s1.26,0.76,2.3,0.76c0.59,0,1.08-0.05,1.49-0.15c0.4-0.1,0.71-0.2,0.91-0.3l0.23,1.4
				c-0.2,0.11-0.56,0.22-1.07,0.34c-0.51,0.12-1.09,0.18-1.74,0.18c-0.82,0-1.52-0.12-2.12-0.37c-0.59-0.25-1.08-0.58-1.47-1.02
				s-0.67-0.95-0.85-1.54C426.27,517.16,426.18,516.51,426.18,515.8z M432.6,514.88c0.01-0.76-0.18-1.38-0.57-1.86
				c-0.39-0.49-0.93-0.73-1.61-0.73c-0.38,0-0.72,0.08-1.02,0.22c-0.29,0.15-0.54,0.35-0.75,0.58c-0.21,0.24-0.36,0.52-0.48,0.83
				c-0.11,0.31-0.19,0.63-0.22,0.95H432.6z"/>
			<path class="st8" d="M439.86,510.9c0.14,0,0.31,0.01,0.5,0.03c0.19,0.02,0.37,0.04,0.55,0.07c0.18,0.03,0.35,0.06,0.5,0.09
				c0.15,0.03,0.26,0.06,0.33,0.08l-0.29,1.46c-0.13-0.05-0.35-0.1-0.66-0.17c-0.31-0.07-0.7-0.1-1.18-0.1
				c-0.31,0-0.62,0.03-0.93,0.1c-0.31,0.07-0.51,0.11-0.6,0.13v7.87h-1.67v-8.96c0.4-0.14,0.89-0.28,1.48-0.41
				S439.12,510.9,439.86,510.9z"/>
			<path class="st8" d="M454.4,518.95v1.51h-7.51v-12.47h1.75v10.96H454.4z"/>
			<path class="st8" d="M456.59,509.41c-0.3,0-0.55-0.1-0.76-0.3c-0.21-0.2-0.32-0.46-0.32-0.8c0-0.33,0.11-0.6,0.32-0.8
				s0.46-0.3,0.76-0.3s0.56,0.1,0.77,0.3s0.31,0.47,0.31,0.8c0,0.34-0.1,0.6-0.31,0.8C457.15,509.31,456.89,509.41,456.59,509.41z
				 M457.44,520.46h-1.67v-9.36h1.67V520.46z"/>
			<path class="st8" d="M463.62,506.49c0.49,0,0.92,0.04,1.27,0.11c0.35,0.07,0.6,0.14,0.75,0.2l-0.31,1.44
				c-0.14-0.07-0.35-0.14-0.61-0.21c-0.26-0.07-0.59-0.1-0.97-0.1c-0.78,0-1.33,0.21-1.64,0.64c-0.31,0.43-0.47,1-0.47,1.72v0.81
				h3.6v1.4h-3.6v7.96h-1.67v-10.21c0-1.2,0.29-2.13,0.88-2.78C461.43,506.82,462.36,506.49,463.62,506.49z"/>
			<path class="st8" d="M466.03,515.8c0-0.83,0.12-1.55,0.36-2.17c0.24-0.62,0.56-1.13,0.95-1.54c0.4-0.41,0.85-0.71,1.37-0.92
				s1.04-0.31,1.58-0.31c1.26,0,2.23,0.39,2.9,1.18s1.01,1.98,1.01,3.59c0,0.07,0,0.17,0,0.28s-0.01,0.22-0.02,0.31h-6.41
				c0.07,0.97,0.35,1.71,0.85,2.21s1.26,0.76,2.3,0.76c0.59,0,1.08-0.05,1.49-0.15c0.4-0.1,0.71-0.2,0.91-0.3l0.23,1.4
				c-0.2,0.11-0.56,0.22-1.07,0.34c-0.51,0.12-1.09,0.18-1.74,0.18c-0.82,0-1.52-0.12-2.12-0.37c-0.59-0.25-1.08-0.58-1.47-1.02
				s-0.67-0.95-0.85-1.54C466.12,517.16,466.03,516.51,466.03,515.8z M472.45,514.88c0.01-0.76-0.18-1.38-0.57-1.86
				c-0.39-0.49-0.93-0.73-1.61-0.73c-0.38,0-0.72,0.08-1.02,0.22c-0.29,0.15-0.54,0.35-0.75,0.58c-0.21,0.24-0.36,0.52-0.48,0.83
				c-0.11,0.31-0.19,0.63-0.22,0.95H472.45z"/>
			<path class="st8" d="M478.23,519.49c0,0.32-0.11,0.61-0.32,0.85s-0.51,0.36-0.88,0.36s-0.67-0.12-0.88-0.36s-0.32-0.52-0.32-0.85
				c0-0.32,0.11-0.61,0.32-0.85c0.22-0.24,0.51-0.36,0.88-0.36s0.67,0.12,0.88,0.36C478.12,518.88,478.23,519.17,478.23,519.49z"/>
			<path class="st8" d="M482.3,519.49c0,0.32-0.11,0.61-0.32,0.85s-0.51,0.36-0.88,0.36s-0.67-0.12-0.88-0.36s-0.32-0.52-0.32-0.85
				c0-0.32,0.11-0.61,0.32-0.85c0.22-0.24,0.51-0.36,0.88-0.36s0.67,0.12,0.88,0.36C482.19,518.88,482.3,519.17,482.3,519.49z"/>
			<path class="st8" d="M486.37,519.49c0,0.32-0.11,0.61-0.32,0.85s-0.51,0.36-0.88,0.36s-0.67-0.12-0.88-0.36s-0.32-0.52-0.32-0.85
				c0-0.32,0.11-0.61,0.32-0.85c0.22-0.24,0.51-0.36,0.88-0.36s0.67,0.12,0.88,0.36C486.26,518.88,486.37,519.17,486.37,519.49z"/>
		</g>
	</g>
	<g>
		<path d="M86.87,474.39h5.3v19.43h7.3v5.34h-12.6V474.39z"/>
		<path d="M101.69,476.93c0-0.82,0.29-1.53,0.89-2.12c0.59-0.59,1.3-0.89,2.13-0.89c0.83,0,1.54,0.3,2.13,0.89
			c0.59,0.59,0.89,1.3,0.89,2.12c0,0.83-0.3,1.55-0.89,2.14c-0.59,0.59-1.3,0.89-2.13,0.89c-0.83,0-1.54-0.3-2.13-0.89
			C101.99,478.48,101.69,477.76,101.69,476.93z M102.31,482.94h4.83v16.22h-4.83V482.94z"/>
		<path d="M111.19,477.37h4.83v5.56h2.32v4.43h-2.32v11.79h-4.83v-11.79h-1.85v-4.43h1.85V477.37z"/>
		<path d="M120.3,477.37h4.83v5.56h2.32v4.43h-2.32v11.79h-4.83v-11.79h-1.85v-4.43h1.85V477.37z"/>
		<path d="M129.63,473.98h4.83v25.18h-4.83V473.98z"/>
		<path d="M153.62,492.2h-11.56c0.06,1.04,0.41,1.89,1.03,2.55c0.62,0.65,1.35,0.98,2.18,0.98c1.48,0,2.65-0.67,3.49-2.02l4.43,1.47
			c-1.65,2.88-4.21,4.32-7.68,4.32c-2.55,0-4.58-0.77-6.09-2.32s-2.26-3.63-2.26-6.24c0-2.35,0.79-4.33,2.39-5.92
			c1.59-1.6,3.55-2.4,5.88-2.4c2.34,0,4.29,0.84,5.86,2.52s2.35,3.78,2.35,6.29V492.2z M142.1,488.96h6.53
			c-0.45-2.02-1.49-3.04-3.11-3.04c-0.93,0-1.7,0.26-2.31,0.79C142.59,487.24,142.22,487.99,142.1,488.96z"/>
		<path d="M165.42,473.94h4.83v11.2c1.43-1.68,3.07-2.53,4.9-2.53c1.94,0,3.61,0.84,5.03,2.51c1.41,1.67,2.12,3.68,2.12,6.04
			c0,2.23-0.7,4.17-2.09,5.82c-1.4,1.65-3.02,2.48-4.87,2.48c-0.93,0-1.79-0.23-2.57-0.7c-0.79-0.46-1.64-1.21-2.56-2.23v2.62h-4.79
			V473.94z M173.72,487.45c-0.96,0-1.75,0.34-2.4,1.03c-0.64,0.69-0.96,1.61-0.96,2.76c0,1.11,0.34,2.02,1.01,2.75
			c0.67,0.72,1.52,1.08,2.54,1.08c0.93,0,1.7-0.36,2.32-1.07c0.62-0.71,0.92-1.61,0.92-2.69c0-1.06-0.34-1.96-1.01-2.73
			S174.66,487.45,173.72,487.45z"/>
		<path d="M182.92,482.98h5.15l4.66,9.42l4.15-9.42h4.94l-10.09,23.33h-5.02l3.62-8.3L182.92,482.98z"/>
		<path d="M213.39,473.98h4.83v25.18h-4.83V473.98z"/>
		<path d="M221.88,476.93c0-0.82,0.29-1.53,0.89-2.12c0.59-0.59,1.3-0.89,2.13-0.89c0.83,0,1.54,0.3,2.13,0.89
			c0.59,0.59,0.89,1.3,0.89,2.12c0,0.83-0.3,1.55-0.89,2.14c-0.59,0.59-1.3,0.89-2.13,0.89c-0.83,0-1.54-0.3-2.13-0.89
			C222.17,478.48,221.88,477.76,221.88,476.93z M222.5,482.94h4.83v16.22h-4.83V482.94z"/>
		<path d="M231.38,477.37h4.83v5.56h2.32v4.43h-2.32v11.79h-4.83v-11.79h-1.85v-4.43h1.85V477.37z"/>
		<path d="M240.49,477.37h4.83v5.56h2.32v4.43h-2.32v11.79h-4.83v-11.79h-1.85v-4.43h1.85V477.37z"/>
		<path d="M249.82,473.98h4.83v25.18h-4.83V473.98z"/>
		<path d="M273.81,492.2h-11.56c0.06,1.04,0.41,1.89,1.03,2.55c0.62,0.65,1.35,0.98,2.18,0.98c1.48,0,2.65-0.67,3.49-2.02l4.43,1.47
			c-1.65,2.88-4.21,4.32-7.68,4.32c-2.55,0-4.58-0.77-6.09-2.32s-2.26-3.63-2.26-6.24c0-2.35,0.79-4.33,2.39-5.92
			c1.59-1.6,3.55-2.4,5.88-2.4c2.34,0,4.29,0.84,5.86,2.52s2.35,3.78,2.35,6.29V492.2z M262.29,488.96h6.53
			c-0.45-2.02-1.49-3.04-3.11-3.04c-0.93,0-1.7,0.26-2.31,0.79C262.78,487.24,262.41,487.99,262.29,488.96z"/>
		<path d="M285.63,477.37h4.83v5.56h2.32v4.43h-2.32v11.79h-4.83v-11.79h-1.85v-4.43h1.85V477.37z"/>
		<path d="M295.11,473.98h4.9v10.84c0.88-0.75,1.7-1.3,2.45-1.64c0.75-0.34,1.63-0.51,2.62-0.51c1.7,0,3.03,0.61,3.99,1.84
			c0.96,1.23,1.44,2.93,1.44,5.1v9.54h-4.87v-8.69c0-1.04-0.27-1.92-0.8-2.63c-0.53-0.71-1.19-1.07-1.97-1.07
			c-0.99,0-1.72,0.41-2.18,1.23c-0.46,0.82-0.69,2.09-0.69,3.83v7.34h-4.9V473.98z"/>
		<path d="M329.42,492.2h-11.56c0.06,1.04,0.41,1.89,1.03,2.55c0.62,0.65,1.35,0.98,2.18,0.98c1.48,0,2.65-0.67,3.49-2.02l4.43,1.47
			c-1.65,2.88-4.21,4.32-7.68,4.32c-2.55,0-4.58-0.77-6.09-2.32s-2.26-3.63-2.26-6.24c0-2.35,0.8-4.33,2.39-5.92
			c1.59-1.6,3.55-2.4,5.88-2.4c2.34,0,4.29,0.84,5.86,2.52s2.35,3.78,2.35,6.29V492.2z M317.89,488.96h6.53
			c-0.45-2.02-1.49-3.04-3.11-3.04c-0.93,0-1.7,0.26-2.31,0.79C318.39,487.24,318.02,487.99,317.89,488.96z"/>
		<path d="M346.18,482.98v2.36h0.08c0.7-0.94,1.44-1.63,2.2-2.06c0.76-0.43,1.68-0.65,2.74-0.65c1.94,0,3.59,0.85,4.95,2.55
			c1.36,1.7,2.05,3.76,2.05,6.19c0,2.23-0.66,4.13-1.99,5.72c-1.33,1.59-2.9,2.39-4.72,2.39c-1.12,0-2.06-0.23-2.81-0.7
			c-0.75-0.46-1.53-1.21-2.34-2.23h-0.08v9.77h-4.9v-23.33H346.18z M353.14,491.31c0-1.06-0.34-1.96-1.02-2.73
			c-0.68-0.76-1.49-1.14-2.43-1.14c-0.93,0-1.72,0.37-2.38,1.12c-0.65,0.75-0.98,1.66-0.98,2.74c0,1.04,0.34,1.94,1.03,2.68
			c0.69,0.74,1.52,1.11,2.5,1.11c0.96,0,1.74-0.35,2.36-1.06S353.14,492.43,353.14,491.31z"/>
		<path d="M360.38,491.09c0-2.5,0.8-4.55,2.39-6.13s3.65-2.38,6.15-2.38c2.33,0,4.28,0.81,5.86,2.42c1.58,1.62,2.37,3.62,2.37,6.01
			c0,2.44-0.79,4.46-2.37,6.07s-3.55,2.41-5.93,2.41c-2.68,0-4.76-0.85-6.24-2.56C361.12,495.24,360.38,493.29,360.38,491.09z
			 M372.39,491.09c0-1.09-0.36-2.05-1.08-2.87c-0.72-0.82-1.55-1.23-2.51-1.23c-0.99,0-1.85,0.38-2.57,1.15
			c-0.72,0.77-1.08,1.69-1.08,2.75c0,1.17,0.36,2.16,1.07,2.98c0.71,0.82,1.57,1.23,2.58,1.23c0.96,0,1.79-0.4,2.51-1.2
			C372.03,493.11,372.39,492.17,372.39,491.09z"/>
		<path d="M380.39,477.37h4.83v5.56h2.32v4.43h-2.32v11.79h-4.83v-11.79h-1.85v-4.43h1.85V477.37z"/>
		<path d="M398.45,476.93c0-0.82,0.3-1.53,0.89-2.12s1.3-0.89,2.13-0.89c0.83,0,1.54,0.3,2.13,0.89c0.59,0.59,0.89,1.3,0.89,2.12
			c0,0.83-0.3,1.55-0.89,2.14c-0.59,0.59-1.3,0.89-2.13,0.89c-0.83,0-1.54-0.3-2.13-0.89S398.45,477.76,398.45,476.93z
			 M399.07,482.94h4.83v16.22h-4.83V482.94z"/>
		<path d="M419.89,485.22l-3.28,2c-0.95-0.96-1.83-1.43-2.65-1.43c-0.4,0-0.75,0.11-1.04,0.34c-0.29,0.23-0.44,0.5-0.44,0.83
			c0,0.53,0.17,0.91,0.5,1.15s1.23,0.61,2.68,1.11c1.45,0.5,2.59,1.14,3.43,1.92c0.84,0.78,1.25,1.86,1.25,3.24
			c0,1.4-0.63,2.59-1.89,3.59c-1.26,1-2.77,1.5-4.53,1.5c-1.19,0-2.39-0.33-3.57-1c-1.19-0.67-2.2-1.68-3.03-3.05l3.9-1.77
			c0.88,1.52,1.79,2.28,2.74,2.28c0.43,0,0.81-0.14,1.15-0.41c0.34-0.28,0.51-0.59,0.51-0.94c0-0.45-0.19-0.79-0.58-1.03
			c-0.39-0.23-0.68-0.35-0.87-0.35c-0.08-0.09-0.53-0.26-1.36-0.53c-3.24-1.06-4.87-2.78-4.87-5.15c0-1.43,0.58-2.61,1.74-3.52
			c1.16-0.91,2.68-1.37,4.56-1.37C416.33,482.62,418.21,483.49,419.89,485.22z"/>
		<path d="M441.86,474.58v4.64c-0.73-0.49-1.36-0.74-1.89-0.74c-0.68,0-1.23,0.25-1.65,0.74s-0.63,1.12-0.63,1.91v1.81h4.13v4.39
			h-4.17v11.83h-4.83v-11.83h-1.43v-4.39h1.43v-1.98c0-2.75,0.58-4.62,1.75-5.59c1.17-0.97,2.54-1.46,4.11-1.46
			C439.93,473.9,440.99,474.13,441.86,474.58z"/>
		<path d="M443.63,476.93c0-0.82,0.3-1.53,0.89-2.12s1.3-0.89,2.13-0.89c0.83,0,1.54,0.3,2.13,0.89c0.59,0.59,0.89,1.3,0.89,2.12
			c0,0.83-0.3,1.55-0.89,2.14c-0.59,0.59-1.3,0.89-2.13,0.89c-0.83,0-1.54-0.3-2.13-0.89S443.63,477.76,443.63,476.93z
			 M444.25,482.94h4.83v16.22h-4.83V482.94z"/>
		<path d="M453.36,473.98h4.83v25.18h-4.83V473.98z"/>
		<path d="M462.46,473.98h4.83v25.18h-4.83V473.98z"/>
		<path d="M486.45,492.2h-11.56c0.06,1.04,0.41,1.89,1.03,2.55c0.62,0.65,1.35,0.98,2.18,0.98c1.48,0,2.65-0.67,3.49-2.02l4.43,1.47
			c-1.65,2.88-4.21,4.32-7.68,4.32c-2.55,0-4.58-0.77-6.09-2.32s-2.26-3.63-2.26-6.24c0-2.35,0.8-4.33,2.39-5.92
			c1.59-1.6,3.55-2.4,5.88-2.4c2.34,0,4.29,0.84,5.86,2.52s2.35,3.78,2.35,6.29V492.2z M474.93,488.96h6.53
			c-0.45-2.02-1.49-3.04-3.11-3.04c-0.93,0-1.7,0.26-2.31,0.79C475.42,487.24,475.05,487.99,474.93,488.96z"/>
		<path d="M499.69,473.98h4.87v25.18h-4.75v-2.77h-0.08c-1.41,2.02-3.15,3.04-5.23,3.04c-1.86,0-3.44-0.81-4.75-2.43
			c-1.31-1.62-1.97-3.6-1.97-5.94s0.68-4.33,2.03-5.99c1.36-1.65,2.98-2.48,4.88-2.48c1.08,0,1.99,0.2,2.73,0.59
			c0.74,0.4,1.5,1.04,2.28,1.93V473.98z M496.13,487.37c-0.79,0-1.53,0.37-2.22,1.09c-0.69,0.73-1.03,1.72-1.03,2.96
			c0,0.99,0.3,1.84,0.91,2.55c0.61,0.7,1.34,1.06,2.21,1.06c1.03,0,1.89-0.38,2.58-1.14s1.03-1.71,1.03-2.84
			c0-0.98-0.33-1.84-1.01-2.57S497.11,487.37,496.13,487.37z"/>
	</g>
</g>
</svg>
