<svg width="107" height="107" viewBox="0 0 107 107" fill="none" xmlns="http://www.w3.org/2000/svg">
<rect width="107" height="107" rx="19" fill="white"/>
<path d="M36.7657 38.2575L29.82 34.2387L20.4302 50.3833L27.9443 54.4021L28.7664 52.8992L36.6579 38.4574L36.7657 38.2575Z" fill="#302C51"/>
<path d="M49.4038 49.5343C49.8396 49.3231 50.1855 49.1569 50.4124 49.0468C52.7666 47.9214 54.5996 49.3051 57.6345 51.848C60.7457 54.4583 61.9969 54.3325 63.0999 53.9529C63.1178 53.9461 63.147 53.9372 63.174 53.8608C63.4997 52.9824 62.1272 49.7499 60.9995 47.8181C60.229 46.5017 56.3405 44.8416 54.6805 44.134C54.4783 44.0464 54.2986 43.97 54.1481 43.9049C54.1391 43.9004 54.1302 43.8981 54.1212 43.8937C54.065 43.8689 54.0043 43.842 53.9527 43.8195C53.0586 43.4197 48.3907 42.8222 45.6007 42.465C44.3091 42.2987 43.287 42.1684 42.804 42.0854C41.6089 41.8787 38.9402 40.3601 37.2105 39.3201L29.7998 52.8791C31.5609 53.5687 35.409 55.0738 36.1705 55.3344C36.6804 55.3614 39.3962 54.3684 49.4038 49.5343Z" fill="#302C51"/>
<path d="M77.1216 37.8374L69.1694 42.3639L69.567 43.0108L69.5783 43.0288L77.627 56.0869L78.5592 57.5987L86.5451 53.4991L77.1216 37.8374Z" fill="#302C51"/>
<path d="M55.7163 70.075C55.678 70.0189 55.6421 69.9582 55.6084 69.8976C55.5972 69.8796 55.5882 69.8594 55.5792 69.8392C55.5478 69.7853 55.523 69.7291 55.4983 69.6707C55.4894 69.655 55.4826 69.637 55.4781 69.619C55.4534 69.5651 55.4332 69.5112 55.4175 69.455C55.4062 69.4281 55.395 69.3988 55.3883 69.3697C55.3681 69.3023 55.3478 69.2327 55.3321 69.163C55.2086 69.1383 55.0805 69.1248 54.9525 69.1248C54.6492 69.1248 54.3527 69.1944 54.1483 69.3247C53.7237 69.5786 52.5736 70.3176 52.2164 70.7781L52.1558 70.8568C51.5852 71.5868 51.6144 71.6699 51.8008 71.8496C52.2636 72.2944 53.6114 72.7662 55.258 72.1484C55.8533 71.926 56.1902 71.5531 56.2779 71.0163C56.2105 70.9039 56.143 70.7894 56.0756 70.6703C55.9611 70.4749 55.8443 70.2705 55.7163 70.075ZM59.3801 68.6149C59.3464 68.5453 59.3149 68.4734 59.2835 68.3992C59.2543 68.3363 59.2295 68.2712 59.2026 68.2061C59.142 68.0533 59.088 67.9028 59.0386 67.7545C59.0184 67.6984 59.0004 67.6422 58.9847 67.5861C58.9577 67.5029 58.9353 67.4243 58.9151 67.3457C58.8993 67.2895 58.8858 67.2356 58.8724 67.1817C58.8679 67.1615 58.8634 67.1413 58.8589 67.121C58.8454 67.0626 58.8319 67.0042 58.8229 66.9503C58.8117 66.8942 58.8028 66.8403 58.796 66.7886C58.787 66.7347 58.7825 66.6853 58.778 66.6381C58.7735 66.5842 58.7713 66.528 58.7713 66.4719C58.7713 66.4202 58.7735 66.3685 58.778 66.3168C58.7825 66.2539 58.7893 66.1911 58.8005 66.1282C58.8072 66.0878 58.8162 66.045 58.8252 66.0046C58.6994 65.8496 58.5961 65.789 58.5399 65.798C57.6548 65.9552 56.4216 66.8605 56.1992 67.5052C56.179 67.6062 56.0779 68.1544 56.1655 68.7407C56.215 69.0731 56.316 69.3562 56.4643 69.5808C56.6081 69.7964 56.7338 70.0121 56.8529 70.221C56.945 70.3783 57.0326 70.5288 57.1224 70.6703C57.4729 71.2162 57.72 71.3734 58.1423 71.3127C58.8387 71.2117 59.753 70.4682 59.9619 69.6482C59.7866 69.3966 59.6204 69.1091 59.4722 68.8081C59.4407 68.7452 59.4093 68.68 59.3801 68.6149ZM63.5246 66.236C63.4954 66.2068 63.4684 66.1753 63.4437 66.1439C63.4078 66.1034 63.3763 66.0608 63.3471 66.0159C63.3202 65.9754 63.2955 65.935 63.273 65.8923C63.2416 65.8384 63.2168 65.7845 63.1944 65.7283C63.1764 65.6834 63.1607 65.6385 63.1472 65.5913C63.1314 65.5419 63.118 65.4902 63.109 65.4385C63.1 65.3936 63.0933 65.3509 63.0866 65.3037C63.0866 65.2903 63.0843 65.2768 63.0843 65.2633C63.0798 65.2184 63.0776 65.1712 63.0776 65.1241C63.0776 65.0836 63.0798 65.0432 63.0821 65.0005C63.0214 64.9241 62.9585 64.8679 62.8979 64.8365C62.1341 64.4344 61.0221 64.3423 60.5909 64.8478C60.5751 64.8634 60.5616 64.8792 60.5459 64.8927C60.5392 64.8972 59.9551 65.4183 59.7417 66.0563C59.6833 66.236 59.6609 66.4045 59.6743 66.5595C59.7327 67.2289 60.2247 68.5273 60.7953 69.2641C60.7997 69.2686 60.802 69.2753 60.8065 69.2798C61.1075 69.6594 61.285 69.7044 61.3164 69.7089C62.0218 69.8167 63.4774 69.1765 63.6167 68.3813C63.6167 68.3813 63.6167 68.3813 63.6167 68.379C63.6975 67.914 63.6975 67.0559 63.5515 66.2652C63.5425 66.2539 63.5336 66.245 63.5246 66.236ZM67.3299 63.2236C67.3254 63.2191 67.3232 63.2168 67.3209 63.2147C67.2176 63.1135 67.1143 63.0484 67.0357 63.0641C66.3842 63.2057 64.194 64.531 63.9896 64.9758L63.9873 64.978C63.9761 65.0432 63.9738 65.1038 63.9761 65.1645C63.9783 65.2094 63.9851 65.2521 63.9941 65.2925C63.9986 65.315 64.0053 65.3352 64.0121 65.3554C64.0188 65.3756 64.0278 65.3936 64.0368 65.4138C64.0525 65.4498 64.0727 65.4857 64.0951 65.5194C64.1221 65.5553 64.1513 65.5935 64.1873 65.6272C64.2075 65.6497 64.2277 65.6677 64.2502 65.6856C64.4478 65.8519 64.7466 65.9709 65.1375 66.0405C66.3033 66.2494 67.0896 66.1439 67.4759 65.7328C67.8309 65.3532 67.8915 64.6613 67.6556 63.6751C67.577 63.5246 67.4535 63.3494 67.3299 63.2236Z" fill="#302C51"/>
<path d="M68.9697 43.7521C68.2171 43.8824 67.3388 43.9363 66.2852 43.9363C64.7307 43.9363 62.7899 43.8218 60.2942 43.6735C58.4746 43.5657 57.046 43.6106 55.9654 43.7095C58.0613 44.6215 60.9838 46.0097 61.7746 47.3665C61.8037 47.4159 64.6723 52.4096 64.0164 54.173C63.9019 54.483 63.6862 54.7009 63.3919 54.802C61.7611 55.3635 60.2021 55.1749 57.0572 52.5377C53.9302 49.9161 52.5802 49.0064 50.8011 49.8578C50.5719 49.9656 50.2282 50.1318 49.7947 50.343C41.6899 54.2584 37.6733 56.0173 36.3637 56.2127C35.9077 56.8866 35.3551 58.0165 35.8493 59.0251C36.494 60.3393 37.6441 60.9098 38.5135 61.0064C38.5337 61.0087 38.5516 61.0087 38.5696 61.0132C38.5741 61.0132 38.5764 61.0154 38.5809 61.0154C38.8594 61.0379 39.1312 61.0154 39.3694 60.9503C40.5734 60.6156 46.0725 58.0165 46.1286 57.9896C46.3533 57.884 46.6206 57.9783 46.7262 58.203C46.8318 58.4276 46.7374 58.6949 46.5127 58.8005C46.2836 58.9106 40.8879 61.4624 39.6097 61.8151C39.3536 61.887 39.0773 61.9207 38.7943 61.9207C38.5494 62.6193 38.4258 63.5066 38.947 64.221C39.9017 65.5351 40.5644 66.0136 42.193 65.5778C42.494 65.4969 42.8175 65.3868 43.1567 65.252C45.8388 64.185 48.7636 62.9338 48.7928 62.9226C49.0197 62.8237 49.2848 62.9293 49.3813 63.1585C49.4802 63.3853 49.3747 63.6504 49.1455 63.747C49.1163 63.7605 46.1826 65.0162 43.4891 66.0854C43.2308 66.1888 42.9792 66.2786 42.7366 66.355C42.7299 66.8671 42.8669 67.5006 43.424 68.0263C43.9991 68.5722 44.7651 68.7429 45.913 68.5812C45.9265 68.5767 45.94 68.5744 45.9535 68.5744C46.7419 68.4576 47.609 68.197 48.5255 67.923C50.7 67.2671 52.3488 66.7931 52.3645 66.7886C52.6026 66.7212 52.852 66.8582 52.9217 67.0986C52.989 67.3367 52.852 67.5838 52.6116 67.6534C52.5959 67.6579 50.9516 68.1296 48.7838 68.7834C48.0875 68.9922 47.4181 69.1922 46.7734 69.3337C47.4428 70.1401 48.7254 71.2116 50.8482 71.2678C50.9695 70.9151 51.2301 70.5826 51.448 70.3018L51.5064 70.2255C52.0321 69.5516 53.5102 68.6598 53.6764 68.5587C54.0853 68.2959 54.6693 68.1835 55.2309 68.2397C55.2309 67.7073 55.3208 67.3097 55.3275 67.2872C55.3297 67.276 55.332 67.2648 55.3365 67.2536C55.6757 66.182 57.2504 65.115 58.3803 64.9128C58.5982 64.8747 58.888 64.8971 59.198 65.1262C59.4855 64.659 59.8337 64.3266 59.9281 64.2389C60.7075 63.3629 62.2508 63.4819 63.3155 64.0413C63.3829 64.0772 63.4481 64.1199 63.511 64.1671C64.3803 63.2775 66.3616 62.2891 66.8468 62.1858C67.1546 62.1206 67.4241 62.197 67.651 62.3363C68.8663 61.3995 70.8296 59.7462 71.5911 58.9667C72.3414 58.1985 74.882 56.9382 76.605 56.1363L68.9719 43.7521H68.9697Z" fill="#302C51"/>
</svg>
