<svg width="18" height="18" viewBox="0 0 18 18" fill="none" xmlns="http://www.w3.org/2000/svg">
<g clip-path="url(#clip0_24_2477)">
<path d="M15.1292 7.50076C14.6253 7.63164 14.2862 7.90948 13.9705 8.23131C13.4823 8.73123 12.9783 9.21933 12.4809 9.71174C12.4294 9.76537 12.3757 9.81204 12.3144 9.87265C11.8229 9.3899 11.2294 9.26976 10.573 9.27834C9.24618 9.2955 7.91985 9.28746 6.59298 9.28209C5.90677 9.28209 5.32579 9.51166 4.84516 9.99495C4.6233 10.2181 4.39926 10.4385 4.15949 10.6762C3.81882 10.0411 3.68375 9.39366 3.78681 8.71567C3.95281 7.61769 4.44103 6.6522 5.05672 5.74624C5.59485 4.95347 6.2393 4.25027 6.91304 3.57174C6.99692 3.48261 7.05141 3.37037 7.06927 3.24991C7.13491 2.76234 7.49999 2.41261 7.99688 2.40993C9.06626 2.40421 10.1356 2.40421 11.205 2.40993C11.7198 2.40993 12.0925 2.78004 12.1337 3.28746C12.1468 3.38349 12.1914 3.47262 12.2607 3.54117C13.0906 4.36291 13.8669 5.2281 14.4598 6.2365C14.6963 6.63825 14.8981 7.06146 15.1292 7.50076Z" fill="white"/>
<path d="M9.544 14.2802C9.5657 12.2687 11.2848 10.6129 13.3272 10.636C15.3451 10.658 17.0083 12.3106 16.9888 14.2743C16.9682 16.3892 15.3109 18.0225 13.2138 17.9957C11.1926 17.97 9.5223 16.2787 9.544 14.2802ZM12.8595 14.6658C12.674 14.477 12.5031 14.2968 12.3258 14.1241C12.1484 13.9514 11.9645 13.9503 11.8256 14.0946C11.6867 14.2389 11.7008 14.4105 11.863 14.5747C12.1035 14.8185 12.3471 15.0595 12.5937 15.2977C12.7847 15.4828 12.9491 15.4833 13.1395 15.2977C13.4291 15.0172 13.7139 14.7313 14.0003 14.4481C14.2347 14.2163 14.4723 13.9878 14.7012 13.7508C14.8455 13.6011 14.8401 13.4161 14.7039 13.2873C14.5775 13.1672 14.3942 13.1704 14.2483 13.2981C14.194 13.3469 14.1398 13.401 14.0893 13.4525L12.8595 14.6658Z" fill="white"/>
<path d="M9.0937 15.583C8.57185 15.6543 8.07712 15.7251 7.5813 15.7836C7.52706 15.79 7.45274 15.7401 7.4126 15.6946C7.29814 15.5642 7.20917 15.4103 7.08712 15.2885C6.03835 14.2429 4.98651 13.2007 3.9316 12.1619C3.87735 12.1083 3.81768 12.067 3.75204 12.0133C3.80629 11.9543 3.83613 11.9141 3.87247 11.8782C4.31512 11.4362 4.7585 10.9946 5.2026 10.5533C5.3945 10.355 5.62697 10.1994 5.88448 10.0969C6.142 9.99443 6.41866 9.94742 6.696 9.95899C8.05542 9.98367 9.41646 9.96704 10.7764 9.9665C11.1106 9.9665 11.4165 10.047 11.6851 10.2583C11.3894 10.423 11.0954 10.5678 10.8187 10.7448C10.3456 11.0483 9.94339 11.448 9.63887 11.9173C9.61419 11.9634 9.57631 12.0011 9.52998 12.026C9.48366 12.0508 9.43096 12.0615 9.37849 12.0568C9.01992 12.0482 8.66135 12.0568 8.30278 12.0568C8.03155 12.0568 7.8802 12.1769 7.884 12.3835C7.8878 12.59 8.03318 12.6962 8.29356 12.6972C8.59083 12.6972 8.89027 12.6972 9.21575 12.6972C8.85211 13.6191 8.80917 14.6344 9.0937 15.583Z" fill="white"/>
<path d="M6.92707 16.2658C6.85167 16.4026 6.80122 16.5624 6.69706 16.6724C6.32602 17.0618 5.93761 17.4383 5.553 17.8117C5.29099 18.0643 4.94165 18.0643 4.68506 17.8117C3.51912 16.662 2.3568 15.5106 1.1981 14.3573C0.932289 14.0924 0.935001 13.7518 1.20081 13.483C1.56932 13.1097 1.94145 12.7398 2.3172 12.3732C2.5944 12.1051 2.97575 12.1051 3.23939 12.3695C4.37133 13.4927 5.50328 14.6161 6.63522 15.7396C6.78886 15.8781 6.89153 16.0632 6.92707 16.2658Z" fill="white"/>
<path d="M11.9948 1.9728C11.6693 1.79204 11.3438 1.762 11.0069 1.76415C10.0527 1.77112 9.09855 1.75664 8.14489 1.77273C7.84057 1.77755 7.53788 1.8505 7.2341 1.89288L7.23084 1.95617C7.21406 1.93071 7.20005 1.90356 7.18907 1.87518C7.07244 1.40155 6.95364 0.927922 6.84244 0.452685C6.77843 0.177519 6.91621 0.0139219 7.20426 0.0107036C7.67512 0.00480334 8.10909 0.137827 8.52625 0.345408C8.98171 0.576957 9.50203 0.652423 10.0055 0.559962C10.228 0.519733 10.4395 0.422111 10.6565 0.352381C11.0086 0.239203 11.3617 0.121735 11.7149 0.0198221C11.8206 -0.00356242 11.9299 -0.00738145 12.0371 0.00855803C12.2975 0.0337681 12.4217 0.182883 12.3664 0.432302C12.2541 0.942404 12.1233 1.44929 11.9948 1.9728Z" fill="white"/>
<path d="M16.0887 11.0109C15.2207 10.3222 14.2666 9.98159 13.1681 9.995C13.1808 9.96338 13.1972 9.93331 13.2169 9.90543C13.6845 9.44038 14.1445 8.96783 14.623 8.51405C14.8446 8.30843 15.1281 8.17998 15.4304 8.14823C15.7326 8.11648 16.0371 8.18314 16.2975 8.33811C16.821 8.64331 17.1112 9.27893 16.9599 9.83087C16.9115 10.0044 16.8299 10.1672 16.7196 10.3104C16.5297 10.5523 16.3089 10.7701 16.0887 11.0109Z" fill="white"/>
</g>
<defs>
<clipPath id="clip0_24_2477">
<rect width="18" height="18" fill="white"/>
</clipPath>
</defs>
</svg>
