<svg width="16" height="18" viewBox="0 0 16 18" fill="none" xmlns="http://www.w3.org/2000/svg">
<path d="M10.8176 17.9992C10.4142 17.9053 9.9931 17.8584 9.61092 17.7128C7.79909 17.0123 6.71359 15.694 6.49761 13.7582C6.20886 11.1876 7.9714 8.95651 10.5283 8.55508C13.0275 8.16258 15.4892 9.96079 15.8807 12.4647C16.2981 15.1362 14.5328 17.549 11.8641 17.9542C11.7702 17.9683 11.681 17.9842 11.589 18.0011L10.8176 17.9992ZM9.51608 14.3371C9.54801 14.5718 9.66632 14.7596 9.86352 14.8423C9.96279 14.8887 10.0744 14.902 10.1818 14.8803C10.2892 14.8586 10.3868 14.803 10.4603 14.7216C11.1986 13.9854 11.9359 13.248 12.6721 12.5093C12.7235 12.4609 12.7646 12.4027 12.7929 12.3381C12.8213 12.2735 12.8364 12.2039 12.8373 12.1333C12.8382 12.0628 12.8248 11.9928 12.798 11.9275C12.7713 11.8622 12.7316 11.803 12.6815 11.7534C12.4702 11.5444 12.1514 11.5459 11.927 11.7693C11.1871 12.504 10.4506 13.242 9.7175 13.9835C9.62547 14.0784 9.58181 14.2197 9.51608 14.3385V14.3371ZM10.0485 12.6206C10.1173 12.6211 10.1855 12.6079 10.2491 12.5818C10.3128 12.5557 10.3706 12.5173 10.4193 12.4686C10.4679 12.42 10.5065 12.3622 10.5326 12.2986C10.5587 12.235 10.572 12.1668 10.5715 12.098C10.5712 11.9591 10.516 11.8259 10.4181 11.7274C10.3202 11.6289 10.1874 11.5729 10.0485 11.5717C9.9096 11.5737 9.77697 11.6299 9.67879 11.7281C9.5806 11.8264 9.52459 11.9591 9.52265 12.098C9.52327 12.2371 9.57893 12.3703 9.67747 12.4685C9.776 12.5667 9.9094 12.6218 10.0485 12.622V12.6206ZM12.8148 14.3329C12.812 14.1943 12.7548 14.0625 12.6555 13.9658C12.5562 13.8692 12.4229 13.8155 12.2843 13.8164C12.2156 13.8167 12.1477 13.8306 12.0845 13.8574C12.0213 13.8841 11.964 13.9231 11.916 13.9722C11.8679 14.0212 11.8301 14.0793 11.8047 14.1431C11.7792 14.2068 11.7667 14.275 11.7678 14.3436C11.7688 14.4826 11.8248 14.6155 11.9235 14.7132C12.0223 14.811 12.1557 14.8656 12.2946 14.8653C12.4332 14.8614 12.5649 14.8039 12.662 14.7048C12.759 14.6058 12.8138 14.4729 12.8148 14.3343V14.3329Z" fill="white"/>
<path d="M3.73504 4.94177C4.11769 5.29249 4.56325 5.38311 5.04966 5.37654C5.82858 5.36574 6.60749 5.37372 7.3864 5.37372C7.94089 5.37372 8.18457 5.2925 8.64422 4.94741L10.7063 7.47195C10.6593 7.41467 10.1255 7.5574 10.0443 7.5743C9.82363 7.61979 9.60574 7.67779 9.39167 7.74802C8.9702 7.88678 8.5661 8.07363 8.18738 8.30486C7.40612 8.78141 6.77276 9.47534 6.26991 10.2374C6.06732 10.5399 5.89913 10.8642 5.76848 11.2041C5.67548 11.4564 5.60233 11.7155 5.54969 11.9792C5.28723 13.2535 5.40179 14.5526 5.96192 15.732C5.97647 15.7635 5.98868 15.7963 6.00136 15.8292C6.00136 15.8334 5.99854 15.84 5.99666 15.8466C5.99478 15.8531 5.98023 15.8658 5.97178 15.8658C4.70833 15.863 3.46742 15.7301 2.32041 15.1493C0.971516 14.4667 0.265845 13.3469 0.0879018 11.8586C-0.0614018 10.6059 0.369607 9.52323 1.00109 8.48891C1.62225 7.47054 2.3899 6.56392 3.1505 5.64838C3.34112 5.41926 3.53268 5.18873 3.73504 4.94177Z" fill="white"/>
<path d="M6.18212 0.00211802C6.73848 0.00211802 7.29532 -0.00539411 7.85169 0.00211802C8.04412 0.00623251 8.23238 0.0589841 8.39893 0.155459C8.56548 0.251934 8.70491 0.388993 8.80422 0.55387C8.90353 0.718747 8.95949 0.906077 8.9669 1.09841C8.97431 1.29074 8.93291 1.48182 8.84658 1.65385C8.78804 1.75368 8.71052 1.84109 8.6184 1.91114C8.47479 2.02956 8.32529 2.14067 8.17048 2.24402C8.12383 2.2712 8.0697 2.28272 8.01602 2.27688C7.82493 2.25998 7.63431 2.21491 7.44369 2.21303C6.59857 2.20615 5.75502 2.20615 4.91304 2.21303C4.72805 2.21303 4.54353 2.25998 4.35808 2.27501C4.2944 2.27621 4.23192 2.25768 4.1792 2.22195C4.07778 2.15387 3.99891 2.03697 3.88998 1.99847C3.45005 1.84306 3.32657 1.2158 3.44536 0.824696C3.51554 0.590318 3.65854 0.384381 3.85363 0.236735C4.04872 0.0890892 4.28576 0.00740635 4.53039 0.00352655C5.08206 -0.000699028 5.63138 0.00211802 6.18212 0.00211802Z" fill="white"/>
<path d="M6.17413 4.31875C5.72951 4.31875 5.28441 4.32298 4.83979 4.31875C4.54963 4.31499 4.34305 4.13705 4.29516 3.86755C4.27721 3.7477 4.30174 3.62535 4.3645 3.52168C4.42727 3.41801 4.52432 3.33956 4.63884 3.29992C4.71107 3.27706 4.78658 3.26627 4.86233 3.26799C5.74594 3.26549 6.62955 3.26549 7.51317 3.26799C7.84652 3.26799 8.07658 3.48162 8.07658 3.78445C8.07658 4.08728 7.85215 4.31499 7.508 4.31875C7.06338 4.32157 6.61875 4.31875 6.17413 4.31875Z" fill="white"/>
</svg>
