<svg width="85" height="88" viewBox="0 0 85 88" fill="none" xmlns="http://www.w3.org/2000/svg">
<rect width="85" height="88" rx="19" fill="white"/>
<path d="M45.7443 24.0735C44.9839 24.0762 44.372 24.6936 44.3748 25.454V41.9485C44.3707 42.4394 44.6305 42.8972 45.054 43.1461L59.3472 51.3961C60.0058 51.7742 60.8459 51.546 61.224 50.8887C64.4154 45.3599 64.4154 38.5454 61.224 33.0165C58.0299 27.4862 52.127 24.0735 45.7443 24.0735ZM47.1248 26.8881C51.9538 27.3584 56.3909 30.1317 58.8467 34.386C61.3038 38.6416 61.4949 43.8721 59.486 48.29L47.1248 41.1565V26.8881ZM40.2525 28.1751C31.5859 28.1751 24.1485 34.4107 22.6429 42.9454C21.1373 51.48 25.9883 59.884 34.131 62.8485C42.2738 65.813 51.3983 62.4979 55.7309 54.9931C56.109 54.3345 55.8808 53.493 55.2235 53.1162L41.6207 45.2581V29.5474C41.6207 28.7911 41.0074 28.1779 40.2525 28.1751Z" fill="#302C51"/>
</svg>
