<svg width="115" height="115" viewBox="0 0 115 115" fill="none" xmlns="http://www.w3.org/2000/svg">
<g clip-path="url(#clip0_77_69)">
<path d="M86.25 14.375H28.75C24.9375 14.375 21.2812 15.8895 18.5853 18.5853C15.8895 21.2812 14.375 24.9375 14.375 28.75V86.25C14.375 90.0625 15.8895 93.7188 18.5853 96.4147C21.2812 99.1105 24.9375 100.625 28.75 100.625H86.25C90.0625 100.625 93.7188 99.1105 96.4147 96.4147C99.1105 93.7188 100.625 90.0625 100.625 86.25V28.75C100.625 24.9375 99.1105 21.2812 96.4147 18.5853C93.7188 15.8895 90.0625 14.375 86.25 14.375ZM91.0417 86.25C91.0417 87.5208 90.5368 88.7396 89.6382 89.6382C88.7396 90.5368 87.5208 91.0417 86.25 91.0417H28.75C27.4792 91.0417 26.2604 90.5368 25.3618 89.6382C24.4632 88.7396 23.9583 87.5208 23.9583 86.25V28.75C23.9583 27.4792 24.4632 26.2604 25.3618 25.3618C26.2604 24.4632 27.4792 23.9583 28.75 23.9583H86.25C87.5208 23.9583 88.7396 24.4632 89.6382 25.3618C90.5368 26.2604 91.0417 27.4792 91.0417 28.75V86.25Z" fill="white"/>
<path d="M71.8752 52.7083H62.2918V43.125C62.2918 41.8542 61.787 40.6354 60.8884 39.7368C59.9898 38.8381 58.771 38.3333 57.5002 38.3333C56.2293 38.3333 55.0106 38.8381 54.1119 39.7368C53.2133 40.6354 52.7085 41.8542 52.7085 43.125V52.7083H43.1252C41.8543 52.7083 40.6356 53.2131 39.7369 54.1118C38.8383 55.0104 38.3335 56.2292 38.3335 57.5C38.3335 58.7708 38.8383 59.9896 39.7369 60.8882C40.6356 61.7868 41.8543 62.2916 43.1252 62.2916H52.7085V71.875C52.7085 73.1458 53.2133 74.3646 54.1119 75.2632C55.0106 76.1618 56.2293 76.6666 57.5002 76.6666C58.771 76.6666 59.9898 76.1618 60.8884 75.2632C61.787 74.3646 62.2918 73.1458 62.2918 71.875V62.2916H71.8752C73.146 62.2916 74.3648 61.7868 75.2634 60.8882C76.162 59.9896 76.6668 58.7708 76.6668 57.5C76.6668 56.2292 76.162 55.0104 75.2634 54.1118C74.3648 53.2131 73.146 52.7083 71.8752 52.7083Z" fill="white"/>
</g>
<defs>
<clipPath id="clip0_77_69">
<rect width="115" height="115" fill="white"/>
</clipPath>
</defs>
</svg>
