<svg width="108" height="108" viewBox="0 0 108 108" fill="none" xmlns="http://www.w3.org/2000/svg">
<path d="M22.5 54C22.5 52.8065 22.0259 51.6619 21.182 50.818C20.3381 49.9741 19.1935 49.5 18 49.5H13.5C12.3065 49.5 11.1619 49.9741 10.318 50.818C9.47411 51.6619 9 52.8065 9 54C9 55.1935 9.47411 56.3381 10.318 57.182C11.1619 58.0259 12.3065 58.5 13.5 58.5H18C19.1935 58.5 20.3381 58.0259 21.182 57.182C22.0259 56.3381 22.5 55.1935 22.5 54ZM25.38 76.5L22.185 79.695C21.3469 80.5381 20.8764 81.6787 20.8764 82.8675C20.8764 84.0563 21.3469 85.1969 22.185 86.04C23.0281 86.8781 24.1687 87.3486 25.3575 87.3486C26.5463 87.3486 27.6869 86.8781 28.53 86.04L31.725 82.845C32.4622 81.9841 32.8474 80.8768 32.8037 79.7443C32.76 78.6117 32.2905 77.5374 31.489 76.736C30.6876 75.9345 29.6133 75.465 28.4807 75.4213C27.3482 75.3775 26.2409 75.7628 25.38 76.5ZM54 22.5C55.1935 22.5 56.3381 22.0259 57.182 21.182C58.0259 20.3381 58.5 19.1935 58.5 18V13.5C58.5 12.3065 58.0259 11.1619 57.182 10.318C56.3381 9.47411 55.1935 9 54 9C52.8065 9 51.6619 9.47411 50.818 10.318C49.9741 11.1619 49.5 12.3065 49.5 13.5V18C49.5 19.1935 49.9741 20.3381 50.818 21.182C51.6619 22.0259 52.8065 22.5 54 22.5ZM79.47 33.03C80.6505 33.025 81.7818 32.5563 82.62 31.725L85.815 28.53C86.2861 28.1266 86.6687 27.6302 86.9388 27.0719C87.2089 26.5136 87.3607 25.9055 87.3846 25.2857C87.4085 24.666 87.3041 24.048 87.0779 23.4705C86.8516 22.8931 86.5085 22.3686 86.0699 21.9301C85.6314 21.4915 85.1069 21.1484 84.5294 20.9221C83.952 20.6959 83.334 20.5915 82.7143 20.6154C82.0945 20.6393 81.4864 20.7911 80.9281 21.0612C80.3698 21.3313 79.8734 21.7139 79.47 22.185L76.5 25.38C75.6619 26.2231 75.1914 27.3637 75.1914 28.5525C75.1914 29.7413 75.6619 30.8819 76.5 31.725C77.2933 32.5141 78.3522 32.9794 79.47 33.03ZM25.47 31.725C26.3082 32.5563 27.4395 33.025 28.62 33.03C29.2122 33.0334 29.7993 32.9199 30.3476 32.696C30.8958 32.472 31.3945 32.1421 31.815 31.725C32.6531 30.8819 33.1236 29.7413 33.1236 28.5525C33.1236 27.3637 32.6531 26.2231 31.815 25.38L28.62 22.185C28.2034 21.7625 27.7076 21.4261 27.161 21.1952C26.6144 20.9643 26.0277 20.8433 25.4343 20.8391C24.841 20.8349 24.2526 20.9476 23.7028 21.1709C23.153 21.3941 22.6525 21.7234 22.23 22.14C21.8075 22.5566 21.4711 23.0524 21.2402 23.599C21.0093 24.1456 20.8883 24.7323 20.8841 25.3257C20.8756 26.524 21.3436 27.6767 22.185 28.53L25.47 31.725ZM94.5 49.5H90C88.8065 49.5 87.6619 49.9741 86.818 50.818C85.9741 51.6619 85.5 52.8065 85.5 54C85.5 55.1935 85.9741 56.3381 86.818 57.182C87.6619 58.0259 88.8065 58.5 90 58.5H94.5C95.6935 58.5 96.8381 58.0259 97.682 57.182C98.5259 56.3381 99 55.1935 99 54C99 52.8065 98.5259 51.6619 97.682 50.818C96.8381 49.9741 95.6935 49.5 94.5 49.5ZM82.62 76.5C81.7651 76.0245 80.7784 75.8405 79.8096 75.9759C78.8407 76.1114 77.9424 76.5588 77.2506 77.2506C76.5588 77.9424 76.1114 78.8407 75.9759 79.8096C75.8405 80.7784 76.0245 81.7651 76.5 82.62L79.695 85.815C80.5381 86.6531 81.6787 87.1236 82.8675 87.1236C84.0563 87.1236 85.1969 86.6531 86.04 85.815C86.8781 84.9719 87.3486 83.8313 87.3486 82.6425C87.3486 81.4537 86.8781 80.3131 86.04 79.47L82.62 76.5ZM54 29.25C49.1049 29.25 44.3198 30.7016 40.2496 33.4211C36.1795 36.1407 33.0072 40.0061 31.134 44.5286C29.2607 49.0511 28.7706 54.0275 29.7256 58.8285C30.6805 63.6295 33.0378 68.0395 36.4991 71.5009C39.9605 74.9622 44.3705 77.3195 49.1715 78.2744C53.9725 79.2294 58.9489 78.7393 63.4714 76.866C67.9939 74.9927 71.8593 71.8205 74.5789 67.7504C77.2984 63.6802 78.75 58.8951 78.75 54C78.7381 47.4395 76.1267 41.1512 71.4878 36.5122C66.8488 31.8733 60.5605 29.2619 54 29.25ZM54 69.75C50.8849 69.75 47.8398 68.8263 45.2498 67.0956C42.6597 65.365 40.641 62.9052 39.4489 60.0273C38.2568 57.1493 37.9449 53.9825 38.5526 50.9273C39.1603 47.8721 40.6604 45.0657 42.8631 42.8631C45.0657 40.6604 47.8721 39.1603 50.9273 38.5526C53.9825 37.9449 57.1493 38.2568 60.0273 39.4489C62.9052 40.641 65.365 42.6597 67.0956 45.2498C68.8263 47.8398 69.75 50.8849 69.75 54C69.75 58.1772 68.0906 62.1832 65.1369 65.1369C62.1832 68.0906 58.1772 69.75 54 69.75ZM54 85.5C52.8065 85.5 51.6619 85.9741 50.818 86.818C49.9741 87.6619 49.5 88.8065 49.5 90V94.5C49.5 95.6935 49.9741 96.8381 50.818 97.682C51.6619 98.5259 52.8065 99 54 99C55.1935 99 56.3381 98.5259 57.182 97.682C58.0259 96.8381 58.5 95.6935 58.5 94.5V90C58.5 88.8065 58.0259 87.6619 57.182 86.818C56.3381 85.9741 55.1935 85.5 54 85.5Z" fill="white"/>
</svg>
