<svg width="264" height="507" viewBox="0 0 264 507" fill="none" xmlns="http://www.w3.org/2000/svg">
<g opacity="0.08">
<path d="M230.172 471.195C220.203 467.776 219.014 454.989 217.504 438.783C215.805 420.689 213.709 398.178 198.455 380.227C190.809 371.251 183.484 365.623 176.046 363.023C169.4 360.708 162.793 360.851 155.883 363.486C143.045 368.402 130.925 381.509 119.182 394.153C108.195 406.014 96.8299 418.303 84.5963 424.358C78.0265 427.634 71.7587 428.845 65.4343 428.133C58.3358 427.314 51.3506 424.073 44.1011 418.196C31.4334 407.938 18.8411 404.376 6.68313 407.581C4.43654 408.187 2.20883 409.006 0 410.075V411.179C2.24659 410.11 4.49318 409.256 6.77752 408.65C18.8411 405.444 31.3201 409.006 43.8934 419.157C52.8232 426.388 61.0921 429.38 68.8891 429.38C87.7114 429.38 103.777 412.034 119.466 395.115C131.699 381.901 143.234 369.435 155.996 364.555C162.83 361.919 169.363 361.777 175.932 364.092C183.314 366.656 190.582 372.248 198.153 381.153C204.855 389.025 213.199 398.819 216.956 438.961C217.73 447.331 218.41 454.562 220.203 460.367C222.186 466.814 225.339 470.59 230.077 472.228C244.104 477.072 252.449 484.73 256.319 496.342C257.244 499.084 257.923 502.076 258.377 505.246H258.962C258.49 501.862 257.791 498.728 256.791 495.772C252.826 483.911 244.368 476.111 230.172 471.195Z" fill="#848484"/>
<path d="M219.216 483.008C207.341 479.68 206.227 472.987 203.811 458.398C201.697 445.686 198.506 426.423 186.028 398.484C169.245 360.879 151.442 384.391 130.827 411.621C109.929 439.241 86.2364 470.509 57.3148 447.988C46.2332 439.348 35.0572 435.098 24.0699 435.275C15.8956 435.417 7.79677 438.037 0 443.066V444.199C7.79677 439.135 15.8767 436.515 24.0699 436.373C34.9816 436.161 46.0821 440.445 57.0882 449.015C70.1143 459.177 83.2725 459.354 97.2803 449.617C109.532 441.083 120.52 426.564 131.148 412.542C141.342 399.086 150.97 386.374 159.975 381.841C169.924 376.813 178.061 382.337 185.593 399.228C197.996 427.025 201.168 446.146 203.264 458.788C205.68 473.377 206.907 480.707 219.14 484.142C226.295 486.16 230.769 491.117 232.449 498.872C232.865 500.82 233.11 502.944 233.205 505.246H233.771C233.695 502.803 233.431 500.536 232.978 498.483C231.204 490.267 226.578 485.098 219.216 483.008Z" fill="#848484"/>
<path d="M160.659 436.343C155.421 429.748 148.394 429.962 139.784 437.092C132.945 442.725 125.088 452.706 116.422 466.681C107.567 481.012 99.6544 496.698 94.7183 507H95.4719C100.408 496.698 108.132 481.44 116.78 467.465C125.409 453.526 133.209 443.616 139.991 438.019C148.412 431.067 155.251 430.782 160.319 437.199C172.094 452.065 178.349 477.162 183.869 499.3C184.529 501.903 185.151 504.469 185.791 506.965H186.413C185.735 504.327 185.056 501.617 184.378 498.837C178.858 476.592 172.565 451.352 160.659 436.343Z" fill="#848484"/>
<path d="M145.636 472.553C143.222 469.291 140.102 469.362 136.37 472.766C133.436 475.461 130.112 480.212 126.491 486.914C123.037 493.332 119.936 500.317 117.893 505.245H118.617C124.411 491.452 137.688 463.122 145.301 473.404C150.222 480.07 153.101 493.296 155.589 505.245H156.183C153.658 493.083 150.761 479.468 145.636 472.553Z" fill="#848484"/>
<path d="M52.1939 472.107C47.3636 469.802 42.3641 467.428 37.8721 464.599C26.7266 457.511 13.8144 463.482 4.9431 469.733C3.19516 470.955 1.5412 472.247 0 473.539V474.691C1.59758 473.364 3.32673 472.002 5.14985 470.71C13.9272 464.53 26.7078 458.628 37.6841 465.612C42.1762 468.476 47.1944 470.85 52.0436 473.155C62.9447 478.323 73.2444 483.211 73.9586 492.081C74.2593 495.817 72.8685 500.182 69.7485 505.246H70.5755C73.5263 500.182 74.8232 495.782 74.5225 491.906C73.7519 482.338 63.7717 477.624 52.1939 472.107Z" fill="#848484"/>
<path d="M45.6639 486.818C41.8935 485.589 37.3042 485.662 33.0768 487.035C25.2503 489.564 9.94017 497.658 0 503.114V504.234C9.94017 498.778 25.3455 490.648 33.191 488.083C37.3613 486.746 41.8744 486.637 45.5877 487.866C50.9577 489.636 52.8429 493.358 53.4903 496.212C54.0806 498.778 53.9283 501.813 53.0523 505.245H53.6998C54.5377 501.704 54.6329 498.525 54.0045 495.779C52.7286 490.214 48.7678 487.83 45.6639 486.818Z" fill="#848484"/>
<path d="M24.1515 289.547C32.6563 300.43 38.2071 316.037 43.0804 329.819C48.6123 345.426 53.4104 358.921 60.8992 361.105C61.5954 361.32 62.3104 361.391 63.0254 361.391C68.8019 361.391 75.6697 355.055 84.3816 341.703C90.9107 331.68 96.3485 322.588 101.147 314.533C111.27 297.53 118.589 285.252 126.68 281.278C134.94 277.198 144.01 281.493 157.971 296.062C169.373 307.983 182.977 316.18 195.264 318.543C200.984 319.652 206.178 319.438 210.298 317.863C214.645 316.216 217.693 313.245 219.33 308.985C221.569 303.15 222.115 292.304 211.935 273.725C199.761 251.496 185.913 248.811 171.255 245.983C161.546 244.121 151.498 242.153 141.356 234.385C129.879 225.615 119.925 210.365 110.912 187.849C104.251 171.204 96.4803 163.328 88.4082 165.082C82.9139 166.264 77.5137 171.776 72.3581 181.406C67.1837 191.142 62.5174 204.566 58.5284 221.319C55.5554 233.74 52.2814 240.112 48.4618 240.757C40.2016 242.153 30.643 215.735 21.4232 190.176C16.8133 177.396 12.0528 164.223 7.51815 154.773C5.16615 149.869 3.02113 146.253 1.00781 143.855V145.179C7.34881 153.126 14.2355 172.17 20.9528 190.784C25.5815 203.6 30.3796 216.88 34.9895 226.545C39.9193 236.855 44.1341 241.902 47.8409 241.902C48.0667 241.902 48.2925 241.866 48.5182 241.83C52.5449 241.15 55.9882 234.6 59.0364 221.784C63.0066 205.139 67.6165 191.823 72.7533 182.193C77.8148 172.707 83.1021 167.302 88.4646 166.156C96.3109 164.474 103.931 172.206 110.461 188.529C119.53 211.224 129.578 226.545 141.131 235.387C151.348 243.227 161.433 245.16 171.18 247.057C185.743 249.885 199.498 252.534 211.54 274.513C221.437 292.59 220.986 302.9 218.878 308.376C215.793 316.359 206.987 319.76 195.321 317.505C183.109 315.142 169.58 306.98 158.234 295.132C144.141 280.419 134.959 276.124 126.529 280.276C118.307 284.321 110.95 296.671 100.77 313.782C95.9722 321.836 90.5532 330.928 84.0241 340.916C74.3526 355.735 67.0332 361.821 60.9744 360.067C53.7303 357.991 49.0075 344.674 43.532 329.246C38.621 315.393 33.0515 299.714 24.4526 288.688C17.3213 279.56 10.5287 274.978 4.18772 274.978C3.11521 274.978 2.06151 275.121 1.00781 275.372V276.446C8.13908 274.62 15.9101 279.023 24.1515 289.547Z" fill="#848484"/>
<path d="M10.6057 394.261C19.3587 394.513 29.1516 397.863 37.7912 400.781C50.174 404.995 59.9289 408.309 61.1389 400.672C62.9537 389.217 57.0554 379.744 47.2626 364.074C40.2488 352.835 31.4958 338.859 22.1378 318.758C15.1051 303.665 8.09135 296.821 1.32335 298.478C0.907441 298.586 0.472626 298.73 0 298.91V300.027C0.453721 299.847 0.926346 299.667 1.39897 299.558C7.97792 297.974 14.8026 304.674 21.7219 319.479C31.1177 339.651 39.8707 353.664 46.9034 364.939C56.5071 380.32 62.311 389.614 60.6095 400.384C59.5508 407.084 49.5123 403.662 37.9046 399.736C25.3706 395.485 10.6624 390.478 0.018905 394.801V395.918C3.0059 394.693 6.54114 394.116 10.6057 394.261Z" fill="#848484"/>
<path d="M35.9484 389.46C40.9147 389.46 43.7035 387.745 44.2383 384.28C45.4226 376.728 35.5473 363.12 29.5304 355.678C21.0304 345.135 10.9068 335.212 5.46294 332.038C3.64833 330.98 1.81461 330.251 0.0191012 329.813V330.907C1.75731 331.345 3.53372 332.075 5.29103 333.096C10.6967 336.234 20.763 346.084 29.2057 356.59C39.0428 368.812 44.4485 379.026 43.6653 383.951C42.9013 388.767 36.1012 389.642 24.5068 386.432C15.109 383.842 5.31013 379.355 0 376.509V377.64C5.34833 380.522 15.0899 384.936 24.4113 387.527C29.0911 388.803 32.9113 389.46 35.9484 389.46Z" fill="#848484"/>
<path d="M11.265 368.408C13.5446 368.408 14.8174 367.567 15.0643 365.883C15.5962 362.515 11.7969 356.915 8.51049 352.816C5.67999 349.265 2.45057 345.898 0 343.848V345.056C2.39358 347.106 5.49003 350.363 8.20654 353.767C12.4238 359.038 14.8364 363.577 14.5134 365.59C14.0005 368.848 6.38287 367.018 0 364.272V365.37C1.91866 366.176 4.06528 366.981 6.15491 367.567C8.22554 368.116 9.91624 368.408 11.265 368.408Z" fill="#848484"/>
<path fill-rule="evenodd" clip-rule="evenodd" d="M65.1459 340.339C64.6017 340.339 64.0762 340.231 63.5695 339.98C58.9717 337.793 55.3123 331.591 52.9853 322.017C50.6394 312.265 49.8513 299.68 50.7333 285.589C51.5402 272.897 53.886 260.312 57.5643 249.197C70.6445 209.578 81.5102 187.85 89.8613 184.623C92.5449 183.583 95.0033 184.479 97.1239 187.312C105.077 197.867 110.265 208.142 114.84 217.204L115.008 217.537L115.049 217.618C122.124 231.635 127.718 242.72 139.968 249.125C147.718 253.177 151.378 256.906 151.134 260.563C150.946 263.395 148.319 265.654 143.308 267.303C138.448 268.881 131.429 269.849 123.022 270.064C116.679 270.243 110.092 274.94 102.866 284.514C96.5609 292.904 90.5932 303.839 85.3198 313.52C77.5318 327.826 70.7195 340.339 65.1459 340.339ZM58.0519 249.771C54.43 260.742 52.103 273.184 51.3148 285.733C50.4515 299.609 51.221 311.978 53.5292 321.551C55.7624 330.838 59.2905 336.861 63.7194 338.941C64.1886 339.156 64.6765 339.264 65.1644 339.264C70.4939 339.264 77.2308 326.895 84.9247 312.769L84.9255 312.767C90.1989 303.051 96.1854 292.079 102.547 283.653C109.866 273.973 116.566 269.168 123.021 268.989C131.41 268.774 138.391 267.806 143.214 266.228C149.426 264.184 150.495 261.71 150.589 260.42C150.852 256.332 143.158 251.85 139.836 250.129C127.413 243.604 121.764 232.417 114.633 218.255L114.556 218.102C109.977 209.032 104.792 198.762 96.8234 188.173C95.3596 186.237 93.7457 185.268 91.9817 185.268C91.3436 185.268 90.668 185.412 89.9924 185.663C81.8103 188.854 71.0571 210.402 58.0519 249.771Z" fill="#848484"/>
<path fill-rule="evenodd" clip-rule="evenodd" d="M198.637 301.502C189.836 299.078 179.797 295.05 173.868 292.305C163.979 287.743 159.738 283.679 159.25 278.368C158.818 273.556 161.558 267.746 167.844 260.082C171.278 255.911 175.744 255.02 181.167 257.515C185.464 259.476 190.362 263.539 195.728 269.599C204.66 279.687 211.96 292.02 212.316 292.626C214.943 296.155 215.994 298.793 215.525 300.753C215.075 302.571 213.273 303.498 210.046 303.498C207.287 303.498 203.497 302.821 198.637 301.502ZM175.538 257.159C172.686 257.159 170.228 258.443 168.163 260.938C162.178 268.245 159.438 273.877 159.813 278.083C160.339 284.107 167.282 288.1 173.999 291.201C190.287 298.722 213.611 306.065 215 300.255C215.188 299.47 215.056 297.546 211.979 293.411L211.96 293.375C211.956 293.369 211.927 293.322 211.876 293.236C211.032 291.829 203.99 280.097 195.447 270.455C190.137 264.467 185.296 260.439 181.055 258.514C179.084 257.623 177.246 257.159 175.538 257.159Z" fill="#848484"/>
<path d="M264 282.621C262.657 279.964 261.126 277.236 259.386 274.507C252.768 264.132 244.373 255.588 234.427 249.09C222.004 240.977 207.123 236.022 190.2 234.371C180.519 233.438 161.95 230.171 146.275 218.719C129.768 206.692 120.616 188.922 119.104 165.91C117.345 139.272 119.066 122.758 124.53 113.89C130.505 104.197 141.321 103.767 157.583 112.67C168.871 118.845 178.004 127.317 185.34 134.138C192.582 140.887 198.312 146.201 203.417 147.134C208.957 148.139 213.287 143.867 217.447 133.277C220.094 126.527 222.193 120.137 224.046 114.501C227.771 103.12 230.475 94.8994 234.881 91.8479C239.532 88.6169 245.829 91.3453 255.964 100.966C258.857 103.695 261.523 106.746 264 109.906V108.613C261.599 105.562 259.008 102.654 256.229 99.9972C245.942 90.2324 239.513 87.504 234.692 90.8068C230.097 94.0019 227.374 102.331 223.573 113.89C221.739 119.491 219.64 125.845 217.012 132.594C208.465 154.386 199.862 146.38 185.605 133.133C178.25 126.276 169.079 117.768 157.753 111.593C141.283 102.618 130.297 103.085 124.171 113.029C118.555 122.148 116.778 138.985 118.555 166.017C120.106 189.46 129.371 207.518 146.086 219.724C161.837 231.212 180.481 234.479 190.181 235.448C207.047 237.064 221.853 242.018 234.219 250.095C244.089 256.557 252.428 265.03 258.989 275.297C260.918 278.313 262.582 281.328 264 284.2V282.621Z" fill="#848484"/>
<path d="M264 259.994C260.019 254.281 255.232 248.532 249.806 243.106C234.392 227.655 216.219 216.912 198.665 212.887C180.885 208.791 167.912 204.3 157.849 198.694C144.989 191.58 136.878 182.705 133.048 171.638C130.457 164.128 129.894 155.468 131.34 145.839C132.429 138.724 134.419 134.017 137.441 131.466C147.674 122.77 167.293 140.988 184.603 157.049C190.93 162.942 196.919 168.476 202.007 172.284C210.587 178.716 215.862 180.153 219.655 177.027C223.316 174.009 225.418 167.038 228.31 157.373C230.056 151.552 232.027 144.976 234.805 137.718C237.772 129.957 241.527 125.896 245.976 125.645C252.059 125.322 258.649 132.184 264 139.73V138.401C255.683 126.795 249.694 124.387 245.976 124.567C241.358 124.818 237.453 129.023 234.374 137.071C231.576 144.365 229.605 151.013 227.84 156.834C222.17 175.698 219.579 184.322 202.213 171.278C197.144 167.47 191.174 161.936 184.847 156.079C167.424 139.91 147.674 121.585 137.216 130.496C134.062 133.155 131.903 138.257 130.795 145.587C129.293 155.504 129.875 164.487 132.56 172.284C136.484 183.531 144.688 192.55 157.699 199.736C167.8 205.342 180.81 209.833 198.608 213.929C216.087 217.954 234.186 228.661 249.543 244.04C255.044 249.574 259.963 255.502 264 261.395V259.994Z" fill="#848484"/>
<path d="M263.981 244.132C253.269 226.331 238.741 219.211 227.351 213.673C216.301 208.279 208.332 204.395 209.196 193.895C209.441 190.838 211.658 191.054 215.549 191.701C219.157 192.277 223.63 193.032 227.859 190.299C232.858 187.063 236.297 179.763 238.365 167.968C239.812 159.697 242.124 154.95 245.206 153.943C250.844 152.073 258.249 162.574 264 173.002V171.492C263.85 171.24 263.718 170.952 263.568 170.701C255.975 157.323 249.773 151.318 245.112 152.864C241.804 153.943 239.361 158.906 237.839 167.608C233.29 193.535 222.653 191.773 215.605 190.623C211.771 189.975 208.99 189.544 208.651 193.751C208.219 199.073 209.741 203.173 213.5 206.589C216.846 209.646 221.657 212.019 227.22 214.716C238.703 220.326 253.344 227.482 264 245.606V244.132H263.981Z" fill="#848484"/>
<path d="M264 233.761C260.381 229.291 256.408 222.952 252.994 216.137C247.883 205.914 244.842 196.461 244.45 189.463C244.245 185.689 244.823 182.684 246.204 180.559C251.054 173.084 258.964 185.542 264 195.472V193.896C262.956 191.881 261.818 189.792 260.624 187.814C257.844 183.234 255.27 180.083 253.013 178.471C250.14 176.419 247.715 176.822 245.849 179.716C244.32 182.061 243.667 185.396 243.891 189.609C244.674 203.899 255.587 224.82 264 235.08V233.761Z" fill="#848484"/>
<path fill-rule="evenodd" clip-rule="evenodd" d="M198.84 190.957C198.904 191.044 198.941 191.093 198.947 191.101C201.187 194.259 201.959 196.85 201.3 198.838C200.547 200.932 198.119 201.748 194.919 201.748C190.533 201.748 184.66 200.222 179.502 198.27C166.947 193.55 154.976 185.529 147.484 176.834C139.051 167.038 136.19 156.427 139.221 146.135C140.03 143.367 141.385 141.592 143.23 140.811C149.178 138.291 160.378 146.028 176.491 163.738C187.814 176.158 197.706 189.435 198.84 190.957ZM193.846 200.612C199.06 200.86 200.453 199.192 200.81 198.199C201.413 196.46 199.945 193.869 198.608 191.988C198.119 191.314 161.225 141.414 145.621 141.414C144.792 141.414 144.039 141.556 143.343 141.84C141.668 142.55 140.444 144.147 139.71 146.632C138.204 151.742 138.223 156.924 139.785 162.07C141.197 166.754 143.889 171.404 147.766 175.911C155.202 184.535 167.098 192.52 179.597 197.205C184.961 199.228 190.025 200.435 193.846 200.612Z" fill="#848484"/>
<path fill-rule="evenodd" clip-rule="evenodd" d="M180.298 182.077C180.433 182.231 180.509 182.316 180.517 182.324C180.533 182.347 180.551 182.373 180.57 182.401C180.894 182.867 181.655 183.965 181.267 185.033C181.023 185.718 180.274 185.958 179.262 185.958C176.489 185.958 171.786 183.97 170.587 183.455C164.348 180.712 158.559 176.769 155.112 172.894C151.646 168.985 150.447 165.179 151.533 161.579C151.796 160.721 152.245 160.138 152.845 159.864C155.28 158.698 160.676 162.162 168.901 170.082C174.311 175.292 179.218 180.853 180.298 182.077ZM170.699 182.461C177.07 185.239 180.479 185.307 180.798 184.45C180.817 184.382 180.779 183.97 180.18 183.182C179.655 182.564 160.507 160.688 153.894 160.688C153.538 160.688 153.238 160.756 152.957 160.893C152.489 161.099 152.189 161.511 152.001 162.093C151.083 165.111 152.208 168.437 155.374 172.003C158.765 175.844 164.498 179.753 170.699 182.461Z" fill="#848484"/>
<path fill-rule="evenodd" clip-rule="evenodd" d="M69.032 313.643C67.1581 315.163 65.6214 315.778 64.3659 315.778C61.8173 315.778 60.4119 313.208 59.6436 310.565C54.6401 293.442 65.94 238.306 81.3064 216.802C85.8975 210.394 90.0202 207.788 93.5432 209.091C96.4479 210.177 98.9402 213.833 100.964 219.988C102.95 225.997 103.906 232.948 103.775 240.116C103.644 247.248 102.426 254.09 100.271 259.882L99.6898 261.439L99.6559 261.53C92.508 280.725 85.1225 300.558 69.032 313.643ZM81.6432 217.707C74.6908 227.445 67.8509 245.438 63.3534 265.82C59.1371 284.934 57.8628 302.275 60.1303 310.022C61.6482 315.199 64.5528 316.068 68.8066 312.593C84.7727 299.596 92.1185 279.866 99.2208 260.751L99.8017 259.195C101.901 253.583 103.081 246.958 103.212 240.044C103.343 233.093 102.406 226.359 100.495 220.567C98.5649 214.702 96.185 211.191 93.449 210.177C92.8868 209.96 92.3059 209.851 91.725 209.851C88.7454 209.851 85.3723 212.494 81.6432 217.707Z" fill="#848484"/>
<path fill-rule="evenodd" clip-rule="evenodd" d="M73.8847 289.854C72.6935 290.812 71.7136 291.218 70.9259 291.218C69.4272 291.218 68.6011 289.78 68.14 288.269C66.8143 283.772 67.6212 274.263 70.2342 263.463C72.9624 252.258 77.0548 242.085 81.2049 236.335C83.9523 232.539 86.4116 230.991 88.5443 231.765C90.2927 232.391 91.8105 234.566 93.0209 238.252C95.4226 245.55 95.2689 254.838 92.5982 261.952C88.3521 273.268 83.7218 281.893 73.8847 289.854ZM81.5504 237.257C77.4965 242.896 73.4617 252.885 70.7719 263.943C68.2742 274.263 67.448 283.588 68.6584 287.754C69.4654 290.518 71.1561 290.887 73.673 288.859C83.3949 281.008 87.9484 272.494 92.1368 261.326C94.673 254.581 94.8267 245.771 92.5403 238.879C91.4067 235.488 90.0426 233.461 88.4479 232.871C88.1213 232.76 87.7947 232.686 87.4488 232.686C85.7004 232.686 83.7407 234.235 81.5504 237.257Z" fill="#848484"/>
<path opacity="0.3" d="M78.6025 270.166C78.819 270.166 79.0854 270.057 79.4018 269.765C81.8666 267.503 83.0157 265.022 84.0815 261.775C84.7809 259.659 84.8309 256.849 84.1981 254.697C83.865 253.566 83.4653 252.909 82.9823 252.69C82.4161 252.435 81.75 252.909 81.0339 254.04C78.8523 257.506 76.9871 266.116 77.7698 269.145C77.8864 269.582 78.1195 270.166 78.6025 270.166Z" fill="#848484" stroke="#575757" stroke-width="5"/>
<path d="M263.943 474.41C258.523 473.941 253.255 472.604 248.593 470.435C242.453 467.581 237.299 463.281 233.281 457.716C228.354 450.886 225.113 442.069 223.616 431.445C221.532 416.521 218.234 402.428 214.084 390.648C209.214 376.808 203.244 366.148 196.308 358.921C183.555 345.587 168.034 344.322 150.201 355.162C128.598 368.28 111.788 382.047 99.5083 392.129C83.8361 404.958 75.1946 412.04 73.2237 404.271C73.0532 403.584 73.0342 402.862 73.1858 402.067C74.3039 396.177 83.5708 388.154 94.3158 378.904C102.313 372.002 111.39 364.16 118.535 355.849C126.797 346.237 131.137 337.528 131.8 329.253C132.729 317.617 135.192 309.451 138.907 305.657C143.133 301.356 148.913 302.477 156.114 308.981C169.342 320.906 201.633 335.143 221.247 335.143C228.013 335.143 233.281 333.445 235.726 329.362C237.204 326.904 237.621 323.688 236.958 319.786C234.778 306.885 237.299 293.551 242.813 288.817C249.73 282.891 257.367 291.491 263.943 305.259V303.452C261.366 298.176 258.751 294.057 256.117 291.094C251.284 285.637 246.471 284.481 242.586 287.842C236.806 292.792 234.153 306.668 236.427 320.111C237.014 323.58 236.654 326.362 235.366 328.53C231.291 335.324 218.121 335.902 199.208 330.084C182.872 325.061 165.267 315.991 156.379 307.969C149.007 301.32 143.057 300.236 138.679 304.681C134.794 308.62 132.236 317.075 131.27 329.072C129.829 347.032 110.026 364.16 94.1074 377.892C82.8128 387.648 73.887 395.345 72.6931 401.669C72.4847 402.753 72.5036 403.765 72.75 404.705C73.8112 408.896 76.4075 409.619 81.202 407.053C85.6175 404.668 91.8712 399.573 99.7736 393.105C112.035 383.059 128.844 369.292 150.41 356.174C168.091 345.442 183.46 346.671 196.081 359.824C202.922 366.979 208.835 377.53 213.648 391.19C217.761 402.898 221.039 416.882 223.105 431.662C224.621 442.503 227.937 451.536 232.978 458.511C237.052 464.148 242.283 468.484 248.499 471.411C253.217 473.615 258.542 474.989 264 475.422V474.41H263.943Z" fill="#848484"/>
<path d="M263.981 452.568C255.098 456.484 248.095 455.873 242.705 450.736C234.752 443.12 231.26 426.522 228.678 409.709C225.945 391.962 218.107 378.849 211.805 368.323C207.573 361.246 204.232 355.677 204.081 351.222C204.043 349.965 204.27 348.851 204.764 347.809C206.491 344.145 211.995 346.444 218.98 349.354C224.579 351.689 231.563 354.599 238.833 355.39C242.192 355.749 244.394 354.671 245.59 352.084C247.298 348.348 246.652 342.097 245.969 335.487C245.001 326.254 244.014 316.734 248.626 311.489C250.164 309.728 251.872 309.405 253.694 310.411C256.769 312.171 260.28 317.991 264 327.368V325.536C260.963 318.063 257.414 311.417 253.865 309.405C251.891 308.255 250.031 308.651 248.342 310.555C243.388 316.195 244.47 326.541 245.419 335.702C246.083 342.061 246.709 348.061 245.172 351.402C244.109 353.701 242.04 354.671 238.871 354.312C231.639 353.522 224.693 350.612 219.113 348.276C211.691 345.187 206.32 342.923 204.365 347.055C203.777 348.312 203.492 349.713 203.549 351.258C203.701 356.144 207.117 361.856 211.464 369.077C217.708 379.496 225.49 392.501 228.166 409.961C230.785 426.989 234.315 443.838 242.477 451.634C245.609 454.616 249.272 456.125 253.504 456.125C256.674 456.125 260.166 455.298 264 453.61V452.568H263.981Z" fill="#848484"/>
<path d="M264 424.727C259.552 426.934 254.123 428.2 249.713 424.98C246.471 422.628 244.114 418.069 242.72 411.484C240.797 402.367 237.423 393.9 234.709 387.098C232.033 380.405 229.733 374.616 230.449 372.011C230.902 370.383 232.541 369.767 235.463 370.093L236.443 370.202C245.189 371.215 249.599 371.721 251.767 367.922C252.823 366.077 253.331 363.183 253.388 358.587C253.482 352.256 255.235 346.973 257.761 345.418C259.646 344.26 261.776 345.164 264 347.914V346.575C261.135 343.247 258.911 343.572 257.591 344.404C254.839 346.105 252.917 351.785 252.823 358.587C252.766 362.857 252.314 365.498 251.39 367.126C249.392 370.636 244.812 370.093 236.481 369.116L235.501 369.008C232.278 368.646 230.525 369.442 229.94 371.504C229.054 374.724 231.222 380.188 234.238 387.786C236.933 394.552 240.288 402.946 242.173 411.919C243.624 418.793 246.094 423.533 249.486 426.029C251.484 427.477 253.671 428.056 255.857 428.056C258.741 428.056 261.606 427.079 263.981 425.921V424.727H264Z" fill="#848484"/>
<path d="M264 404.181C259.455 404.395 253.017 403.327 251.805 395.854C251.067 391.299 251.578 386.887 253.207 383.435C255.403 378.773 259.285 376.354 264 376.496V375.428C259.114 375.322 255.081 377.848 252.79 382.723C251.01 386.495 250.461 391.264 251.256 396.174C252.127 401.512 255.346 404.537 260.819 405.142C261.538 405.213 262.258 405.249 262.939 405.249C263.299 405.249 263.64 405.249 263.981 405.213V404.181H264Z" fill="#848484"/>
<path d="M20.9072 271.419C28.0982 277.041 34.9659 282.446 39.6077 282.446C40.8633 282.446 41.9476 282.047 42.8417 281.177C44.0973 279.943 44.8963 277.731 45.2388 274.647C46.0568 267.392 42.0047 260.391 35.86 249.798C29.7723 239.314 21.4399 224.985 14.0777 203.51C9.09341 188.964 4.37549 179.604 0.0190239 175.433V176.63C4.2233 180.801 8.77 189.943 13.6021 204.091C21.0214 225.711 29.3728 240.076 35.4795 250.596C41.472 260.935 45.448 267.755 44.6871 274.393C44.3637 277.186 43.6788 279.073 42.5754 280.161C38.6375 284.115 30.1338 277.44 21.1355 270.367C15.2001 265.723 9.05536 260.899 3.72868 258.722C2.39701 258.178 1.14143 257.815 0 257.634V258.722C1.10338 258.903 2.32091 259.23 3.61453 259.774C8.88414 261.987 14.9908 266.775 20.9072 271.419Z" fill="#848484"/>
<path d="M17.3592 252.623C19.2476 252.623 20.446 251.713 20.9363 249.93C22.1347 245.454 18.5213 236.921 10.1685 224.472C6.39166 218.877 2.4695 213.701 0 210.519V211.743C8.26194 222.339 22.3526 242.376 20.4642 249.44C20.0647 250.944 18.9752 251.608 17.4499 251.608C13.437 251.608 6.31902 247.202 0 242.516V243.635C1.36186 244.649 2.79635 245.664 4.249 246.643C10.1504 250.629 14.5447 252.623 17.3592 252.623Z" fill="#848484"/>
<path fill-rule="evenodd" clip-rule="evenodd" d="M99.6791 335.844C100.684 332.646 101.745 329.765 102.862 327.235C106.418 319.152 111.76 314.935 117.14 315.919C120.304 316.517 121.905 318.625 121.924 322.245C121.961 334.227 102.657 359.247 93.9644 361.004C92.6986 361.286 91.7306 361.391 91.0047 361.391C89.441 361.391 88.9198 360.864 88.7337 360.091C88.3614 358.474 89.7016 356.155 91.9354 352.29C94.3181 348.178 97.5757 342.556 99.6791 335.844ZM110.885 344.665C117.382 335.95 121.421 327.34 121.403 322.28C121.384 319.293 119.951 317.536 117.14 317.009C116.637 316.904 116.135 316.868 115.632 316.868C110.941 316.868 106.436 320.874 103.328 327.903C102.229 330.362 101.187 333.244 100.2 336.371C98.0788 343.162 94.8055 348.814 92.4097 352.951L92.3449 353.063L92.2605 353.209C90.6858 355.94 89.0727 358.737 89.2921 359.634C89.4224 360.197 90.3345 360.689 93.9458 359.951C97.9293 359.142 104.575 353.133 110.885 344.665Z" fill="#848484"/>
<path d="M19.4562 143.941C23.7048 158.813 28.2556 174.116 32.693 185.289C37.5836 197.539 41.8322 203.502 45.7032 203.502C45.741 203.502 45.7787 203.502 45.8165 203.502C49.6686 203.394 53.0675 197.503 56.202 185.576C62.7921 160.537 70.5906 145.234 78.7668 141.39C84.3561 138.768 90.0965 141.354 95.8179 149.15C100.218 155.149 103.352 157.125 105.354 155.221C108.318 152.419 108.488 141.965 108.677 129.894C108.885 116.639 109.111 101.587 113.284 94.6892C115.229 91.492 117.835 90.3065 121.253 91.025C130.203 92.9649 138.719 90.3784 145.876 83.6247C152.674 77.1944 157.942 67.3872 161.095 55.245C164.098 43.7135 164.966 30.7091 163.645 17.7048C163.097 12.2803 162.172 6.96357 160.907 1.75464H160.265C164.683 19.5009 164.929 38.1813 160.605 54.778C157.508 66.7047 152.334 76.3322 145.649 82.6548C138.587 89.3366 130.166 91.8512 121.328 89.9473C117.797 89.1929 114.965 90.4861 112.926 93.863C108.564 101.048 108.337 116.351 108.111 129.823C107.941 141.067 107.771 151.7 105.108 154.215C103.295 155.939 100.369 153.963 96.1389 148.215C90.2664 140.24 84.375 137.582 78.6158 140.276C70.2696 144.228 62.3389 159.711 55.6922 185.037C52.652 196.569 49.4231 202.245 45.8165 202.352C45.7787 202.352 45.741 202.352 45.7032 202.352C37.4892 202.352 28.4822 173.218 19.9472 143.33C14.7167 125.009 8.35319 112.436 1.00781 105.754V106.939C8.16436 113.693 14.3579 126.051 19.4562 143.941Z" fill="#848484"/>
<path d="M26.3885 98.2425C29.6362 98.2425 32.4896 97.3397 34.8362 95.4981C40.1864 91.3092 42.8522 82.751 42.7583 69.9678C42.6644 57.4374 44.4103 48.1208 48.0897 41.5126C57.1569 25.1183 76.6805 27.9349 97.3681 30.9682C100.409 31.4016 103.563 31.871 106.661 32.2682C109.683 32.6654 112.461 32.846 115.014 32.846C126.672 32.846 133.28 28.8377 134.726 20.8572C135.739 15.2239 134.05 8.39901 131.347 1.75464H130.615C133.393 8.3629 135.158 15.1156 134.2 20.5322C132.548 29.7043 123.312 33.3154 106.717 31.221C103.619 30.8238 100.466 30.3543 97.4244 29.921C76.6242 26.8877 56.9692 24.035 47.7143 40.7542C43.9222 47.6153 42.12 57.1846 42.2139 70.04C42.3077 82.3177 39.7547 90.587 34.6485 94.5592C28.078 99.6869 17.3964 97.3397 5.30676 88.1315C3.86126 87.0482 2.43454 85.8565 1.00781 84.6288V85.8204C2.35945 87.0121 3.72985 88.1315 5.10026 89.1426C13.0036 95.137 20.3625 98.2425 26.3885 98.2425Z" fill="#848484"/>
<path d="M15.665 63.0847C22.4212 62.3003 28.1452 55.5611 32.7057 43.0455L33.4564 40.9774C38.9927 25.7875 41.7703 18.1569 45.8803 14.9834C49.9903 11.8099 55.5642 12.9509 66.6744 15.2686C68.0256 15.5539 69.4707 15.8392 70.9909 16.1601C84.1467 18.87 93.6805 19.7614 100.136 18.9057C106.348 18.0856 109.877 15.6965 111.228 11.382C112.054 8.74341 112.016 5.53428 111.34 1.75464H110.759C111.434 5.39165 111.509 8.4225 110.74 10.8472C109.501 14.8051 106.029 17.0872 100.099 17.8716C93.6805 18.6917 84.1842 17.8003 71.0472 15.0904C69.527 14.7695 68.0819 14.4842 66.7307 14.1989C55.5267 11.8456 49.9152 10.6689 45.6551 13.985C41.3949 17.3011 38.5798 25.003 32.9872 40.3712L32.2365 42.4393C27.7699 54.6697 22.196 61.2662 15.6275 62.015C12.2494 62.4072 7.35114 61.3019 1.00781 55.668V56.8447C6.58168 61.7297 11.0483 63.156 14.3701 63.156C14.8205 63.156 15.2521 63.1204 15.665 63.0847Z" fill="#848484"/>
<path d="M23.0503 39.3968C25.8202 36.9121 27.7184 32.6843 28.6676 26.8247C30.0816 18.295 30.3915 9.69102 30.1591 1.75464H29.578C29.8104 9.57977 29.5005 18.0724 28.1058 26.4909C27.1955 32.0538 25.394 36.0591 22.7791 38.3955C16.5613 43.9955 6.87634 39.3968 0 34.8724V36.0591C4.62943 39.1002 10.4792 42.1041 15.7478 42.1041C18.4015 42.067 20.9196 41.3253 23.0503 39.3968Z" fill="#848484"/>
<path d="M138.892 28.1929C135.156 42.2002 118.712 40.3015 118.524 40.2657C109.307 40.2657 100.746 39.0119 93.1998 37.8655C81.9739 36.1818 72.2685 34.7488 65.0974 38.2954C61.3054 40.1583 58.3581 43.3466 56.1054 48.0038C53.665 53.0192 52.013 59.79 51.0369 68.6385C47.7892 98.2294 39.2853 101.776 32.4334 104.606C28.3034 106.326 24.7367 107.794 23.554 114.816C22.484 121.229 23.723 133.982 26.7453 147.309C29.9742 161.603 34.3669 172.672 38.4969 176.899C39.8297 178.261 41.1626 178.941 42.4203 178.941C44.8232 178.941 47.0947 176.505 49.0845 171.741C52.1069 164.504 54.5661 156.623 56.9502 148.992C61.3993 134.734 65.2288 122.447 71.1797 119.688C74.8403 118.004 79.1017 120.082 84.1703 126.136C90.8908 134.125 95.5464 136.633 98.4185 133.803C101.985 130.292 102.342 119.437 102.717 107.902C103.224 92.4258 103.75 76.4124 112.085 77.1289C114 77.2722 115.839 77.3797 117.623 77.3797C135.644 77.3797 147.34 69.2476 152.389 53.1266C156.369 40.4807 155.355 25.2195 153.816 14.6872C153.084 9.63598 152.164 5.19377 151.357 1.75464H150.737C151.563 5.19377 152.521 9.8151 153.272 15.0096C155.994 33.7457 154.023 45.7827 151.901 52.5893C146.457 69.9282 133.054 77.8454 112.104 76.09C108.105 75.7676 105.439 78.9918 103.956 85.9775C102.661 92.0318 102.398 100.092 102.154 107.902C101.798 119.115 101.441 129.683 98.1557 132.907C95.4713 135.558 91.0034 133.051 84.4518 125.277C79.2331 119.079 74.8403 116.93 71.0295 118.721C64.8534 121.587 60.9487 134.054 56.4433 148.527C54.078 156.121 51.6188 163.967 48.6152 171.132C45.6867 178.118 42.364 179.73 38.7221 176.004C34.7048 171.884 30.3872 161.029 27.2146 146.95C24.3049 134.054 23.0284 121.3 24.0421 115.21C25.1309 108.762 28.3785 107.4 32.5085 105.717C35.9626 104.284 39.8673 102.672 43.3589 97.5845C47.395 91.7094 50.0795 82.3234 51.5437 68.8893C53.3647 52.231 57.5697 43.1317 65.1913 39.3701C68.3826 37.7938 72.1183 37.2207 76.2671 37.2207C81.2981 37.2207 86.9861 38.0804 93.1059 38.9761C100.671 40.0866 109.231 41.3763 118.449 41.3763C118.449 41.3763 118.449 41.3763 118.468 41.3763C118.505 41.3763 122.748 41.9136 127.384 40.624C133.692 38.9044 137.709 34.8921 139.361 28.7303C141.145 22.0312 140 13.0035 135.945 1.79046H135.269C139.399 12.896 140.6 21.7446 138.892 28.1929Z" fill="#848484"/>
<path d="M140.109 41.8856C137.027 49.351 127.705 52.4464 113.178 50.8441C102.146 49.6423 91.9225 46.1099 91.8286 46.0735C91.7722 46.0371 85.5327 43.8885 78.504 46.5469C74.3506 48.0764 70.7423 50.9533 67.7541 55.1048C64.0142 60.2759 61.2515 67.4136 59.5601 76.2992C56.2901 93.5242 52.6253 105.287 48.3404 112.279C44.6193 118.36 40.9922 119.963 37.6093 121.091C32.6666 122.73 30.994 128.848 30.4678 133.692C29.4154 143.16 31.9525 155.942 35.8991 161.077C36.9704 162.461 38.0604 163.153 39.1128 163.153C40.0901 163.153 41.0485 162.57 41.9506 161.368C45.6529 156.488 49.4492 147.093 53.471 137.188C61.12 118.287 69.0321 98.7682 76.9817 108.564C78.1469 109.984 79.2745 111.405 80.3457 112.789C86.1717 120.181 90.7949 126.044 93.7079 123.276C95.4369 121.638 96.4142 117.304 96.7712 109.584C97.5042 93.6335 98.8573 81.616 103.086 74.8425C106.093 69.9991 110.378 68.2147 116.204 69.3072C132.516 72.4026 143.266 66.7945 148.171 52.7013C152.099 41.4122 151.423 26.7364 150.164 16.3941C149.449 10.531 148.472 5.35987 147.702 1.75464H147.1C147.871 5.32346 148.886 10.6038 149.619 16.649C150.84 26.7728 151.498 41.1209 147.702 52.0822C142.928 65.8112 132.347 71.2373 116.26 68.2147C110.284 67.0858 105.867 68.9795 102.729 74.005C98.3687 81.0333 96.9592 93.2693 96.2074 109.511C95.8692 116.722 94.9859 120.909 93.4636 122.33C90.8325 124.806 86.3409 119.125 80.6652 111.915C79.5752 110.531 78.4476 109.11 77.2824 107.69C73.5049 103.029 69.4267 104.194 64.8223 111.259C60.8005 117.377 56.8539 127.137 53.0388 136.569C49.0546 146.437 45.2771 155.724 41.6499 160.531C39.5263 163.335 37.5342 161.914 36.2186 160.203C32.4411 155.287 30.0168 143.014 31.0128 133.947C31.5202 129.431 33.0801 123.713 37.7033 122.184C41.1613 121.019 44.8636 119.38 48.6975 113.116C53.0576 105.979 56.7787 94.0704 60.0863 76.6634C61.7402 67.9598 64.4276 61.0043 68.0548 55.9788C70.9678 51.9366 74.5198 49.1325 78.5791 47.603C81.2102 46.6198 83.7286 46.292 85.8522 46.292C89.3102 46.292 91.6782 47.1296 91.7158 47.1296C91.8098 47.166 102.071 50.6984 113.14 51.9002C128.062 53.5389 137.29 50.4071 140.541 42.5411C143.755 34.7844 144.507 24.3693 142.703 12.3154C142.082 8.20036 141.274 4.55871 140.56 1.75464H139.921C140.654 4.52229 141.519 8.30961 142.158 12.6068C143.379 20.8005 144.018 32.4537 140.109 41.8856Z" fill="#848484"/>
<path fill-rule="evenodd" clip-rule="evenodd" d="M80.5397 56.1371C82.5528 54.2662 84.7916 53.8704 86.8611 55.0577C88.8742 56.2091 90.3981 58.6198 91.3764 62.2179C94.3114 73.0481 91.7151 92.0818 89.9089 102.444C89.4386 105.179 88.8554 106.618 88.084 106.942C87.9711 106.978 87.8582 107.014 87.7454 107.014C86.4921 107.014 85.0528 104.204 83.261 100.706L83.2301 100.645C81.518 97.299 79.5802 93.521 77.2473 90.8585C73.3528 86.3969 71.4338 81.3956 71.5467 75.9265C71.7536 66.3916 78.282 58.26 80.5397 56.1371ZM87.9704 105.899C88.516 105.647 88.9863 104.424 89.3814 102.121C93.5204 78.302 92.0906 67.22 90.8677 62.7584C89.9646 59.4482 88.5536 57.2174 86.691 56.1379C85.9573 55.7062 85.2047 55.4903 84.4334 55.4903C83.1917 55.4903 81.95 56.03 80.7835 57.1094C78.6011 59.1603 72.2985 66.9681 72.1104 75.9633C71.9975 81.0006 73.8412 85.714 77.5475 89.9238C79.9146 92.5972 81.9493 96.5771 83.5968 99.7996L83.6432 99.8904L83.6646 99.9321C85.424 103.369 86.9398 106.329 87.9704 105.899Z" fill="#848484"/>
<path fill-rule="evenodd" clip-rule="evenodd" d="M82.1221 74.2844C82.7018 73.65 83.3477 73.5008 83.944 73.9112C84.5403 74.3217 84.9875 75.1426 85.2691 76.4112C86.0973 79.9934 85.385 86.1502 84.8881 89.5084C84.8053 90.1428 84.6397 91.001 84.2753 91.1876C84.2256 91.2249 84.1925 91.2249 84.1428 91.2249C83.7327 91.2249 83.3388 90.3097 82.8163 89.0958L82.8012 89.0607C82.354 88.0159 81.8405 86.8218 81.2276 86.0009C80.1179 84.5084 79.5713 82.7919 79.6044 80.8889C79.6665 77.3226 81.8082 74.6736 82.0914 74.3234C82.1104 74.2999 82.121 74.2867 82.1221 74.2844ZM84.1754 90.0678C84.2251 90.0678 84.3245 89.7693 84.4238 89.1349C84.7882 86.5603 85.5998 80.2169 84.8545 76.896C84.6226 75.9258 84.2913 75.2915 83.8276 74.993C83.6454 74.881 83.4466 74.8064 83.2644 74.8064C82.9497 74.8064 82.6516 74.9556 82.3534 75.2915C81.9062 75.8139 80.1671 78.2393 80.1174 80.9632C80.0843 82.3811 80.548 83.7617 81.4921 85.0304C82.1547 85.9259 82.7178 87.2319 83.165 88.2767C83.1875 88.3274 83.2104 88.379 83.2335 88.4313C83.5856 89.2266 84.0044 90.1728 84.1754 90.0678Z" fill="#848484"/>
<path d="M264 84.4169C253.571 70.3665 241.01 58.6697 231.052 65.2313C223.848 69.9742 218.85 83.8107 216.229 106.348C215.022 116.762 212.004 123.323 207.271 125.855C198.407 130.634 184.224 119.65 174.323 100.286C166.383 84.8092 163.196 67.7989 165.572 53.6415C167.779 40.5182 168.401 26.2538 167.439 11.3118C167.232 8.13797 166.949 4.96413 166.61 1.75464H166.025C166.383 5.03545 166.666 8.24495 166.874 11.4544C167.836 26.2538 167.213 40.3755 165.044 53.3562C162.593 67.9059 165.836 85.2728 173.927 101.071C178.642 110.271 184.564 118.01 190.618 122.86C194.918 126.319 199.067 128.066 202.726 128.066C204.423 128.066 206.007 127.674 207.44 126.925C212.306 124.322 215.55 117.296 216.795 106.598C219.378 84.4526 224.225 70.9014 231.241 66.2655C241.086 59.7752 253.627 71.6859 264 85.7721V84.4169Z" fill="#848484"/>
<path d="M264 57.0072C256.334 44.4857 244.307 33.3993 234.536 37.1665C228.466 39.4986 223.843 47.2124 220.818 60.021C216.627 77.7449 211.31 90.1588 204.996 96.9756C198.231 104.259 192.217 103.039 188.365 100.743C183.705 97.9444 179.684 92.0603 177.034 84.1671C174.291 76.0227 173.276 66.4073 174.197 57.1148C176.094 37.8123 176.827 19.2274 176.358 1.75464H175.794C176.245 19.1197 175.531 37.6688 173.652 56.8996C172.712 66.4791 173.746 76.3456 176.564 84.7053C179.289 92.8138 183.423 98.8413 188.215 101.712C190.226 102.931 192.293 103.505 194.36 103.505C198.062 103.505 201.801 101.604 205.277 97.8726C211.704 90.9481 217.097 78.3548 221.344 60.4157C224.294 47.93 228.767 40.4673 234.648 38.1711C239.421 36.3413 245.153 37.9917 251.222 43.0147C255.77 46.7819 260.355 52.3072 264 58.4065V57.0072Z" fill="#848484"/>
<path d="M140.858 494.043C140.378 493.197 139.77 492.859 139.069 492.994C136.69 493.468 133.445 499.729 130.992 505.245H131.711C134.053 500.033 137.041 494.449 139.124 494.009C139.659 493.908 140.102 494.145 140.471 494.788C141.743 496.988 143.163 501.015 144.454 505.245H145.099C143.753 500.778 142.222 496.446 140.858 494.043Z" fill="#848484"/>
<path d="M264 36.3305C262.449 36.5858 260.728 36.5858 258.894 36.2576C252.445 35.0905 244.653 30.2761 237.504 22.9816C229.221 14.52 222.299 27.1395 214.299 41.7285C208.21 52.8525 201.307 65.4355 192.758 69.9946C189.751 71.5994 187.425 70.7605 185.818 67.5874C180.352 56.6822 184.002 20.9756 186.499 1.75464H185.912C185.156 7.6267 184.286 14.9577 183.605 22.6169C181.506 46.4334 182.111 61.8248 185.402 68.3898C186.593 70.7605 188.125 71.9276 189.978 71.9276C190.886 71.9276 191.851 71.6359 192.91 71.0888C201.571 66.4932 208.55 53.8008 214.678 42.5673C222.526 28.2701 229.297 15.906 237.221 24.0028C244.521 31.4797 252.199 36.2211 258.818 37.3882C260.672 37.7165 262.412 37.753 263.981 37.4976V36.3305H264Z" fill="#848484"/>
<path d="M194.442 49.0138C194.746 49.0856 195.031 49.1214 195.335 49.1214C200.387 49.1214 206.028 38.6512 209.048 32.1253C213.055 23.5197 216.949 12.3324 219.665 1.75464H219.038C216.36 12.0814 212.542 22.9818 208.63 31.4082C203.236 43.0258 198.222 48.9063 194.518 47.9381C192.98 47.5437 191.973 46.217 191.441 43.958C189.447 35.3524 194.841 15.3443 199.076 1.7905H198.412C197.576 4.51561 196.683 7.45586 195.829 10.5037C191.175 27.0337 189.523 38.4361 190.929 44.3883C191.517 47.0059 192.714 48.5836 194.442 49.0138Z" fill="#848484"/>
<path d="M201.234 26.278C201.351 26.3152 201.488 26.3152 201.625 26.3152C202.798 26.3152 204.655 24.9755 207.235 19.3564C209.151 15.2257 210.988 9.60657 212.064 4.69446C212.24 3.87578 212.435 2.87103 212.611 1.79185H212.005C211.868 2.57332 211.712 3.39201 211.536 4.24791C209.327 14.3698 204.283 25.9431 201.331 25.1244C200.784 24.9755 200.432 24.529 200.237 23.7103C199.24 19.3936 203.286 6.62954 205.026 1.75464H204.322C203.071 5.3643 198.516 18.947 199.709 24.1568C199.963 25.3477 200.471 26.0547 201.234 26.278Z" fill="#848484"/>
<path d="M263.982 22.0629C261.493 24.7756 258.603 25.7653 255.369 24.9222C251.753 24.0058 247.701 20.9265 243.303 15.7578C239.469 11.2489 236.035 5.89694 233.6 1.75464H232.764C235.253 6.04357 238.906 11.8721 243.031 16.7109C247.501 21.9529 251.626 25.1055 255.314 26.0219C256.078 26.2052 256.823 26.3152 257.568 26.3152C259.93 26.3152 262.074 25.3254 264 23.3093V22.0629H263.982Z" fill="#848484"/>
<path fill-rule="evenodd" clip-rule="evenodd" d="M142.48 324.182C146.088 320.1 152.342 319.991 161.07 323.89C167.1 326.604 172.282 330.376 173.025 330.917C173.051 330.935 173.071 330.95 173.085 330.961C178.697 332.965 179.396 334.751 179.358 336.063C179.32 337.849 177.809 340.29 166.398 343.571C159.313 345.611 150.868 347.288 144.709 348.491L143.179 348.782C142.064 349.001 141.063 349.11 140.156 349.11C136.699 349.11 134.677 347.507 134.148 344.372C133.185 338.723 137.624 329.685 142.48 324.182ZM166.284 342.514C177.487 339.271 178.734 336.902 178.753 336.027C178.772 335.59 178.375 333.986 172.915 332.018L172.859 331.982C172.856 331.98 172.839 331.968 172.809 331.945C172.245 331.531 167.016 327.681 160.919 324.948C157.612 323.454 153.664 322.142 150.074 322.142C147.259 322.142 144.652 322.98 142.744 325.13C140.345 327.863 138.097 331.399 136.566 334.861C134.96 338.542 134.28 341.785 134.658 344.045C135.244 347.398 138.153 348.674 143.084 347.69L144.633 347.434C145.088 347.343 145.556 347.249 146.035 347.153C152.03 345.951 159.74 344.404 166.284 342.514Z" fill="#848484"/>
<path fill-rule="evenodd" clip-rule="evenodd" d="M147.123 95.2121C146.966 92.4734 149.1 89.2555 153.447 85.5925C156.306 83.1961 159.694 83.9492 162.082 87.5438C163.962 90.3852 165.999 94.4248 164.98 97.7797C164.197 100.381 161.71 101.751 158.401 101.751C156.189 101.751 153.604 101.135 150.902 99.8679C148.454 98.7382 147.221 97.1977 147.123 95.2121ZM151.038 98.8756C157.285 101.82 163.296 101.101 164.451 97.3008C165.117 95.1441 164.157 92.0288 161.69 88.3316C160.32 86.3118 158.616 85.2505 156.893 85.2505C155.797 85.2505 154.7 85.6613 153.682 86.5172C149.707 89.8721 147.573 92.9189 147.69 95.1098C147.768 96.5819 148.924 97.8828 151.038 98.8756Z" fill="#848484"/>
<path d="M206.862 494.129C196.981 491.763 191.178 475.914 183.857 455.834C181.808 450.24 179.684 444.431 177.294 438.407C171.301 423.311 164.587 414.239 157.361 411.442C149.149 408.287 140.121 413.163 130.543 425.929C120.017 439.949 104.788 462.503 91.7201 483.444C88.0597 489.324 83.2803 497.141 78.5957 505.245H79.4302C83.1475 498.862 87.3769 491.834 92.0805 484.269C105.129 463.364 120.34 440.809 130.847 426.825C148.694 403.052 164.17 407.175 176.82 439.088C179.191 445.076 181.315 450.885 183.364 456.479C190.779 476.774 196.64 492.767 206.768 495.205C213.956 496.926 218.071 500.297 219.058 505.245H219.664C218.735 499.687 214.43 495.958 206.862 494.129Z" fill="#848484"/>
<path d="M153.298 452.843C149.734 449.888 146.076 450.244 142.418 453.875C133.348 462.846 125.126 473.455 117.98 485.452C113.586 492.822 110.268 499.585 107.816 505.246H108.571C114.152 492.537 124.938 472.352 142.663 454.801C146.17 451.348 149.659 450.992 153.053 453.804C159.898 459.464 165.253 476.908 168.534 490.579C169.797 495.776 170.853 500.867 171.702 505.246H172.305C171.438 500.76 170.363 495.527 169.062 490.152C164.234 470.038 158.917 457.471 153.298 452.843Z" fill="#848484"/>
<path opacity="0.459984" d="M229.816 283.843C230.361 284.093 230.867 284.201 231.354 284.201C233.963 284.201 235.793 280.805 236.474 277.16C237.292 272.692 236.649 266.688 233.301 264.115C227.888 259.933 224.092 258.682 221.989 260.362C221.035 261.113 220.588 262.9 220.685 265.402C220.821 268.582 221.853 272.55 223.449 276.052C225.241 279.983 227.499 282.735 229.816 283.843Z" fill="#848484" stroke="#575757" stroke-width="5"/>
<path fill-rule="evenodd" clip-rule="evenodd" d="M63.8718 378.679C63.171 376.074 63.2912 372.31 65.2532 370.211C68.2163 367.062 72.2205 368.51 73.8021 370.971C74.4828 372.02 74.7231 373.251 74.4628 374.409C73.9423 376.87 71.9402 379.403 68.5366 381.9C68.0361 382.262 67.5356 382.443 67.0751 382.443C65.5936 382.443 64.4324 380.706 63.8718 378.679ZM68.3155 380.888C71.5188 378.535 73.4609 376.147 73.9214 374.011C74.1216 373.107 73.7612 372.31 73.4008 371.804C72.5599 370.501 70.8982 369.524 69.1364 369.524C67.9151 369.524 66.6538 369.994 65.5526 371.152C63.9109 372.889 63.7908 375.929 64.4114 378.173C65.0321 380.417 66.5136 382.227 68.3155 380.888Z" fill="#848484"/>
<path fill-rule="evenodd" clip-rule="evenodd" d="M95.648 468.737C94.9069 472.224 86.8684 479.83 84.2079 481.837C83.6378 482.295 83.1057 482.471 82.5736 482.436C80.9393 482.436 79.6661 480.499 79.0389 478.175C78.2408 475.217 78.3928 470.956 80.5592 468.597C84.3599 464.441 93.5006 463.772 95.3249 466.66C95.705 467.223 95.819 467.963 95.648 468.737ZM80.8437 469.512C78.9813 471.554 78.8483 475.111 79.5514 477.716C80.2546 480.322 81.9459 482.435 83.9793 480.851C87.3429 478.28 94.5072 471.096 95.0963 468.35C95.1533 468.103 95.1723 467.821 94.9443 467.469C93.31 464.899 84.3213 465.708 80.8437 469.512Z" fill="#848484"/>
<path d="M16.013 25.1246C19.1959 21.3487 18.1349 9.34051 17.0936 1.75464H16.4845C16.7596 3.65961 17.015 5.87074 17.2311 8.18392C17.742 14.0689 17.8992 21.6548 15.679 24.3082C13.0855 27.3697 7.81983 23.3557 0 12.3681V13.6947C6.03188 22.097 10.6098 26.3152 13.6749 26.3152C14.5787 26.2812 15.3646 25.907 16.013 25.1246Z" fill="#848484"/>
<path fill-rule="evenodd" clip-rule="evenodd" d="M127.552 264.903C124.806 264.903 121.873 264.392 119.78 262.926C116.791 260.847 116.641 257.746 117.052 255.497C117.482 253.077 118.36 251.305 119.687 250.249C122.059 248.374 125.796 248.817 130.784 251.612C134.465 253.691 137.51 256.315 137.547 256.349C139.117 257.78 139.173 259.144 138.967 260.03C138.351 262.586 134.465 264.085 131.046 264.63C129.981 264.801 128.785 264.903 127.552 264.903ZM119.911 251.169C118.734 252.089 117.95 253.657 117.576 255.804C117.109 258.462 117.912 260.541 120.005 261.972C122.471 263.676 126.693 264.29 131.009 263.608C134.988 262.961 138.052 261.325 138.463 259.621C138.669 258.735 137.94 257.849 137.305 257.27C137.118 257.099 129.01 250.147 123.181 250.147C121.966 250.147 120.845 250.42 119.911 251.169Z" fill="#848484"/>
<path d="M230.172 471.195C220.203 467.776 219.014 454.989 217.504 438.783C215.805 420.689 213.709 398.178 198.455 380.227C190.809 371.251 183.484 365.623 176.046 363.023C169.4 360.708 162.793 360.851 155.883 363.486C143.045 368.402 130.925 381.509 119.182 394.153C108.195 406.014 96.8299 418.303 84.5963 424.358C78.0265 427.634 71.7587 428.845 65.4343 428.133C58.3358 427.314 51.3506 424.073 44.1011 418.196C31.4334 407.938 18.8411 404.376 6.68313 407.581C4.43654 408.187 2.20883 409.006 0 410.075V411.179C2.24659 410.11 4.49318 409.256 6.77752 408.65C18.8411 405.444 31.3201 409.006 43.8934 419.157C52.8232 426.388 61.0921 429.38 68.8891 429.38C87.7114 429.38 103.777 412.034 119.466 395.115C131.699 381.901 143.234 369.435 155.996 364.555C162.83 361.919 169.363 361.777 175.932 364.092C183.314 366.656 190.582 372.248 198.153 381.153C204.855 389.025 213.199 398.819 216.956 438.961C217.73 447.331 218.41 454.562 220.203 460.367C222.186 466.814 225.339 470.59 230.077 472.228C244.104 477.072 252.449 484.73 256.319 496.342C257.244 499.084 257.923 502.076 258.377 505.246H258.962C258.49 501.862 257.791 498.728 256.791 495.772C252.826 483.911 244.368 476.075 230.172 471.195Z" fill="#848484"/>
<path d="M219.216 483.008C207.341 479.68 206.227 472.987 203.811 458.398C201.697 445.686 198.506 426.423 186.028 398.484C169.245 360.879 151.442 384.391 130.827 411.621C109.929 439.241 86.2364 470.509 57.3148 447.988C46.2332 439.348 35.0572 435.098 24.0699 435.275C15.8956 435.417 7.79677 438.037 0 443.066V444.199C7.79677 439.135 15.8767 436.515 24.0699 436.373C34.9816 436.161 46.0821 440.445 57.0882 449.015C70.1143 459.177 83.2725 459.354 97.2803 449.617C109.532 441.083 120.52 426.564 131.148 412.542C141.342 399.086 150.97 386.374 159.975 381.841C169.924 376.813 178.061 382.337 185.593 399.228C197.996 427.025 201.168 446.146 203.264 458.788C205.68 473.377 206.907 480.707 219.14 484.142C226.295 486.16 230.769 491.117 232.449 498.872C232.865 500.82 233.11 502.944 233.205 505.246H233.771C233.695 502.803 233.431 500.536 232.978 498.483C231.204 490.267 226.578 485.098 219.216 483.008Z" fill="#848484"/>
<path d="M159.65 434.589C154.412 427.994 147.385 428.208 138.775 435.338C131.936 440.97 124.08 450.952 115.413 464.927C106.558 479.258 98.6456 494.943 93.7095 505.246H94.4631C99.3992 494.943 107.124 479.685 115.771 465.711C124.4 451.772 132.2 441.861 138.982 436.264C147.404 429.313 154.243 429.028 159.311 435.445C171.086 450.31 177.341 475.408 182.861 497.546C183.52 500.148 184.142 502.715 184.782 505.21H185.404C184.726 502.572 184.048 499.863 183.369 497.082C177.849 474.837 171.557 449.597 159.65 434.589Z" fill="#848484"/>
<path d="M145.636 472.553C143.222 469.291 140.102 469.362 136.37 472.766C133.436 475.461 130.112 480.212 126.491 486.914C123.037 493.332 119.936 500.317 117.893 505.245H118.617C124.411 491.452 137.688 463.122 145.301 473.404C150.222 480.07 153.101 493.296 155.589 505.245H156.183C153.658 493.083 150.742 479.468 145.636 472.553Z" fill="#848484"/>
<path d="M52.1939 472.107C47.3636 469.802 42.3641 467.428 37.8721 464.599C26.7266 457.511 13.8144 463.482 4.9431 469.733C3.19516 470.955 1.5412 472.247 0 473.539V474.691C1.59758 473.364 3.32673 472.002 5.14985 470.71C13.9272 464.53 26.7078 458.628 37.6841 465.612C42.1762 468.476 47.1944 470.85 52.0436 473.155C62.9447 478.323 73.2444 483.211 73.9586 492.081C74.2593 495.817 72.8685 500.182 69.7485 505.246H70.5755C73.5263 500.182 74.8232 495.782 74.5225 491.906C73.7331 482.338 63.7529 477.589 52.1939 472.107Z" fill="#848484"/>
<path d="M45.6639 486.818C41.8935 485.589 37.3042 485.662 33.0768 487.035C25.2503 489.564 9.94017 497.658 0 503.114V504.234C9.94017 498.778 25.3455 490.648 33.191 488.083C37.3613 486.746 41.8744 486.637 45.5877 487.866C50.9577 489.636 52.8429 493.358 53.4903 496.212C54.0806 498.778 53.9283 501.813 53.0523 505.245H53.6998C54.5377 501.704 54.6329 498.525 54.0045 495.779C52.7286 490.214 48.7678 487.83 45.6639 486.818Z" fill="#848484"/>
<path d="M23.1269 287.816C31.6324 298.695 37.1836 314.297 42.0574 328.074C47.5898 343.676 52.3883 357.167 59.8777 359.35C60.5739 359.565 61.289 359.636 62.0041 359.636C67.7811 359.636 74.6495 353.302 83.3621 339.955C89.8918 329.935 95.3301 320.846 100.129 312.794C110.252 295.796 117.573 283.522 125.664 279.55C133.925 275.47 142.995 279.765 156.958 294.329C168.361 306.245 181.966 314.44 194.254 316.802C199.975 317.911 205.169 317.697 209.29 316.122C213.636 314.476 216.685 311.506 218.322 307.247C220.561 301.414 221.107 290.572 210.927 271.999C198.752 249.777 184.902 247.093 170.243 244.266C160.533 242.405 150.485 240.437 140.342 232.672C128.863 223.904 118.909 208.66 109.895 186.151C103.233 169.511 95.4618 161.639 87.389 163.392C81.8943 164.573 76.4936 170.084 71.3376 179.71C66.1628 189.443 61.496 202.863 57.5067 219.61C54.5335 232.028 51.2592 238.397 47.4392 239.041C39.1783 240.437 29.6189 214.028 20.3983 188.477C15.788 175.702 11.0271 162.533 6.49208 153.086C4.13988 148.112 1.99467 144.498 0 142.1V143.424C6.34154 151.368 13.2288 170.406 19.9467 189.014C24.5758 201.825 29.3743 215.101 33.9846 224.763C38.9148 235.069 43.13 240.115 46.8371 240.115C47.0629 240.115 47.2887 240.079 47.5145 240.043C51.5415 239.363 54.9851 232.815 58.0336 220.004C62.0041 203.364 66.6144 190.052 71.7516 180.426C76.8135 170.943 82.1013 165.539 87.4643 164.394C95.3113 162.712 102.932 170.442 109.462 186.76C118.532 209.447 128.581 224.763 140.135 233.602C150.353 241.439 160.439 243.371 170.187 245.268C184.751 248.095 198.507 250.743 210.55 272.715C220.448 290.786 219.997 301.092 217.889 306.567C214.803 314.547 205.997 317.947 194.33 315.693C182.117 313.331 168.587 305.172 157.24 293.327C143.146 278.619 133.963 274.325 125.532 278.476C117.309 282.52 109.951 294.866 99.771 311.971C94.9725 320.023 89.5531 329.112 83.0234 339.096C73.3511 353.911 66.031 359.994 59.9718 358.241C52.727 356.165 48.0038 342.853 42.5278 327.43C37.6164 313.581 32.0464 297.907 23.4468 286.886C16.3149 277.761 9.52172 273.18 3.18018 273.18C2.10757 273.18 1.05379 273.323 0 273.574V274.647C7.13188 272.894 14.8847 277.26 23.1269 287.816Z" fill="#848484"/>
<path d="M10.6057 394.257C19.3587 394.509 29.1516 397.86 37.7912 400.779C50.174 404.995 59.9289 408.31 61.1389 400.671C62.9537 389.212 57.0554 379.735 47.2626 364.06C40.2488 352.818 31.4958 338.836 22.1378 318.729C15.1051 303.667 8.09135 296.82 1.32335 298.478C0.907441 298.586 0.472626 298.73 0 298.91V300.027C0.453721 299.847 0.926346 299.667 1.39897 299.559C7.97792 297.973 14.8026 304.676 21.7219 319.486C31.1177 339.665 39.8707 353.682 46.9034 364.961C56.5071 380.348 62.311 389.644 60.6095 400.419C59.5508 407.121 49.5123 403.698 37.9046 399.77C25.3706 395.482 10.6435 390.473 0 394.833V395.95C3.0248 394.689 6.54114 394.149 10.6057 394.257Z" fill="#848484"/>
<path d="M35.9448 389.46C40.9133 389.46 43.7032 387.745 44.2383 384.28C45.4231 376.728 35.5435 363.12 29.524 355.678C21.0204 345.135 10.8924 335.212 5.44618 332.038C3.63079 330.98 1.79629 330.251 0 329.813V330.907C1.73896 331.345 3.51613 332.075 5.2742 333.096C10.6822 336.234 20.7528 346.084 29.1992 356.59C39.0405 368.812 44.4485 379.026 43.665 383.951C42.9006 388.767 36.0977 389.642 24.4983 386.432C15.1156 383.878 5.31242 379.391 0.0191094 376.546V377.677C5.36975 380.559 15.1155 384.973 24.4409 387.563C29.0845 388.84 32.9255 389.46 35.9448 389.46Z" fill="#848484"/>
<path d="M11.265 368.408C13.5446 368.408 14.8174 367.567 15.0643 365.883C15.5962 362.515 11.7969 356.915 8.51049 352.816C5.67999 349.265 2.45057 345.898 0 343.848V345.056C2.39358 347.106 5.49003 350.363 8.20654 353.767C12.4238 359.038 14.8364 363.577 14.5134 365.59C14.0005 368.848 6.38287 367.018 0 364.272V365.37C1.91866 366.176 4.06528 366.981 6.15491 367.567C8.24454 368.116 9.93524 368.408 11.265 368.408Z" fill="#848484"/>
<path fill-rule="evenodd" clip-rule="evenodd" d="M64.1386 340.339C63.5944 340.339 63.0689 340.231 62.5622 339.98C57.9644 337.829 54.305 331.591 51.9779 322.017C49.6321 312.265 48.8439 299.68 49.726 285.589C50.5329 272.897 52.8787 260.312 56.5569 249.197C69.6372 209.578 80.5029 187.85 88.854 184.623C91.5376 183.583 93.996 184.479 96.1166 187.312C104.07 197.867 109.257 208.142 113.833 217.204L114.001 217.537L114.042 217.618C121.116 231.635 126.711 242.72 138.96 249.125C146.711 253.177 150.37 256.906 150.126 260.563C149.939 263.395 147.311 265.654 142.301 267.303C137.44 268.881 130.422 269.849 122.014 270.064C115.671 270.243 109.084 274.94 101.859 284.514C95.5536 292.904 89.5859 303.839 84.3125 313.52C76.5244 327.826 69.7122 340.339 64.1386 340.339ZM57.0446 249.77C53.4227 260.742 51.0956 273.183 50.3075 285.732C49.4442 299.608 50.2136 312.013 52.5219 321.587C54.7551 330.873 58.2832 336.896 62.7121 338.976C63.1812 339.191 63.6692 339.299 64.1571 339.299C69.4866 339.299 76.2235 326.93 83.9174 312.804L83.9182 312.802C89.1915 303.086 95.178 292.114 101.54 283.688C108.859 274.008 115.558 269.203 122.014 269.024C130.403 268.809 137.384 267.841 142.207 266.263C148.418 264.219 149.488 261.745 149.582 260.455C149.845 256.367 142.15 251.885 138.829 250.164C126.405 243.639 120.757 232.452 113.625 218.29L113.548 218.137C108.969 209.067 103.785 198.797 95.8161 188.208C94.3523 186.272 92.7384 185.304 90.9743 185.304C90.3363 185.304 89.6607 185.447 88.9851 185.698C80.8029 188.853 70.0498 210.402 57.0446 249.77Z" fill="#848484"/>
<path fill-rule="evenodd" clip-rule="evenodd" d="M197.629 301.502C188.829 299.078 178.789 295.05 172.86 292.305C162.952 287.743 158.711 283.715 158.242 278.368C157.811 273.556 160.55 267.746 166.836 260.082C170.27 255.911 174.736 255.02 180.159 257.515C184.456 259.476 189.354 263.539 194.721 269.599C203.653 279.687 210.952 292.02 211.309 292.626C213.936 296.155 214.986 298.793 214.517 300.753C214.067 302.571 212.266 303.498 209.038 303.498C206.28 303.498 202.489 302.821 197.629 301.502ZM174.511 257.195C171.659 257.195 169.201 258.479 167.137 260.974C161.151 268.281 158.43 273.913 158.786 278.119C159.312 284.143 166.255 288.135 172.972 291.237C189.26 298.758 212.585 306.101 213.973 300.291C214.161 299.506 214.029 297.581 210.952 293.447L210.933 293.411C210.929 293.405 210.901 293.357 210.849 293.272C210.005 291.865 202.963 280.133 194.42 270.491C189.11 264.503 184.269 260.475 180.028 258.55C178.058 257.659 176.219 257.195 174.511 257.195Z" fill="#848484"/>
<path fill-rule="evenodd" clip-rule="evenodd" d="M190.018 286.936C186.775 285.978 183.057 284.396 180.871 283.328C177.718 281.782 175.586 280.199 175.349 277.548C175.167 275.487 176.169 273.168 178.593 270.038C180.925 266.983 184.46 268.235 189.053 273.757C192.314 277.659 194.993 282.444 195.194 282.813C195.922 283.843 196.706 285.205 196.433 286.42C196.287 287.083 195.868 287.709 194.264 287.709C193.317 287.709 191.968 287.488 190.018 286.936ZM181.526 269.561C180.56 269.561 179.667 270.003 178.902 270.997C176.788 273.721 175.768 275.893 175.877 277.365C176.059 279.537 178.556 281.047 180.979 282.225C189.125 286.237 195.576 287.489 195.922 285.98C195.922 285.98 196.031 285.427 194.865 283.734L194.847 283.697C194.844 283.692 194.831 283.669 194.808 283.629C194.204 282.564 186.832 269.561 181.526 269.561Z" fill="#848484"/>
<path d="M234.285 90.827C229.706 94.0335 226.993 102.392 223.205 113.993C221.378 119.613 219.286 125.99 216.667 132.764C208.15 154.633 199.577 146.598 185.369 133.304C178.039 126.423 168.901 117.884 157.614 111.687C141.202 102.68 130.254 103.149 124.149 113.128C118.553 122.279 116.782 139.177 118.553 166.306C120.098 189.832 129.331 207.954 145.988 220.204C161.684 231.732 180.263 235.011 189.929 235.984C206.737 237.605 221.491 242.577 233.814 250.683C243.65 257.168 251.959 265.671 258.498 275.975C260.646 279.361 262.474 282.712 264 285.955V284.369C262.549 281.415 260.872 278.317 258.912 275.218C252.317 264.806 243.951 256.232 234.04 249.71C221.66 241.568 206.831 236.596 189.967 234.939C180.319 234.002 161.816 230.724 146.195 219.231C129.746 207.161 120.626 189.328 119.118 166.234C117.366 139.501 119.081 122.928 124.526 114.029C130.48 104.302 141.258 103.869 157.463 112.804C168.712 119.001 177.813 127.504 185.124 134.349C192.341 141.122 198.05 146.454 203.138 147.391C208.659 148.4 212.974 144.112 217.119 133.484C219.757 126.711 221.849 120.298 223.695 114.642C227.407 103.221 230.102 94.9703 234.492 91.9079C239.128 88.6654 245.402 91.4035 255.502 101.059C258.573 104.013 261.4 107.256 264 110.678V109.309C261.475 105.995 258.724 102.896 255.747 100.05C245.478 90.2506 239.071 87.4764 234.285 90.827Z" fill="#848484"/>
<path d="M245.434 124.57C240.797 124.824 236.876 129.058 233.785 137.165C230.976 144.512 228.997 151.208 227.225 157.071C221.532 176.072 218.931 184.758 201.495 171.62C196.406 167.784 190.412 162.21 184.06 156.311C166.567 140.024 146.738 121.566 136.238 130.542C133.072 133.22 130.904 138.359 129.792 145.743C128.284 155.732 128.868 164.78 131.564 172.633C135.484 184.034 143.74 193.082 156.784 200.32C166.925 205.966 179.988 210.49 197.857 214.616C215.406 218.67 233.577 229.455 248.996 244.945C254.745 250.736 259.854 256.961 264 263.15V261.702C259.91 255.694 254.934 249.686 249.241 243.968C233.766 228.405 215.519 217.584 197.895 213.53C180.045 209.404 167.02 204.88 156.916 199.234C144.004 192.068 135.861 183.129 132.016 171.982C129.415 164.418 128.849 155.695 130.301 145.996C131.394 138.83 133.392 134.089 136.427 131.519C146.7 122.761 166.398 141.11 183.777 157.288C190.129 163.223 196.142 168.797 201.25 172.633C209.865 179.112 215.161 180.559 218.969 177.411C222.645 174.371 224.756 167.349 227.659 157.614C229.412 151.751 231.391 145.127 234.18 137.817C237.159 129.999 240.929 125.909 245.396 125.656C251.692 125.33 258.534 132.714 263.982 140.567V139.192C255.424 126.887 249.241 124.353 245.434 124.57Z" fill="#848484"/>
<path d="M244.431 151.108C241.094 152.177 238.629 157.096 237.093 165.721C232.504 191.42 221.772 189.674 214.661 188.533C210.792 187.891 207.986 187.464 207.645 191.634C207.209 196.909 208.745 200.973 212.537 204.359C215.912 207.388 220.767 209.741 226.379 212.414C238.136 218.046 253.192 225.281 263.981 243.851V242.39C253.135 224.141 238.193 216.976 226.512 211.38C215.362 206.034 207.322 202.184 208.195 191.777C208.441 188.747 210.679 188.961 214.604 189.602C218.245 190.173 222.758 190.921 227.024 188.212C232.068 185.004 235.538 177.769 237.624 166.078C239.084 157.88 241.416 153.175 244.526 152.177C250.385 150.252 258.103 161.337 264 171.959V170.462C263.697 169.892 263.374 169.357 263.052 168.787C255.391 155.527 249.134 149.575 244.431 151.108Z" fill="#848484"/>
<path d="M252.237 178.496C249.292 176.403 246.805 176.814 244.893 179.767C243.324 182.159 242.655 185.56 242.884 189.857C243.707 204.731 255.317 226.631 264.001 236.834V235.489C260.156 230.892 255.872 224.165 252.199 216.877C246.958 206.451 243.841 196.809 243.439 189.67C243.229 185.821 243.822 182.757 245.237 180.589C250.382 172.704 258.855 186.531 264.001 196.771V195.164C262.815 192.81 261.457 190.343 260.022 187.989C257.172 183.355 254.552 180.141 252.237 178.496Z" fill="#848484"/>
<path fill-rule="evenodd" clip-rule="evenodd" d="M198.832 190.991C198.897 191.078 198.933 191.127 198.939 191.135C201.179 194.294 201.97 196.885 201.292 198.837C200.539 200.931 198.111 201.748 194.912 201.748C190.526 201.748 184.654 200.221 179.497 198.269C166.944 193.548 154.974 185.526 147.483 176.83C139.051 167.033 136.19 156.419 139.22 146.126C140.03 143.357 141.385 141.582 143.229 140.801C149.177 138.316 160.375 146.019 176.486 163.767C187.808 176.189 197.698 189.469 198.832 190.991ZM193.839 200.611C199.052 200.86 200.445 199.191 200.803 198.197C201.424 196.494 199.956 193.867 198.601 191.986C198.111 191.311 161.222 141.404 145.62 141.404C144.791 141.404 144.039 141.546 143.342 141.83C141.667 142.54 140.444 144.137 139.71 146.622C138.204 151.733 138.223 156.916 139.785 162.063C141.197 166.748 143.888 171.398 147.765 175.906C155.199 184.532 167.094 192.518 179.591 197.204C184.955 199.227 190.018 200.434 193.839 200.611Z" fill="#848484"/>
<path fill-rule="evenodd" clip-rule="evenodd" d="M180.308 180.321C180.444 180.475 180.519 180.56 180.527 180.568C180.808 180.945 181.689 182.146 181.258 183.278C181.014 183.964 180.265 184.204 179.254 184.204C176.482 184.204 171.78 182.214 170.582 181.7C164.345 178.956 158.557 175.011 155.111 171.135C151.645 167.224 150.447 163.417 151.533 159.815C151.795 158.957 152.245 158.374 152.844 158.1C155.279 156.968 160.692 160.398 168.915 168.322C174.323 173.533 179.229 179.097 180.308 180.321ZM170.713 180.671C177.081 183.45 180.49 183.518 180.808 182.661C180.846 182.626 180.789 182.215 180.19 181.392C179.666 180.774 160.523 158.889 153.912 158.889C153.556 158.889 153.256 158.958 152.975 159.095C152.507 159.301 152.207 159.712 152.02 160.296C151.102 163.314 152.226 166.642 155.391 170.209C158.781 174.051 164.513 177.961 170.713 180.671Z" fill="#848484"/>
<path fill-rule="evenodd" clip-rule="evenodd" d="M68.0237 313.643C66.1498 315.163 64.6131 315.778 63.3576 315.778C60.809 315.778 59.4223 313.244 58.6353 310.565C53.6318 293.442 64.9317 238.306 80.2981 216.802C84.8892 210.394 89.0119 207.788 92.5349 209.091C95.4396 210.177 97.9319 213.833 99.9558 219.988C101.942 225.997 102.898 232.948 102.767 240.116C102.636 247.248 101.417 254.09 99.2624 259.882L98.6815 261.439L98.6476 261.53C91.4997 280.725 84.1142 300.558 68.0237 313.643ZM80.6353 217.743C73.683 227.481 66.8431 245.474 62.3456 265.856C58.1292 284.934 56.8737 302.311 59.1224 310.058C60.6403 315.235 63.5449 316.104 67.7988 312.629C83.7648 299.632 91.1107 279.902 98.2129 260.787L98.7939 259.231C100.893 253.619 102.073 246.994 102.204 240.08C102.336 233.129 101.399 226.395 99.4872 220.603C97.5571 214.738 95.1771 211.227 92.4412 210.213C91.879 209.996 91.2981 209.887 90.7171 209.887C87.7376 209.887 84.3645 212.53 80.6353 217.743Z" fill="#848484"/>
<path fill-rule="evenodd" clip-rule="evenodd" d="M73.8847 289.854C72.6935 290.812 71.7136 291.218 70.9259 291.218C69.408 291.218 68.5819 289.78 68.14 288.269C66.8143 283.772 67.6212 274.263 70.2342 263.463C72.9624 252.258 77.0548 242.085 81.2049 236.335C83.9523 232.539 86.4116 230.991 88.5443 231.765C90.2927 232.391 91.8105 234.566 93.0209 238.252C95.4226 245.55 95.2689 254.838 92.5982 261.952C88.3521 273.268 83.7218 281.893 73.8847 289.854ZM81.5505 237.257C77.4965 242.896 73.4617 252.885 70.7719 263.943C68.255 274.226 67.4288 283.588 68.6585 287.754C69.4654 290.518 71.1562 290.887 73.6731 288.859C83.3949 281.008 87.9484 272.494 92.1369 261.326C94.673 254.581 94.8267 245.771 92.5404 238.879C91.4068 235.488 90.0427 233.461 88.448 232.871C88.1213 232.76 87.7947 232.686 87.4489 232.686C85.7005 232.686 83.7408 234.235 81.5505 237.257Z" fill="#848484"/>
<path d="M255.645 291.093C250.825 285.637 246.024 284.481 242.149 287.841C236.384 292.791 233.738 306.664 236.006 320.104C236.592 323.573 236.233 326.355 234.948 328.522C230.884 335.315 217.747 335.893 198.883 330.076C182.589 325.054 165.029 315.986 156.164 307.965C148.811 301.317 142.876 300.233 138.51 304.677C134.635 308.615 132.083 317.069 131.119 329.064C129.682 347.02 109.93 364.145 94.052 377.874C82.7864 387.629 73.8836 395.325 72.6928 401.647C72.4848 402.731 72.5037 403.743 72.7495 404.682C73.808 408.873 76.3975 409.595 81.1798 407.03C85.5839 404.646 91.8216 399.552 99.7037 393.085C111.933 383.041 128.699 369.276 150.21 356.161C167.846 345.431 183.175 346.659 195.764 359.81C202.587 366.963 208.485 377.513 213.286 391.17C217.388 402.875 220.658 416.857 222.718 431.634C224.23 442.473 227.538 451.505 232.566 458.478C236.63 464.114 241.847 468.449 248.047 471.376C252.886 473.652 258.386 475.025 264 475.422V474.338C258.424 473.941 252.98 472.568 248.179 470.292C242.055 467.438 236.914 463.138 232.906 457.575C227.992 450.746 224.76 441.931 223.266 431.309C221.187 416.388 217.898 402.297 213.759 390.519C208.901 376.682 202.947 366.024 196.028 358.798C183.307 345.467 167.827 344.238 150.04 355.041C128.492 368.156 111.725 381.921 99.4769 392.001C83.8449 404.826 75.2256 411.908 73.2598 404.14C73.0897 403.454 73.0708 402.731 73.222 401.936C74.3372 396.047 83.5803 388.027 94.2978 378.778C102.274 371.877 111.328 364.037 118.455 355.727C126.696 346.117 131.024 337.41 131.686 329.137C132.612 317.503 135.069 309.338 138.774 305.544C142.989 301.245 148.755 302.365 155.937 308.868C169.131 320.791 201.34 335.026 220.904 335.026C227.652 335.026 232.906 333.327 235.345 329.245C236.819 326.788 237.235 323.573 236.573 319.671C234.4 306.773 236.914 293.441 242.414 288.708C249.483 282.639 257.309 291.815 263.981 306.195V304.352C261.222 298.752 258.443 294.272 255.645 291.093Z" fill="#848484"/>
<path d="M253.442 309.405C251.484 308.255 249.64 308.651 247.965 310.555C243.053 316.195 244.126 326.541 245.067 335.702C245.725 342.061 246.347 348.061 244.822 351.402C243.768 353.701 241.717 354.671 238.574 354.312C231.403 353.522 224.515 350.612 218.982 348.276C211.623 345.187 206.297 342.923 204.358 347.055C203.775 348.312 203.493 349.713 203.549 351.258C203.7 356.144 207.087 361.856 211.397 369.077C217.589 379.496 225.305 392.501 227.959 409.961C230.556 426.989 234.057 443.838 242.15 451.634C245.255 454.616 248.887 456.125 253.084 456.125C256.359 456.125 259.991 455.227 263.981 453.394V452.281C254.947 456.448 247.833 455.909 242.394 450.664C234.509 443.048 231.046 426.45 228.486 409.637C225.776 391.89 218.003 378.777 211.755 368.251C207.558 361.174 204.245 355.605 204.095 351.15C204.057 349.893 204.283 348.779 204.772 347.738C206.485 344.073 211.943 346.372 218.869 349.282C224.421 351.617 231.347 354.527 238.555 355.318C241.886 355.677 244.069 354.599 245.255 352.013C246.949 348.276 246.309 342.025 245.631 335.415C244.672 326.182 243.693 316.662 248.266 311.417C249.791 309.656 251.484 309.333 253.291 310.339C256.472 312.171 260.142 318.458 264 328.553V326.685C260.876 318.817 257.149 311.525 253.442 309.405Z" fill="#848484"/>
<path d="M257.198 344.39C254.485 346.091 252.59 351.773 252.497 358.576C252.441 362.846 251.995 365.488 251.085 367.116C249.115 370.626 244.599 370.083 236.386 369.106L235.419 368.998C232.242 368.636 230.514 369.432 229.937 371.495C229.064 374.715 231.201 380.18 234.174 387.779C236.832 394.546 240.139 402.942 241.998 411.916C243.429 418.792 245.863 423.532 249.208 426.029C251.178 427.477 253.333 428.056 255.489 428.056C258.536 428.056 261.565 426.934 264 425.667V424.509C259.54 426.861 253.946 428.345 249.412 425.016C246.216 422.664 243.893 418.104 242.518 411.518C240.623 402.399 237.296 393.931 234.62 387.128C231.982 380.433 229.715 374.643 230.421 372.038C230.867 370.409 232.483 369.794 235.364 370.12L236.33 370.228C244.952 371.241 249.301 371.748 251.438 367.948C252.478 366.103 252.98 363.208 253.036 358.612C253.129 352.279 254.857 346.996 257.347 345.44C259.335 344.209 261.621 345.331 264 348.552V347.177C260.952 343.232 258.592 343.522 257.198 344.39Z" fill="#848484"/>
<path d="M252.722 382.76C251.006 386.526 250.477 391.287 251.243 396.189C252.083 401.518 255.185 404.538 260.459 405.142C261.153 405.213 261.846 405.249 262.503 405.249C263.014 405.249 263.525 405.213 264 405.178V404.112C259.602 404.431 252.959 403.579 251.754 395.834C251.043 391.287 251.535 386.881 253.105 383.435C255.295 378.639 259.218 376.188 263.981 376.507V375.442C259.091 375.193 255.021 377.751 252.722 382.76Z" fill="#848484"/>
<path d="M20.9175 271.419C28.1055 277.041 34.9702 282.446 39.6101 282.446C40.8651 282.446 41.949 282.047 42.8428 281.177C44.0978 279.943 44.8965 277.731 45.2388 274.647C46.0565 267.392 42.0061 260.391 35.864 249.798C29.7789 239.314 21.4499 224.985 14.0908 203.51C9.08959 188.964 4.39267 179.604 0.0190159 175.433V176.63C4.22153 180.801 8.76632 189.943 13.5964 204.091C21.0126 225.711 29.3605 240.076 35.4646 250.596C41.4546 260.935 45.429 267.755 44.6683 274.393C44.345 277.186 43.6605 279.073 42.5576 280.161C38.6213 284.115 30.1212 277.44 21.1266 270.367C15.1937 265.723 9.05156 260.899 3.72711 258.722C2.396 258.178 1.14095 257.815 0 257.634V258.722C1.10292 258.903 2.31994 259.23 3.61302 259.774C8.89944 261.987 15.0226 266.775 20.9175 271.419Z" fill="#848484"/>
<path d="M17.3592 250.868C19.2476 250.868 20.446 249.959 20.9363 248.176C22.1347 243.7 18.5213 235.167 10.1685 222.718C6.39166 217.122 2.4695 211.947 0 208.765V209.989C8.26194 220.584 22.3526 240.622 20.4642 247.686C20.0647 249.19 18.9752 249.854 17.4499 249.854C13.437 249.854 6.31902 245.448 0 240.762V241.881C1.36186 242.895 2.79635 243.909 4.249 244.889C10.1322 248.875 14.5265 250.868 17.3592 250.868Z" fill="#848484"/>
<path fill-rule="evenodd" clip-rule="evenodd" d="M98.6713 335.844C99.6765 332.646 100.738 329.765 101.854 327.235C105.391 319.152 110.752 314.935 116.132 315.919C119.296 316.517 120.897 318.625 120.916 322.245C120.953 334.227 101.65 359.247 92.9566 361.004C91.6908 361.286 90.7228 361.391 89.9969 361.391C88.4332 361.391 87.912 360.864 87.7259 360.091C87.3536 358.474 88.6938 356.155 90.9276 352.29C93.3103 348.178 96.5679 342.556 98.6713 335.844ZM109.858 344.665C116.355 335.95 120.394 327.34 120.376 322.28C120.376 319.293 118.924 317.501 116.113 317.009C115.61 316.904 115.108 316.868 114.605 316.868C109.914 316.868 105.409 320.874 102.301 327.903C101.202 330.362 100.16 333.244 99.1735 336.371C97.052 343.162 93.7786 348.814 91.3828 352.951L91.3181 353.063L91.2336 353.209C89.6589 355.94 88.0458 358.737 88.2652 359.634C88.3956 360.197 89.3077 360.689 92.9189 359.951C96.9025 359.142 103.548 353.133 109.858 344.665Z" fill="#848484"/>
<path d="M18.4484 143.941C22.697 158.813 27.2478 174.116 31.6852 185.289C36.5758 197.539 40.8244 203.502 44.6954 203.502C44.7332 203.502 44.7709 203.502 44.8087 203.502C48.6608 203.394 52.0597 197.503 55.1942 185.576C61.7843 160.537 69.5828 145.234 77.759 141.39C83.3483 138.768 89.0887 141.354 94.8101 149.15C99.2098 155.149 102.344 157.125 104.346 155.221C107.31 152.419 107.48 141.965 107.669 129.894C107.877 116.639 108.104 101.587 112.277 94.6892C114.222 91.492 116.827 90.3065 120.245 91.025C129.196 92.9649 137.712 90.3784 144.868 83.6247C151.666 77.1944 156.934 67.3872 160.088 55.245C163.09 43.7135 163.959 30.7091 162.637 17.7048C162.089 12.2803 161.164 6.96357 159.899 1.75464H159.257C163.675 19.5009 163.921 38.1813 159.597 54.778C156.5 66.7047 151.326 76.3322 144.642 82.6548C137.579 89.3366 129.158 91.8512 120.321 89.9473C116.79 89.1929 113.957 90.4861 111.918 93.863C107.556 101.048 107.329 116.351 107.103 129.823C106.933 141.067 106.763 151.7 104.1 154.215C102.288 155.939 99.3609 153.963 95.1311 148.215C89.2586 140.24 83.3672 137.582 77.608 140.276C69.2618 144.228 61.3311 159.711 54.6844 185.037C51.6442 196.569 48.4153 202.245 44.8087 202.352C44.7709 202.352 44.7332 202.352 44.6954 202.352C36.4814 202.352 27.4744 173.218 18.9394 143.33C13.7089 125.117 7.36426 112.543 0 105.861V107.047C7.13767 113.693 13.3312 126.051 18.4484 143.941Z" fill="#848484"/>
<path d="M25.3807 98.2425C28.6284 98.2425 31.4818 97.3397 33.8284 95.4981C39.1786 91.3092 41.8443 82.751 41.7505 69.9678C41.6566 57.4374 43.4025 48.1208 47.0819 41.5126C56.1491 25.1183 75.6727 27.9349 96.3603 30.9682C99.4014 31.4016 102.555 31.871 105.653 32.2682C108.675 32.6654 111.453 32.846 114.007 32.846C125.664 32.846 132.272 28.8377 133.718 20.8572C134.732 15.2239 133.042 8.39901 130.339 1.75464H129.607C132.385 8.3629 134.15 15.1156 133.192 20.5322C131.54 29.7043 122.304 33.3154 105.709 31.221C102.612 30.8238 99.4577 30.3543 96.4166 29.921C75.6164 26.8877 55.9614 24.035 46.7065 40.7542C42.9144 47.6153 41.1122 57.1846 41.2061 70.04C41.2999 82.3177 38.7468 90.587 33.6407 94.5592C27.0702 99.6869 16.3886 97.3397 4.29895 88.1315C2.85345 87.0482 1.42673 85.8565 0 84.6288V85.8204C1.35163 87.0121 2.72204 88.1315 4.09245 89.1426C12.0145 95.137 19.3734 98.2425 25.3807 98.2425Z" fill="#848484"/>
<path d="M14.6572 63.0847C21.4134 62.3003 27.1374 55.5611 31.6979 43.0455L32.4486 40.9774C37.9849 25.7875 40.7624 18.1569 44.8725 14.9834C48.9825 11.8099 54.5564 12.9509 65.6666 15.2686C67.0178 15.5539 68.4629 15.8392 69.983 16.1601C83.1576 18.8344 92.6914 19.7614 99.1286 18.9057C105.341 18.0856 108.869 15.6965 110.22 11.382C111.046 8.74341 111.008 5.53428 110.333 1.75464H109.751C110.426 5.39165 110.502 8.4225 109.732 10.8472C108.493 14.7338 105.021 17.0515 99.091 17.836C92.6726 18.6917 83.1764 17.8003 70.0393 15.0904C68.5192 14.7695 67.0741 14.4842 65.7229 14.1989C54.5188 11.8456 48.9074 10.6689 44.6473 13.985C40.3871 17.3011 37.572 25.003 31.9794 40.3712L31.2287 42.4393C26.7621 54.6697 21.1882 61.2662 14.6197 62.015C11.2416 62.4072 6.34333 61.3019 0 55.668V56.8447C5.57387 61.7297 10.0405 63.156 13.3623 63.156C13.8315 63.156 14.2631 63.1204 14.6572 63.0847Z" fill="#848484"/>
<path d="M23.0503 39.4315C25.8202 36.9444 27.7184 32.7127 28.6676 26.8478C30.0816 18.3102 30.3915 9.69833 30.1591 1.75464H29.578C29.8104 9.58697 29.5005 18.0875 28.1058 26.5137C27.1955 32.0817 25.394 36.0907 22.7791 38.4292C16.5613 43.9972 6.89571 39.4315 0 34.8657V36.0535C4.62943 39.0974 10.4792 42.1041 15.7478 42.1041C18.4015 42.1041 20.9196 41.3246 23.0503 39.4315Z" fill="#848484"/>
<path d="M138.892 28.1929C135.175 42.2002 118.712 40.3015 118.524 40.2657C109.307 40.2657 100.746 39.0119 93.1998 37.8655C81.9739 36.1818 72.2685 34.7488 65.0974 38.2954C61.3054 40.1583 58.3581 43.3466 56.1054 48.0038C53.665 53.0192 52.013 59.79 51.0369 68.6385C47.7892 98.2294 39.2853 101.776 32.4334 104.606C28.3034 106.326 24.7367 107.794 23.554 114.816C22.484 121.229 23.723 133.982 26.7453 147.309C29.9742 161.603 34.3669 172.672 38.4969 176.899C39.8297 178.261 41.1626 178.941 42.4203 178.941C44.8232 178.941 47.0947 176.505 49.0845 171.741C52.1069 164.504 54.5661 156.623 56.9502 148.992C61.3993 134.734 65.2288 122.447 71.1797 119.688C74.8403 118.004 79.1017 120.082 84.1703 126.136C90.8908 134.125 95.5464 136.633 98.4185 133.803C101.985 130.292 102.342 119.437 102.717 107.902C103.224 92.4258 103.75 76.4124 112.085 77.1289C114 77.2722 115.839 77.3797 117.623 77.3797C135.644 77.3797 147.34 69.2476 152.389 53.1266C156.369 40.4807 155.355 25.2195 153.816 14.6872C153.084 9.63598 152.164 5.19377 151.357 1.75464H150.737C151.563 5.19377 152.521 9.8151 153.272 15.0096C155.994 33.7457 154.023 45.7827 151.901 52.5893C146.457 69.9282 133.054 77.8454 112.104 76.09C108.105 75.7676 105.439 78.9918 103.956 85.9775C102.661 92.0318 102.398 100.092 102.154 107.902C101.798 119.115 101.441 129.683 98.1557 132.907C95.4713 135.558 91.0034 133.051 84.4518 125.277C79.2331 119.079 74.8403 116.93 71.0295 118.721C64.8534 121.587 60.9487 134.054 56.4433 148.527C54.078 156.121 51.6188 163.967 48.6152 171.132C45.6867 178.118 42.364 179.73 38.7221 176.004C34.7048 171.884 30.3872 161.029 27.2146 146.95C24.3049 134.054 23.0284 121.3 24.0421 115.21C25.1309 108.762 28.3785 107.4 32.5085 105.717C35.9626 104.284 39.8673 102.672 43.3589 97.5845C47.395 91.7094 50.0795 82.3234 51.5437 68.8893C53.3647 52.231 57.5697 43.1317 65.1913 39.3701C68.3826 37.7938 72.1183 37.2207 76.2671 37.2207C81.2981 37.2207 86.9861 38.0804 93.1059 38.9761C100.671 40.0866 109.231 41.3763 118.449 41.3763C118.449 41.3763 118.449 41.3763 118.468 41.3763C118.505 41.3763 122.748 41.9136 127.384 40.624C133.692 38.9044 137.709 34.8921 139.361 28.7303C141.145 22.0312 140 13.0035 135.945 1.79046H135.269C139.399 12.8602 140.6 21.7446 138.892 28.1929Z" fill="#848484"/>
<path d="M140.109 40.131C137.027 47.5964 127.705 50.6918 113.178 49.0894C102.146 47.8877 91.9225 44.3553 91.8286 44.3189C91.7722 44.2825 85.5327 42.1339 78.504 44.7923C74.3506 46.3218 70.7423 49.1987 67.7541 53.3502C64.0142 58.5213 61.2515 65.6589 59.5601 74.5446C56.2901 91.7696 52.6253 103.532 48.3404 110.524C44.6193 116.606 40.9922 118.208 37.6093 119.337C32.6666 120.976 30.994 127.094 30.4678 131.937C29.4154 141.405 31.9525 154.187 35.8991 159.322C36.9704 160.706 38.0604 161.398 39.1128 161.398C40.0901 161.398 41.0485 160.815 41.9506 159.613C45.6529 154.734 49.4492 145.338 53.471 135.433C61.12 116.533 69.0321 97.0135 76.9817 106.81C78.1469 108.23 79.2745 109.65 80.3457 111.034C86.1717 118.426 90.7949 124.29 93.7079 121.522C95.4369 119.883 96.4142 115.55 96.7712 107.829C97.5042 91.8788 98.8573 79.8614 103.086 73.0879C106.093 68.2445 110.378 66.4601 116.204 67.5526C132.516 70.648 143.266 65.0399 148.171 50.9467C152.099 39.6576 151.423 24.9817 150.164 14.6394C149.449 8.77638 148.472 3.60523 147.702 0H147.1C147.871 3.56882 148.886 8.84921 149.619 14.8943C150.84 25.0181 151.498 39.3662 147.702 50.3276C142.928 64.0566 132.347 69.4827 116.26 66.4601C110.284 65.3312 105.867 67.2249 102.729 72.2503C98.3687 79.2787 96.9592 91.5147 96.2074 107.756C95.8692 114.967 94.9859 119.155 93.4636 120.575C90.8325 123.051 86.3409 117.37 80.6652 110.16C79.5752 108.776 78.4476 107.356 77.2824 105.936C73.5049 101.274 69.4267 102.44 64.8223 109.504C60.8005 115.622 56.8539 125.382 53.0388 134.814C49.0546 144.683 45.2771 153.969 41.6499 158.776C39.5263 161.58 37.5342 160.16 36.2186 158.448C32.4411 153.532 30.0168 141.26 31.0128 132.192C31.5202 127.676 33.0801 121.959 37.7033 120.429C41.1613 119.264 44.8636 117.625 48.6975 111.362C53.0576 104.224 56.7787 92.3158 60.0863 74.9087C61.7402 66.2052 64.4276 59.2496 68.0548 54.2242C70.9678 50.1819 74.5198 47.3779 78.5791 45.8484C81.2102 44.8651 83.7286 44.5374 85.8522 44.5374C89.3102 44.5374 91.6782 45.375 91.7158 45.375C91.8098 45.4114 102.071 48.9438 113.14 50.1455C128.062 51.7843 137.29 48.6524 140.541 40.7865C143.755 33.0662 144.507 22.6146 142.703 10.5972C142.082 6.48214 141.274 2.84049 140.56 0.0364165H139.921C140.654 2.80407 141.519 6.59139 142.158 10.8885C143.379 19.0094 143.999 30.6991 140.109 40.131Z" fill="#848484"/>
<path fill-rule="evenodd" clip-rule="evenodd" d="M79.5319 56.1371C81.5449 54.2662 83.7838 53.8704 85.8533 55.0577C87.8852 56.2091 89.4091 58.6198 90.3686 62.2179C93.3036 73.0481 90.7073 92.0818 88.9011 102.444C88.4308 105.179 87.8476 106.618 87.0762 106.942C86.9633 106.978 86.8504 107.014 86.7376 107.014C85.4842 107.014 84.045 104.204 82.2532 100.706L82.2222 100.645C80.5102 97.299 78.5724 93.521 76.2395 90.8585C72.345 86.3969 70.426 81.3956 70.5389 75.9265C70.7458 66.3916 77.2742 58.26 79.5319 56.1371ZM86.9635 105.899C87.5091 105.647 87.9795 104.424 88.3746 102.121C92.5324 78.302 91.1026 67.22 89.8609 62.7584C88.9578 59.4482 87.5468 57.2174 85.6842 56.1379C84.9505 55.7062 84.1979 55.4903 83.4265 55.4903C82.1848 55.4903 80.9431 56.03 79.7767 57.1094C77.5943 59.1603 71.2917 66.9681 71.1035 75.9633C70.9906 81.0006 72.8344 85.714 76.5407 89.9238C78.9078 92.5972 80.9425 96.5771 82.59 99.7996L82.6364 99.8904L82.6577 99.9321C84.4171 103.369 85.9329 106.329 86.9635 105.899Z" fill="#848484"/>
<path fill-rule="evenodd" clip-rule="evenodd" d="M81.1147 72.5297C81.6945 71.8954 82.3404 71.7461 82.9367 72.1566C83.5164 72.567 83.9636 73.3879 84.2618 74.6566C85.0899 78.2387 84.3777 84.3956 83.8808 87.7538C83.798 88.3881 83.6324 89.2464 83.268 89.4329C83.2183 89.4703 83.1852 89.4703 83.1355 89.4703C82.7253 89.4703 82.3314 88.5551 81.809 87.3412L81.7938 87.306C81.3466 86.2613 80.8332 85.0672 80.2203 84.2463C79.1106 82.7537 78.564 81.0373 78.5971 79.1343C78.6592 75.568 80.8009 72.919 81.084 72.5688C81.1031 72.5452 81.1137 72.5321 81.1147 72.5297ZM83.1519 88.3145C83.2016 88.3145 83.301 88.016 83.4004 87.3817C83.7814 84.807 84.5764 78.4637 83.831 75.1427C83.5992 74.1726 83.2679 73.5382 82.8041 73.2397C82.6219 73.1278 82.4232 73.0531 82.241 73.0531C81.9263 73.0531 81.6281 73.2024 81.33 73.5382C80.8828 74.0606 79.1436 76.486 79.0939 79.2099C79.0608 80.6279 79.5246 82.0085 80.4687 83.2772C81.1312 84.1727 81.6944 85.4787 82.1416 86.5235C82.1641 86.5741 82.1869 86.6258 82.2101 86.6781C82.5621 87.4734 82.981 88.4196 83.1519 88.3145Z" fill="#848484"/>
<path d="M230.726 65.2313C223.557 69.9742 218.583 83.8107 215.975 106.348C214.774 116.762 211.771 123.323 207.06 125.855C198.24 130.634 184.127 119.65 174.274 100.286C166.373 84.8092 163.201 67.7989 165.566 53.6415C167.762 40.5182 168.381 26.2538 167.424 11.3118C167.217 8.17363 166.936 4.96413 166.598 1.75464H166.016C166.373 5.03545 166.654 8.24495 166.861 11.4544C167.818 26.2538 167.199 40.3755 165.04 53.3562C162.601 67.9059 165.829 85.2728 173.88 101.071C178.572 110.271 184.464 118.01 190.489 122.86C194.768 126.319 198.896 128.066 202.537 128.066C204.226 128.066 205.803 127.674 207.229 126.925C212.071 124.322 215.299 117.296 216.538 106.598C219.109 84.4526 223.932 70.9014 230.913 66.2655C240.86 59.6682 253.603 72.0782 264 86.4496V85.1302C253.528 70.7588 240.785 58.5983 230.726 65.2313Z" fill="#848484"/>
<path d="M233.876 37.1665C227.772 39.4986 223.123 47.2124 220.08 60.021C215.866 77.7449 210.518 90.1588 204.168 96.9756C197.364 104.259 191.317 103.039 187.443 100.743C182.756 97.9444 178.712 92.0603 176.047 84.1671C173.288 76.0227 172.267 66.4073 173.193 57.1148C175.102 37.8123 175.82 19.1915 175.367 1.75464H174.8C175.253 19.1197 174.535 37.6688 172.645 56.8996C171.7 66.4791 172.74 76.3456 175.574 84.7053C178.315 92.8138 182.472 98.8413 187.291 101.712C189.314 102.931 191.392 103.505 193.471 103.505C197.194 103.505 200.955 101.604 204.451 97.8726C210.914 90.9481 216.338 78.3548 220.609 60.4157C223.576 47.93 228.074 40.4673 233.989 38.1711C238.789 36.3413 244.553 37.9917 250.658 43.0147C255.439 46.9254 260.277 52.8095 264 59.2317V57.7965C256.308 44.9521 243.911 33.3275 233.876 37.1665Z" fill="#848484"/>
<path d="M140.858 494.197C140.378 493.23 139.77 492.843 139.069 492.998C136.69 493.54 133.445 500.695 130.992 507H131.711C134.053 501.043 137.041 494.661 139.124 494.158C139.659 494.042 140.102 494.313 140.471 495.048C141.743 497.562 143.163 502.165 144.454 507H145.099C143.753 501.894 142.241 496.905 140.858 494.197Z" fill="#848484"/>
<path d="M258.417 36.2941C252.007 35.1269 244.261 30.3126 237.155 23.0181C228.922 14.5565 222.041 27.1759 214.089 41.7649C208.036 52.889 201.175 65.472 192.678 70.0311C189.689 71.6359 187.376 70.797 185.778 67.6239C180.346 56.7186 183.993 21.0121 186.474 1.75464H185.891C185.139 7.6267 184.274 14.9577 183.598 22.6169C181.511 46.4334 182.113 61.8248 185.384 68.3898C186.568 70.7605 188.091 71.9276 189.933 71.9276C190.835 71.9276 191.794 71.6359 192.847 71.0888C201.457 66.4932 208.393 53.8008 214.484 42.5673C222.286 28.2701 229.016 15.906 236.892 24.0028C244.149 31.4797 251.781 36.2211 258.361 37.3882C260.41 37.753 262.289 37.753 264 37.3882V36.2941C262.327 36.6588 260.447 36.6588 258.417 36.2941Z" fill="#848484"/>
<path d="M194.442 49.0138C194.746 49.0856 195.031 49.1214 195.335 49.1214C200.387 49.1214 206.028 38.6512 209.048 32.1253C213.055 23.5197 216.949 12.3324 219.665 1.75464H219.038C216.36 12.0814 212.542 22.9818 208.63 31.4082C203.236 43.0258 198.222 48.9063 194.518 47.9381C192.98 47.5437 191.973 46.217 191.441 43.958C189.447 35.3524 194.841 15.3443 199.076 1.7905H198.412C197.576 4.51561 196.683 7.45586 195.829 10.5037C191.175 27.0337 189.523 38.4361 190.929 44.3883C191.536 47.0059 192.714 48.5477 194.442 49.0138Z" fill="#848484"/>
<path d="M201.234 26.278C201.351 26.3152 201.488 26.3152 201.625 26.3152C202.798 26.3152 204.655 24.9755 207.235 19.3564C209.151 15.2257 210.988 9.60657 212.064 4.69446C212.24 3.87578 212.435 2.87103 212.611 1.79185H212.005C211.868 2.57332 211.712 3.39201 211.536 4.24791C209.327 14.3698 204.283 25.9431 201.331 25.1244C200.784 24.9755 200.432 24.529 200.237 23.7103C199.24 19.3936 203.286 6.62954 205.026 1.75464H204.322C203.071 5.3643 198.516 18.947 199.709 24.1568C199.963 25.3849 200.491 26.0919 201.234 26.278Z" fill="#848484"/>
<path d="M254.729 24.9222C251.054 24.0058 246.936 20.9265 242.467 15.7578C238.57 11.2489 235.08 5.89694 232.605 1.75464H231.756C234.286 6.04357 237.998 11.8721 242.19 16.7109C246.733 21.9529 250.925 25.1055 254.674 26.0219C255.45 26.2052 256.207 26.3152 256.964 26.3152C259.568 26.3152 261.913 25.1421 264 22.7961V21.5131C261.322 24.6289 258.238 25.802 254.729 24.9222Z" fill="#848484"/>
<path fill-rule="evenodd" clip-rule="evenodd" d="M142.48 324.182C146.088 320.1 152.342 319.991 161.07 323.89C167.323 326.696 172.651 330.633 173.085 330.961C178.697 332.965 179.396 334.751 179.358 336.063C179.32 337.849 177.809 340.29 166.398 343.571C159.313 345.611 150.868 347.288 144.709 348.491L143.179 348.782C142.064 349.001 141.063 349.11 140.156 349.11C136.699 349.11 134.677 347.507 134.148 344.372C133.185 338.723 137.624 329.685 142.48 324.182ZM166.303 342.515C177.506 339.271 178.753 336.902 178.772 336.027C178.772 335.59 178.375 333.986 172.953 332.055L172.896 332.018C172.893 332.017 172.876 332.004 172.846 331.982C172.283 331.567 167.054 327.718 160.956 324.984C157.65 323.49 153.701 322.178 150.112 322.178C147.297 322.178 144.69 323.016 142.782 325.167C140.382 327.9 138.134 331.435 136.604 334.898C134.998 338.578 134.318 341.822 134.696 344.082C135.281 347.435 138.191 348.71 143.122 347.726L144.652 347.435C145.107 347.343 145.575 347.249 146.053 347.153C152.049 345.951 159.759 344.405 166.303 342.515Z" fill="#848484"/>
<path fill-rule="evenodd" clip-rule="evenodd" d="M147.123 95.2121C146.966 92.4734 149.1 89.2555 153.447 85.5925C156.306 83.1961 159.713 83.9492 162.082 87.5438C163.962 90.3852 165.999 94.4248 164.98 97.7797C164.197 100.381 161.71 101.751 158.401 101.751C156.189 101.751 153.604 101.135 150.902 99.8679C148.454 98.7382 147.221 97.1977 147.123 95.2121ZM151.058 98.8756C157.305 101.82 163.316 101.101 164.471 97.3008C165.117 95.1098 164.178 92.0288 161.71 88.3316C160.34 86.3118 158.636 85.2505 156.913 85.2505C155.817 85.2505 154.72 85.6613 153.702 86.5172C149.727 89.8721 147.593 92.9189 147.71 95.1098C147.788 96.5819 148.944 97.8828 151.058 98.8756Z" fill="#848484"/>
<path d="M206.862 494.129C196.981 491.763 191.178 475.914 183.857 455.834C181.808 450.24 179.684 444.431 177.294 438.407C171.301 423.311 164.587 414.239 157.361 411.442C149.149 408.287 140.121 413.163 130.543 425.929C120.017 439.949 104.788 462.503 91.7201 483.444C88.0597 489.324 83.2803 497.141 78.5957 505.245H79.4302C83.1475 498.862 87.3769 491.834 92.0805 484.269C105.129 463.364 120.34 440.809 130.847 426.825C148.694 403.052 164.17 407.175 176.82 439.088C179.191 445.076 181.315 450.885 183.364 456.479C190.779 476.774 196.64 492.767 206.768 495.205C213.956 496.926 218.071 500.297 219.058 505.245H219.664C218.735 499.687 214.43 495.958 206.862 494.129Z" fill="#848484"/>
<path d="M152.587 452.907C149.079 449.857 145.478 450.224 141.877 453.972C132.949 463.233 124.856 474.184 117.821 486.568C113.496 494.175 110.229 501.157 107.816 507H108.559C114.053 493.881 124.67 473.045 142.118 454.928C145.571 451.363 149.005 450.996 152.346 453.899C159.084 459.742 164.355 477.749 167.585 491.86C168.829 497.225 169.868 502.48 170.703 507H171.297C170.443 502.37 169.385 496.968 168.105 491.419C163.353 470.656 158.119 457.684 152.587 452.907Z" fill="#848484"/>
<path fill-rule="evenodd" clip-rule="evenodd" d="M63.8718 378.679C63.171 376.074 63.2912 372.31 65.2532 370.211C68.1963 367.062 72.2205 368.51 73.8021 370.971C74.4828 372.02 74.7231 373.251 74.4628 374.409C73.9423 376.87 71.9402 379.403 68.5366 381.9C68.0361 382.262 67.5356 382.443 67.0751 382.443C65.5936 382.443 64.4324 380.706 63.8718 378.679ZM68.296 380.888C71.4993 378.535 73.4413 376.147 73.9018 374.011C74.102 373.107 73.7417 372.274 73.3813 371.804C72.5404 370.501 70.8787 369.524 69.1168 369.524C67.8956 369.524 66.6342 369.994 65.5331 371.152C63.8914 372.889 63.7712 375.929 64.3919 378.173C65.0125 380.417 66.4941 382.227 68.296 380.888Z" fill="#848484"/>
<path fill-rule="evenodd" clip-rule="evenodd" d="M94.6402 468.737C93.899 472.224 85.8606 479.83 83.2001 481.838C82.63 482.26 82.0789 482.471 81.5658 482.436C79.9315 482.436 78.6582 480.499 78.0311 478.175C77.233 475.217 77.385 470.956 79.5514 468.597C83.3521 464.441 92.4928 463.772 94.3171 466.66C94.6972 467.223 94.8112 467.963 94.6402 468.737ZM79.8364 469.512C77.974 471.554 77.841 475.111 78.5441 477.717C79.2472 480.323 80.9196 482.436 82.9719 480.851C86.3355 478.28 93.4999 471.096 94.089 468.35C94.146 468.103 94.165 467.821 93.9369 467.469C92.3026 464.899 83.314 465.708 79.8364 469.512Z" fill="#848484"/>
<path d="M16.0041 25.157C19.1892 21.3758 18.1472 9.35104 17.0855 1.75464H16.476C16.7513 3.66225 17.0069 5.87645 17.2231 8.19284C17.7343 14.086 17.8916 21.6824 15.6896 24.3394C13.0943 27.4053 7.82512 23.3856 0 12.3828V13.6772C6.03596 22.0912 10.617 26.3152 13.6841 26.3152C14.5885 26.3152 15.3553 25.9064 16.0041 25.157Z" fill="#848484"/>
<path fill-rule="evenodd" clip-rule="evenodd" d="M127.557 264.903C124.811 264.903 121.879 264.392 119.787 262.926C116.799 260.882 116.631 257.746 117.061 255.497C117.49 253.077 118.368 251.305 119.694 250.249C122.066 248.374 125.801 248.817 130.788 251.612C134.467 253.691 137.511 256.315 137.548 256.349C139.117 257.78 139.173 259.144 138.968 260.03C138.351 262.586 134.467 264.085 131.049 264.63C129.984 264.801 128.789 264.903 127.557 264.903ZM119.899 251.203C118.723 252.124 117.938 253.691 117.565 255.838C117.098 258.462 117.901 260.541 119.993 262.007C122.458 263.711 126.679 264.324 130.993 263.642C134.971 262.995 138.034 261.359 138.444 259.655C138.65 258.769 137.922 257.883 137.287 257.304C137.1 257.133 128.994 250.181 123.167 250.181C121.954 250.181 120.833 250.454 119.899 251.203Z" fill="#848484"/>
</g>
</svg>
