<svg width="197" height="215" viewBox="0 0 197 215" fill="none" xmlns="http://www.w3.org/2000/svg">
<g opacity="0.08">
<path d="M171.293 198.941C163.912 197.498 163.032 192.099 161.913 185.257C160.655 177.617 159.104 168.113 147.809 160.534C142.148 156.744 136.724 154.368 131.217 153.271C126.297 152.293 121.404 152.353 116.288 153.466C106.783 155.541 97.8087 161.075 89.1142 166.414C80.9788 171.422 72.5638 176.61 63.5058 179.166C58.6413 180.55 54.0005 181.061 49.3178 180.76C44.0619 180.414 38.8899 179.046 33.5222 176.565C24.1427 172.234 14.8192 170.73 5.81709 172.083C4.15366 172.339 2.50421 172.685 0.868744 173.136V173.602C2.53217 173.151 4.1956 172.79 5.88698 172.534C14.8192 171.181 24.0589 172.685 33.3684 176.971C39.9802 180.023 46.1027 181.287 51.8758 181.287C65.8122 181.287 77.7078 173.963 89.3238 166.82C98.3818 161.241 106.923 155.977 116.372 153.917C121.432 152.804 126.269 152.744 131.133 153.722C136.599 154.804 141.98 157.165 147.586 160.925C152.548 164.248 158.726 168.384 161.508 185.332C162.081 188.866 162.584 191.919 163.912 194.37C165.38 197.092 167.715 198.686 171.223 199.378C181.609 201.423 187.787 204.656 190.653 209.558C191.338 210.716 191.841 211.979 192.177 213.318H192.61C192.261 211.889 191.743 210.566 191.002 209.318C188.067 204.31 181.805 201.017 171.293 198.941Z" fill="#848484"/>
<path d="M163.181 203.929C154.389 202.524 153.564 199.698 151.775 193.538C150.21 188.171 147.847 180.038 138.608 168.242C126.181 152.365 113 162.292 97.7362 173.789C82.2625 185.45 64.7202 198.651 43.3059 189.143C35.1008 185.495 26.8259 183.701 18.6907 183.776C12.6382 183.836 6.64165 184.942 0.868744 187.065V187.543C6.64165 185.405 12.6242 184.299 18.6907 184.239C26.7699 184.149 34.989 185.958 43.1382 189.576C52.783 193.867 62.5256 193.942 72.8973 189.831C81.969 186.228 90.1042 180.098 97.9738 174.178C105.522 168.496 112.651 163.129 119.318 161.216C126.685 159.093 132.709 161.425 138.286 168.556C147.47 180.292 149.818 188.366 151.37 193.703C153.159 199.862 154.067 202.957 163.125 204.407C168.423 205.259 171.736 207.353 172.98 210.627C173.287 211.449 173.469 212.346 173.539 213.318H173.958C173.902 212.286 173.707 211.329 173.371 210.462C172.057 206.994 168.633 204.811 163.181 203.929Z" fill="#848484"/>
<path d="M119.823 184.227C115.945 181.442 110.742 181.532 104.367 184.543C99.3035 186.921 93.4865 191.135 87.0697 197.035C80.5134 203.086 74.6546 209.709 70.9998 214.059H71.5577C75.2125 209.709 80.9319 203.267 87.3348 197.367C93.7237 191.481 99.4988 187.297 104.521 184.934C110.756 181.999 115.82 181.879 119.572 184.588C128.291 190.864 132.922 201.461 137.009 210.807C137.498 211.906 137.958 212.99 138.432 214.043H138.893C138.39 212.93 137.888 211.786 137.386 210.612C133.299 201.22 128.64 190.563 119.823 184.227Z" fill="#848484"/>
<path d="M108.701 199.515C106.914 198.138 104.604 198.168 101.84 199.605C99.6677 200.742 97.2066 202.749 94.5255 205.578C91.9682 208.288 89.6721 211.237 88.1597 213.318H88.6959C92.9856 207.494 102.816 195.533 108.453 199.874C112.097 202.689 114.228 208.273 116.071 213.318H116.511C114.641 208.183 112.496 202.434 108.701 199.515Z" fill="#848484"/>
<path d="M39.5143 199.327C35.9378 198.354 32.2361 197.351 28.9101 196.157C20.6577 193.164 11.0972 195.685 4.52873 198.324C3.23452 198.84 2.00988 199.386 0.868744 199.931V200.418C2.05163 199.857 3.33193 199.282 4.68181 198.737C11.1807 196.127 20.6438 193.636 28.7709 196.584C32.0969 197.793 35.8126 198.796 39.403 199.769C47.4744 201.951 55.1006 204.015 55.6294 207.76C55.8521 209.337 54.8223 211.18 52.5121 213.318H53.1245C55.3093 211.18 56.2696 209.323 56.0469 207.686C55.4763 203.646 48.0868 201.656 39.5143 199.327Z" fill="#848484"/>
<path d="M34.6793 205.538C31.8876 205.019 28.4896 205.05 25.3596 205.629C19.5647 206.697 8.22868 210.114 0.868744 212.418V212.891C8.22868 210.587 19.6352 207.155 25.4441 206.072C28.5319 205.507 31.8735 205.462 34.6229 205.98C38.599 206.728 39.9948 208.299 40.4742 209.504C40.9113 210.587 40.7985 211.869 40.1499 213.318H40.6293C41.2497 211.823 41.3202 210.48 40.8549 209.321C39.9102 206.972 36.9775 205.965 34.6793 205.538Z" fill="#848484"/>
<path d="M18.751 122.249C25.0481 126.843 29.158 133.433 32.7664 139.251C36.8623 145.841 40.4149 151.539 45.9598 152.461C46.4753 152.551 47.0047 152.582 47.5341 152.582C51.8111 152.582 56.8962 149.906 63.3467 144.269C68.181 140.037 72.2073 136.198 75.7599 132.798C83.2552 125.619 88.6747 120.435 94.6654 118.757C100.781 117.034 107.497 118.848 117.834 124.999C126.277 130.032 136.349 133.493 145.447 134.491C149.682 134.959 153.527 134.868 156.578 134.203C159.797 133.508 162.054 132.254 163.266 130.455C164.923 127.992 165.327 123.412 157.79 115.568C148.777 106.183 138.523 105.049 127.67 103.855C120.481 103.069 113.041 102.238 105.532 98.9586C97.0338 95.2557 89.6638 88.8174 82.9905 79.3109C78.0587 72.2831 72.3048 68.9581 66.3281 69.6987C62.26 70.1974 58.2616 72.5249 54.4442 76.5905C50.613 80.7014 47.1579 86.369 44.2044 93.4421C42.0031 98.6865 39.579 101.377 36.7509 101.649C30.6348 102.238 23.5574 91.0844 16.7308 80.2933C13.3176 74.8977 9.79281 69.336 6.43524 65.346C4.69377 63.2754 3.10554 61.7489 1.61484 60.7363V61.2955C6.30986 64.6507 11.4089 72.6912 16.3826 80.5502C19.8098 85.9609 23.3624 91.568 26.7757 95.6487C30.4258 100.001 33.5465 102.132 36.2911 102.132C36.4583 102.132 36.6255 102.117 36.7926 102.102C39.7741 101.815 42.3236 99.0492 44.5805 93.6386C47.5201 86.6108 50.9334 80.9885 54.7368 76.923C58.4845 72.9179 62.3993 70.6357 66.3699 70.1521C72.1794 69.4417 77.8218 72.7063 82.6562 79.5981C89.3713 89.1801 96.8109 95.6487 105.365 99.3817C112.93 102.692 120.397 103.508 127.614 104.309C138.397 105.503 148.581 106.621 157.498 115.901C164.826 123.533 164.492 127.886 162.931 130.198C160.646 133.569 154.126 135.004 145.489 134.052C136.447 133.055 126.43 129.609 118.029 124.606C107.594 118.395 100.795 116.581 94.5539 118.334C88.4657 120.042 83.0184 125.256 75.4813 132.48C71.9287 135.881 67.9163 139.72 63.082 143.937C55.921 150.194 50.5015 152.763 46.0155 152.022C40.6518 151.146 37.1549 145.523 33.1007 139.01C29.4645 133.161 25.3407 126.541 18.9739 121.886C13.6937 118.032 8.66433 116.097 3.96931 116.097C3.1752 116.097 2.39502 116.158 1.61484 116.264V116.717C6.89499 115.946 12.6488 117.805 18.751 122.249Z" fill="#848484"/>
<path d="M8.72146 166.459C15.2024 166.566 22.4532 167.98 28.8502 169.212C38.0187 170.992 45.2415 172.391 46.1374 169.167C47.4811 164.33 43.1138 160.33 35.863 153.715C30.6699 148.969 24.1889 143.068 17.2601 134.582C12.0529 128.209 6.85977 125.32 1.84858 126.019C1.54063 126.065 1.21869 126.126 0.868744 126.202V126.673C1.20469 126.597 1.55463 126.521 1.90457 126.476C6.77578 125.806 11.829 128.635 16.9521 134.886C23.909 143.403 30.3899 149.319 35.5971 154.08C42.7079 160.574 47.0052 164.498 45.7454 169.045C44.9615 171.874 37.5288 170.429 28.9342 168.771C19.6537 166.977 8.76346 164.863 0.882742 166.688V167.159C3.09438 166.642 5.71195 166.399 8.72146 166.459Z" fill="#848484"/>
<path d="M27.4858 164.432C31.163 164.432 33.2278 163.708 33.6238 162.245C34.5007 159.057 27.1888 153.312 22.7337 150.17C16.4401 145.718 8.94437 141.529 4.91363 140.189C3.57005 139.742 2.21232 139.434 0.882887 139.249V139.711C2.1699 139.896 3.48519 140.204 4.78634 140.635C8.7888 141.96 16.2421 146.119 22.4933 150.555C29.7769 155.714 33.7794 160.027 33.1995 162.107C32.6338 164.14 27.5989 164.509 19.0142 163.154C12.0558 162.06 4.80049 160.166 0.868744 158.964V159.442C4.82877 160.659 12.0417 162.522 18.9434 163.616C22.4085 164.155 25.2371 164.432 27.4858 164.432Z" fill="#848484"/>
<path d="M9.20961 155.544C10.8975 155.544 11.8399 155.189 12.0227 154.478C12.4166 153.056 9.60344 150.692 7.17011 148.961C5.07434 147.462 2.6832 146.04 0.868744 145.175V145.685C2.641 146.55 4.93368 147.926 6.94506 149.363C10.0676 151.588 11.8539 153.504 11.6148 154.354C11.235 155.73 5.59477 154.957 0.868744 153.798V154.262C2.28936 154.602 3.87877 154.942 5.42598 155.189C6.95912 155.421 8.21096 155.544 9.20961 155.544Z" fill="#848484"/>
<path fill-rule="evenodd" clip-rule="evenodd" d="M49.1041 143.694C48.7011 143.694 48.312 143.648 47.9369 143.542C44.5326 142.619 41.823 140 40.1 135.958C38.3631 131.841 37.7795 126.527 38.4326 120.578C39.0301 115.219 40.767 109.906 43.4904 105.213C53.1753 88.4853 61.2206 79.3117 67.4039 77.9493C69.3909 77.5103 71.2112 77.8887 72.7813 79.0846C78.6699 83.541 82.511 87.8791 85.8986 91.7051L86.0233 91.846L86.0536 91.8802C91.2916 97.7981 95.4339 102.478 104.504 105.183C110.243 106.893 112.952 108.467 112.771 110.012C112.632 111.207 110.687 112.161 106.977 112.858C103.378 113.524 98.1816 113.932 91.9566 114.023C87.26 114.099 82.3828 116.082 77.0332 120.124C72.3645 123.666 67.9458 128.283 64.0413 132.37C58.2748 138.41 53.2309 143.694 49.1041 143.694ZM43.852 105.455C41.1702 110.087 39.4472 115.34 38.8636 120.638C38.2244 126.497 38.7941 131.719 40.5032 135.761C42.1568 139.682 44.769 142.225 48.0483 143.103C48.3957 143.194 48.7569 143.239 49.1182 143.239C53.0643 143.239 58.0524 138.017 63.7492 132.053L63.7497 132.052C67.6543 127.95 72.0868 123.318 76.7972 119.76C82.2163 115.673 87.1769 113.645 91.9568 113.569C98.1679 113.478 103.337 113.069 106.908 112.403C111.507 111.54 112.299 110.496 112.369 109.951C112.563 108.225 106.866 106.333 104.407 105.606C95.2083 102.851 91.0258 98.1282 85.7457 92.1486L85.6885 92.0841C82.2983 88.2548 78.4593 83.9187 72.5592 79.4479C71.4754 78.6304 70.2804 78.2217 68.9743 78.2217C68.5019 78.2217 68.0016 78.2822 67.5014 78.3882C61.4432 79.7355 53.4813 88.8334 43.852 105.455Z" fill="#848484"/>
<path fill-rule="evenodd" clip-rule="evenodd" d="M147.944 127.296C141.428 126.273 133.995 124.572 129.604 123.414C122.282 121.487 119.142 119.772 118.781 117.529C118.462 115.497 120.49 113.044 125.144 109.809C127.687 108.048 130.994 107.672 135.009 108.725C138.191 109.553 141.817 111.268 145.791 113.827C152.404 118.086 157.809 123.293 158.073 123.549C160.018 125.039 160.796 126.153 160.449 126.98C160.115 127.748 158.781 128.139 156.392 128.139C154.349 128.139 151.543 127.853 147.944 127.296ZM130.841 108.574C128.729 108.574 126.909 109.116 125.381 110.17C120.948 113.255 118.92 115.633 119.198 117.409C119.587 119.952 124.728 121.638 129.702 122.947C141.761 126.122 159.031 129.223 160.059 126.77C160.198 126.438 160.101 125.626 157.823 123.88L157.809 123.865C157.805 123.862 157.784 123.842 157.746 123.806C157.121 123.212 151.907 118.259 145.582 114.188C141.65 111.66 138.066 109.959 134.926 109.146C133.467 108.77 132.105 108.574 130.841 108.574Z" fill="#848484"/>
<path d="M196.341 119.325C195.347 118.203 194.212 117.051 192.924 115.899C188.024 111.519 181.808 107.911 174.444 105.168C165.246 101.742 154.228 99.6507 141.697 98.9534C134.529 98.5593 120.781 97.18 109.174 92.3449C96.9521 87.2672 90.176 79.7644 89.056 70.0486C87.7539 58.8019 89.028 51.8296 93.0741 48.0858C97.4982 43.9933 105.506 43.8114 117.547 47.5704C125.905 50.1775 132.667 53.7546 138.099 56.6345C143.461 59.484 147.703 61.7273 151.483 62.1214C155.586 62.5458 158.792 60.7421 161.872 56.2707C163.832 53.4211 165.386 50.7231 166.758 48.3435C169.516 43.5386 171.518 40.0676 174.78 38.7792C178.224 37.4151 182.886 38.567 190.39 42.6292C192.532 43.7811 194.506 45.0695 196.341 46.4033V45.8577C194.562 44.5693 192.644 43.3416 190.586 42.2199C182.97 38.0972 178.21 36.9452 174.64 38.3397C171.238 39.6887 169.222 43.2052 166.408 48.0858C165.05 50.4503 163.496 53.1331 161.55 55.9827C155.222 65.1831 148.851 61.8031 138.295 56.2101C132.849 53.315 126.059 49.7228 117.673 47.1157C105.478 43.3264 97.3442 43.5235 92.808 47.722C88.6499 51.5719 87.3339 58.6807 88.6499 70.0941C89.798 79.9917 96.6581 87.6158 109.034 92.7693C120.697 97.6196 134.501 98.9989 141.683 99.4082C154.172 100.09 165.134 102.182 174.29 105.592C181.598 108.321 187.772 111.898 192.63 116.233C194.058 117.506 195.291 118.779 196.341 119.992V119.325Z" fill="#848484"/>
<path d="M196.341 109.771C193.394 107.359 189.849 104.931 185.831 102.641C174.419 96.1172 160.963 91.5812 147.965 89.8821C134.801 88.1527 125.195 86.2563 117.744 83.8897C108.222 80.8859 102.217 77.1388 99.3812 72.4662C97.4628 69.2956 97.0458 65.6394 98.1162 61.5737C98.9224 58.5699 100.396 56.5826 102.634 55.5055C110.21 51.8342 124.737 59.5257 137.553 66.307C142.238 68.7949 146.672 71.1312 150.439 72.7393C156.792 75.4548 160.698 76.0617 163.506 74.7418C166.217 73.4675 167.774 70.5244 169.915 66.4435C171.208 63.9858 172.667 61.2096 174.725 58.1452C176.921 54.8683 179.701 53.154 182.996 53.0478C187.5 52.9113 192.379 55.8089 196.341 58.9947V58.4334C190.182 53.5333 185.748 52.5169 182.996 52.5927C179.576 52.6989 176.685 54.4739 174.405 57.8721C172.334 60.9517 170.874 63.7583 169.567 66.2159C165.369 74.1805 163.451 77.8215 150.592 72.3145C146.839 70.7064 142.419 68.3702 137.734 65.8973C124.834 59.0706 110.21 51.3335 102.467 55.0959C100.132 56.2185 98.5332 58.3727 97.7131 61.4675C96.601 65.6546 97.0319 69.4473 99.0197 72.7393C101.925 77.4877 108 81.2955 117.633 84.3297C125.112 86.6963 134.745 88.5926 147.923 90.3221C160.865 92.0212 174.266 96.542 185.637 103.035C189.71 105.371 193.352 107.874 196.341 110.362V109.771Z" fill="#848484"/>
<path d="M196.326 103.073C188.394 95.558 177.638 92.5518 169.205 90.2137C161.023 87.9363 155.122 86.2965 155.763 81.8632C155.943 80.5727 157.585 80.6638 160.466 80.9371C163.138 81.18 166.45 81.4988 169.581 80.3449C173.282 78.9785 175.829 75.8964 177.359 70.9165C178.431 67.4245 180.143 65.4204 182.425 64.9953C186.599 64.2058 192.082 68.6391 196.34 73.0421V72.4044C196.229 72.2981 196.132 72.1767 196.02 72.0704C190.398 66.4224 185.806 63.8869 182.355 64.5398C179.906 64.9953 178.097 67.0905 176.97 70.7647C173.602 81.7114 165.726 80.9674 160.508 80.4816C157.669 80.2083 155.609 80.0261 155.359 81.8025C155.039 84.0495 156.166 85.7803 158.949 87.2227C161.426 88.5132 164.989 89.5153 169.108 90.654C177.61 93.0225 188.45 96.0438 196.34 103.696V103.073H196.326Z" fill="#848484"/>
<path d="M196.34 98.6953C193.661 96.808 190.719 94.1318 188.191 91.2544C184.406 86.9383 182.155 82.9471 181.865 79.9924C181.713 78.399 182.141 77.1305 183.163 76.2333C186.754 73.0775 192.611 78.3372 196.34 82.5295V81.8643C195.567 81.0134 194.724 80.1317 193.84 79.2963C191.782 77.3626 189.876 76.0322 188.205 75.3515C186.078 74.4852 184.282 74.6554 182.901 75.8775C181.768 76.8675 181.285 78.2753 181.451 80.0543C182.031 86.0875 190.111 94.9207 196.34 99.2522V98.6953Z" fill="#848484"/>
<path fill-rule="evenodd" clip-rule="evenodd" d="M148.094 80.6231C148.142 80.6599 148.169 80.6804 148.174 80.6837C149.832 82.0173 150.404 83.1111 149.916 83.9502C149.358 84.8343 147.56 85.1789 145.191 85.1789C141.944 85.1789 137.595 84.5346 133.776 83.7105C124.48 81.7176 115.616 78.3312 110.069 74.6601C103.825 70.5244 101.707 66.0442 103.951 61.6988C104.55 60.53 105.554 59.7808 106.92 59.4511C111.324 58.3873 119.616 61.6538 131.547 69.1309C139.93 74.3747 147.254 79.9804 148.094 80.6231ZM144.397 84.6994C148.257 84.8043 149.288 84.1 149.553 83.6805C149.999 82.9462 148.912 81.8524 147.923 81.0582C147.56 80.7735 120.243 59.7058 108.689 59.7058C108.076 59.7058 107.519 59.7657 107.003 59.8856C105.763 60.1853 104.857 60.8596 104.313 61.9085C103.198 64.0662 103.212 66.2539 104.369 68.4266C105.414 70.4045 107.407 72.3674 110.278 74.2704C115.783 77.9116 124.592 81.283 133.846 83.2609C137.818 84.115 141.567 84.6245 144.397 84.6994Z" fill="#848484"/>
<path fill-rule="evenodd" clip-rule="evenodd" d="M134.365 76.8739C134.465 76.9388 134.521 76.9748 134.527 76.9781C134.539 76.9879 134.552 76.9988 134.567 77.0107C134.806 77.2076 135.37 77.6711 135.082 78.1218C134.902 78.4113 134.347 78.5127 133.598 78.5127C131.545 78.5127 128.063 77.673 127.175 77.4558C122.556 76.2976 118.269 74.6327 115.717 72.9968C113.15 71.3464 112.263 69.7394 113.067 68.2193C113.261 67.8574 113.594 67.6113 114.038 67.4955C115.842 67.0032 119.837 68.4654 125.927 71.8097C129.932 74.0091 133.565 76.3571 134.365 76.8739ZM127.258 77.0358C131.975 78.2085 134.5 78.2374 134.735 77.8755C134.749 77.8466 134.722 77.6728 134.278 77.3398C133.889 77.0793 119.712 67.8428 114.815 67.8428C114.551 67.8428 114.329 67.8717 114.121 67.9296C113.775 68.0165 113.553 68.1902 113.414 68.4363C112.734 69.7103 113.566 71.1146 115.911 72.6203C118.422 74.2417 122.667 75.8921 127.258 77.0358Z" fill="#848484"/>
<path fill-rule="evenodd" clip-rule="evenodd" d="M51.9813 132.422C50.5938 133.064 49.4561 133.324 48.5264 133.324C46.6394 133.324 45.5988 132.238 45.0299 131.123C41.3252 123.893 49.6919 100.614 61.0695 91.535C64.4689 88.8296 67.5215 87.7291 70.13 88.2794C72.2806 88.7379 74.126 90.2817 75.6245 92.8801C77.0953 95.4174 77.8029 98.352 77.7058 101.378C77.6087 104.389 76.7068 107.278 75.1112 109.724L74.681 110.381L74.6559 110.42C69.3635 118.524 63.8951 126.897 51.9813 132.422ZM61.319 91.9171C56.1714 96.0287 51.1069 103.625 47.7769 112.231C44.655 120.301 43.7115 127.622 45.3904 130.893C46.5143 133.079 48.6649 133.446 51.8146 131.978C63.6362 126.491 69.0752 118.161 74.3339 110.091L74.764 109.433C76.3181 107.064 77.1922 104.267 77.2893 101.348C77.3864 98.4131 76.6927 95.5702 75.2774 93.1246C73.8483 90.6485 72.0861 89.1659 70.0604 88.7379C69.6441 88.6462 69.214 88.6003 68.7839 88.6003C66.5777 88.6003 64.0802 89.7161 61.319 91.9171Z" fill="#848484"/>
<path fill-rule="evenodd" clip-rule="evenodd" d="M55.5747 122.378C54.6927 122.783 53.9672 122.954 53.3839 122.954C52.2743 122.954 51.6626 122.347 51.3212 121.709C50.3396 119.81 50.9371 115.795 52.8718 111.236C54.8918 106.505 57.9219 102.21 60.9947 99.782C63.029 98.1792 64.8499 97.5256 66.429 97.8524C67.7235 98.1169 68.8474 99.0351 69.7436 100.591C71.5218 103.673 71.408 107.594 69.4306 110.598C66.2867 115.375 62.8583 119.017 55.5747 122.378ZM61.2509 100.171C58.2493 102.552 55.2618 106.769 53.2702 111.438C51.4209 115.795 50.8092 119.732 51.7054 121.491C52.3029 122.658 53.5547 122.814 55.4183 121.958C62.6166 118.643 65.9881 115.048 69.0893 110.333C70.9672 107.485 71.081 103.766 69.3881 100.856C68.5488 99.4239 67.5387 98.568 66.358 98.319C66.1161 98.2723 65.8743 98.2412 65.6182 98.2412C64.3237 98.2412 62.8727 98.8948 61.2509 100.171Z" fill="#848484"/>
<path opacity="0.3" d="M59.0676 114.066C59.2279 114.066 59.4252 114.02 59.6595 113.897C61.4844 112.942 62.3352 111.894 63.1244 110.523C63.6423 109.63 63.6793 108.444 63.2107 107.535C62.9641 107.057 62.6681 106.78 62.3106 106.688C61.8913 106.58 61.3981 106.78 60.8679 107.258C59.2526 108.721 57.8715 112.356 58.4511 113.635C58.5374 113.82 58.71 114.066 59.0676 114.066Z" fill="#848484" stroke="#575757" stroke-width="5"/>
<path d="M196.298 200.299C192.285 200.101 188.385 199.536 184.933 198.621C180.387 197.415 176.57 195.6 173.595 193.25C169.947 190.367 167.548 186.644 166.439 182.159C164.896 175.858 162.454 169.908 159.381 164.934C155.775 159.091 151.355 154.59 146.22 151.538C136.777 145.909 125.285 145.375 112.081 149.952C96.0853 155.49 83.6393 161.303 74.5469 165.559C62.9428 170.976 56.5445 173.966 55.0852 170.686C54.9589 170.396 54.9449 170.091 55.0571 169.755C55.885 167.268 62.7464 163.881 70.7022 159.975C76.6235 157.061 83.3446 153.751 88.6345 150.242C94.7523 146.183 97.9655 142.506 98.4566 139.013C99.1441 134.1 100.968 130.652 103.718 129.05C106.847 127.234 111.127 127.707 116.459 130.454C126.253 135.488 150.163 141.5 164.685 141.5C169.695 141.5 173.595 140.782 175.405 139.058C176.5 138.021 176.809 136.663 176.317 135.015C174.704 129.569 176.57 123.939 180.653 121.94C185.775 119.438 191.429 123.069 196.298 128.882V128.119C194.39 125.892 192.454 124.153 190.503 122.902C186.925 120.598 183.361 120.11 180.485 121.528C176.205 123.619 174.241 129.477 175.925 135.153C176.36 136.617 176.093 137.792 175.139 138.708C172.122 141.576 162.37 141.82 148.367 139.364C136.272 137.243 123.236 133.413 116.655 130.026C111.197 127.219 106.791 126.762 103.55 128.638C100.674 130.301 98.7793 133.871 98.0637 138.936C96.9973 146.519 82.3344 153.751 70.5479 159.548C62.1851 163.668 55.5763 166.917 54.6923 169.587C54.5379 170.045 54.552 170.472 54.7344 170.869C55.5202 172.639 57.4425 172.944 60.9924 171.86C64.2618 170.853 68.8922 168.702 74.7433 165.971C83.8217 161.73 96.2677 155.917 112.236 150.379C125.327 145.848 136.706 146.366 146.051 151.92C151.117 154.941 155.495 159.396 159.059 165.163C162.104 170.106 164.531 176.01 166.06 182.25C167.183 186.827 169.638 190.641 173.371 193.586C176.388 195.966 180.26 197.797 184.863 199.033C188.356 199.963 192.299 200.543 196.34 200.726V200.299H196.298Z" fill="#848484"/>
<path d="M196.326 191.077C189.75 192.731 184.564 192.473 180.573 190.304C174.685 187.088 172.099 180.081 170.188 172.982C168.164 165.489 162.36 159.953 157.694 155.509C154.56 152.52 152.087 150.169 151.975 148.289C151.947 147.758 152.115 147.287 152.481 146.848C153.759 145.3 157.835 146.271 163.006 147.5C167.152 148.486 172.324 149.714 177.706 150.048C180.193 150.2 181.824 149.745 182.709 148.653C183.974 147.075 183.496 144.436 182.99 141.645C182.273 137.747 181.542 133.727 184.957 131.513C186.096 130.77 187.36 130.633 188.71 131.058C190.986 131.801 193.586 134.258 196.34 138.217V137.443C194.092 134.289 191.464 131.482 188.836 130.633C187.375 130.148 185.997 130.314 184.747 131.118C181.079 133.5 181.88 137.868 182.582 141.736C183.074 144.421 183.538 146.954 182.4 148.364C181.613 149.335 180.081 149.745 177.734 149.593C172.38 149.259 167.236 148.031 163.105 147.045C157.61 145.74 153.633 144.785 152.185 146.529C151.75 147.06 151.539 147.651 151.581 148.304C151.694 150.367 154.223 152.778 157.441 155.827C162.065 160.226 167.827 165.717 169.808 173.088C171.747 180.278 174.361 187.392 180.404 190.683C182.723 191.942 185.435 192.579 188.569 192.579C190.916 192.579 193.502 192.23 196.34 191.517V191.077H196.326Z" fill="#848484"/>
<path d="M196.34 179.322C193.047 180.254 189.027 180.789 185.762 179.429C183.361 178.436 181.617 176.512 180.584 173.731C179.161 169.882 176.662 166.307 174.653 163.435C172.671 160.609 170.968 158.165 171.499 157.065C171.834 156.378 173.048 156.118 175.211 156.256L175.937 156.302C182.412 156.729 185.678 156.943 187.283 155.339C188.064 154.56 188.441 153.338 188.483 151.398C188.553 148.725 189.851 146.494 191.721 145.838C193.117 145.349 194.694 145.731 196.34 146.892V146.326C194.219 144.921 192.572 145.058 191.595 145.41C189.558 146.128 188.134 148.526 188.064 151.398C188.023 153.201 187.688 154.316 187.004 155.003C185.525 156.485 182.133 156.256 175.965 155.843L175.239 155.797C172.853 155.645 171.555 155.981 171.122 156.851C170.466 158.211 172.071 160.518 174.304 163.726C176.3 166.582 178.784 170.126 180.179 173.915C181.254 176.817 183.082 178.818 185.594 179.872C187.074 180.483 188.693 180.728 190.311 180.728C192.447 180.728 194.568 180.315 196.326 179.827V179.322H196.34Z" fill="#848484"/>
<path d="M196.34 170.648C192.976 170.738 188.209 170.287 187.312 167.132C186.765 165.209 187.143 163.346 188.349 161.889C189.975 159.92 192.849 158.899 196.34 158.959V158.508C192.723 158.463 189.737 159.53 188.041 161.588C186.723 163.181 186.316 165.194 186.905 167.267C187.55 169.521 189.933 170.798 193.985 171.053C194.518 171.083 195.051 171.099 195.555 171.099C195.822 171.099 196.074 171.099 196.326 171.083V170.648H196.34Z" fill="#848484"/>
<path d="M16.3489 114.595C21.6733 116.969 26.7583 119.251 30.1952 119.251C31.1248 119.251 31.9277 119.082 32.5897 118.715C33.5194 118.194 34.111 117.26 34.3645 115.958C34.9702 112.895 31.97 109.939 27.4203 105.466C22.9129 101.04 16.7433 94.9904 11.2922 85.9234C7.60171 79.7817 4.10846 75.8302 0.88283 74.0688V74.5743C3.99577 76.3356 7.36225 80.1952 10.94 86.1684C16.4334 95.2967 22.6171 101.362 27.1386 105.803C31.5756 110.168 34.5195 113.048 33.9561 115.851C33.7166 117.03 33.2095 117.826 32.3925 118.286C29.4768 119.955 23.1805 117.137 16.518 114.151C12.1232 112.19 7.57354 110.153 3.62954 109.234C2.64354 109.004 1.71389 108.851 0.868744 108.775V109.234C1.68571 109.311 2.5872 109.449 3.54503 109.678C7.44677 110.613 11.9683 112.634 16.3489 114.595Z" fill="#848484"/>
<path d="M13.7219 106.659C15.1201 106.659 16.0075 106.275 16.3705 105.522C17.2578 103.632 14.5823 100.03 8.39777 94.7734C5.60127 92.411 2.69722 90.2259 0.868744 88.8823V89.3991C6.98607 93.8727 17.4191 102.333 16.0209 105.315C15.7251 105.95 14.9184 106.231 13.7891 106.231C10.8178 106.231 5.54749 104.37 0.868744 102.392V102.864C1.8771 103.293 2.93922 103.721 4.0148 104.134C8.38432 105.817 11.6379 106.659 13.7219 106.659Z" fill="#848484"/>
<path fill-rule="evenodd" clip-rule="evenodd" d="M74.6732 141.795C75.4175 140.445 76.2031 139.229 77.03 138.161C79.6625 134.748 83.6182 132.968 87.6014 133.383C89.9445 133.635 91.1298 134.526 91.1436 136.054C91.1712 141.113 76.8784 151.677 70.4419 152.418C69.5046 152.537 68.7879 152.582 68.2504 152.582C67.0927 152.582 66.7067 152.359 66.5689 152.033C66.2933 151.35 67.2856 150.371 68.9395 148.739L68.9396 148.739C70.7037 147.003 73.1157 144.629 74.6732 141.795ZM82.9705 145.519C87.7807 141.84 90.7715 138.205 90.7577 136.069C90.7439 134.807 89.6827 134.066 87.6015 133.843C87.2293 133.799 86.8572 133.784 86.4851 133.784C83.0118 133.784 79.6764 135.475 77.3747 138.442C76.5615 139.481 75.7896 140.698 75.0592 142.018C73.4883 144.885 71.0647 147.271 69.2908 149.018L69.2428 149.065L69.1803 149.127C68.0144 150.28 66.82 151.461 66.9825 151.84C67.0789 152.077 67.7543 152.285 70.4281 151.973C73.3777 151.632 78.2981 149.095 82.9705 145.519Z" fill="#848484"/>
<path d="M15.2745 60.7725C18.4202 67.0517 21.7897 73.513 25.0753 78.23C28.6964 83.402 31.8422 85.9197 34.7083 85.9197C34.7363 85.9197 34.7643 85.9197 34.7922 85.9197C37.6444 85.8742 40.161 83.3868 42.4819 78.3513C47.3613 67.7798 53.1355 61.3185 59.1894 59.6956C63.3278 58.5884 67.5781 59.6805 71.8144 62.9718C75.072 65.5047 77.3929 66.3389 78.8749 65.535C81.07 64.352 81.1958 59.9383 81.3356 54.8421C81.4894 49.2454 81.6572 42.8904 84.747 39.9783C86.1871 38.6284 88.1165 38.1279 90.6471 38.4312C97.2742 39.2503 103.58 38.1582 108.879 35.3068C113.912 32.5918 117.813 28.4512 120.147 23.3247C122.37 18.456 123.014 12.9655 122.035 7.47496C121.629 5.18471 120.944 2.93997 120.008 0.740723H119.532C122.804 8.23332 122.986 16.1203 119.784 23.1275C117.491 28.163 113.66 32.2278 108.711 34.8973C103.482 37.7184 97.2462 38.7801 90.703 37.9762C88.0885 37.6577 85.9914 38.2037 84.4814 39.6294C81.2517 42.6629 81.084 49.1241 80.9162 54.8118C80.7903 59.5591 80.6645 64.0486 78.6932 65.1103C77.351 65.8384 75.1839 65.0042 72.0521 62.5774C67.7039 59.2103 63.3418 58.0879 59.0776 59.2255C52.8979 60.8939 47.0258 67.4309 42.1044 78.1238C39.8534 82.9925 37.4626 85.3889 34.7922 85.4344C34.7643 85.4344 34.7363 85.4344 34.7083 85.4344C28.6265 85.4344 21.9575 73.1338 15.638 60.5147C11.7652 52.7794 7.05352 47.4709 1.61484 44.6498V45.1503C6.91371 48.0017 11.4995 53.2192 15.2745 60.7725Z" fill="#848484"/>
<path d="M20.4073 41.4785C22.8119 41.4785 24.9247 41.0974 26.6622 40.3198C30.6236 38.5512 32.5973 34.9379 32.5278 29.5408C32.4583 24.2503 33.751 20.3168 36.4754 17.5268C43.1889 10.605 57.6447 11.7942 72.9622 13.0749C75.2139 13.2578 77.5491 13.456 79.8425 13.6237C82.0804 13.7915 84.1376 13.8677 86.0279 13.8677C94.6596 13.8677 99.5524 12.1754 100.623 8.80595C101.373 6.42755 100.122 3.54602 98.1207 0.740723H97.5786C99.6357 3.53077 100.942 6.38181 100.233 8.66874C99.0103 12.5413 92.1716 14.0659 79.8842 13.1816C77.5908 13.0139 75.2556 12.8157 73.0039 12.6327C57.603 11.3521 43.0499 10.1476 36.1974 17.2066C33.3896 20.1034 32.0553 24.1436 32.1247 29.5712C32.1942 34.7549 30.3039 38.2463 26.5232 39.9234C21.6583 42.0884 13.7493 41.0974 4.79788 37.2096C3.7276 36.7522 2.67122 36.2491 1.61484 35.7307V36.2338C2.61562 36.737 3.6303 37.2096 4.64498 37.6365C10.4968 40.1673 15.9455 41.4785 20.4073 41.4785Z" fill="#848484"/>
<path d="M12.4674 26.6347C17.4698 26.3035 21.708 23.4581 25.0847 18.174L25.6405 17.3008C29.7397 10.8875 31.7963 7.66585 34.8394 6.32599C37.8826 4.98612 42.0096 5.46787 50.2359 6.44642C51.2364 6.56686 52.3063 6.6873 53.4319 6.82279C63.1728 7.96694 70.2318 8.3433 75.0119 7.98199C79.6114 7.63574 82.2238 6.62708 83.2243 4.80547C83.8357 3.69143 83.8079 2.33651 83.3076 0.740723H82.8769C83.3771 2.27629 83.4327 3.55594 82.863 4.57965C81.9458 6.25071 79.3751 7.21421 74.9841 7.54541C70.2318 7.89167 63.2006 7.5153 53.4736 6.37115C52.348 6.23566 51.2781 6.11522 50.2776 5.99478C41.9818 5.00118 37.827 4.50438 34.6727 5.90446C31.5184 7.30454 29.434 10.5563 25.2931 17.0449L24.7373 17.918C21.4301 23.0818 17.3031 25.8669 12.4396 26.183C9.93836 26.3486 6.31158 25.8819 1.61484 23.5033V24.0001C5.74186 26.0626 9.04903 26.6648 11.5086 26.6648C11.8421 26.6648 12.1617 26.6497 12.4674 26.6347Z" fill="#848484"/>
<path d="M17.9357 16.6335C19.9866 15.5844 21.3921 13.7994 22.0949 11.3255C23.1418 7.72415 23.3713 4.09152 23.1992 0.740723H22.7689C22.941 4.04454 22.7116 7.6302 21.679 11.1845C21.0049 13.5332 19.6711 15.2243 17.7349 16.2107C13.1311 18.5751 5.96015 16.6335 0.868744 14.7232V15.2243C4.29648 16.5082 8.62775 17.7765 12.5288 17.7765C14.4936 17.7609 16.3581 17.4477 17.9357 16.6335Z" fill="#848484"/>
<path d="M103.708 11.9031C100.942 17.8171 88.7656 17.0155 88.6267 17.0003C81.802 17.0003 75.4638 16.471 69.8762 15.987C61.5642 15.2761 54.3782 14.6711 49.0685 16.1685C46.2608 16.955 44.0786 18.3011 42.4106 20.2674C40.6037 22.3849 39.3805 25.2436 38.6578 28.9795C36.2531 41.473 29.9566 42.9704 24.8833 44.1653C21.8254 44.8913 19.1845 45.5114 18.3088 48.476C17.5165 51.1834 18.4339 56.568 20.6717 62.1945C23.0625 68.2295 26.315 72.9032 29.3729 74.688C30.3597 75.2627 31.3466 75.5501 32.2779 75.5501C34.057 75.5501 35.7389 74.5216 37.2122 72.5099C39.45 69.4547 41.2709 66.1271 43.0361 62.9054C46.3303 56.8856 49.1658 51.6976 53.572 50.533C56.2824 49.8221 59.4376 50.6994 63.1905 53.2555C68.1665 56.6285 71.6136 57.6872 73.7402 56.4923C76.3812 55.0101 76.6452 50.4271 76.9232 45.5568C77.2985 39.0227 77.6877 32.2617 83.8591 32.5642C85.2769 32.6247 86.639 32.6701 87.9595 32.6701C101.303 32.6701 109.962 29.2367 113.701 22.4303C116.648 17.0911 115.898 10.6477 114.758 6.20093C114.216 4.06827 113.535 2.19274 112.937 0.740723H112.478C113.09 2.19274 113.799 4.1439 114.355 6.33706C116.37 14.2476 114.911 19.3296 113.34 22.2034C109.309 29.524 99.3849 32.8667 83.873 32.1256C80.9124 31.9895 78.9387 33.3507 77.8406 36.3001C76.8815 38.8563 76.6869 42.2595 76.5062 45.5568C76.2422 50.291 75.9781 54.7529 73.5456 56.1142C71.558 57.2335 68.2499 56.1747 63.399 52.8925C59.5349 50.2759 56.2824 49.3683 53.4608 50.1246C48.8878 51.3346 45.9967 56.5982 42.6608 62.7088C40.9095 65.9153 39.0886 69.2278 36.8647 72.2528C34.6964 75.2022 32.2362 75.8829 29.5397 74.3099C26.5652 72.5704 23.3683 67.9875 21.0192 62.0433C18.8648 56.5982 17.9196 51.2136 18.6702 48.6423C19.4764 45.9198 21.881 45.345 24.9389 44.6341C27.4964 44.0291 30.3875 43.3485 32.9728 41.2007C35.9613 38.7202 37.9489 34.7574 39.0331 29.0854C40.3813 22.0522 43.4948 18.2104 49.138 16.6222C51.5009 15.9567 54.267 15.7147 57.3388 15.7147C61.0638 15.7147 65.2754 16.0777 69.8067 16.4558C75.4082 16.9247 81.7464 17.4692 88.5711 17.4692C88.5711 17.4692 88.5711 17.4692 88.585 17.4692C88.6128 17.4692 91.7541 17.6961 95.1872 17.1516C99.8575 16.4256 102.832 14.7316 104.055 12.13C105.376 9.3016 104.528 5.49005 101.525 0.755848H101.025C104.083 5.44467 104.973 9.1806 103.708 11.9031Z" fill="#848484"/>
<path d="M104.609 17.6843C102.327 20.8362 95.4248 22.1431 84.6684 21.4666C76.5002 20.9592 68.9304 19.4678 68.8608 19.4524C68.8191 19.4371 64.1992 18.5299 58.995 19.6523C55.9197 20.2981 53.248 21.5127 51.0355 23.2655C48.2664 25.4488 46.2209 28.4623 44.9685 32.2139C42.5473 39.4864 39.8339 44.4526 36.6612 47.4047C33.906 49.9724 31.2204 50.6489 28.7157 51.1255C25.056 51.8174 23.8175 54.4004 23.4279 56.4453C22.6487 60.4429 24.5272 65.8396 27.4494 68.0076C28.2425 68.5918 29.0496 68.8839 29.8289 68.8839C30.5525 68.8839 31.2621 68.6379 31.9301 68.1306C34.6713 66.0703 37.4822 62.1034 40.46 57.9214C46.1235 49.9416 51.9818 41.7005 57.8679 45.8364C58.7306 46.436 59.5655 47.0357 60.3587 47.6199C64.6724 50.7411 68.0955 53.2165 70.2523 52.048C71.5325 51.3561 72.2561 49.5265 72.5205 46.2669C73.0632 39.5325 74.0651 34.4587 77.196 31.5989C79.4224 29.554 82.5951 28.8006 86.9087 29.2619C98.9871 30.5688 106.947 28.201 110.578 22.2507C113.487 17.4844 112.986 11.2882 112.053 6.92158C111.525 4.44616 110.801 2.26287 110.231 0.740723H109.785C110.356 2.2475 111.107 4.47691 111.65 7.02921C112.554 11.3035 113.041 17.3614 110.231 21.9894C106.696 27.7858 98.8618 30.0767 86.9505 28.8006C82.5255 28.324 79.2554 29.1235 76.9316 31.2453C73.7033 34.2127 72.6596 39.3788 72.103 46.2362C71.8526 49.2805 71.1986 51.0486 70.0714 51.6483C68.1233 52.6938 64.7976 50.2952 60.5952 47.2509C59.7882 46.6667 58.9532 46.067 58.0905 45.4674C55.2936 43.4994 52.274 43.9914 48.8648 46.9742C45.8869 49.5572 42.9648 53.6778 40.14 57.66C37.19 61.8267 34.393 65.7474 31.7074 67.7769C30.135 68.9608 28.66 68.3612 27.6859 67.6385C24.889 65.5629 23.0939 60.3814 23.8314 56.553C24.2072 54.6464 25.3621 52.2325 28.7852 51.5868C31.3456 51.0947 34.0869 50.4029 36.9256 47.7583C40.1539 44.7448 42.9091 39.717 45.3582 32.3677C46.5827 28.693 48.5726 25.7563 51.2582 23.6345C53.415 21.9279 56.045 20.744 59.0507 20.0982C60.9988 19.6831 62.8634 19.5447 64.4358 19.5447C66.9962 19.5447 68.7495 19.8983 68.7773 19.8983C68.8469 19.9137 76.4446 21.4051 84.6406 21.9125C95.6892 22.6044 102.522 21.2821 104.929 17.961C107.308 14.6861 107.865 10.2888 106.529 5.19955C106.07 3.46215 105.472 1.92462 104.943 0.740723H104.47C105.012 1.90924 105.652 3.50827 106.126 5.32256C107.03 8.78199 107.503 13.7021 104.609 17.6843Z" fill="#848484"/>
<path fill-rule="evenodd" clip-rule="evenodd" d="M60.5022 23.7016C61.9927 22.9117 63.6504 22.7446 65.1827 23.2459C66.6732 23.732 67.8016 24.7498 68.5259 26.2689C70.699 30.8415 68.7767 38.8777 67.4394 43.2528C67.0911 44.4073 66.6593 45.0149 66.0881 45.1517C66.0046 45.1668 65.921 45.182 65.8374 45.182C64.9094 45.182 63.8437 43.9956 62.5171 42.5187L62.4942 42.4932C61.2265 41.0804 59.7917 39.4853 58.0644 38.3612C55.1808 36.4774 53.76 34.3659 53.8435 32.0568C53.9968 28.0311 58.8305 24.5979 60.5022 23.7016ZM66.0045 44.7112C66.4085 44.6048 66.7568 44.0883 67.0493 43.1161C70.1139 33.0595 69.0552 28.3806 68.1498 26.4969C67.4811 25.0993 66.4364 24.1574 65.0573 23.7017C64.514 23.5194 63.9568 23.4282 63.3857 23.4282C62.4663 23.4282 61.5469 23.6561 60.6832 24.1118C59.0673 24.9777 54.4007 28.2742 54.2614 32.072C54.1778 34.1988 55.543 36.1889 58.2872 37.9663C60.0399 39.095 61.5464 40.7754 62.7662 42.1359L62.8006 42.1742L62.8164 42.1918C64.1191 43.6427 65.2415 44.8927 66.0045 44.7112Z" fill="#848484"/>
<path fill-rule="evenodd" clip-rule="evenodd" d="M61.6738 31.3634C62.103 31.0955 62.5813 31.0325 63.0228 31.2058C63.4643 31.3791 63.7955 31.7257 64.0039 32.2613C64.6171 33.7737 64.0898 36.3732 63.7219 37.7911C63.6605 38.0589 63.5379 38.4212 63.2681 38.5C63.2313 38.5158 63.2068 38.5158 63.17 38.5158C62.8663 38.5158 62.5747 38.1294 62.1878 37.6169L62.1766 37.602C61.8455 37.1609 61.4653 36.6568 61.0116 36.3102C60.1899 35.68 59.7852 34.9553 59.8097 34.1518C59.8557 32.6461 61.4414 31.5277 61.6511 31.3798C61.6652 31.3699 61.673 31.3643 61.6738 31.3634ZM63.1948 38.0272C63.2316 38.0272 63.3052 37.9012 63.3788 37.6334C63.6486 36.5463 64.2495 33.8681 63.6976 32.466C63.526 32.0564 63.2807 31.7885 62.9373 31.6625C62.8024 31.6152 62.6552 31.5837 62.5203 31.5837C62.2873 31.5837 62.0666 31.6468 61.8458 31.7885C61.5147 32.0091 60.227 33.0331 60.1902 34.1832C60.1657 34.7818 60.509 35.3647 61.2081 35.9004C61.6986 36.2785 62.1156 36.8299 62.4467 37.271C62.4634 37.2924 62.4803 37.3142 62.4975 37.3363C62.7581 37.6721 63.0682 38.0716 63.1948 38.0272Z" fill="#848484"/>
<path d="M196.34 35.6413C188.618 29.7091 179.318 24.7706 171.945 27.541C166.611 29.5435 162.911 35.3853 160.97 44.9009C160.076 49.2973 157.842 52.0677 154.337 53.1367C147.774 55.1542 137.273 50.5169 129.942 42.3413C124.063 35.8069 121.703 28.625 123.463 22.6477C125.096 17.1069 125.557 11.0844 124.845 4.77582C124.691 3.4358 124.482 2.09579 124.231 0.740723H123.798C124.063 2.1259 124.272 3.48097 124.426 4.83604C125.138 11.0844 124.677 17.0467 123.072 22.5272C121.256 28.6702 123.658 36.0026 129.649 42.6726C133.14 46.5571 137.524 49.8243 142.007 51.872C145.19 53.3324 148.263 54.0702 150.972 54.0702C152.228 54.0702 153.401 53.9046 154.463 53.5884C158.065 52.4893 160.467 49.5232 161.389 45.0063C163.302 35.6563 166.89 29.9349 172.085 27.9776C179.374 25.2374 188.66 30.2662 196.34 36.2134V35.6413Z" fill="#848484"/>
<path d="M196.34 24.0687C190.664 18.782 181.759 14.1013 174.524 15.6918C170.03 16.6765 166.607 19.9333 164.367 25.3411C161.264 32.8243 157.327 38.0655 152.652 40.9436C147.643 44.0187 143.191 43.5037 140.338 42.5342C136.888 41.3526 133.91 38.8684 131.948 35.5358C129.917 32.0972 129.166 28.0375 129.847 24.1142C131.253 15.9645 131.795 8.11782 131.447 0.740723H131.03C131.364 8.07238 130.835 15.9039 129.444 24.0233C128.748 28.0678 129.513 32.2335 131.601 35.763C133.618 39.1865 136.679 41.7313 140.227 42.9432C141.716 43.4582 143.246 43.7006 144.777 43.7006C147.518 43.7006 150.286 42.8977 152.86 41.3223C157.619 38.3988 161.612 33.0818 164.757 25.5078C166.941 20.2363 170.252 17.0855 174.607 16.116C178.141 15.3434 182.385 16.0402 186.879 18.161C190.246 19.7515 193.641 22.0843 196.34 24.6595V24.0687Z" fill="#848484"/>
<path d="M105.163 208.588C104.808 208.231 104.358 208.088 103.839 208.145C102.077 208.345 99.6744 210.989 97.8585 213.318H98.391C100.125 211.117 102.337 208.759 103.88 208.574C104.276 208.531 104.603 208.631 104.876 208.902C105.819 209.831 106.87 211.532 107.826 213.318H108.304C107.307 211.431 106.174 209.602 105.163 208.588Z" fill="#848484"/>
<path d="M196.34 15.3389C195.192 15.4467 193.918 15.4467 192.56 15.3081C187.785 14.8153 182.015 12.7827 176.722 9.70288C170.589 6.13034 165.464 11.4584 159.541 17.6179C155.032 22.3146 149.921 27.6272 143.591 29.5521C141.365 30.2296 139.643 29.8754 138.452 28.5357C134.406 23.9315 137.108 8.85594 138.956 0.740723H138.522C137.962 3.21995 137.318 6.31512 136.814 9.54889C135.26 19.6044 135.708 26.1027 138.144 28.8745C139.026 29.8754 140.161 30.3682 141.533 30.3682C142.205 30.3682 142.919 30.245 143.703 30.014C150.117 28.0738 155.284 22.715 159.821 17.9721C165.632 11.9357 170.645 6.7155 176.512 10.1341C181.917 13.2908 187.603 15.2927 192.504 15.7854C193.876 15.924 195.164 15.9394 196.326 15.8316V15.3389H196.34Z" fill="#848484"/>
<path d="M144.838 20.6939C145.063 20.7241 145.274 20.7393 145.499 20.7393C149.239 20.7393 153.416 16.3187 155.652 13.5634C158.619 9.93007 161.502 5.20671 163.513 0.740723H163.049C161.066 5.10074 158.24 9.70298 155.343 13.2606C151.349 18.1657 147.636 20.6484 144.894 20.2397C143.755 20.0732 143.01 19.513 142.616 18.5593C141.139 14.9259 145.133 6.47838 148.269 0.755862H147.777C147.158 1.90642 146.497 3.14782 145.864 4.43463C142.419 11.4137 141.195 16.2279 142.236 18.7409C142.672 19.8461 143.558 20.5122 144.838 20.6939Z" fill="#848484"/>
<path d="M149.866 11.0946C149.953 11.1103 150.055 11.1103 150.156 11.1103C151.024 11.1103 152.399 10.5447 154.31 8.17228C155.728 6.4283 157.089 4.05586 157.885 1.98193C158.015 1.63628 158.16 1.21207 158.29 0.756434H157.842C157.74 1.08638 157.625 1.43203 157.494 1.7934C155.859 6.06694 152.124 10.9532 149.939 10.6076C149.533 10.5447 149.273 10.3562 149.128 10.0105C148.39 8.188 151.386 2.79894 152.674 0.740723H152.153C151.227 2.26474 147.854 7.99946 148.737 10.1991C148.926 10.7018 149.302 11.0004 149.866 11.0946Z" fill="#848484"/>
<path d="M196.327 9.31501C194.484 10.4603 192.345 10.8782 189.95 10.5222C187.272 10.1353 184.272 8.83522 181.016 6.65295C178.177 4.74928 175.634 2.48963 173.831 0.740723H173.212C175.055 2.55154 177.76 5.01239 180.814 7.05536C184.124 9.26857 187.178 10.5996 189.909 10.9865C190.474 11.0639 191.026 11.1103 191.578 11.1103C193.327 11.1103 194.914 10.6925 196.341 9.84123V9.31501H196.327Z" fill="#848484"/>
<path fill-rule="evenodd" clip-rule="evenodd" d="M106.364 136.872C109.035 135.149 113.666 135.102 120.128 136.749C124.593 137.895 128.43 139.487 128.98 139.716C128.999 139.723 129.014 139.729 129.025 139.734C133.179 140.58 133.697 141.334 133.669 141.888C133.641 142.642 132.522 143.673 124.073 145.058C118.827 145.92 112.575 146.628 108.014 147.135L106.881 147.258C106.056 147.351 105.315 147.397 104.643 147.397C102.083 147.397 100.587 146.72 100.195 145.397C99.4814 143.011 102.769 139.195 106.364 136.872ZM123.989 144.612C132.284 143.243 133.208 142.242 133.222 141.873C133.236 141.688 132.942 141.011 128.899 140.18L128.857 140.165C128.855 140.164 128.843 140.159 128.82 140.15C128.403 139.975 124.531 138.349 120.017 137.195C117.569 136.564 114.645 136.01 111.987 136.01C109.903 136.01 107.973 136.364 106.56 137.272C104.783 138.426 103.119 139.919 101.986 141.381C100.797 142.935 100.293 144.304 100.573 145.258C101.006 146.674 103.161 147.213 106.812 146.797L107.959 146.689C108.296 146.651 108.642 146.611 108.996 146.571C113.435 146.063 119.144 145.41 123.989 144.612Z" fill="#848484"/>
<path fill-rule="evenodd" clip-rule="evenodd" d="M109.802 40.199C109.686 39.0427 111.266 37.684 114.485 36.1375C116.601 35.1257 119.109 35.4437 120.878 36.9613C122.27 38.161 123.778 39.8665 123.024 41.283C122.444 42.3815 120.603 42.9596 118.152 42.9596C116.514 42.9596 114.6 42.6994 112.6 42.1647C110.788 41.6877 109.874 41.0373 109.802 40.199ZM112.701 41.7455C117.326 42.9885 121.777 42.685 122.633 41.0806C123.125 40.17 122.415 38.8547 120.588 37.2938C119.573 36.441 118.312 35.9929 117.036 35.9929C116.224 35.9929 115.413 36.1664 114.659 36.5277C111.716 37.9442 110.135 39.2305 110.222 40.1556C110.28 40.7771 111.136 41.3263 112.701 41.7455Z" fill="#848484"/>
<path d="M154.034 208.625C146.718 207.626 142.421 200.934 137 192.456C135.484 190.094 133.911 187.642 132.142 185.098C127.704 178.725 122.733 174.895 117.383 173.714C111.302 172.382 104.618 174.44 97.5261 179.83C89.7323 185.749 78.4559 195.272 68.7804 204.113C66.0701 206.596 62.5314 209.896 59.0628 213.318H59.6807C62.4331 210.623 65.5646 207.656 69.0472 204.461C78.7087 195.635 89.971 186.113 97.7507 180.209C110.965 170.171 122.424 171.912 131.791 185.386C133.546 187.914 135.119 190.367 136.635 192.729C142.126 201.297 146.465 208.049 153.964 209.079C159.286 209.806 162.334 211.229 163.064 213.318H163.513C162.825 210.971 159.637 209.397 154.034 208.625Z" fill="#848484"/>
<path d="M114.374 191.193C111.736 189.945 109.027 190.096 106.318 191.629C99.6028 195.416 93.5156 199.895 88.2241 204.961C84.9711 208.072 82.5138 210.928 80.6988 213.318H81.2573C85.3899 207.952 93.376 199.43 106.5 192.02C109.097 190.562 111.68 190.411 114.193 191.599C119.261 193.989 123.226 201.353 125.655 207.125C126.591 209.32 127.373 211.469 128.001 213.318H128.448C127.805 211.424 127.01 209.214 126.046 206.945C122.472 198.453 118.535 193.147 114.374 191.193Z" fill="#848484"/>
<path opacity="0.459984" d="M171.03 119.841C171.433 119.946 171.808 119.992 172.168 119.992C174.1 119.992 175.455 118.558 175.96 117.019C176.565 115.133 176.089 112.598 173.61 111.511C169.602 109.746 166.792 109.218 165.235 109.927C164.528 110.244 164.197 110.998 164.269 112.055C164.37 113.398 165.134 115.072 166.316 116.551C167.642 118.211 169.314 119.373 171.03 119.841Z" fill="#848484" stroke="#575757" stroke-width="5"/>
<path fill-rule="evenodd" clip-rule="evenodd" d="M48.1604 159.881C47.6416 158.781 47.7305 157.191 49.1833 156.305C51.3772 154.976 54.342 155.587 55.5131 156.626C56.0171 157.069 56.195 157.589 56.0023 158.078C55.6169 159.117 54.1345 160.186 51.6144 161.241C51.2438 161.394 50.8732 161.47 50.5323 161.47C49.4353 161.47 48.5755 160.736 48.1604 159.881ZM51.4512 160.813C53.823 159.82 55.2609 158.811 55.6019 157.91C55.7501 157.528 55.4833 157.191 55.2165 156.978C54.5939 156.427 53.3635 156.015 52.059 156.015C51.1547 156.015 50.2208 156.214 49.4055 156.703C48.1899 157.436 48.101 158.719 48.5605 159.667C49.0201 160.614 50.117 161.378 51.4512 160.813Z" fill="#848484"/>
<path fill-rule="evenodd" clip-rule="evenodd" d="M71.6887 197.904C71.1399 199.376 65.1881 202.587 63.2182 203.435C62.796 203.628 62.4021 203.702 62.0081 203.687C60.798 203.687 59.8553 202.87 59.391 201.888C58.8 200.639 58.9126 198.84 60.5166 197.844C63.3307 196.09 70.0987 195.807 71.4495 197.027C71.7309 197.264 71.8153 197.577 71.6887 197.904ZM60.7277 198.231C59.3488 199.093 59.2503 200.595 59.7709 201.695C60.2915 202.795 61.5438 203.687 63.0493 203.018C65.5398 201.933 70.8445 198.9 71.2807 197.74C71.3229 197.636 71.3369 197.517 71.1681 197.369C69.958 196.283 63.3026 196.625 60.7277 198.231Z" fill="#848484"/>
<path d="M12.7251 10.6077C15.0818 9.01344 14.2963 3.94353 13.5252 0.740723H13.0743C13.2779 1.54501 13.467 2.47857 13.6271 3.45521C14.0053 5.9399 14.1217 9.1427 12.4778 10.263C10.5575 11.5556 6.65873 9.86082 0.868744 5.22178V5.78191C5.33489 9.32941 8.7245 11.1103 10.9939 11.1103C11.6631 11.096 12.245 10.938 12.7251 10.6077Z" fill="#848484"/>
<path fill-rule="evenodd" clip-rule="evenodd" d="M95.3118 111.844C93.2784 111.844 91.1066 111.628 89.5573 111.009C87.344 110.132 87.2333 108.822 87.5376 107.873C87.8558 106.851 88.506 106.103 89.4881 105.657C91.2449 104.865 94.0115 105.053 97.7049 106.232C100.43 107.11 102.685 108.218 102.713 108.232C103.874 108.837 103.916 109.412 103.764 109.786C103.307 110.865 100.43 111.499 97.8986 111.729C97.1101 111.801 96.2248 111.844 95.3118 111.844ZM89.6542 106.045C88.7827 106.434 88.2017 107.096 87.9251 108.002C87.5792 109.125 88.1741 110.002 89.7234 110.607C91.5493 111.326 94.6756 111.585 97.871 111.297C100.817 111.024 103.086 110.333 103.39 109.614C103.543 109.24 103.003 108.866 102.533 108.621C102.394 108.549 96.3909 105.614 92.075 105.614C91.1758 105.614 90.3459 105.729 89.6542 106.045Z" fill="#848484"/>
<path d="M171.293 198.941C163.912 197.498 163.032 192.099 161.913 185.257C160.655 177.617 159.104 168.113 147.809 160.534C142.148 156.744 136.724 154.368 131.217 153.271C126.297 152.293 121.404 152.353 116.288 153.466C106.783 155.541 97.8087 161.075 89.1142 166.414C80.9788 171.422 72.5638 176.61 63.5058 179.166C58.6413 180.55 54.0005 181.061 49.3178 180.76C44.0619 180.414 38.8899 179.046 33.5222 176.565C24.1427 172.234 14.8192 170.73 5.81709 172.083C4.15366 172.339 2.50421 172.685 0.868744 173.136V173.602C2.53217 173.151 4.1956 172.79 5.88698 172.534C14.8192 171.181 24.0589 172.685 33.3684 176.971C39.9802 180.023 46.1027 181.287 51.8758 181.287C65.8122 181.287 77.7078 173.963 89.3238 166.82C98.3818 161.241 106.923 155.977 116.372 153.917C121.432 152.804 126.269 152.744 131.133 153.722C136.599 154.804 141.98 157.165 147.586 160.925C152.548 164.248 158.726 168.384 161.508 185.332C162.081 188.866 162.584 191.919 163.912 194.37C165.38 197.092 167.715 198.686 171.223 199.378C181.609 201.423 187.787 204.656 190.653 209.558C191.338 210.716 191.841 211.979 192.177 213.318H192.61C192.261 211.889 191.743 210.566 191.002 209.318C188.067 204.31 181.805 201.002 171.293 198.941Z" fill="#848484"/>
<path d="M163.181 203.929C154.389 202.524 153.564 199.698 151.775 193.538C150.21 188.171 147.847 180.038 138.608 168.242C126.181 152.365 113 162.292 97.7362 173.789C82.2625 185.45 64.7202 198.651 43.3059 189.143C35.1008 185.495 26.8259 183.701 18.6907 183.776C12.6382 183.836 6.64165 184.942 0.868744 187.065V187.543C6.64165 185.405 12.6242 184.299 18.6907 184.239C26.7699 184.149 34.989 185.958 43.1382 189.576C52.783 193.867 62.5256 193.942 72.8973 189.831C81.969 186.228 90.1042 180.098 97.9738 174.178C105.522 168.496 112.651 163.129 119.318 161.216C126.685 159.093 132.709 161.425 138.286 168.556C147.47 180.292 149.818 188.366 151.37 193.703C153.159 199.862 154.067 202.957 163.125 204.407C168.423 205.259 171.736 207.353 172.98 210.627C173.287 211.449 173.469 212.346 173.539 213.318H173.958C173.902 212.286 173.707 211.329 173.371 210.462C172.057 206.994 168.633 204.811 163.181 203.929Z" fill="#848484"/>
<path d="M119.078 183.486C115.2 180.702 109.996 180.792 103.621 183.803C98.5576 186.181 92.7406 190.395 86.3238 196.295C79.7675 202.346 73.9086 208.968 70.2538 213.318H70.8118C74.4666 208.968 80.186 202.526 86.5889 196.626C92.9778 190.741 98.7529 186.557 103.775 184.194C110.01 181.259 115.074 181.138 118.826 183.848C127.545 190.124 132.176 200.72 136.263 210.067C136.752 211.166 137.212 212.25 137.686 213.303H138.147C137.644 212.189 137.142 211.046 136.64 209.872C132.553 200.479 127.894 189.823 119.078 183.486Z" fill="#848484"/>
<path d="M108.701 199.515C106.914 198.138 104.604 198.168 101.84 199.605C99.6677 200.742 97.2066 202.749 94.5255 205.578C91.9682 208.288 89.6721 211.237 88.1597 213.318H88.6959C92.9856 207.494 102.816 195.533 108.453 199.874C112.097 202.689 114.228 208.273 116.071 213.318H116.511C114.641 208.183 112.482 202.434 108.701 199.515Z" fill="#848484"/>
<path d="M39.5143 199.327C35.9378 198.354 32.2361 197.351 28.9101 196.157C20.6577 193.164 11.0972 195.685 4.52873 198.324C3.23452 198.84 2.00988 199.386 0.868744 199.931V200.418C2.05163 199.857 3.33193 199.282 4.68181 198.737C11.1807 196.127 20.6438 193.636 28.7709 196.584C32.0969 197.793 35.8126 198.796 39.403 199.769C47.4744 201.951 55.1006 204.015 55.6294 207.76C55.8521 209.337 54.8223 211.18 52.5121 213.318H53.1245C55.3093 211.18 56.2696 209.323 56.0469 207.686C55.4624 203.646 48.0728 201.641 39.5143 199.327Z" fill="#848484"/>
<path d="M34.6793 205.538C31.8876 205.019 28.4896 205.05 25.3596 205.629C19.5647 206.697 8.22868 210.114 0.868744 212.418V212.891C8.22868 210.587 19.6352 207.155 25.4441 206.072C28.5319 205.507 31.8735 205.462 34.6229 205.98C38.599 206.728 39.9948 208.299 40.4742 209.504C40.9113 210.587 40.7985 211.869 40.1499 213.318H40.6293C41.2497 211.823 41.3202 210.48 40.8549 209.321C39.9102 206.972 36.9775 205.965 34.6793 205.538Z" fill="#848484"/>
<path d="M17.9924 121.518C24.2901 126.111 28.4004 132.698 32.009 138.515C36.1053 145.102 39.6582 150.798 45.2035 151.72C45.7191 151.811 46.2485 151.841 46.778 151.841C51.0554 151.841 56.141 149.167 62.5919 143.531C67.4267 139.301 71.4533 135.463 75.0062 132.064C82.5022 124.887 87.9221 119.705 93.9133 118.028C100.03 116.305 106.746 118.118 117.084 124.268C125.527 129.299 135.601 132.759 144.699 133.756C148.935 134.224 152.78 134.134 155.832 133.469C159.05 132.774 161.307 131.52 162.519 129.722C164.177 127.259 164.581 122.681 157.044 114.84C148.029 105.457 137.774 104.324 126.921 103.131C119.731 102.345 112.291 101.514 104.781 98.2355C96.2819 94.5339 88.9114 88.0976 82.2375 78.5943C77.3052 71.5688 71.5508 68.2449 65.5736 68.9852C61.5052 69.4838 57.5064 71.8105 53.6887 75.8747C49.8572 79.9843 46.4018 85.65 43.448 92.7208C41.2466 97.9635 38.8222 100.653 35.9938 100.925C29.8772 101.514 22.7993 90.3639 15.9721 79.5764C12.5585 74.1826 9.03348 68.6226 5.67563 64.6339C3.934 62.5339 2.34564 61.0079 0.868744 59.9956V60.5546C5.56416 63.9087 10.6636 71.9465 15.6377 79.803C19.0652 85.2119 22.6182 90.8172 26.0317 94.8965C29.6822 99.2478 32.8032 101.378 35.548 101.378C35.7152 101.378 35.8824 101.363 36.0496 101.348C39.0312 101.061 41.581 98.2959 43.8381 92.887C46.778 85.8615 50.1916 80.2411 53.9953 76.1769C57.7432 72.1731 61.6584 69.8917 65.6293 69.4083C71.4394 68.6982 77.0823 71.9616 81.917 78.8511C88.6327 88.43 96.0729 94.8965 104.628 98.6283C112.193 101.937 119.661 102.753 126.879 103.554C137.663 104.747 147.848 105.865 156.765 115.142C164.094 122.772 163.759 127.123 162.199 129.435C159.914 132.804 153.393 134.239 144.755 133.287C135.712 132.29 125.694 128.846 117.293 123.845C106.857 117.635 100.058 115.822 93.8158 117.574C87.7271 119.282 82.2793 124.494 74.7415 131.716C71.1886 135.116 67.1759 138.953 62.3411 143.168C55.1796 149.423 49.7596 151.992 45.2732 151.252C39.909 150.375 36.4118 144.755 32.3573 138.243C28.7208 132.396 24.5966 125.778 18.2293 121.125C12.9487 117.272 7.91884 115.338 3.22342 115.338C2.42924 115.338 1.64899 115.399 0.868744 115.505V115.958C6.14935 115.218 11.8897 117.061 17.9924 121.518Z" fill="#848484"/>
<path d="M8.72146 166.458C15.2024 166.564 22.4532 167.979 28.8502 169.212C38.0187 170.992 45.2415 172.391 46.1374 169.166C47.4811 164.328 43.1138 160.327 35.863 153.709C30.6699 148.962 24.1889 143.059 17.2601 134.57C12.0529 128.21 6.85977 125.32 1.84858 126.019C1.54063 126.065 1.21869 126.126 0.868744 126.202V126.674C1.20469 126.598 1.55463 126.521 1.90457 126.476C6.77578 125.806 11.829 128.636 16.9521 134.889C23.909 143.409 30.3899 149.327 35.5971 154.089C42.7079 160.585 47.0052 164.511 45.7454 169.059C44.9615 171.889 37.5288 170.444 28.9342 168.786C19.6537 166.975 8.74946 164.86 0.868744 166.701V167.173C3.10838 166.64 5.71195 166.412 8.72146 166.458Z" fill="#848484"/>
<path d="M27.4831 164.432C31.1619 164.432 33.2276 163.708 33.6238 162.245C34.501 159.057 27.186 153.312 22.729 150.17C16.4327 145.718 8.9337 141.529 4.90122 140.189C3.55706 139.742 2.19875 139.434 0.868744 139.249V139.711C2.15631 139.896 3.47217 140.204 4.77388 140.635C8.77806 141.96 16.2346 146.119 22.4885 150.555C29.7753 155.714 33.7794 160.027 33.1993 162.107C32.6334 164.14 27.5963 164.509 19.0078 163.154C12.0606 162.076 4.80218 160.181 0.882893 158.98V159.457C4.84463 160.674 12.0606 162.538 18.9654 163.631C22.4036 164.171 25.2476 164.432 27.4831 164.432Z" fill="#848484"/>
<path d="M9.20961 155.544C10.8975 155.544 11.8399 155.189 12.0227 154.478C12.4166 153.056 9.60344 150.692 7.17011 148.961C5.07434 147.462 2.6832 146.04 0.868744 145.175V145.685C2.641 146.55 4.93368 147.926 6.94506 149.363C10.0676 151.588 11.8539 153.504 11.6148 154.354C11.235 155.73 5.59477 154.957 0.868744 153.798V154.262C2.28936 154.602 3.87877 154.942 5.42598 155.189C6.97319 155.421 8.22502 155.544 9.20961 155.544Z" fill="#848484"/>
<path fill-rule="evenodd" clip-rule="evenodd" d="M48.3582 143.694C47.9552 143.694 47.5661 143.648 47.191 143.542C43.7867 142.634 41.0771 140 39.3541 135.958C37.6173 131.841 37.0337 126.527 37.6867 120.578C38.2842 115.219 40.0211 109.906 42.7445 105.213C52.4294 88.4853 60.4747 79.3117 66.658 77.9493C68.645 77.5103 70.4653 77.8887 72.0354 79.0846C77.924 83.541 81.7651 87.8791 85.1527 91.7051L85.2775 91.846L85.3077 91.8802C90.5458 97.7981 94.688 102.478 103.758 105.183C109.497 106.893 112.206 108.467 112.026 110.012C111.887 111.207 109.941 112.161 106.231 112.858C102.632 113.524 97.4357 113.932 91.2107 114.023C86.5141 114.099 81.6369 116.082 76.2873 120.124C71.6186 123.666 67.1999 128.283 63.2954 132.37C57.5289 138.41 52.485 143.694 48.3582 143.694ZM43.1058 105.455C40.424 110.087 38.701 115.34 38.1174 120.638C37.4783 126.497 38.048 131.735 39.7571 135.776C41.4106 139.697 44.0229 142.24 47.3021 143.118C47.6495 143.209 48.0108 143.255 48.372 143.255C52.3181 143.255 57.3062 138.032 63.003 132.068L63.0036 132.068C66.9081 127.965 71.3406 123.333 76.0511 119.775C81.4702 115.688 86.4307 113.66 91.2106 113.584C97.4218 113.493 102.591 113.084 106.162 112.418C110.761 111.556 111.553 110.511 111.623 109.966C111.817 108.24 106.12 106.348 103.661 105.621C94.4621 102.866 90.2797 98.1433 84.9995 92.1638L84.9424 92.0992C81.5521 88.27 77.7131 83.9338 71.8131 79.463C70.7293 78.6455 69.5343 78.2368 68.2281 78.2368C67.7557 78.2368 67.2555 78.2974 66.7553 78.4033C60.697 79.7355 52.7351 88.8334 43.1058 105.455Z" fill="#848484"/>
<path fill-rule="evenodd" clip-rule="evenodd" d="M147.198 127.296C140.682 126.273 133.249 124.572 128.858 123.414C121.522 121.487 118.382 119.787 118.035 117.529C117.715 115.497 119.744 113.044 124.398 109.809C126.941 108.048 130.248 107.672 134.263 108.725C137.445 109.553 141.071 111.268 145.044 113.827C151.658 118.086 157.063 123.293 157.327 123.549C159.272 125.039 160.05 126.153 159.702 126.98C159.369 127.748 158.035 128.139 155.645 128.139C153.603 128.139 150.796 127.853 147.198 127.296ZM130.081 108.59C127.969 108.59 126.149 109.131 124.621 110.185C120.188 113.27 118.174 115.648 118.438 117.424C118.827 119.967 123.968 121.653 128.942 122.962C141.001 126.138 158.271 129.238 159.299 126.785C159.438 126.454 159.341 125.641 157.063 123.895L157.049 123.88C157.045 123.877 157.024 123.857 156.986 123.821C156.361 123.227 151.147 118.274 144.822 114.203C140.89 111.675 137.306 109.974 134.166 109.161C132.707 108.785 131.345 108.59 130.081 108.59Z" fill="#848484"/>
<path fill-rule="evenodd" clip-rule="evenodd" d="M141.563 121.146C139.161 120.742 136.409 120.074 134.79 119.623C132.455 118.97 130.877 118.302 130.701 117.183C130.566 116.313 131.308 115.333 133.103 114.012C134.83 112.722 137.448 113.251 140.848 115.582C143.263 117.23 145.246 119.25 145.395 119.406C145.934 119.841 146.515 120.416 146.312 120.929C146.204 121.209 145.894 121.473 144.707 121.473C144.005 121.473 143.006 121.379 141.563 121.146ZM135.275 113.81C134.56 113.81 133.899 113.997 133.333 114.416C131.767 115.566 131.012 116.483 131.093 117.105C131.228 118.022 133.076 118.659 134.871 119.157C140.902 120.851 145.678 121.379 145.935 120.742C145.935 120.742 146.015 120.509 145.152 119.794L145.138 119.778C145.136 119.776 145.126 119.766 145.11 119.75C144.662 119.3 139.204 113.81 135.275 113.81Z" fill="#848484"/>
<path d="M174.339 38.3483C170.949 39.7021 168.94 43.2311 166.135 48.1291C164.782 50.502 163.233 53.1944 161.294 56.0541C154.988 65.2874 148.64 61.8953 138.121 56.2823C132.693 53.377 125.927 49.7719 117.57 47.1556C105.418 43.3528 97.3122 43.5505 92.7919 47.764C88.6482 51.6277 87.3368 58.7617 88.6482 70.2158C89.7923 80.1488 96.6285 87.8 108.962 92.9718C120.583 97.8394 134.34 99.2237 141.497 99.6344C153.942 100.319 164.866 102.418 173.99 105.841C181.273 108.579 187.425 112.168 192.267 116.519C193.857 117.949 195.21 119.363 196.341 120.732V120.063C195.266 118.816 194.025 117.508 192.574 116.199C187.691 111.803 181.496 108.183 174.158 105.43C164.991 101.992 154.011 99.893 141.525 99.1932C134.382 98.7977 120.681 97.4135 109.115 92.5611C96.9355 87.4654 90.1829 79.9358 89.0668 70.1854C87.7693 58.8986 89.0389 51.9015 93.0709 48.1443C97.4796 44.0373 105.46 43.8547 117.458 47.6271C125.787 50.2434 132.526 53.8333 137.939 56.7234C143.283 59.5832 147.51 61.8344 151.277 62.2299C155.365 62.6558 158.56 60.8457 161.629 56.3584C163.582 53.4987 165.131 50.7911 166.498 48.4029C169.247 43.5809 171.242 40.0975 174.492 38.8046C177.924 37.4356 182.57 38.5916 190.048 42.6682C192.322 43.9156 194.415 45.2846 196.341 46.7297V46.1516C194.471 44.7522 192.434 43.444 190.23 42.2423C182.626 38.1049 177.883 36.9336 174.339 38.3483Z" fill="#848484"/>
<path d="M182.593 52.5941C179.16 52.7011 176.257 54.4889 173.968 57.9117C171.888 61.0137 170.423 63.8406 169.111 66.316C164.896 74.3383 162.97 78.0056 150.06 72.4588C146.292 70.839 141.854 68.4858 137.15 65.9951C124.199 59.1189 109.516 51.3258 101.742 55.1154C99.3978 56.2462 97.7928 58.416 96.9693 61.5332C95.8528 65.7506 96.2855 69.5708 98.2813 72.8866C101.184 77.7 107.297 81.5201 116.955 84.5762C124.464 86.96 134.136 88.87 147.367 90.612C160.36 92.3234 173.815 96.877 185.231 103.417C189.488 105.862 193.27 108.49 196.34 111.103V110.492C193.312 107.955 189.627 105.419 185.412 103.004C173.954 96.4339 160.444 91.865 147.395 90.1536C134.178 88.4116 124.534 86.5016 117.053 84.1178C107.493 81.0923 101.463 77.318 98.6162 72.6116C96.6902 69.418 96.2715 65.7354 97.3462 61.6402C98.1556 58.6146 99.635 56.6129 101.882 55.528C109.488 51.8301 124.073 59.5773 136.941 66.4077C141.644 68.9137 146.097 71.2669 149.879 72.8866C156.257 75.6218 160.179 76.2331 162.998 74.9037C165.72 73.6201 167.283 70.6557 169.432 66.5452C170.73 64.0698 172.196 61.2734 174.261 58.1868C176.466 54.8862 179.258 53.1595 182.565 53.0525C187.227 52.915 192.293 56.0322 196.327 59.3481V58.7674C189.99 53.5721 185.412 52.5024 182.593 52.5941Z" fill="#848484"/>
<path d="M181.851 63.7987C179.38 64.2501 177.555 66.3269 176.417 69.9687C173.02 80.8189 165.073 80.0815 159.808 79.5999C156.944 79.329 154.866 79.1484 154.613 80.9092C154.29 83.1364 155.428 84.8519 158.236 86.2816C160.735 87.5607 164.329 88.5539 168.485 89.6826C177.19 92.0603 188.337 95.1152 196.326 102.956V102.339C188.295 94.6337 177.232 91.6088 168.583 89.2462C160.328 86.9889 154.375 85.3636 155.02 80.9694C155.203 79.6902 156.86 79.7805 159.766 80.0514C162.462 80.2922 165.803 80.6082 168.962 79.4645C172.697 78.1101 175.266 75.0552 176.811 70.1192C177.892 66.6579 179.619 64.6715 181.921 64.2501C186.259 63.4375 191.974 68.1177 196.34 72.6022V71.9702C196.116 71.7294 195.877 71.5037 195.638 71.2629C189.966 65.6647 185.333 63.1516 181.851 63.7987Z" fill="#848484"/>
<path d="M187.631 75.3623C185.45 74.4787 183.609 74.6523 182.192 75.8988C181.031 76.9086 180.535 78.3445 180.705 80.1591C181.314 86.439 189.911 95.6853 196.34 99.9929V99.4249C193.494 97.4841 190.322 94.6439 187.602 91.5671C183.722 87.1648 181.414 83.0939 181.116 80.0802C180.96 78.455 181.399 77.1611 182.447 76.2459C186.257 72.9166 192.531 78.7548 196.34 83.0781V82.3996C195.462 81.4056 194.457 80.3642 193.395 79.3701C191.285 77.4136 189.344 76.0566 187.631 75.3623Z" fill="#848484"/>
<path fill-rule="evenodd" clip-rule="evenodd" d="M148.089 80.6373C148.137 80.6742 148.164 80.6947 148.168 80.6979C149.826 82.0317 150.412 83.1258 149.91 83.95C149.353 84.8342 147.555 85.1789 145.186 85.1789C141.939 85.1789 137.591 84.5345 133.773 83.7102C124.478 81.717 115.615 78.33 110.068 74.6583C103.825 70.522 101.707 66.041 103.951 61.6949C104.55 60.5259 105.553 59.7766 106.919 59.4469C111.323 58.3978 119.614 61.6499 131.543 69.1432C139.926 74.3879 147.249 79.9946 148.089 80.6373ZM144.391 84.6991C148.251 84.804 149.283 84.0996 149.547 83.68C150.007 82.9607 148.92 81.8517 147.917 81.0574C147.555 80.7726 120.241 59.7014 108.689 59.7014C108.075 59.7014 107.518 59.7614 107.002 59.8813C105.762 60.181 104.856 60.8554 104.313 61.9045C103.198 64.0625 103.212 66.2506 104.369 68.4236C105.414 70.4019 107.406 72.3651 110.277 74.2684C115.782 77.9102 124.589 81.2822 133.842 83.2604C137.814 84.1146 141.562 84.6242 144.391 84.6991Z" fill="#848484"/>
<path fill-rule="evenodd" clip-rule="evenodd" d="M134.373 76.1331C134.473 76.198 134.529 76.234 134.535 76.2373C134.743 76.3966 135.395 76.9035 135.076 77.3814C134.896 77.671 134.341 77.7724 133.592 77.7724C131.539 77.7724 128.059 76.9324 127.171 76.7152C122.553 75.5566 118.268 73.8911 115.716 72.2545C113.15 70.6035 112.263 68.9959 113.067 67.4752C113.261 67.1132 113.594 66.867 114.038 66.7511C115.841 66.2732 119.849 67.7214 125.937 71.0669C129.941 73.2672 133.573 75.6161 134.373 76.1331ZM127.268 76.2807C131.983 77.4538 134.507 77.4828 134.743 77.1207C134.771 77.1062 134.729 76.9324 134.285 76.5849C133.897 76.3242 119.724 67.0842 114.828 67.0842C114.565 67.0842 114.343 67.1132 114.135 67.1711C113.788 67.258 113.566 67.4318 113.428 67.678C112.748 68.9525 113.58 70.3573 115.924 71.8635C118.434 73.4856 122.678 75.1366 127.268 76.2807Z" fill="#848484"/>
<path fill-rule="evenodd" clip-rule="evenodd" d="M51.2352 132.422C49.8477 133.064 48.7099 133.324 47.7803 133.324C45.8933 133.324 44.8665 132.254 44.2838 131.123C40.5791 123.893 48.9458 100.614 60.3234 91.535C63.7228 88.8296 66.7753 87.7291 69.3839 88.2794C71.5345 88.7379 73.3799 90.2817 74.8784 92.8801C76.3492 95.4174 77.0568 98.352 76.9597 101.378C76.8626 104.389 75.9607 107.278 74.365 109.724L73.9349 110.381L73.9098 110.42C68.6173 118.524 63.149 126.897 51.2352 132.422ZM60.5732 91.9323C55.4256 96.0439 50.3612 103.64 47.0311 112.246C43.9092 120.301 42.9796 127.637 44.6446 130.908C45.7685 133.094 47.9191 133.461 51.0688 131.994C62.8904 126.506 68.3294 118.176 73.5881 110.106L74.0182 109.449C75.5723 107.079 76.4464 104.282 76.5435 101.363C76.6406 98.4283 75.9469 95.5853 74.5316 93.1398C73.1025 90.6636 71.3403 89.181 69.3146 88.753C68.8983 88.6613 68.4682 88.6155 68.0381 88.6155C65.8319 88.6155 63.3344 89.7313 60.5732 91.9323Z" fill="#848484"/>
<path fill-rule="evenodd" clip-rule="evenodd" d="M55.5747 122.378C54.6927 122.783 53.9672 122.954 53.3839 122.954C52.2601 122.954 51.6483 122.347 51.3212 121.709C50.3396 119.81 50.9371 115.795 52.8718 111.236C54.8918 106.505 57.9219 102.21 60.9947 99.782C63.029 98.1792 64.8499 97.5256 66.429 97.8524C67.7235 98.1169 68.8474 99.0351 69.7436 100.591C71.5218 103.673 71.408 107.594 69.4306 110.598C66.2867 115.375 62.8583 119.017 55.5747 122.378ZM61.2508 100.171C58.2491 102.552 55.2617 106.769 53.2701 111.438C51.4065 115.78 50.7948 119.732 51.7053 121.491C52.3027 122.658 53.5546 122.814 55.4182 121.958C62.6165 118.643 65.988 115.048 69.0892 110.333C70.967 107.485 71.0808 103.766 69.388 100.856C68.5486 99.4239 67.5386 98.568 66.3579 98.319C66.116 98.2723 65.8742 98.2412 65.6181 98.2412C64.3236 98.2412 62.8725 98.8948 61.2508 100.171Z" fill="#848484"/>
<path d="M190.154 122.901C186.586 120.598 183.031 120.11 180.162 121.528C175.893 123.618 173.934 129.476 175.613 135.15C176.047 136.614 175.781 137.789 174.829 138.704C171.82 141.572 162.093 141.816 148.126 139.36C136.062 137.24 123.06 133.411 116.496 130.025C111.052 127.218 106.657 126.76 103.424 128.637C100.555 130.299 98.6659 133.869 97.9521 138.933C96.8884 146.514 82.2631 153.744 70.5069 159.541C62.1656 163.659 55.5737 166.908 54.692 169.578C54.5381 170.035 54.5521 170.463 54.734 170.859C55.5178 172.629 57.4351 172.934 60.976 171.851C64.2369 170.844 68.8555 168.693 74.6916 165.963C83.7467 161.722 96.1607 155.91 112.088 150.373C125.145 145.843 136.496 146.362 145.817 151.914C150.869 154.934 155.236 159.388 158.791 165.154C161.828 170.096 164.249 176 165.774 182.239C166.894 186.815 169.343 190.628 173.066 193.572C176.075 195.952 179.938 197.782 184.528 199.018C188.111 199.979 192.184 200.558 196.34 200.726V200.269C192.212 200.101 188.181 199.521 184.626 198.56C180.092 197.355 176.285 195.54 173.318 193.191C169.679 190.308 167.286 186.586 166.18 182.101C164.641 175.801 162.205 169.852 159.14 164.88C155.544 159.037 151.135 154.538 146.013 151.487C136.594 145.858 125.131 145.34 111.962 149.9C96.0067 155.438 83.5927 161.249 74.5236 165.505C62.9494 170.92 56.5674 173.91 55.1119 170.63C54.9859 170.341 54.9719 170.035 55.0839 169.7C55.9096 167.213 62.7534 163.827 70.6889 159.922C76.595 157.009 83.2988 153.699 88.5751 150.19C94.6771 146.133 97.8821 142.457 98.372 138.963C99.0577 134.052 100.877 130.604 103.62 129.003C106.741 127.187 111.01 127.66 116.328 130.406C126.097 135.44 149.945 141.45 164.431 141.45C169.427 141.45 173.318 140.733 175.123 139.009C176.215 137.972 176.523 136.614 176.033 134.967C174.423 129.521 176.285 123.893 180.358 121.894C185.592 119.332 191.386 123.206 196.326 129.277V128.499C194.283 126.135 192.226 124.243 190.154 122.901Z" fill="#848484"/>
<path d="M188.523 130.633C187.074 130.148 185.708 130.314 184.468 131.118C180.831 133.5 181.625 137.868 182.322 141.736C182.81 144.421 183.269 146.954 182.141 148.364C181.36 149.335 179.841 149.745 177.514 149.593C172.205 149.259 167.105 148.031 163.008 147.045C157.559 145.74 153.616 144.785 152.18 146.529C151.748 147.06 151.539 147.651 151.581 148.304C151.693 150.367 154.201 152.778 157.392 155.827C161.977 160.226 167.69 165.717 169.655 173.088C171.578 180.278 174.17 187.392 180.162 190.683C182.461 191.942 185.151 192.579 188.258 192.579C190.683 192.579 193.372 192.2 196.326 191.426V190.956C189.638 192.716 184.37 192.488 180.343 190.274C174.504 187.058 171.94 180.05 170.045 172.952C168.038 165.459 162.283 159.922 157.657 155.478C154.549 152.49 152.097 150.139 151.985 148.258C151.957 147.727 152.125 147.257 152.487 146.817C153.755 145.27 157.796 146.241 162.924 147.469C167.035 148.455 172.163 149.684 177.5 150.018C179.967 150.169 181.583 149.714 182.461 148.622C183.715 147.045 183.242 144.406 182.74 141.615C182.029 137.716 181.305 133.697 184.691 131.482C185.819 130.739 187.074 130.603 188.411 131.027C190.766 131.801 193.484 134.455 196.34 138.718V137.929C194.027 134.607 191.268 131.528 188.523 130.633Z" fill="#848484"/>
<path d="M191.305 145.404C189.296 146.122 187.892 148.521 187.823 151.393C187.782 153.196 187.452 154.311 186.778 154.999C185.319 156.481 181.976 156.252 175.894 155.839L175.179 155.793C172.826 155.64 171.546 155.977 171.12 156.847C170.473 158.207 172.055 160.514 174.257 163.723C176.225 166.58 178.674 170.124 180.05 173.914C181.109 176.816 182.911 178.818 185.388 179.872C186.847 180.483 188.443 180.728 190.039 180.728C192.295 180.728 194.538 180.254 196.34 179.719V179.23C193.038 180.224 188.897 180.85 185.539 179.444C183.173 178.451 181.453 176.526 180.435 173.746C179.031 169.895 176.568 166.32 174.587 163.448C172.633 160.621 170.955 158.177 171.478 157.077C171.808 156.389 173.005 156.129 175.138 156.267L175.853 156.313C182.237 156.741 185.457 156.954 187.039 155.35C187.81 154.571 188.181 153.349 188.222 151.408C188.291 148.735 189.571 146.504 191.415 145.847C192.887 145.327 194.579 145.801 196.34 147.161V146.58C194.084 144.915 192.336 145.037 191.305 145.404Z" fill="#848484"/>
<path d="M187.99 161.604C186.72 163.194 186.328 165.204 186.895 167.274C187.517 169.524 189.814 170.799 193.719 171.054C194.233 171.084 194.746 171.099 195.232 171.099C195.611 171.099 195.989 171.084 196.34 171.069V170.619C193.084 170.754 188.166 170.394 187.274 167.124C186.747 165.204 187.112 163.344 188.274 161.889C189.895 159.864 192.8 158.829 196.327 158.964V158.514C192.706 158.409 189.692 159.489 187.99 161.604Z" fill="#848484"/>
<path d="M16.3565 114.595C21.6787 116.969 26.7615 119.251 30.197 119.251C31.1262 119.251 31.9288 119.082 32.5905 118.715C33.5198 118.194 34.1111 117.26 34.3646 115.958C34.97 112.895 31.971 109.939 27.4232 105.466C22.9177 101.04 16.7508 94.9904 11.3019 85.9234C7.59889 79.7817 4.12118 75.8302 0.882824 74.0688V74.5743C3.99446 76.3356 7.35953 80.1952 10.9358 86.1684C16.4269 95.2967 22.6079 101.362 27.1276 105.803C31.5627 110.168 34.5054 113.048 33.9422 115.851C33.7028 117.03 33.196 117.826 32.3793 118.286C29.4648 119.955 23.1711 117.137 16.5114 114.151C12.1185 112.19 7.57073 110.153 3.62838 109.234C2.6428 109.004 1.71353 108.851 0.868744 108.775V109.234C1.68537 109.311 2.58648 109.449 3.54391 109.678C7.45809 110.613 11.9918 112.634 16.3565 114.595Z" fill="#848484"/>
<path d="M13.7219 105.918C15.1201 105.918 16.0075 105.534 16.3705 104.781C17.2578 102.891 14.5823 99.2888 8.39777 94.0326C5.60127 91.6703 2.69722 89.4852 0.868744 88.1416V88.6584C6.98607 93.132 17.4191 101.592 16.0209 104.575C15.7251 105.209 14.9184 105.49 13.7891 105.49C10.8178 105.49 5.54749 103.63 0.868744 101.651V102.124C1.8771 102.552 2.93922 102.98 4.0148 103.393C8.37088 105.077 11.6245 105.918 13.7219 105.918Z" fill="#848484"/>
<path fill-rule="evenodd" clip-rule="evenodd" d="M73.9273 141.795C74.6716 140.445 75.4572 139.229 76.2842 138.161C78.9029 134.748 82.8723 132.968 86.8555 133.383C89.1986 133.635 90.3839 134.526 90.3977 136.054C90.4253 141.113 76.1325 151.677 69.696 152.418C68.7588 152.537 68.0421 152.582 67.5045 152.582C66.3468 152.582 65.9609 152.359 65.823 152.033C65.5474 151.35 66.5397 150.371 68.1937 148.739L68.1937 148.739C69.9579 147.003 72.3699 144.629 73.9273 141.795ZM82.2105 145.519C87.0207 141.84 90.0115 138.205 89.9978 136.069C89.9978 134.807 88.9227 134.051 86.8415 133.843C86.4694 133.799 86.0972 133.784 85.7251 133.784C82.2518 133.784 78.9164 135.475 76.6147 138.442C75.8015 139.481 75.0297 140.698 74.2992 142.018C72.7284 144.885 70.3047 147.271 68.5308 149.018L68.4829 149.065L68.4204 149.127C67.2544 150.28 66.06 151.461 66.2225 151.84C66.319 152.077 66.9943 152.285 69.6682 151.973C72.6177 151.632 77.5381 149.095 82.2105 145.519Z" fill="#848484"/>
<path d="M14.5284 60.7725C17.6741 67.0517 21.0436 73.513 24.3292 78.23C27.9503 83.402 31.0961 85.9197 33.9622 85.9197C33.9902 85.9197 34.0182 85.9197 34.0461 85.9197C36.8983 85.8742 39.4149 83.3868 41.7358 78.3513C46.6152 67.7798 52.3895 61.3185 58.4433 59.6956C62.5817 58.5884 66.832 59.6805 71.0683 62.9718C74.326 65.5047 76.6468 66.3389 78.1288 65.535C80.3239 64.352 80.4497 59.9383 80.5895 54.8421C80.7433 49.2454 80.9111 42.8904 84.0009 39.9783C85.441 38.6284 87.3704 38.1279 89.901 38.4312C96.5281 39.2503 102.834 38.1582 108.132 35.3068C113.166 32.5918 117.066 28.4512 119.401 23.3247C121.624 18.456 122.267 12.9655 121.289 7.47496C120.883 5.18471 120.198 2.93997 119.262 0.740723H118.786C122.058 8.23332 122.24 16.1203 119.038 23.1275C116.745 28.163 112.914 32.2278 107.965 34.8973C102.736 37.7184 96.5001 38.7801 89.9569 37.9762C87.3424 37.6577 85.2453 38.2037 83.7353 39.6294C80.5056 42.6629 80.3379 49.1241 80.1701 54.8118C80.0443 59.5591 79.9184 64.0486 77.9471 65.1103C76.6049 65.8384 74.4378 65.0042 71.306 62.5774C66.9579 59.2103 62.5957 58.0879 58.3315 59.2255C52.1518 60.8939 46.2797 67.4309 41.3583 78.1238C39.1073 82.9925 36.7165 85.3889 34.0461 85.4344C34.0182 85.4344 33.9902 85.4344 33.9622 85.4344C27.8804 85.4344 21.2114 73.1338 14.8919 60.5147C11.0191 52.8249 6.32141 47.5164 0.868744 44.6953V45.1958C6.15364 48.0017 10.7395 53.2192 14.5284 60.7725Z" fill="#848484"/>
<path d="M19.6612 41.4785C22.0658 41.4785 24.1786 41.0974 25.9161 40.3198C29.8775 38.5512 31.8512 34.9379 31.7817 29.5408C31.7122 24.2503 33.0049 20.3168 35.7293 17.5268C42.4428 10.605 56.8986 11.7942 72.2161 13.0749C74.4678 13.2578 76.803 13.456 79.0964 13.6237C81.3343 13.7915 83.3915 13.8677 85.2818 13.8677C93.9136 13.8677 98.8063 12.1754 99.8765 8.80595C100.627 6.42755 99.3761 3.54602 97.3746 0.740723H96.8325C98.8897 3.53077 100.196 6.38181 99.4873 8.66874C98.2642 12.5413 91.4255 14.0659 79.1381 13.1816C76.8447 13.0139 74.5095 12.8157 72.2578 12.6327C56.8569 11.3521 42.3038 10.1476 35.4513 17.2066C32.6435 20.1034 31.3092 24.1436 31.3787 29.5712C31.4482 34.7549 29.5578 38.2463 25.7771 39.9234C20.9122 42.0884 13.0032 41.0974 4.05178 37.2096C2.9815 36.7522 1.92512 36.2491 0.868744 35.7307V36.2338C1.86952 36.737 2.88421 37.2096 3.89889 37.6365C9.76457 40.1673 15.2133 41.4785 19.6612 41.4785Z" fill="#848484"/>
<path d="M11.7213 26.6347C16.7237 26.3035 20.9619 23.4581 24.3386 18.174L24.8944 17.3008C28.9936 10.8875 31.0502 7.66585 34.0933 6.32599C37.1365 4.98612 41.2635 5.46787 49.4898 6.44642C50.4903 6.56686 51.5602 6.6873 52.6858 6.82279C62.4406 7.95188 69.4996 8.3433 74.2658 7.98199C78.8653 7.63574 81.4777 6.62708 82.4782 4.80547C83.0896 3.69143 83.0618 2.33651 82.5615 0.740723H82.1308C82.631 2.27629 82.6866 3.55594 82.1169 4.57965C81.1998 6.2206 78.6291 7.19915 74.238 7.53035C69.4857 7.89167 62.4545 7.5153 52.7275 6.37115C51.6019 6.23566 50.532 6.11522 49.5315 5.99478C41.2357 5.00118 37.0809 4.50438 33.9266 5.90446C30.7723 7.30454 28.6879 10.5563 24.547 17.0449L23.9912 17.918C20.684 23.0818 16.557 25.8669 11.6935 26.183C9.19226 26.3486 5.56549 25.8819 0.868744 23.5033V24.0001C4.99577 26.0626 8.30294 26.6648 10.7625 26.6648C11.1099 26.6648 11.4295 26.6497 11.7213 26.6347Z" fill="#848484"/>
<path d="M17.9357 16.6481C19.9866 15.5981 21.3921 13.8114 22.0949 11.3352C23.1418 7.73057 23.3713 4.0946 23.1992 0.740723H22.7689C22.941 4.04758 22.7116 7.63654 21.679 11.1942C21.0049 13.545 19.6711 15.2376 17.7349 16.225C13.1311 18.5758 5.97449 16.6481 0.868744 14.7204V15.2219C4.29648 16.5071 8.62775 17.7765 12.5288 17.7765C14.4936 17.7765 16.3581 17.4474 17.9357 16.6481Z" fill="#848484"/>
<path d="M103.708 11.9031C100.956 17.8171 88.7656 17.0155 88.6267 17.0003C81.802 17.0003 75.4638 16.471 69.8762 15.987C61.5642 15.2761 54.3782 14.6711 49.0685 16.1685C46.2608 16.955 44.0786 18.3011 42.4106 20.2674C40.6037 22.3849 39.3805 25.2436 38.6578 28.9795C36.2531 41.473 29.9566 42.9704 24.8833 44.1653C21.8254 44.8913 19.1845 45.5114 18.3088 48.476C17.5165 51.1834 18.4339 56.568 20.6717 62.1945C23.0625 68.2295 26.315 72.9032 29.3729 74.688C30.3597 75.2627 31.3466 75.5501 32.2779 75.5501C34.057 75.5501 35.7389 74.5216 37.2122 72.5099C39.45 69.4547 41.2709 66.1271 43.0361 62.9054C46.3303 56.8856 49.1658 51.6976 53.572 50.533C56.2824 49.8221 59.4376 50.6994 63.1905 53.2555C68.1665 56.6285 71.6136 57.6872 73.7402 56.4923C76.3812 55.0101 76.6452 50.4271 76.9232 45.5568C77.2985 39.0227 77.6877 32.2617 83.8591 32.5642C85.2769 32.6247 86.639 32.6701 87.9595 32.6701C101.303 32.6701 109.962 29.2367 113.701 22.4303C116.648 17.0911 115.898 10.6477 114.758 6.20093C114.216 4.06827 113.535 2.19274 112.937 0.740723H112.478C113.09 2.19274 113.799 4.1439 114.355 6.33706C116.37 14.2476 114.911 19.3296 113.34 22.2034C109.309 29.524 99.3849 32.8667 83.873 32.1256C80.9124 31.9895 78.9387 33.3507 77.8406 36.3001C76.8815 38.8563 76.6869 42.2595 76.5062 45.5568C76.2422 50.291 75.9781 54.7529 73.5456 56.1142C71.558 57.2335 68.2499 56.1747 63.399 52.8925C59.5349 50.2759 56.2824 49.3683 53.4608 50.1246C48.8878 51.3346 45.9967 56.5982 42.6608 62.7088C40.9095 65.9153 39.0886 69.2278 36.8647 72.2528C34.6964 75.2022 32.2362 75.8829 29.5397 74.3099C26.5652 72.5704 23.3683 67.9875 21.0192 62.0433C18.8648 56.5982 17.9196 51.2136 18.6702 48.6423C19.4764 45.9198 21.881 45.345 24.9389 44.6341C27.4964 44.0291 30.3875 43.3485 32.9728 41.2007C35.9613 38.7202 37.9489 34.7574 39.0331 29.0854C40.3813 22.0522 43.4948 18.2104 49.138 16.6222C51.5009 15.9567 54.267 15.7147 57.3388 15.7147C61.0638 15.7147 65.2754 16.0777 69.8067 16.4558C75.4082 16.9247 81.7464 17.4692 88.5711 17.4692C88.5711 17.4692 88.5711 17.4692 88.585 17.4692C88.6128 17.4692 91.7541 17.6961 95.1872 17.1516C99.8575 16.4256 102.832 14.7316 104.055 12.13C105.376 9.3016 104.528 5.49005 101.525 0.755848H101.025C104.083 5.42954 104.973 9.1806 103.708 11.9031Z" fill="#848484"/>
<path d="M104.609 16.9436C102.327 20.0955 95.4248 21.4024 84.6684 20.7259C76.5002 20.2185 68.9304 18.7271 68.8608 18.7117C68.8191 18.6963 64.1992 17.7892 58.995 18.9116C55.9197 19.5574 53.248 20.772 51.0355 22.5248C48.2664 24.7081 46.2209 27.7216 44.9685 31.4732C42.5473 38.7457 39.8339 43.7119 36.6612 46.664C33.906 49.2316 31.2204 49.9081 28.7157 50.3848C25.056 51.0767 23.8175 53.6597 23.4279 55.7046C22.6487 59.7022 24.5272 65.0989 27.4494 67.2668C28.2425 67.8511 29.0496 68.1432 29.8289 68.1432C30.5525 68.1432 31.2621 67.8972 31.9301 67.3898C34.6713 65.3295 37.4822 61.3627 40.46 57.1806C46.1235 49.2009 51.9818 40.9597 57.8679 45.0957C58.7306 45.6953 59.5655 46.295 60.3587 46.8792C64.6724 50.0004 68.0955 52.4758 70.2523 51.3073C71.5325 50.6154 72.2561 48.7858 72.5205 45.5262C73.0632 38.7918 74.0651 33.718 77.196 30.8582C79.4224 28.8133 82.5951 28.0599 86.9087 28.5211C98.9871 29.828 106.947 27.4602 110.578 21.51C113.487 16.7437 112.986 10.5474 112.053 6.18086C111.525 3.70544 110.801 1.52215 110.231 0H109.785C110.356 1.50678 111.107 3.73619 111.65 6.28849C112.554 10.5628 113.041 16.6207 110.231 21.2486C106.696 27.0451 98.8618 29.336 86.9505 28.0599C82.5255 27.5832 79.2554 28.3828 76.9316 30.5045C73.7033 33.472 72.6596 38.6381 72.103 45.4954C71.8526 48.5397 71.1986 50.3079 70.0714 50.9075C68.1233 51.9531 64.7976 49.5545 60.5952 46.5102C59.7882 45.9259 58.9532 45.3263 58.0905 44.7267C55.2936 42.7586 52.274 43.2506 48.8648 46.2335C45.8869 48.8165 42.9648 52.9371 40.14 56.9193C37.19 61.086 34.393 65.0067 31.7074 67.0362C30.135 68.2201 28.66 67.6205 27.6859 66.8978C24.889 64.8222 23.0939 59.6407 23.8314 55.8122C24.2072 53.9057 25.3621 51.4918 28.7852 50.846C31.3456 50.354 34.0869 49.6621 36.9256 47.0176C40.1539 44.004 42.9091 38.9763 45.3582 31.6269C46.5827 27.9523 48.5726 25.0156 51.2582 22.8938C53.415 21.1871 56.045 20.0032 59.0507 19.3575C60.9988 18.9423 62.8634 18.804 64.4358 18.804C66.9962 18.804 68.7495 19.1576 68.7773 19.1576C68.8469 19.173 76.4446 20.6644 84.6406 21.1718C95.6892 21.8636 102.522 20.5414 104.929 17.2203C107.308 13.9608 107.865 9.54805 106.529 4.47421C106.07 2.7368 105.472 1.19927 104.943 0.0153753H104.47C105.012 1.1839 105.652 2.78292 106.126 4.59721C107.03 8.02589 107.489 12.9614 104.609 16.9436Z" fill="#848484"/>
<path fill-rule="evenodd" clip-rule="evenodd" d="M59.7562 23.7016C61.2468 22.9117 62.9045 22.7446 64.4368 23.2459C65.9412 23.732 67.0696 24.7498 67.78 26.2689C69.9531 30.8415 68.0308 38.8777 66.6935 43.2528C66.3452 44.4073 65.9134 45.0149 65.3422 45.1517C65.2587 45.1668 65.1751 45.182 65.0915 45.182C64.1635 45.182 63.0978 43.9956 61.7712 42.5187L61.7483 42.4932C60.4806 41.0804 59.0458 39.4853 57.3185 38.3612C54.4349 36.4774 53.014 34.3659 53.0976 32.0568C53.2509 28.0311 58.0846 24.5979 59.7562 23.7016ZM65.2586 44.7112C65.6626 44.6048 66.0108 44.0883 66.3033 43.1161C69.3819 33.0595 68.3232 28.3806 67.4038 26.4969C66.7352 25.0993 65.6904 24.1574 64.3113 23.7017C63.7681 23.5194 63.2108 23.4282 62.6397 23.4282C61.7203 23.4282 60.8009 23.6561 59.9373 24.1118C58.3214 24.9777 53.6548 28.2742 53.5155 32.072C53.4319 34.1988 54.797 36.1889 57.5413 37.9663C59.2939 39.095 60.8005 40.7753 62.0203 42.1359L62.0546 42.1742L62.0705 42.1918C63.3732 43.6427 64.4955 44.8927 65.2586 44.7112Z" fill="#848484"/>
<path fill-rule="evenodd" clip-rule="evenodd" d="M60.9279 30.6226C61.3572 30.3548 61.8355 30.2918 62.277 30.4651C62.7062 30.6384 63.0373 30.985 63.2581 31.5206C63.8712 33.033 63.3439 35.6325 62.976 37.0503C62.9147 37.3182 62.792 37.6805 62.5222 37.7593C62.4854 37.775 62.4609 37.775 62.4241 37.775C62.1204 37.775 61.8288 37.3887 61.4419 36.8761L61.4307 36.8613C61.0996 36.4202 60.7194 35.916 60.2657 35.5694C59.444 34.9393 59.0393 34.2146 59.0638 33.4111C59.1098 31.9054 60.6955 30.787 60.9052 30.6391C60.9193 30.6292 60.9272 30.6236 60.9279 30.6226ZM62.4366 37.2867C62.4733 37.2867 62.5469 37.1607 62.6205 36.8929C62.9026 35.8058 63.4912 33.1276 62.9394 31.7255C62.7677 31.3159 62.5224 31.0481 62.179 30.922C62.0441 30.8748 61.8969 30.8433 61.762 30.8433C61.529 30.8433 61.3083 30.9063 61.0875 31.0481C60.7564 31.2686 59.4687 32.2926 59.4319 33.4427C59.4074 34.0414 59.7508 34.6243 60.4498 35.1599C60.9404 35.538 61.3573 36.0894 61.6885 36.5305C61.7051 36.5519 61.722 36.5737 61.7392 36.5958C61.9998 36.9316 62.31 37.3311 62.4366 37.2867Z" fill="#848484"/>
<path d="M171.703 27.541C166.395 29.5435 162.713 35.3853 160.781 44.9009C159.892 49.2973 157.669 52.0677 154.181 53.1367C147.65 55.1542 137.201 50.5169 129.905 42.3413C124.055 35.8069 121.707 28.625 123.458 22.6477C125.084 17.1069 125.542 11.0844 124.833 4.77582C124.681 3.45086 124.472 2.09579 124.222 0.740723H123.791C124.055 2.1259 124.264 3.48097 124.417 4.83604C125.125 11.0844 124.667 17.0467 123.069 22.5272C121.262 28.6702 123.652 36.0026 129.614 42.6726C133.087 46.5571 137.451 49.8243 141.911 51.872C145.079 53.3324 148.136 54.0702 150.832 54.0702C152.083 54.0702 153.25 53.9046 154.306 53.5884C157.891 52.4893 160.281 49.5232 161.198 45.0063C163.102 35.6563 166.673 29.9349 171.842 27.9776C179.207 25.1922 188.642 30.4318 196.34 36.4995V35.9424C188.587 29.8747 179.152 24.7405 171.703 27.541Z" fill="#848484"/>
<path d="M174.036 15.6918C169.516 16.6765 166.074 19.9333 163.821 25.3411C160.701 32.8243 156.741 38.0655 152.039 40.9436C147.002 44.0187 142.524 43.5037 139.656 42.5342C136.185 41.3526 133.191 38.8684 131.218 35.5358C129.175 32.0972 128.419 28.0375 129.105 24.1142C130.518 15.9645 131.05 8.10267 130.714 0.740723H130.294C130.63 8.07238 130.098 15.9039 128.699 24.0233C128 28.0678 128.769 32.2335 130.868 35.763C132.897 39.1865 135.975 41.7313 139.544 42.9432C141.041 43.4582 142.58 43.7006 144.119 43.7006C146.876 43.7006 149.66 42.8977 152.249 41.3223C157.035 38.3988 161.05 33.0818 164.213 25.5078C166.41 20.2363 169.74 17.0855 174.12 16.116C177.674 15.3434 181.942 16.0402 186.461 18.161C190.001 19.8121 193.584 22.2964 196.34 25.0079V24.402C190.645 18.979 181.466 14.071 174.036 15.6918Z" fill="#848484"/>
<path d="M105.163 208.653C104.808 208.245 104.358 208.081 103.839 208.147C102.077 208.375 99.6744 211.396 97.8585 214.058H98.391C100.125 211.543 102.337 208.849 103.88 208.637C104.276 208.588 104.603 208.702 104.876 209.012C105.819 210.074 106.87 212.017 107.826 214.058H108.304C107.307 211.903 106.187 209.796 105.163 208.653Z" fill="#848484"/>
<path d="M192.206 15.3235C187.46 14.8307 181.725 12.7981 176.464 9.71828C170.367 6.14574 165.273 11.4738 159.385 17.6333C154.903 22.33 149.823 27.6426 143.532 29.5675C141.318 30.245 139.606 29.8908 138.423 28.5511C134.401 23.9469 137.101 8.87134 138.938 0.740723H138.507C137.95 3.21995 137.31 6.31512 136.809 9.54889C135.264 19.6044 135.709 26.1027 138.131 28.8745C139.008 29.8754 140.135 30.3682 141.499 30.3682C142.167 30.3682 142.877 30.245 143.657 30.014C150.032 28.0738 155.168 22.715 159.678 17.9721C165.454 11.9357 170.437 6.7155 176.269 10.1341C181.642 13.2908 187.293 15.2927 192.165 15.7854C193.682 15.9394 195.074 15.9394 196.34 15.7854V15.3235C195.102 15.4775 193.71 15.4775 192.206 15.3235Z" fill="#848484"/>
<path d="M144.838 20.6939C145.063 20.7241 145.274 20.7393 145.499 20.7393C149.239 20.7393 153.416 16.3187 155.652 13.5634C158.619 9.93007 161.502 5.20671 163.513 0.740723H163.049C161.066 5.10074 158.24 9.70298 155.343 13.2606C151.349 18.1657 147.636 20.6484 144.894 20.2397C143.755 20.0732 143.01 19.513 142.616 18.5593C141.139 14.9259 145.133 6.47838 148.269 0.755862H147.777C147.158 1.90642 146.497 3.14782 145.864 4.43463C142.419 11.4137 141.195 16.2279 142.236 18.7409C142.686 19.8461 143.558 20.4971 144.838 20.6939Z" fill="#848484"/>
<path d="M149.866 11.0946C149.953 11.1103 150.055 11.1103 150.156 11.1103C151.024 11.1103 152.399 10.5447 154.31 8.17228C155.728 6.4283 157.089 4.05586 157.885 1.98193C158.015 1.63628 158.16 1.21207 158.29 0.756434H157.842C157.74 1.08638 157.625 1.43203 157.494 1.7934C155.859 6.06694 152.124 10.9532 149.939 10.6076C149.533 10.5447 149.273 10.3562 149.128 10.0105C148.39 8.188 151.386 2.79894 152.674 0.740723H152.153C151.227 2.26474 147.854 7.99946 148.737 10.1991C148.926 10.7176 149.316 11.0161 149.866 11.0946Z" fill="#848484"/>
<path d="M189.476 10.5222C186.755 10.1353 183.706 8.83522 180.397 6.65295C177.511 4.74928 174.927 2.48963 173.095 0.740723H172.466C174.339 2.55154 177.088 5.01239 180.191 7.05536C183.555 9.26857 186.659 10.5996 189.435 10.9865C190.009 11.0639 190.57 11.1103 191.131 11.1103C193.059 11.1103 194.795 10.6151 196.34 9.62455V9.08285C194.358 10.3984 192.074 10.8937 189.476 10.5222Z" fill="#848484"/>
<path fill-rule="evenodd" clip-rule="evenodd" d="M106.364 136.872C109.035 135.149 113.666 135.102 120.128 136.749C124.758 137.934 128.703 139.595 129.025 139.734C133.179 140.58 133.697 141.334 133.669 141.888C133.641 142.642 132.522 143.673 124.073 145.058C118.827 145.92 112.575 146.628 108.014 147.135L106.881 147.258C106.056 147.351 105.315 147.397 104.643 147.397C102.083 147.397 100.587 146.72 100.195 145.397C99.4814 143.011 102.769 139.195 106.364 136.872ZM124.003 144.612C132.298 143.242 133.221 142.242 133.235 141.873C133.235 141.688 132.942 141.011 128.927 140.196L128.885 140.18C128.883 140.179 128.87 140.174 128.848 140.165C128.431 139.99 124.559 138.364 120.044 137.21C117.596 136.58 114.673 136.026 112.015 136.026C109.931 136.026 108 136.38 106.588 137.287C104.811 138.441 103.146 139.934 102.013 141.396C100.824 142.95 100.321 144.319 100.601 145.273C101.034 146.689 103.188 147.228 106.839 146.812L107.972 146.689C108.309 146.65 108.656 146.611 109.01 146.57C113.449 146.063 119.158 145.41 124.003 144.612Z" fill="#848484"/>
<path fill-rule="evenodd" clip-rule="evenodd" d="M109.802 40.199C109.686 39.0427 111.266 37.684 114.485 36.1375C116.601 35.1257 119.124 35.4437 120.878 36.9613C122.27 38.161 123.778 39.8665 123.024 41.283C122.444 42.3815 120.603 42.9596 118.152 42.9596C116.514 42.9596 114.6 42.6994 112.6 42.1647C110.788 41.6877 109.874 41.0373 109.802 40.199ZM112.716 41.7455C117.341 42.9885 121.791 42.685 122.647 41.0806C123.125 40.1556 122.429 38.8547 120.603 37.2938C119.588 36.441 118.326 35.9929 117.051 35.9929C116.239 35.9929 115.427 36.1664 114.673 36.5277C111.73 37.9442 110.15 39.2305 110.237 40.1556C110.295 40.7771 111.15 41.3263 112.716 41.7455Z" fill="#848484"/>
<path d="M154.034 208.625C146.718 207.626 142.421 200.934 137 192.456C135.484 190.094 133.911 187.642 132.142 185.098C127.704 178.725 122.733 174.895 117.383 173.714C111.302 172.382 104.618 174.44 97.5261 179.83C89.7323 185.749 78.4559 195.272 68.7804 204.113C66.0701 206.596 62.5314 209.896 59.0628 213.318H59.6807C62.4331 210.623 65.5646 207.656 69.0472 204.461C78.7087 195.635 89.971 186.113 97.7507 180.209C110.965 170.171 122.424 171.912 131.791 185.386C133.546 187.914 135.119 190.367 136.635 192.729C142.126 201.297 146.465 208.049 153.964 209.079C159.286 209.806 162.334 211.229 163.064 213.318H163.513C162.825 210.971 159.637 209.397 154.034 208.625Z" fill="#848484"/>
<path d="M113.848 191.22C111.251 189.932 108.584 190.087 105.918 191.67C99.3075 195.58 93.3153 200.203 88.1065 205.432C84.9043 208.644 82.4854 211.591 80.6988 214.058H81.2485C85.3166 208.519 93.1779 199.722 106.097 192.073C108.653 190.568 111.196 190.413 113.669 191.639C118.658 194.106 122.561 201.708 124.953 207.666C125.874 209.931 126.643 212.15 127.262 214.058H127.702C127.069 212.103 126.286 209.823 125.338 207.48C121.819 198.714 117.944 193.237 113.848 191.22Z" fill="#848484"/>
<path fill-rule="evenodd" clip-rule="evenodd" d="M48.1604 159.881C47.6416 158.781 47.7305 157.191 49.1833 156.305C51.3624 154.976 54.342 155.587 55.5131 156.626C56.0171 157.069 56.195 157.589 56.0023 158.078C55.6169 159.117 54.1345 160.186 51.6144 161.241C51.2438 161.394 50.8732 161.47 50.5323 161.47C49.4353 161.47 48.5755 160.736 48.1604 159.881ZM51.4364 160.813C53.8082 159.82 55.2462 158.811 55.5871 157.91C55.7353 157.528 55.4685 157.176 55.2017 156.978C54.5791 156.427 53.3487 156.015 52.0442 156.015C51.1399 156.015 50.206 156.214 49.3907 156.703C48.1751 157.436 48.0862 158.719 48.5457 159.667C49.0053 160.614 50.1023 161.378 51.4364 160.813Z" fill="#848484"/>
<path fill-rule="evenodd" clip-rule="evenodd" d="M70.9423 197.904C70.3935 199.376 64.4417 202.587 62.4718 203.435C62.0496 203.613 61.6416 203.702 61.2617 203.688C60.0516 203.688 59.1089 202.87 58.6446 201.888C58.0536 200.64 58.1662 198.841 59.7702 197.844C62.5843 196.09 69.3523 195.807 70.7031 197.027C70.9845 197.264 71.0689 197.577 70.9423 197.904ZM59.9813 198.231C58.6023 199.093 58.5038 200.595 59.0245 201.695C59.5451 202.795 60.7833 203.687 62.3029 203.018C64.7934 201.933 70.098 198.9 70.5342 197.74C70.5764 197.636 70.5905 197.517 70.4216 197.369C69.2116 196.283 62.5562 196.625 59.9813 198.231Z" fill="#848484"/>
<path d="M12.7186 10.6213C15.0769 9.02491 14.3053 3.94797 13.5192 0.740723H13.068C13.2718 1.54613 13.461 2.48098 13.6211 3.45897C13.9996 5.94711 14.1161 9.15435 12.4857 10.2762C10.5641 11.5706 6.66264 9.87347 0.868744 5.22799V5.77452C5.33791 9.32694 8.72981 11.1103 11.0008 11.1103C11.6704 11.1103 12.2382 10.9378 12.7186 10.6213Z" fill="#848484"/>
<path fill-rule="evenodd" clip-rule="evenodd" d="M95.3148 111.844C93.2821 111.844 91.1111 111.628 89.5623 111.009C87.3498 110.146 87.2254 108.822 87.5434 107.873C87.8614 106.851 88.5114 106.103 89.4932 105.657C91.2493 104.865 94.015 105.053 97.7071 106.232C100.431 107.11 102.685 108.218 102.713 108.232C103.874 108.837 103.916 109.412 103.764 109.786C103.308 110.865 100.431 111.499 97.9007 111.729C97.1125 111.801 96.2275 111.844 95.3148 111.844ZM89.6451 106.06C88.7739 106.448 88.1931 107.11 87.9166 108.017C87.5709 109.125 88.1655 110.002 89.7142 110.621C91.5395 111.34 94.6647 111.599 97.859 111.312C100.804 111.038 103.072 110.348 103.376 109.628C103.529 109.254 102.989 108.88 102.519 108.635C102.381 108.563 96.3794 105.628 92.065 105.628C91.1662 105.628 90.3365 105.743 89.6451 106.06Z" fill="#848484"/>
</g>
</svg>
